<svg width="124" height="48" viewBox="0 0 124 48" fill="none" xmlns="http://www.w3.org/2000/svg">
<path d="M51.713 46.3392C51.713 45.5777 52.3131 44.9819 53.0819 44.9819C53.8507 44.9819 54.4509 45.5777 54.4509 46.3392C54.4509 47.1008 53.8507 47.6954 53.0819 47.6954C52.3131 47.6954 51.713 47.1008 51.713 46.3392Z" fill="#FF2E70"/>
<path d="M60.8184 13.5058C60.8184 9.78032 63.0325 7.49785 66.3706 7.49785C69.7087 7.49785 71.9227 9.77919 71.9227 13.5058C71.9227 17.2325 69.7201 19.5251 66.3706 19.5251C63.0211 19.5251 60.8184 17.2426 60.8184 13.5058ZM69.4752 13.5058C69.4752 10.9379 68.2509 9.45989 66.3706 9.45989C64.4902 9.45989 63.2659 10.9368 63.2659 13.5058C63.2659 16.0749 64.4902 17.563 66.3706 17.563C68.2509 17.563 69.4752 16.0861 69.4752 13.5058Z" fill="#FF2E70"/>
<path d="M82.9256 19.3051H80.6216V17.343H80.5658C79.9201 18.7319 78.7299 19.5138 76.9384 19.5138C74.3907 19.5138 72.8327 17.8711 72.8327 15.2151V7.70772H75.2369V14.7514C75.2369 16.5149 76.0831 17.4638 77.7402 17.4638C79.3973 17.4638 80.5225 16.2734 80.5225 14.466V7.70885H82.9256V19.3051Z" fill="#FF2E70"/>
<path d="M84.2957 7.70771H86.5883V9.68104H86.6441C87.0336 8.32487 88.0791 7.52043 89.4595 7.52043C89.8046 7.52043 90.1052 7.57571 90.2829 7.60843V9.82432C90.0938 9.7476 89.6713 9.69232 89.2032 9.69232C87.6566 9.69232 86.6999 10.7179 86.6999 12.3595V19.3039H84.2968V7.70771H84.2957Z" fill="#FF2E70"/>
<path d="M65.0255 29.9062C64.6918 32.0228 62.6669 33.5324 59.9848 33.5324C56.5464 33.5324 54.4657 31.2285 54.4657 27.5684C54.4657 23.9084 56.5795 21.5052 59.8845 21.5052C63.1896 21.5052 65.1588 23.7763 65.1588 27.292V28.1077H56.8915V28.251C56.8915 30.2683 58.1158 31.6019 60.0406 31.6019C61.4095 31.6019 62.422 30.9182 62.7443 29.905H65.0255V29.9062ZM56.9029 26.4447H62.7557C62.6999 24.6699 61.5655 23.4243 59.8845 23.4243C58.2035 23.4243 57.0248 24.6925 56.9029 26.4447Z" fill="#FF2E70"/>
<path d="M69.58 29.0464L66.9867 33.3124H64.3832L68.2441 27.5255L64.439 21.7161H67.1314L69.6905 25.9155H69.736L72.261 21.7161H74.91L71.0708 27.4488L74.8656 33.3124H72.2165L69.6358 29.0464H69.58Z" fill="#FF2E70"/>
<path d="M86.8047 27.5143C86.8047 31.1845 84.8572 33.5109 81.92 33.5109C80.2401 33.5109 78.9042 32.6952 78.2368 31.4056H78.181V35.1131H75.7779V21.7161H78.1035V23.712H78.1479C78.8381 22.3784 80.1843 21.5289 81.8755 21.5289C84.8469 21.5289 86.8047 23.844 86.8047 27.5143ZM84.3344 27.5143C84.3344 25.0896 83.1431 23.5349 81.2412 23.5349C79.3392 23.5349 78.1696 25.1224 78.1696 27.5143C78.1696 29.9062 79.3939 31.4936 81.2412 31.4936C83.0885 31.4936 84.3344 29.9502 84.3344 27.5143Z" fill="#FF2E70"/>
<path d="M98.1231 29.9062C97.7894 32.0228 95.7644 33.5324 93.0823 33.5324C89.644 33.5324 87.5632 31.2285 87.5632 27.5684C87.5632 23.9084 89.677 21.5052 92.9821 21.5052C96.2872 21.5052 98.2563 23.7763 98.2563 27.292V28.1077H89.9891V28.251C89.9891 30.2683 91.2134 31.6019 93.1381 31.6019C94.5071 31.6019 95.5195 30.9182 95.8419 29.905H98.1231V29.9062ZM90.0004 26.4447H95.8532C95.7974 24.6699 94.6631 23.4243 92.9821 23.4243C91.3011 23.4243 90.1223 24.6925 90.0004 26.4447Z" fill="#FF2E70"/>
<path d="M112.396 27.5978C112.396 23.8722 114.61 21.5898 117.948 21.5898C121.286 21.5898 123.5 23.8722 123.5 27.5978C123.5 31.3233 121.296 33.617 117.948 33.617C114.6 33.617 112.396 31.3345 112.396 27.5978ZM121.053 27.5978C121.053 25.0298 119.828 23.5518 117.948 23.5518C116.068 23.5518 114.843 25.0287 114.843 27.5978C114.843 30.1668 116.068 31.6538 117.948 31.6538C119.828 31.6538 121.053 30.1769 121.053 27.5978Z" fill="#FF2E70"/>
<path d="M62.7443 39.7457C62.4995 38.5114 61.5644 37.5298 59.9962 37.5298C58.1375 37.5298 56.9132 39.062 56.9132 41.5532C56.9132 44.0444 58.1477 45.5765 60.0178 45.5765C61.4972 45.5765 62.4664 44.7721 62.7443 43.4272H65.0586C64.8023 45.8958 62.8104 47.5713 59.9962 47.5713C56.6466 47.5713 54.4657 45.3001 54.4657 41.5532C54.4657 37.8062 56.6466 35.5452 59.9734 35.5452C62.9892 35.5452 64.8251 37.4632 65.0369 39.7446H62.7443V39.7457Z" fill="#FF2E70"/>
<path d="M65.7009 41.5543C65.7009 37.8288 67.9149 35.5463 71.253 35.5463C74.5911 35.5463 76.8052 37.8288 76.8052 41.5543C76.8052 45.2798 74.6025 47.5735 71.253 47.5735C67.9035 47.5735 65.7009 45.2911 65.7009 41.5543ZM74.3577 41.5543C74.3577 38.9864 73.1333 37.5084 71.253 37.5084C69.3727 37.5084 68.1484 38.9852 68.1484 41.5543C68.1484 44.1233 69.3727 45.6104 71.253 45.6104C73.1333 45.6104 74.3577 44.1335 74.3577 41.5543Z" fill="#FF2E70"/>
<path d="M77.6741 35.7562H79.9667V37.7069H80.0226C80.5453 36.4173 81.7696 35.5576 83.3493 35.5576C84.9289 35.5576 86.1532 36.3846 86.6202 37.8288H86.676C87.2762 36.4173 88.6565 35.5576 90.3262 35.5576C92.6404 35.5576 94.154 37.0785 94.154 39.3824V47.3524H91.7395V39.9556C91.7395 38.4561 90.9264 37.5964 89.5027 37.5964C88.0791 37.5964 87.0883 38.6434 87.0883 40.1101V47.3524H84.7296V39.7795C84.7296 38.4459 83.8732 37.5964 82.5156 37.5964C81.092 37.5964 80.0784 38.6987 80.0784 40.1868V47.3524H77.6753V35.7562H77.6741Z" fill="#FF2E70"/>
<path d="M60.7251 9.63251V7.7472H58.4996V5.46812H56.8938C56.7104 6.74869 56.1159 7.84648 54.3825 8.05521V9.63251H56.0852V16.2475C56.0852 18.4848 57.0088 19.3784 59.3789 19.3784C59.913 19.3784 60.4472 19.3344 60.7137 19.2678V17.3825C60.5576 17.4152 60.1681 17.4378 59.9233 17.4378C58.9438 17.4378 58.4985 16.9865 58.4985 15.9823V9.63251H60.7251Z" fill="#FF2E70"/>
<path d="M101.951 24.6304C101.951 24.6304 102.14 24.1577 102.876 23.8474C103.081 23.7549 103.305 23.6883 103.549 23.6511C103.958 23.5778 104.47 23.5575 105.1 23.624V21.5311C104.922 21.4984 104.622 21.4431 104.277 21.4431C102.897 21.4431 101.851 22.2476 101.461 23.6037H101.405V21.6304H99.1139V33.2266H101.517V26.2822C101.517 25.6278 101.671 25.0738 101.952 24.6406V24.6304H101.951Z" fill="#FF2E70"/>
<path d="M112.436 23.8576V21.9723H110.21V19.6932H108.604C108.421 20.9738 107.826 22.0716 106.093 22.2803V23.8576H107.796V30.4726C107.796 32.7099 108.719 33.6035 111.089 33.6035C111.624 33.6035 112.158 33.5595 112.424 33.4929V31.6076C112.268 31.6403 111.879 31.6629 111.634 31.6629C110.654 31.6629 110.21 31.2116 110.21 30.2074V23.8576H112.436Z" fill="#FF2E70"/>
<path d="M38.053 38.9796C40.0142 42.0485 42.5403 45.0756 45.8226 47.9786C45.8226 47.9786 36.6772 48.5111 26.8531 44.2655C27.8815 44.0929 28.9111 43.874 29.9338 43.5524C33.0361 42.5776 35.7627 40.9879 38.053 38.9807" fill="#FF2E70"/>
<path d="M31.8551 20.9692C29.6923 22.3446 25.2745 24.8392 20.1131 26.8328C15.7568 28.515 11.4836 29.3025 9.80374 29.5699C14.4015 37.1563 20.7565 41.631 26.8531 44.2655C27.8815 44.0929 28.9111 43.874 29.9338 43.5524C33.0361 42.5776 35.7627 40.9879 38.0518 38.9807C34.2046 32.9604 32.5589 26.7346 31.854 20.9692" fill="#D6006D"/>
<path d="M12.8583 33.8776C12.7626 33.7625 12.6681 33.6475 12.5735 33.5301C12.6681 33.6475 12.7626 33.7614 12.8583 33.8776Z" fill="#A66AFE"/>
<path d="M13.8708 35.0533C13.7671 34.9382 13.6635 34.8231 13.5598 34.7058C13.6623 34.8231 13.7671 34.9371 13.8708 35.0533Z" fill="#A66AFE"/>
<path d="M17.013 38.1368C16.9048 38.0432 16.7954 37.9495 16.6873 37.8536C16.7954 37.9495 16.9036 38.0432 17.013 38.1368Z" fill="#A66AFE"/>
<path d="M16.4709 37.6573C16.3638 37.5614 16.2568 37.4655 16.1508 37.3673C16.2568 37.4655 16.3638 37.5603 16.4709 37.6573Z" fill="#A66AFE"/>
<path d="M15.9367 37.1654C15.8308 37.0661 15.726 36.9679 15.6212 36.8664C15.726 36.9668 15.8319 37.0661 15.9367 37.1654Z" fill="#A66AFE"/>
<path d="M15.4083 36.6588C15.3046 36.5572 15.1999 36.4546 15.0962 36.3508C15.1999 36.4546 15.3046 36.5561 15.4083 36.6588Z" fill="#A66AFE"/>
<path d="M14.8889 36.1387C14.7853 36.0326 14.6805 35.9265 14.5769 35.8182C14.6805 35.9265 14.7841 36.0315 14.8889 36.1387Z" fill="#A66AFE"/>
<path d="M26.8531 44.2655C26.6629 44.1831 26.4715 44.0996 26.2813 44.0128C26.4727 44.0985 26.6629 44.1831 26.8531 44.2655Z" fill="#A66AFE"/>
<path d="M9.83221 29.6151C9.9108 29.746 9.9928 29.8723 10.0725 30.0009C9.9928 29.8723 9.91194 29.7448 9.83221 29.6151Z" fill="#A66AFE"/>
<path d="M10.5167 30.6948C10.4279 30.5594 10.339 30.4263 10.2525 30.2886C10.3402 30.4252 10.429 30.5594 10.5167 30.6948Z" fill="#A66AFE"/>
<path d="M10.9643 31.3616C10.8755 31.2319 10.7866 31.1032 10.6978 30.9724C10.7855 31.1044 10.8755 31.2319 10.9643 31.3616Z" fill="#A66AFE"/>
<path d="M11.9016 32.6648C11.8071 32.5384 11.7114 32.4143 11.618 32.2857C11.7114 32.4132 11.8071 32.5384 11.9016 32.6648Z" fill="#A66AFE"/>
<path d="M11.4267 32.0194C11.3356 31.893 11.2445 31.7667 11.1533 31.6392C11.2433 31.7678 11.3344 31.893 11.4267 32.0194Z" fill="#A66AFE"/>
<path d="M14.3776 35.6061C14.2728 35.4944 14.168 35.385 14.0655 35.271C14.1691 35.3839 14.2739 35.4944 14.3776 35.6061Z" fill="#A66AFE"/>
<path d="M23.1892 42.4569C23.0731 42.3915 22.9558 42.3271 22.8396 42.2606C22.9558 42.3271 23.0719 42.3915 23.1892 42.4569Z" fill="#A66AFE"/>
<path d="M17.2282 38.3241C17.3353 38.4155 17.4423 38.5035 17.5494 38.5926C17.4423 38.5035 17.3341 38.4143 17.2282 38.3241Z" fill="#A66AFE"/>
<path d="M22.6072 42.1252C22.4945 42.0597 22.3806 41.9943 22.2679 41.9266C22.3806 41.9943 22.4945 42.0586 22.6072 42.1252Z" fill="#A66AFE"/>
<path d="M26.139 43.9473C25.9966 43.8819 25.8531 43.8176 25.7096 43.7499C25.8531 43.8164 25.9966 43.8819 26.139 43.9473Z" fill="#A66AFE"/>
<path d="M24.5616 43.1891C24.6971 43.258 24.8327 43.3245 24.9682 43.3922C24.8327 43.3257 24.6971 43.258 24.5616 43.1891Z" fill="#A66AFE"/>
<path d="M22.0424 41.789C21.9273 41.7201 21.8123 41.6502 21.6984 41.5802C21.8134 41.6513 21.9285 41.7201 22.0424 41.789Z" fill="#A66AFE"/>
<path d="M21.4661 41.4336C21.3533 41.3625 21.2417 41.2925 21.1301 41.2203C21.2417 41.2925 21.3545 41.3625 21.4661 41.4336Z" fill="#A66AFE"/>
<path d="M18.0938 39.0371C17.9867 38.9514 17.8808 38.8679 17.7749 38.781C17.8808 38.8679 17.9879 38.9525 18.0938 39.0371Z" fill="#A66AFE"/>
<path d="M19.1997 39.8867C19.0926 39.8078 18.9855 39.7299 18.8785 39.6487C18.9855 39.7288 19.0926 39.8078 19.1997 39.8867Z" fill="#A66AFE"/>
<path d="M20.3226 40.6844C20.2144 40.6111 20.1062 40.5377 19.998 40.4621C20.1062 40.5377 20.2144 40.6099 20.3226 40.6844Z" fill="#A66AFE"/>
<path d="M19.7611 40.2929C19.6529 40.2162 19.5448 40.1406 19.4377 40.0616C19.5459 40.1395 19.6541 40.2162 19.7611 40.2929Z" fill="#A66AFE"/>
<path d="M26.139 43.9473C25.9966 43.8819 25.8531 43.8176 25.7096 43.7499C25.6481 43.7205 25.5855 43.6901 25.5228 43.6607C25.3941 43.5998 25.2643 43.5389 25.1356 43.4757C25.0798 43.4486 25.024 43.4204 24.9693 43.3934C24.8338 43.3257 24.6983 43.2591 24.5627 43.1903C24.4819 43.1496 24.401 43.1056 24.319 43.0639C24.2085 43.0064 24.0981 42.9511 23.9887 42.8924C23.9079 42.8495 23.827 42.8055 23.7473 42.7615C23.6368 42.7017 23.5252 42.6431 23.4147 42.5821C23.3407 42.5415 23.2655 42.4986 23.1915 42.4569C23.0753 42.3915 22.958 42.3271 22.8419 42.2606C22.7644 42.2166 22.687 42.1692 22.6084 42.1252C22.4956 42.0597 22.3817 41.9943 22.269 41.9266C22.1938 41.8815 22.1187 41.8352 22.0424 41.789C21.9273 41.719 21.8123 41.6502 21.6984 41.5791C21.621 41.5317 21.5435 41.481 21.4661 41.4324C21.3533 41.3614 21.2417 41.2914 21.129 41.2192C21.0481 41.1673 20.9672 41.1131 20.8875 41.0601C20.7793 40.989 20.6711 40.9191 20.5629 40.8469C20.4832 40.7927 20.4035 40.7374 20.3226 40.6833C20.2144 40.6099 20.1062 40.5366 19.998 40.461C19.9183 40.4057 19.8397 40.3482 19.7611 40.2918C19.6529 40.215 19.5447 40.1395 19.4377 40.0605C19.358 40.0029 19.2794 39.9431 19.2008 39.8856C19.0937 39.8066 18.9867 39.7288 18.8796 39.6475C18.801 39.5877 18.7225 39.5268 18.6439 39.4659C18.538 39.3847 18.4309 39.3034 18.325 39.2199C18.2475 39.159 18.1712 39.097 18.0949 39.0349C17.9879 38.9491 17.882 38.8657 17.7749 38.7788C17.6997 38.7167 17.6257 38.6535 17.5505 38.5915C17.4435 38.5024 17.3353 38.4132 17.2294 38.323C17.1565 38.262 17.0859 38.1977 17.0141 38.1357C16.9059 38.042 16.7966 37.9484 16.6884 37.8525C16.6155 37.7882 16.5437 37.7216 16.472 37.6562C16.3649 37.5603 16.2579 37.4644 16.152 37.3662C16.0802 37.2996 16.0085 37.2308 15.9379 37.1642C15.8319 37.065 15.7272 36.9668 15.6212 36.8664C15.5495 36.7976 15.48 36.7265 15.4094 36.6577C15.3058 36.555 15.201 36.4534 15.0973 36.3496C15.0279 36.2797 14.9595 36.2075 14.8901 36.1375C14.7864 36.0315 14.6816 35.9254 14.578 35.8171C14.5108 35.7472 14.4448 35.6749 14.3787 35.6039C14.2739 35.4922 14.1691 35.3827 14.0666 35.2688C14.0006 35.1977 13.9368 35.1232 13.8719 35.051C13.7683 34.9359 13.6646 34.822 13.561 34.7035C13.4949 34.6291 13.43 34.5512 13.3651 34.4756C13.2649 34.3594 13.1635 34.2432 13.0644 34.1247C12.9961 34.0424 12.9277 33.9589 12.8594 33.8754C12.7649 33.7603 12.6692 33.6452 12.5747 33.5279C12.5075 33.4444 12.4426 33.3598 12.3754 33.2751C12.2808 33.1555 12.1852 33.036 12.0918 32.9141C12.028 32.8317 11.9654 32.746 11.9027 32.6625C11.8082 32.5373 11.7125 32.412 11.6191 32.2834C11.5542 32.1954 11.4916 32.1063 11.4278 32.0171C11.3367 31.8908 11.2456 31.7644 11.1545 31.6358C11.0907 31.5444 11.0281 31.4508 10.9654 31.3594C10.8766 31.2296 10.7866 31.101 10.6989 30.9701C10.6386 30.8787 10.5782 30.7851 10.5178 30.6926C10.429 30.5572 10.3402 30.424 10.2536 30.2864C10.1932 30.1916 10.134 30.0935 10.0737 29.9976C9.99394 29.8689 9.91194 29.7414 9.83336 29.6117C7.72981 29.9897 5.58526 30.265 3.40541 30.424C2.97605 30.4556 2.54896 30.4793 2.12073 30.5019C6.07157 40.3403 16.4492 46.0098 26.8553 44.2621C26.6651 44.1797 26.4738 44.0963 26.2836 44.0094C26.2358 43.9879 26.1879 43.9654 26.1401 43.9439" fill="#FF2E70"/>
<path d="M30.3666 21.8933C30.1308 22.0355 29.8951 22.1787 29.6582 22.3175C29.8746 22.1957 30.1274 22.0456 30.3745 21.8955L30.3654 21.8933H30.3666Z" fill="#A66AFE"/>
<path d="M43.0619 11.7209L43.0607 11.7175L43.0619 11.7209Z" fill="#A66AFE"/>
<path d="M2.14921 30.5854H2.15376C2.14237 30.5594 2.12985 30.5323 2.1196 30.5053C2.54668 30.4827 2.97491 30.459 3.40427 30.4274C5.58526 30.2683 7.72867 29.993 9.83221 29.6151L9.67619 29.3702C3.79491 20.29 3.70266 10.7551 3.70266 10.7438C0.508054 16.0489 -0.4714 22.6312 1.56267 28.9844C1.73806 29.5305 1.93737 30.0619 2.14921 30.5854Z" fill="#A66AFE"/>
<path d="M44.6404 15.4453C44.219 14.1309 43.686 12.883 43.0562 11.7074C39.7249 15.2151 35.9643 18.3269 31.8528 20.967C31.854 20.9771 31.8562 20.9918 31.8585 21.0076H31.8597C32.5646 26.773 34.2058 32.9604 38.0541 38.9807C44.5504 33.2932 47.4307 24.16 44.6404 15.4453Z" fill="#FF2E70"/>
<path d="M9.80375 29.5688C11.4836 29.3025 15.7568 28.515 20.1131 26.8328C25.2734 24.8392 29.6912 22.3457 31.854 20.9704C31.8392 20.8677 31.7993 20.5924 31.7515 20.2009L31.7663 20.1964C30.6558 9.98002 32.9724 2.12397 32.9724 2.12397C13.0963 -5.73434 3.70267 10.7427 3.70267 10.7427C3.70267 10.7427 3.7915 20.2844 9.67619 29.3691L9.83221 29.6151C9.8231 29.6004 9.81285 29.5846 9.80374 29.5699" fill="#6C58FE"/>
<path d="M32.9712 2.12848C32.9405 2.23454 30.6627 10.0488 31.7663 20.1953L31.7515 20.1998C31.7799 20.4344 31.8061 20.6263 31.8255 20.765C31.838 20.8587 31.8483 20.9264 31.854 20.9659C35.9643 18.3269 39.7249 15.2151 43.0562 11.7074C40.7681 7.43242 37.1886 4.15822 32.9724 2.12848" fill="#A46AFE"/>
</svg>
