<svg width="65" height="64" viewBox="0 0 65 64" fill="none" xmlns="http://www.w3.org/2000/svg">
<g clip-path="url(#clip0_337_3940)">
<path d="M61.9682 31.9998C61.9682 15.7203 48.7772 2.53271 32.5136 2.53271H32.4956C16.223 2.53271 3.03198 15.7293 3.03198 31.9998C3.03198 48.2702 16.223 61.4668 32.5046 61.4668C48.7862 61.4668 61.9682 48.2792 61.9772 31.9998H61.9682Z" fill="#E6C436"/>
<path d="M54.4897 10.0146C50.2368 5.75094 38.5235 0.901367 32.5046 0.901367C26.4857 0.901367 14.7634 5.75094 10.5105 10.0146C6.25766 14.2693 1.40112 25.9786 1.40112 32C1.40112 38.0214 6.25766 49.7307 10.5105 53.9943C14.7634 58.249 26.4857 63.0986 32.5046 63.0986C38.5235 63.0986 50.2368 58.249 54.4987 53.9943C58.7515 49.7397 63.6081 38.0214 63.6081 32C63.6081 25.9786 58.7515 14.2693 54.4987 10.0146H54.4897ZM61.3465 32C61.3465 37.5797 56.8414 48.4597 52.8949 52.3988C52.6606 52.6332 52.3903 52.8766 52.111 53.1109C52.0929 53.129 52.0749 53.147 52.0479 53.165C51.7596 53.4084 51.4532 53.6428 51.1288 53.8862C51.1198 53.8952 51.1018 53.9042 51.0838 53.9132C50.426 54.3909 49.6872 54.8777 48.8853 55.3464C48.8402 55.3735 48.8042 55.3915 48.7591 55.4186C48.3717 55.6439 47.9843 55.8693 47.5698 56.0856C47.5247 56.1126 47.4797 56.1307 47.4346 56.1577C47.0562 56.356 46.6688 56.5543 46.2813 56.7526C46.2273 56.7797 46.1822 56.8067 46.1281 56.8338C45.7317 57.0231 45.3352 57.2124 44.9298 57.3926C44.8126 57.4467 44.6955 57.5008 44.5694 57.5549C44.1819 57.7262 43.7945 57.8974 43.407 58.0597C43.2809 58.1138 43.1548 58.1588 43.0286 58.2129C42.7223 58.3391 42.4159 58.4563 42.1096 58.5735C41.9654 58.6276 41.8302 58.6817 41.6861 58.7357C41.3797 58.8529 41.0644 58.9611 40.758 59.0693H40.749C37.6675 60.1509 34.6671 60.845 32.4776 60.845C30.2881 60.845 27.2876 60.1509 24.2061 59.0693H24.1971C23.8908 58.9611 23.5754 58.8529 23.2691 58.7357C23.1249 58.6817 22.9807 58.6276 22.8456 58.5735C22.5392 58.4563 22.2419 58.3391 21.9355 58.2129C21.8094 58.1588 21.6833 58.1138 21.5571 58.0597C21.1697 57.8974 20.7822 57.7262 20.3948 57.5549C20.2777 57.5008 20.1515 57.4467 20.0344 57.3926C19.6289 57.2124 19.2325 57.0231 18.845 56.8338C18.791 56.8067 18.7369 56.7797 18.6828 56.7526C18.2954 56.5633 17.917 56.365 17.5385 56.1667C17.4845 56.1397 17.4394 56.1126 17.3854 56.0856C16.9799 55.8693 16.5834 55.6439 16.205 55.4276C16.16 55.4005 16.1149 55.3735 16.0789 55.3464C15.286 54.8777 14.5471 54.4 13.8894 53.9222C13.8713 53.9132 13.8623 53.9042 13.8443 53.8862C13.5199 53.6518 13.2136 53.4084 12.9253 53.174C12.9072 53.156 12.8802 53.138 12.8622 53.12C12.5829 52.8856 12.3126 52.6422 12.0783 52.4078C8.1318 48.4597 3.62666 37.5887 3.62666 32.009C3.62666 26.4202 8.1318 15.5493 12.0783 11.6101C12.3126 11.3757 12.5829 11.1324 12.8622 10.898C12.8802 10.88 12.8982 10.8619 12.9253 10.8439C13.2136 10.6005 13.5199 10.3662 13.8443 10.1228C13.8533 10.1138 13.8713 10.1047 13.8894 10.0957C14.5471 9.61799 15.286 9.13123 16.0879 8.66249C16.1329 8.63545 16.169 8.61742 16.214 8.59038C16.6015 8.36503 16.9979 8.13968 17.4034 7.92334C17.4484 7.8963 17.4935 7.87827 17.5385 7.85123C17.917 7.65292 18.3044 7.45461 18.6918 7.2563C18.7459 7.22926 18.791 7.20221 18.845 7.17517C19.2325 6.98587 19.6379 6.79658 20.0434 6.6163C20.1605 6.56221 20.2777 6.50813 20.4038 6.45404C20.7912 6.28278 21.1787 6.11151 21.5661 5.94925C21.6923 5.89517 21.8184 5.8501 21.9355 5.79602C22.2419 5.66982 22.5482 5.55264 22.8546 5.43545C22.9988 5.38137 23.1339 5.32728 23.2781 5.2732C23.5844 5.15602 23.8998 5.04785 24.2061 4.93968H24.2151C27.2967 3.85799 30.2971 3.1639 32.4866 3.1639C34.6761 3.1639 37.6765 3.85799 40.758 4.93968H40.767C41.0734 5.04785 41.3887 5.16503 41.6951 5.2732C41.8392 5.32728 41.9834 5.38137 42.1186 5.43545C42.4249 5.55264 42.7223 5.66982 43.0286 5.79602C43.1548 5.8501 43.2809 5.89517 43.407 5.94925C43.7945 6.11151 44.1819 6.28278 44.5694 6.45404C44.6865 6.50813 44.8126 6.56221 44.9298 6.6163C45.3352 6.79658 45.7317 6.98587 46.1191 7.17517C46.1732 7.20221 46.2273 7.22926 46.2813 7.2563C46.6688 7.44559 47.0562 7.6439 47.4256 7.84221C47.4707 7.86925 47.5247 7.8963 47.5698 7.91433C47.9753 8.13066 48.3717 8.35602 48.7501 8.58137C48.7952 8.60841 48.8402 8.63545 48.8763 8.66249C49.6692 9.13123 50.408 9.60897 51.0658 10.0867C51.0838 10.0957 51.0928 10.1047 51.1108 10.1228C51.4352 10.3662 51.7415 10.6005 52.0299 10.8349C52.0479 10.8529 52.0749 10.8709 52.0929 10.889C52.3723 11.1233 52.6426 11.3667 52.8768 11.6011C56.8233 15.5493 61.3285 26.4202 61.3285 32H61.3465Z" fill="#D8B876"/>
<path d="M32.5045 64C26.3144 64 14.2587 59.0062 9.8797 54.6254C5.49169 50.2445 0.5 38.1927 0.5 32C0.5 25.8073 5.49169 13.7555 9.87069 9.37465C14.2497 4.9938 26.3054 0 32.5045 0C38.7036 0 50.7503 4.9938 55.1293 9.37465C59.5083 13.7555 64.5 25.8073 64.5 32C64.5 38.1927 59.5083 50.2445 55.1293 54.6254C50.7503 59.0062 38.6946 64 32.5045 64ZM32.5045 0.901408C26.4856 0.901408 14.7723 5.75099 10.5104 10.0146C6.25757 14.2693 1.40103 25.9786 1.40103 32C1.40103 38.0214 6.25757 49.7307 10.5104 53.9944C14.7633 58.249 26.4856 63.0986 32.5045 63.0986C38.5234 63.0986 50.2367 58.249 54.4986 53.9944C58.7514 49.7397 63.608 38.0214 63.608 32C63.608 25.9786 58.7514 14.2693 54.4986 10.0146C50.2367 5.75099 38.5234 0.901408 32.5045 0.901408Z" fill="#DFC58D"/>
<path d="M32.5045 59.2856C27.2245 59.2856 16.9438 55.0309 13.2045 51.2901C9.46525 47.5583 5.2124 37.2732 5.2124 31.9909C5.2124 26.7087 9.47426 16.4326 13.2045 12.6918C16.9438 8.95995 27.2155 4.69629 32.5045 4.69629C37.7936 4.69629 48.0653 8.95094 51.8045 12.6918C55.5438 16.4236 59.7967 26.7087 59.7967 31.9909C59.7967 37.2732 55.5348 47.5493 51.8045 51.2901C48.0743 55.0219 37.7936 59.2856 32.5045 59.2856ZM32.5045 5.48051C27.3687 5.48051 17.3853 9.61798 13.7541 13.2507C10.123 16.8833 5.98729 26.8709 5.98729 32C5.98729 37.129 10.123 47.1256 13.7541 50.7492C17.3853 54.3819 27.3777 58.5194 32.5045 58.5194C37.6314 58.5194 47.6238 54.3819 51.2549 50.7492C54.8861 47.1166 59.0218 37.129 59.0218 32C59.0218 26.8709 54.8861 16.8743 51.2549 13.2507C47.6238 9.61798 37.6314 5.48051 32.5045 5.48051Z" fill="#98610F"/>
<path d="M56.6792 32.0178C56.6792 18.6589 45.8578 7.84202 32.5046 7.83301H32.4866C19.1334 7.83301 8.31201 18.6589 8.31201 32.0088C8.31201 45.3586 19.1424 56.1846 32.4956 56.1846C45.8488 56.1846 56.6792 45.3586 56.6792 32.0088V32.0178Z" fill="#F2F2F2"/>
<path d="M28.603 46.6841C28.7381 46.9005 28.7562 47.1529 28.6751 47.4413C28.621 47.6216 28.5219 47.7748 28.3867 47.901C28.2426 48.0272 28.0894 48.1354 27.9182 48.2075C27.747 48.2886 27.5218 48.3788 27.2424 48.487C26.9721 48.5861 26.7469 48.6763 26.5757 48.7664C26.4045 48.8475 26.2693 48.9467 26.1522 49.0548C26.2603 49.0548 26.3684 49.0729 26.4766 49.1089C26.5577 49.136 26.6387 49.163 26.7288 49.2081C26.8099 49.2441 26.891 49.2892 26.9631 49.3253C26.9721 49.3253 27.0172 49.3523 27.0893 49.3974C27.1613 49.4334 27.2244 49.4605 27.2875 49.4785C27.3776 49.5055 27.4677 49.5146 27.5578 49.4965C27.6479 49.4785 27.747 49.4424 27.8641 49.3703V49.3884C27.8822 49.5236 27.8732 49.6408 27.8461 49.7219C27.8101 49.8391 27.747 49.9382 27.6569 50.0103C27.5668 50.0824 27.4587 50.1275 27.3415 50.1546C27.2244 50.1726 27.0983 50.1636 26.9811 50.1365C26.9091 50.1185 26.846 50.0825 26.7739 50.0464C26.7018 50.0103 26.6207 49.9562 26.5306 49.8932C26.4135 49.821 26.3234 49.7579 26.2423 49.7219C26.1612 49.6768 26.0801 49.6498 25.99 49.6227C25.8008 49.5686 25.6026 49.5596 25.3863 49.6047H25.3683C25.3683 49.5146 25.3863 49.4334 25.4043 49.3523C25.4494 49.2081 25.5215 49.0819 25.6386 48.9737C25.7557 48.8565 25.8819 48.7574 26.017 48.6763C26.1522 48.5951 26.3414 48.487 26.5847 48.3698C26.837 48.2436 27.0352 48.1264 27.1974 48.0363C27.3596 47.9461 27.4947 47.8199 27.6299 47.6847C27.756 47.5495 27.8461 47.3963 27.9002 47.216C27.9542 47.0267 27.9723 46.8644 27.9362 46.7382C27.9092 46.612 27.8281 46.5219 27.702 46.4858C27.5848 46.4498 27.4767 46.4588 27.3776 46.5219C27.2785 46.576 27.2154 46.6661 27.1794 46.7743C27.1433 46.8915 27.1343 46.9996 27.1613 47.0988C27.1794 47.1979 27.2244 47.2791 27.2785 47.3422V47.3602C27.1974 47.3963 27.1253 47.4233 27.0442 47.4323C26.9631 47.4413 26.9 47.4323 26.828 47.4143C26.7198 47.3872 26.6478 47.3061 26.6027 47.1979C26.5577 47.0808 26.5667 46.9455 26.6117 46.7833C26.6568 46.6391 26.7379 46.5219 26.855 46.4137C26.9811 46.3055 27.1343 46.2334 27.3235 46.1974C27.5127 46.1613 27.711 46.1793 27.9362 46.2424C28.2336 46.3326 28.4498 46.4858 28.576 46.7022L28.603 46.6841ZM31.9188 47.1709C32.0719 47.4143 32.126 47.7298 32.09 48.1174C32.0539 48.505 31.9548 48.9016 31.7926 49.3162C31.6304 49.7309 31.4052 50.0734 31.1168 50.3439C30.8285 50.6143 30.4771 50.7315 30.0807 50.6954C29.6932 50.6594 29.4319 50.5151 29.2878 50.2627C29.1436 50.0103 29.0985 49.6858 29.1346 49.2802C29.1796 48.7934 29.2968 48.3608 29.486 47.9641C29.6752 47.5675 29.9185 47.261 30.2158 47.0357C30.5132 46.8103 30.8375 46.7202 31.1889 46.7563C31.5313 46.7923 31.7746 46.9275 31.9188 47.1619V47.1709ZM31.3601 47.3151C31.3241 47.1619 31.252 47.0898 31.1529 47.0717C30.9907 47.0537 30.8195 47.1709 30.6393 47.4053C30.4591 47.6486 30.3059 47.9551 30.1618 48.3427C30.0266 48.7303 29.9365 49.1089 29.9005 49.4875C29.8464 50.0103 29.9455 50.2808 30.1708 50.3078C30.333 50.3258 30.5042 50.2086 30.6753 49.9743C30.8465 49.7399 30.9997 49.4244 31.1259 49.0368C31.252 48.6492 31.3331 48.2616 31.3781 47.856C31.3962 47.6396 31.3872 47.4503 31.3511 47.2971L31.3601 47.3151ZM35.0183 49.6678C34.9372 49.776 34.8651 49.8481 34.784 49.9022C34.7029 49.9472 34.6218 49.9743 34.5227 49.9923C34.4597 49.9923 34.3876 49.9923 34.3065 49.9923C34.2254 49.9923 34.1803 49.9743 34.1623 49.9743C34.0812 49.9653 33.9911 49.9562 33.901 49.9562C33.8109 49.9562 33.7208 49.9562 33.6307 49.9562C33.5136 49.9653 33.4055 49.9923 33.3063 50.0284C33.3694 49.8841 33.4595 49.7399 33.5857 49.5957C33.7118 49.4515 33.883 49.2892 34.0993 49.0909C34.3155 48.8926 34.4957 48.7213 34.6218 48.5771C34.748 48.4329 34.8561 48.2796 34.9372 48.1084C35.0183 47.9371 35.0453 47.7568 35.0273 47.5675C35.0003 47.2701 34.8831 47.0447 34.6759 46.8915C34.4687 46.7382 34.2164 46.6841 33.91 46.7112C33.6848 46.7292 33.4866 46.7923 33.3244 46.9005C33.1622 47.0086 33.0451 47.1258 32.973 47.2701C32.9009 47.4143 32.8739 47.5585 32.8829 47.7117C32.9009 47.883 32.9459 48.0092 33.027 48.0993C33.1081 48.1895 33.2072 48.2346 33.3154 48.2165C33.3784 48.2165 33.4505 48.1895 33.5136 48.1444C33.5857 48.1084 33.6397 48.0543 33.6938 47.9912V47.9732C33.6127 47.9371 33.5496 47.874 33.4866 47.7929C33.4325 47.7027 33.3965 47.6036 33.3874 47.4864C33.3784 47.3692 33.4055 47.261 33.4775 47.1709C33.5496 47.0808 33.6397 47.0267 33.7659 47.0177C33.901 46.9996 34.0001 47.0537 34.0812 47.1619C34.1533 47.2701 34.2074 47.4233 34.2254 47.6216C34.2434 47.8019 34.2254 47.9822 34.1533 48.1534C34.0812 48.3247 34.0001 48.487 33.883 48.6402C33.7749 48.7934 33.6307 48.9737 33.4415 49.181C33.2703 49.3794 33.1352 49.5506 33.036 49.6768C32.9369 49.803 32.8558 49.9472 32.7928 50.0915C32.7297 50.2447 32.7117 50.3889 32.7207 50.5332C32.7207 50.6143 32.7477 50.6954 32.7747 50.7765H32.7928C32.973 50.6594 33.1622 50.5872 33.3604 50.5692C33.4505 50.5602 33.5406 50.5602 33.6307 50.5692C33.7208 50.5782 33.8289 50.5963 33.9641 50.6233C34.0722 50.6413 34.1713 50.6593 34.2524 50.6684C34.3335 50.6774 34.4056 50.6774 34.4777 50.6684C34.6038 50.6593 34.712 50.6143 34.8201 50.5512C34.9282 50.4881 35.0003 50.407 35.0634 50.2988C35.1174 50.1996 35.1444 50.0825 35.1264 49.9653C35.1264 49.8751 35.0814 49.776 35.0273 49.6498H35.0093L35.0183 49.6678ZM38.1989 47.892C38.0458 47.7748 37.8565 47.7117 37.6223 47.7117C37.8115 47.5315 37.9466 47.3332 38.0187 47.1348C38.0908 46.9275 38.0998 46.7382 38.0458 46.567C38.0097 46.4317 37.9286 46.3236 37.8295 46.2334C37.7214 46.1433 37.5862 46.0892 37.424 46.0622C37.2619 46.0351 37.0817 46.0622 36.8834 46.1163C36.6852 46.1794 36.514 46.2605 36.3789 46.3686C36.2347 46.4768 36.1356 46.603 36.0815 46.7472C36.0184 46.8915 36.0184 47.0357 36.0635 47.1889C36.0995 47.3241 36.1716 47.4143 36.2617 47.4774C36.3518 47.5315 36.4509 47.5405 36.5591 47.5134C36.6942 47.4774 36.8023 47.3782 36.8924 47.225C36.8204 47.225 36.7573 47.1979 36.7032 47.1348C36.6492 47.0717 36.6131 46.9996 36.5861 46.9185C36.55 46.8013 36.5591 46.6932 36.6131 46.603C36.6672 46.5129 36.7483 46.4408 36.8744 46.4047C37.0006 46.3686 37.1087 46.3777 37.1988 46.4317C37.2889 46.4858 37.352 46.576 37.388 46.7022C37.424 46.8194 37.424 46.9636 37.397 47.1168C37.37 47.2701 37.3069 47.4233 37.2078 47.5675C37.1087 47.7117 36.9735 47.8379 36.8113 47.9461C37.0546 47.9551 37.2619 48.0363 37.4331 48.1805C37.5952 48.3247 37.7124 48.496 37.7754 48.7033C37.8295 48.8926 37.8475 49.0548 37.8205 49.2081C37.7935 49.3613 37.7394 49.4785 37.6583 49.5777C37.5772 49.6678 37.4781 49.7309 37.37 49.767C37.2438 49.803 37.1357 49.794 37.0276 49.7399C36.9195 49.6858 36.8384 49.5867 36.8023 49.4424C36.7663 49.3072 36.7573 49.172 36.7843 49.0458C36.8113 48.9196 36.9195 48.8295 37.0907 48.7664C37.0096 48.6041 36.8474 48.5591 36.6131 48.6312C36.4149 48.6943 36.2797 48.8024 36.2167 48.9647C36.1446 49.127 36.1446 49.3163 36.2167 49.5326C36.3158 49.8661 36.496 50.0644 36.7483 50.1185C37.0006 50.1726 37.2438 50.1636 37.4871 50.0915C37.7664 50.0103 37.9917 49.8661 38.1809 49.6768C38.3611 49.4875 38.4873 49.2712 38.5413 49.0368C38.6044 48.8025 38.6044 48.5771 38.5413 48.3698C38.4873 48.1805 38.3791 48.0272 38.235 47.9101L38.1989 47.892ZM17.9618 26.8892L18.1511 26.0329H16.4571L16.9437 23.7253C17.5654 23.8695 18.106 23.9416 18.5655 23.9416C18.8358 23.8875 19.0521 23.7794 19.2053 23.6081C19.3674 23.4458 19.4756 23.2385 19.5386 23.0041C19.6017 22.7698 19.6468 22.6165 19.6648 22.5444C19.3765 22.6346 19.0341 22.6796 18.6196 22.6796C18.3853 22.6796 17.9979 22.6526 17.4392 22.5985C17.1329 22.5624 16.8806 22.5444 16.7004 22.5444C15.7904 22.5444 15.0425 22.6796 14.4478 22.9591C13.8622 23.2385 13.4297 23.5991 13.1594 24.0498C12.8891 24.5005 12.7539 25.0053 12.7539 25.5461C12.7539 25.9517 12.853 26.2312 13.0603 26.4115C13.2675 26.5827 13.5738 26.6729 13.9883 26.6729C13.9883 26.6548 13.9613 26.5917 13.9072 26.4836C13.8532 26.3754 13.8261 26.1771 13.8261 25.8886C13.8261 25.0143 13.9523 24.4013 14.2136 24.0498C14.4749 23.6982 14.8443 23.5089 15.3308 23.4909L13.6639 31.225H15.3308L16.2679 26.8712H17.9528L17.9618 26.8892ZM23.3049 31.225L21.5569 39.4368H19.89L20.7821 35.2363C20.4937 35.101 20.2324 35.0109 19.9982 34.9478C19.7549 34.8847 19.5026 34.8396 19.2323 34.8216C18.7908 35.7681 18.4304 36.7416 18.1511 37.7332C17.8717 38.7247 17.7276 39.5179 17.7276 40.1129C17.7276 40.4103 17.7816 40.6177 17.8898 40.7619C17.6014 40.7619 17.3582 40.7348 17.1419 40.6898C16.9257 40.6447 16.7364 40.5275 16.5833 40.3563C16.4211 40.176 16.349 39.9055 16.349 39.536C16.349 39.0222 16.5022 38.3281 16.8175 37.4537C17.1329 36.5793 17.5384 35.705 18.0519 34.8216C17.6645 34.8486 17.3582 34.9027 17.1419 34.9929C16.9167 35.083 16.7725 35.2272 16.7004 35.4255C16.7274 35.4255 16.7635 35.4616 16.7995 35.5427C16.8356 35.6239 16.8536 35.705 16.8536 35.7861C16.8536 35.9213 16.7905 36.0385 16.6644 36.1196C16.5382 36.2008 16.385 36.2368 16.2048 36.2368C15.9886 36.2368 15.8174 36.1827 15.6822 36.0655C15.5471 35.9484 15.484 35.7861 15.484 35.5698C15.484 35.3084 15.5831 35.065 15.7904 34.8486C15.9976 34.6323 16.2769 34.461 16.6373 34.3348C16.9977 34.2086 17.4032 34.1455 17.8357 34.1455C17.9979 34.1455 18.1961 34.1546 18.4394 34.1816C19.0701 33.181 19.7369 32.3608 20.4487 31.7208C21.1605 31.0808 21.8273 30.7653 22.467 30.7653C22.5301 30.7653 22.5841 30.7743 22.6472 30.7833C22.467 30.567 22.3408 30.2785 22.2958 29.8999C21.5389 30.8374 20.6559 31.3061 19.6287 31.3061C19.0611 31.3061 18.6106 31.1619 18.2952 30.8644C17.9799 30.567 17.8177 30.0982 17.8177 29.4672C17.8177 28.9354 17.9258 28.3495 18.133 27.7095C18.3403 27.0695 18.6827 26.5196 19.1512 26.0509C19.6197 25.5822 20.2234 25.3478 20.9442 25.3478C21.7912 25.3478 22.2147 25.7174 22.2147 26.4565C22.2147 26.8892 22.0886 27.2858 21.8453 27.6464C21.602 28.007 21.2686 28.3044 20.8632 28.5208C20.4577 28.7371 20.0162 28.8633 19.5567 28.8994C19.5386 29.1337 19.5296 29.287 19.5296 29.3591C19.5296 29.7377 19.5927 29.9901 19.7279 30.1253C19.863 30.2605 20.0703 30.3326 20.3676 30.3326C20.7821 30.3326 21.1425 30.2334 21.4398 30.0441C21.6921 29.8819 21.9804 29.6205 22.2778 29.305C22.2958 28.7732 22.3949 28.2233 22.6021 27.6464C22.8274 27.0154 23.1698 26.4836 23.6203 26.0509C24.0708 25.6182 24.6114 25.4019 25.2331 25.4019C25.5485 25.4019 25.7828 25.456 25.9359 25.5641C26.0891 25.6723 26.1702 25.8165 26.1702 25.9878V26.0689L26.2964 25.456H27.9633L27.1343 29.3951C27.1073 29.5123 27.0893 29.6385 27.0893 29.7647C27.0893 30.0982 27.2424 30.2605 27.5668 30.2605C27.783 30.2605 27.9723 30.1613 28.1254 29.963C28.2786 29.7647 28.4048 29.5033 28.5039 29.1788L29.1977 25.9247H28.8192L28.9093 25.465H29.2878L29.6302 23.8695L31.3421 23.6351L30.9457 25.465H31.6394L31.5493 25.9247H30.8556L30.1167 29.3951C30.0897 29.5123 30.0717 29.6385 30.0717 29.7647C30.0717 29.9179 30.1077 30.0261 30.1798 30.0982C30.2519 30.1613 30.378 30.1974 30.5402 30.1974C30.7655 30.1974 30.9727 30.0982 31.1619 29.9089C31.3511 29.7196 31.4953 29.4763 31.5764 29.1788L32.3603 25.465H34.0272L33.1982 29.4041C33.1712 29.5213 33.1622 29.6295 33.1622 29.7286C33.1622 30.0441 33.2793 30.2064 33.5136 30.2064C33.7298 30.2064 33.91 30.1163 34.0722 29.936C34.2254 29.7557 34.3515 29.5033 34.4416 29.1878L35.2255 25.474H36.8924L36.0635 29.4132C36.0365 29.5303 36.0184 29.6565 36.0184 29.7827C36.0184 29.936 36.0545 30.0441 36.1266 30.1163C36.1986 30.1793 36.3248 30.2154 36.487 30.2154C36.7032 30.2154 36.8924 30.1253 37.0456 29.936C37.1988 29.7557 37.3249 29.5033 37.415 29.1968L38.2079 25.474H39.8748L39.7217 26.1951C39.983 25.9608 40.2172 25.7895 40.4335 25.6633C40.6497 25.5371 40.875 25.474 41.1183 25.474C41.3615 25.474 41.5598 25.5551 41.7039 25.7264C41.8481 25.8977 41.9202 26.105 41.9202 26.3393C41.9202 26.5647 41.8481 26.763 41.7039 26.9343C41.5598 27.1055 41.3525 27.1867 41.0912 27.1867C40.92 27.1867 40.8119 27.1506 40.7488 27.0695C40.6948 26.9884 40.6497 26.8712 40.6137 26.7179C40.5867 26.6188 40.5686 26.5467 40.5416 26.5016C40.5146 26.4565 40.4785 26.4295 40.4155 26.4295C40.2533 26.4295 40.1181 26.4655 40.001 26.5286C39.8929 26.5917 39.7487 26.7089 39.5685 26.8712L38.6404 31.2701H36.9735L37.0997 30.6571C37.0186 30.7472 36.9285 30.8284 36.8384 30.8915C36.4149 31.1889 35.9914 31.3332 35.5679 31.3332C35.2345 31.3332 34.9733 31.243 34.775 31.0537C34.5768 30.8644 34.4597 30.594 34.4236 30.2334C34.1623 30.6571 33.883 30.9455 33.5947 31.0988C33.3063 31.252 33.009 31.3332 32.7117 31.3332C32.3422 31.3332 32.0449 31.216 31.8106 30.9816C31.6485 30.8193 31.5674 30.576 31.5223 30.2875C31.3511 30.5399 31.1619 30.7472 30.9547 30.8824C30.5042 31.1799 30.0626 31.3241 29.6211 31.3241C29.2517 31.3241 28.9544 31.207 28.7291 30.9726C28.5669 30.8103 28.4859 30.567 28.4408 30.2965C28.2786 30.5399 28.0984 30.7382 27.9092 30.8734C27.4857 31.1709 27.0622 31.3151 26.6387 31.3151C26.3144 31.3151 26.0531 31.225 25.8548 31.0447C25.6566 30.8644 25.5395 30.603 25.5034 30.2515C25.2782 30.567 25.0349 30.8284 24.7556 31.0177C24.4853 31.216 24.1519 31.3151 23.7735 31.3151C23.6023 31.3151 23.4401 31.2881 23.2869 31.234L23.3049 31.225ZM23.9627 29.2779C23.9627 29.6655 24.0168 29.9089 24.1339 30.0171C24.242 30.1253 24.3862 30.1793 24.5393 30.1793C24.7286 30.1793 24.9268 30.0892 25.116 29.9089C25.3052 29.7286 25.4314 29.4763 25.5034 29.1608L26.0621 26.5467C26.0621 26.4475 26.026 26.3484 25.945 26.2492C25.8639 26.1501 25.7467 26.105 25.5845 26.105C25.2782 26.105 24.9989 26.2853 24.7556 26.6458C24.5123 27.0064 24.3141 27.4391 24.1789 27.9439C24.0438 28.4486 23.9717 28.8903 23.9717 29.2779H23.9627ZM19.6378 28.3405C19.9261 28.3224 20.1964 28.2233 20.4577 28.043C20.719 27.8537 20.9262 27.6194 21.0794 27.3399C21.2416 27.0515 21.3137 26.754 21.3137 26.4385C21.3137 26.123 21.2146 25.9608 21.0253 25.9608C20.746 25.9608 20.4757 26.2041 20.2054 26.6909C19.9441 27.1777 19.7459 27.7275 19.6287 28.3495L19.6378 28.3405ZM21.5479 31.5855C21.2146 31.7658 20.8722 32.0903 20.5118 32.5771C20.1513 33.0639 19.7999 33.6408 19.4666 34.3348C20.0252 34.443 20.4937 34.5782 20.8812 34.7405L21.5479 31.5946V31.5855ZM51.3449 30.1884C51.4801 30.1884 51.6062 30.1613 51.7143 30.1163C51.6873 30.5039 51.5431 30.7923 51.2999 30.9996C51.0566 31.207 50.7683 31.3061 50.4349 31.3061C50.1285 31.3061 49.8672 31.225 49.651 31.0717C49.4347 30.9185 49.2996 30.6751 49.2275 30.3506C48.768 30.9906 48.2184 31.3151 47.5876 31.3151C47.1461 31.3151 46.7857 31.1619 46.4884 30.8644C46.2721 30.6391 46.137 30.3236 46.0739 29.9089C45.3171 30.8464 44.434 31.3151 43.4069 31.3151C42.8392 31.3151 42.3887 31.1709 42.0733 30.8734C41.758 30.576 41.5958 30.1072 41.5958 29.4763C41.5958 28.9444 41.7039 28.3585 41.9112 27.7185C42.1184 27.0785 42.4608 26.5286 42.9293 26.0599C43.3979 25.5912 44.0016 25.3568 44.7224 25.3568C45.5693 25.3568 45.9928 25.7264 45.9928 26.4655C45.9928 26.8982 45.8667 27.2948 45.6234 27.6554C45.3801 28.016 45.0467 28.3134 44.6413 28.5298C44.2358 28.7461 43.7943 28.8723 43.3348 28.9084C43.3168 29.1427 43.3078 29.296 43.3078 29.3681C43.3078 29.7467 43.3708 29.9991 43.506 30.1343C43.6411 30.2695 43.8484 30.3416 44.1457 30.3416C44.5602 30.3416 44.9206 30.2424 45.2179 30.0532C45.4702 29.8909 45.7586 29.6295 46.0559 29.314C46.0739 28.7822 46.173 28.2323 46.3803 27.6554C46.6055 27.0244 46.9479 26.4926 47.3984 26.0599C47.8489 25.6272 48.3896 25.4109 49.0113 25.4109C49.3266 25.4109 49.5609 25.465 49.7141 25.5732C49.8672 25.6813 49.9483 25.8255 49.9483 25.9968V26.0419L50.516 23.3827L52.2279 23.1484L50.8944 29.3951C50.8674 29.5123 50.8494 29.6205 50.8494 29.7286C50.8494 30.0351 51.0115 30.1884 51.3269 30.1884H51.3449ZM43.4429 28.3405C43.7312 28.3224 44.0015 28.2233 44.2628 28.043C44.5241 27.8537 44.7314 27.6194 44.8846 27.3399C45.0467 27.0515 45.1188 26.754 45.1188 26.4385C45.1188 26.123 45.0197 25.9608 44.8305 25.9608C44.5512 25.9608 44.2809 26.2041 44.0106 26.6909C43.7493 27.1777 43.551 27.7275 43.4339 28.3495L43.4429 28.3405ZM49.8672 26.5196C49.7952 26.2492 49.642 26.114 49.3897 26.114C49.0833 26.114 48.804 26.2943 48.5607 26.6548C48.3175 27.0154 48.1192 27.4481 47.9841 27.9529C47.8489 28.4577 47.7769 28.8994 47.7769 29.287C47.7769 29.6746 47.8309 29.9179 47.948 30.0261C48.0562 30.1343 48.2003 30.1884 48.3625 30.1884C48.5247 30.1884 48.7049 30.1163 48.8761 29.972C49.0473 29.8278 49.1825 29.6205 49.2635 29.3591L49.3086 29.1698L49.8762 26.5196H49.8672ZM47.3263 33.6588H49.0023L47.5876 40.3743C47.4345 41.1134 47.1642 41.6272 46.7677 41.9157C46.3803 42.2041 45.9478 42.3484 45.4792 42.3484C45.1188 42.3484 44.7945 42.2312 44.5241 41.9968C44.2538 41.7624 44.1187 41.465 44.1187 41.0954C44.1187 40.7529 44.1998 40.4824 44.371 40.2661C44.5422 40.0498 44.7584 39.8785 45.0287 39.7613C45.299 39.6441 45.6594 39.5089 46.119 39.3647L46.2361 38.8509C45.8396 39.3016 45.3711 39.527 44.8215 39.527C44.4521 39.527 44.1547 39.4098 43.9295 39.1754C43.7042 38.941 43.5871 38.5985 43.5871 38.1298C43.5871 38.1117 43.5871 38.0847 43.5871 38.0667C42.8212 39.0312 41.9292 39.5179 40.884 39.5179C40.3163 39.5179 39.8658 39.3737 39.5505 39.0763C39.3973 38.932 39.2802 38.7427 39.1991 38.5174C39.0459 38.7608 38.8927 38.9591 38.7215 39.0853C38.3431 39.3737 37.9557 39.5179 37.5592 39.5179C37.0907 39.5179 36.7393 39.3917 36.523 39.1393C36.3068 38.887 36.1896 38.5805 36.1896 38.2109C36.1896 38.0486 36.2077 37.8684 36.2437 37.661C36.2797 37.4537 36.3248 37.2554 36.3608 37.0661C36.4059 36.8768 36.4329 36.7506 36.4509 36.6965C36.514 36.4261 36.5681 36.1647 36.6221 35.8943C36.6762 35.6329 36.7032 35.4165 36.7032 35.2543C36.7032 34.8577 36.5681 34.6594 36.2888 34.6594C36.0905 34.6594 35.9103 34.7585 35.7571 34.9568C35.604 35.1551 35.4778 35.4075 35.3877 35.723L34.6038 39.4368H32.9369L33.2072 38.1568C32.4594 39.0492 31.5854 39.5089 30.5852 39.5089C30.0176 39.5089 29.5671 39.3647 29.2517 39.0672C29.0895 38.914 28.9724 38.7247 28.8913 38.4903C28.7922 38.6346 28.6841 38.7698 28.5669 38.8779C28.2155 39.2024 27.8101 39.4188 27.3596 39.536L27.1884 40.3653C27.0352 41.1134 26.7649 41.6272 26.3865 41.9067C26.008 42.1861 25.5845 42.3303 25.107 42.3303C24.7376 42.3303 24.4312 42.2312 24.1789 42.0419C23.9357 41.8526 23.8095 41.5732 23.8095 41.2126C23.8095 40.7709 23.9897 40.4193 24.3411 40.1579C24.6925 39.8875 25.143 39.6712 25.6927 39.4909L25.8278 38.8779C25.4314 39.3016 24.9718 39.5179 24.4402 39.5179C23.9987 39.5179 23.6383 39.3647 23.341 39.0672C23.0436 38.7698 22.8995 38.292 22.8995 37.652C22.8995 37.0841 23.0166 36.4802 23.2419 35.8492C23.4671 35.2182 23.8095 34.6864 24.26 34.2537C24.7105 33.821 25.2512 33.6047 25.8729 33.6047C26.1882 33.6047 26.4225 33.6588 26.5757 33.767C26.7288 33.8751 26.8099 34.0194 26.8099 34.1906V34.2627L26.9361 33.6588H28.603L27.4587 39.0312C27.8281 38.905 28.1254 38.7247 28.3507 38.4723C28.5129 38.292 28.648 38.0306 28.7742 37.7332C28.7742 37.7151 28.7742 37.6971 28.7742 37.6701C28.7742 37.1382 28.8823 36.5523 29.0895 35.9123C29.2968 35.2723 29.6392 34.7224 30.1077 34.2537C30.5762 33.785 31.1799 33.5506 31.9007 33.5506C32.7477 33.5506 33.1712 33.9202 33.1712 34.6594C33.1712 35.092 33.045 35.4886 32.8018 35.8492C32.5585 36.2098 32.2251 36.5072 31.8197 36.7236C31.4142 36.9399 30.9727 37.0661 30.5132 37.1022C30.4951 37.3365 30.4861 37.4898 30.4861 37.5619C30.4861 37.9405 30.5492 38.1929 30.6844 38.3281C30.8195 38.4633 31.0267 38.5354 31.3241 38.5354C31.7386 38.5354 32.099 38.4363 32.3963 38.247C32.6937 38.0577 33.018 37.7602 33.3694 37.3726L34.1533 33.6588H35.8202L35.6941 34.2627C36.0815 33.8301 36.532 33.6137 37.0456 33.6137C37.4421 33.6137 37.7484 33.7219 37.9827 33.9382C38.2169 34.1546 38.3251 34.4791 38.3251 34.9208C38.3251 35.1461 38.298 35.3895 38.244 35.6689C38.1899 35.9394 38.1088 36.2819 38.0097 36.6695C37.9466 36.9039 37.8926 37.1382 37.8385 37.3726C37.7845 37.5979 37.7664 37.7782 37.7664 37.9134C37.7664 38.0667 37.8025 38.1839 37.8746 38.274C37.9466 38.3551 38.0638 38.4002 38.235 38.4002C38.4692 38.4002 38.6494 38.3191 38.7936 38.1478C38.8837 38.0396 38.9738 37.8864 39.0639 37.7061C39.0639 37.7061 39.0639 37.6881 39.0639 37.6791C39.0639 37.1472 39.172 36.5613 39.3793 35.9213C39.5955 35.2813 39.9289 34.7315 40.3974 34.2627C40.866 33.794 41.4516 33.5596 42.1725 33.5596C42.632 33.5596 42.9654 33.6588 43.1636 33.8571C43.3618 34.0554 43.4609 34.3078 43.4609 34.6233C43.4609 34.8937 43.4069 35.101 43.2897 35.2453C43.1726 35.3895 43.0284 35.4616 42.8482 35.4616C42.7131 35.4616 42.5779 35.4165 42.4428 35.3264C42.5329 35.074 42.5779 34.8396 42.5779 34.6413C42.5779 34.4971 42.5509 34.3799 42.4968 34.2898C42.4428 34.2086 42.3617 34.1636 42.2536 34.1636C42.0193 34.1636 41.794 34.3529 41.5598 34.7315C41.3255 35.1101 41.1363 35.5698 40.9921 36.1106C40.8479 36.6515 40.7759 37.1382 40.7759 37.5709C40.7759 37.9495 40.8389 38.2019 40.9741 38.3371C41.1092 38.4723 41.3165 38.5444 41.6138 38.5444C42.0283 38.5444 42.3887 38.4453 42.686 38.256C42.9834 38.0667 43.3078 37.7692 43.6592 37.3816L44.4431 33.6678H46.11L45.281 37.607C45.254 37.6971 45.245 37.7963 45.245 37.8954C45.245 38.2379 45.3621 38.4092 45.5964 38.4092C45.8126 38.4092 45.9928 38.3191 46.155 38.1388C46.3082 37.9585 46.4343 37.7061 46.5244 37.3906L47.3083 33.6768L47.3263 33.6588ZM30.6303 36.5523C30.9186 36.5343 31.1889 36.4351 31.4502 36.2548C31.7115 36.0655 31.9188 35.8312 32.0719 35.5517C32.2341 35.2633 32.3062 34.9658 32.3062 34.6503C32.3062 34.3348 32.2071 34.1726 32.0179 34.1726C31.7386 34.1726 31.4683 34.416 31.1979 34.9027C30.9366 35.3895 30.7384 35.9394 30.6213 36.5613L30.6303 36.5523ZM25.6116 40.0678C24.8547 40.3472 24.4763 40.6717 24.4763 41.0503C24.4763 41.1495 24.5123 41.2396 24.5844 41.3208C24.6565 41.4019 24.7466 41.4379 24.8727 41.4379C25.0079 41.4379 25.134 41.3478 25.2512 41.1765C25.3773 40.9963 25.4674 40.7439 25.5395 40.4103L25.6116 40.0768V40.0678ZM26.7469 34.7495C26.7469 34.6593 26.7108 34.5602 26.6297 34.4701C26.5486 34.3709 26.4315 34.3258 26.2693 34.3258C25.963 34.3258 25.6837 34.5061 25.4404 34.8667C25.1971 35.2272 24.9989 35.6599 24.8637 36.1647C24.7286 36.6695 24.6565 37.1112 24.6565 37.4988C24.6565 37.8864 24.7105 38.1298 24.8277 38.2379C24.9358 38.3461 25.08 38.4002 25.2421 38.4002C25.4224 38.4002 25.6026 38.3191 25.7828 38.1568C25.972 37.9946 26.0981 37.7782 26.1612 37.4988L26.7559 34.7585L26.7469 34.7495ZM46.0379 39.7253C45.6324 39.8605 45.317 40.0227 45.0918 40.212C44.8665 40.4013 44.7584 40.6357 44.7584 40.9332C44.7584 41.0233 44.8035 41.1134 44.8936 41.1946C44.9837 41.2757 45.0918 41.3117 45.2179 41.3117C45.3531 41.3117 45.4882 41.2396 45.6144 41.0954C45.7405 40.9512 45.8306 40.7258 45.9027 40.4103L46.0379 39.7253ZM24.7736 15.3602C24.9628 15.4503 25.1881 15.4954 25.4494 15.5044C25.6026 15.5044 25.7467 15.4864 25.8639 15.4503C25.981 15.4143 26.0801 15.3602 26.1522 15.2971C26.2333 15.234 26.2873 15.1619 26.3414 15.0898L26.3144 14.5489H26.2873C26.2513 14.7563 26.2063 14.9185 26.1342 15.0447C26.0621 15.1709 25.972 15.252 25.8639 15.3061C25.7557 15.3602 25.6116 15.3872 25.4494 15.3872C25.2962 15.3872 25.1611 15.3422 25.0439 15.252C24.9268 15.1709 24.8367 15.0537 24.7826 14.9005C24.7196 14.7472 24.6925 14.567 24.6925 14.3596C24.6925 14.1523 24.7286 13.972 24.7916 13.8278C24.8547 13.6746 24.9448 13.5664 25.071 13.4763C25.1881 13.3951 25.3323 13.3501 25.5034 13.3501C25.6746 13.3501 25.8278 13.3951 25.954 13.4853C26.0801 13.5754 26.1792 13.7196 26.2333 13.936H26.2603V13.3951C26.1702 13.3501 26.0531 13.305 25.9179 13.2689C25.7828 13.2329 25.6296 13.2148 25.4674 13.2148C25.1971 13.2148 24.9718 13.2599 24.7826 13.3501C24.5934 13.4402 24.4402 13.5754 24.3411 13.7467C24.242 13.9179 24.1879 14.1253 24.1879 14.3596C24.1879 14.594 24.242 14.8103 24.3501 14.9816C24.4583 15.1529 24.6024 15.2881 24.8006 15.3782L24.7736 15.3602ZM26.7198 13.6205C26.7198 13.6205 26.7649 13.6746 26.7649 13.7196V14.7653C26.7649 14.9906 26.837 15.1709 26.9901 15.2971C27.1343 15.4233 27.3686 15.4954 27.6749 15.4954C27.9272 15.4954 28.1254 15.4323 28.2606 15.2971C28.3957 15.1709 28.4678 14.9906 28.4678 14.7653V13.7196C28.4678 13.7196 28.4859 13.6475 28.5129 13.6205C28.5399 13.5934 28.576 13.5844 28.612 13.5844H28.657V13.5574H28.0804V13.5844H28.1254C28.1254 13.5844 28.1975 13.5934 28.2246 13.6205C28.2516 13.6475 28.2696 13.6746 28.2696 13.7196V14.7833C28.2696 14.9636 28.2246 15.1078 28.1254 15.216C28.0353 15.3241 27.9002 15.3692 27.738 15.3692C27.5758 15.3692 27.4497 15.3151 27.3596 15.207C27.2695 15.0988 27.2244 14.9455 27.2244 14.7563V13.7286C27.2244 13.7286 27.2424 13.6565 27.2695 13.6295C27.2965 13.6024 27.3325 13.5934 27.3686 13.5934H27.4136V13.5664H26.5847V13.5934H26.6297C26.6297 13.5934 26.7018 13.6024 26.7288 13.6295L26.7198 13.6205ZM29.0535 15.4503H30.3059L30.4321 14.8734H30.396C30.369 14.9636 30.333 15.0447 30.2789 15.1168C30.2248 15.1889 30.1708 15.234 30.0987 15.2701C30.0266 15.3061 29.9455 15.3241 29.8554 15.3241H29.486V13.7557C29.486 13.7106 29.504 13.6655 29.5401 13.6385C29.5761 13.6024 29.6121 13.5934 29.6572 13.5934H29.6932V13.5664H28.8192V13.5934H28.8553C28.9003 13.5934 28.9454 13.6115 28.9724 13.6385C28.9994 13.6655 29.0265 13.7106 29.0265 13.7557V15.252C29.0265 15.2971 29.0084 15.3422 28.9724 15.3692C28.9364 15.3963 28.9003 15.4143 28.8553 15.4143H28.8102V15.4503H29.0445H29.0535ZM30.2699 13.981C30.2699 13.8909 30.2969 13.8188 30.342 13.7647C30.387 13.7106 30.4591 13.6836 30.5582 13.6836H30.9186V15.252C30.9186 15.2971 30.9006 15.3422 30.8646 15.3692C30.8285 15.3963 30.7925 15.4143 30.7474 15.4143H30.7114V15.4503H31.5854V15.4143H31.5493C31.5043 15.4143 31.4592 15.3963 31.4322 15.3692C31.4052 15.3422 31.3781 15.2971 31.3781 15.252V13.6836H31.7476C31.8377 13.6836 31.9098 13.7106 31.9638 13.7647C32.0179 13.8188 32.0359 13.8909 32.0359 13.981V14.0081H32.0719V13.6836V13.5123C32.0719 13.5123 32.0269 13.5213 31.9908 13.5303C31.9548 13.5303 31.9098 13.5394 31.8647 13.5484C31.8197 13.5484 31.7746 13.5484 31.7386 13.5484H30.5762C30.5762 13.5484 30.4951 13.5484 30.4501 13.5484C30.405 13.5484 30.36 13.5394 30.3239 13.5303C30.2879 13.5303 30.2609 13.5123 30.2429 13.5123V13.6746V14.0081H30.2789V13.981H30.2699ZM32.3422 13.6205C32.3422 13.6205 32.3873 13.6746 32.3873 13.7196V14.7653C32.3873 14.9906 32.4594 15.1709 32.6126 15.2971C32.7657 15.4233 32.991 15.4954 33.2973 15.4954C33.5496 15.4954 33.7479 15.4323 33.883 15.2971C34.0182 15.1709 34.0902 14.9906 34.0902 14.7653V13.7196C34.0902 13.7196 34.1083 13.6475 34.1353 13.6205C34.1623 13.5934 34.1984 13.5844 34.2344 13.5844H34.2795V13.5574H33.7028V13.5844H33.7479C33.7479 13.5844 33.8199 13.5934 33.847 13.6205C33.874 13.6475 33.892 13.6746 33.892 13.7196V14.7833C33.892 14.9636 33.847 15.1078 33.7479 15.216C33.6578 15.3241 33.5226 15.3692 33.3604 15.3692C33.1982 15.3692 33.0721 15.3151 32.982 15.207C32.8919 15.0988 32.8468 14.9455 32.8468 14.7563V13.7286C32.8468 13.7286 32.8648 13.6565 32.8919 13.6295C32.9189 13.6024 32.9549 13.5934 32.991 13.5934H33.036V13.5664H32.2071V13.5934H32.2521C32.2521 13.5934 32.3242 13.6024 32.3513 13.6295L32.3422 13.6205ZM34.6669 15.4503H34.4597V15.4143H34.4957C34.5408 15.4143 34.5768 15.3963 34.6128 15.3692C34.6399 15.3422 34.6579 15.2971 34.6579 15.261V13.7467C34.6579 13.7467 34.6399 13.6655 34.6128 13.6385C34.5768 13.6115 34.5408 13.5934 34.4957 13.5934H34.4507V13.5664H35.4238C35.5139 13.5664 35.595 13.5664 35.6761 13.5934C35.7571 13.6115 35.8292 13.6385 35.9013 13.6746C35.9734 13.7106 36.0184 13.7647 36.0545 13.8278C36.0905 13.8909 36.1085 13.972 36.1085 14.0802C36.1085 14.1523 36.0905 14.2244 36.0635 14.2965C36.0365 14.3686 35.9824 14.4317 35.9193 14.4858C35.8563 14.5399 35.7752 14.576 35.667 14.594C35.7301 14.612 35.7842 14.6481 35.8382 14.7022C35.8923 14.7563 35.9373 14.8103 35.9644 14.8554C35.9644 14.8734 35.9914 14.9005 36.0094 14.9365C36.0275 14.9726 36.0545 15.0177 36.0905 15.0627C36.1266 15.1078 36.1536 15.1619 36.1896 15.207C36.2347 15.261 36.2707 15.3061 36.2978 15.3422C36.3338 15.3692 36.3608 15.3963 36.3969 15.4053C36.3969 15.4053 36.4149 15.4053 36.4239 15.4053C36.4509 15.4053 36.478 15.4053 36.505 15.3782C36.55 15.3512 36.5861 15.3061 36.6221 15.243L37.2709 13.8548C37.2709 13.8548 37.2799 13.8188 37.2979 13.7827C37.3159 13.7467 37.3249 13.7106 37.343 13.6746C37.361 13.6295 37.379 13.5934 37.388 13.5574C37.406 13.5213 37.415 13.4943 37.415 13.4672H37.4421L38.28 15.234C38.3161 15.2971 38.3521 15.3422 38.3972 15.3692C38.4422 15.3963 38.4873 15.4053 38.5323 15.4053H38.5593V15.4413H37.6313V15.4053H37.6583C37.6583 15.4053 37.7304 15.3872 37.7574 15.3602C37.7845 15.3332 37.7845 15.2881 37.7664 15.234L37.6403 14.9365H36.9735L36.8474 15.225C36.8204 15.2791 36.8294 15.3241 36.8474 15.3512C36.8744 15.3782 36.9105 15.3963 36.9465 15.3963H36.9735V15.4323H36.2347C36.1176 15.4323 36.0275 15.4323 35.9464 15.4053C35.8653 15.3872 35.8022 15.3602 35.7391 15.3151C35.6851 15.2701 35.631 15.207 35.5769 15.1258C35.5589 15.0988 35.5409 15.0627 35.5139 15.0267C35.4958 14.9906 35.4688 14.9455 35.4508 14.9095C35.4328 14.8734 35.4148 14.8284 35.3967 14.7923C35.3787 14.7563 35.3697 14.7202 35.3607 14.6932C35.3337 14.6301 35.3066 14.576 35.2706 14.5489C35.2345 14.5219 35.2075 14.5039 35.1715 14.5039V14.4768H35.2526C35.2526 14.4768 35.3427 14.4768 35.3877 14.4498C35.4328 14.4317 35.4688 14.4047 35.5049 14.3596C35.5409 14.3146 35.5679 14.2515 35.5859 14.1613C35.5859 14.1523 35.5859 14.1343 35.595 14.1072C35.595 14.0802 35.595 14.0532 35.595 14.0261C35.595 13.945 35.5769 13.8819 35.5499 13.8368C35.5229 13.7917 35.4958 13.7557 35.4598 13.7286C35.4238 13.7016 35.3877 13.6836 35.3517 13.6746C35.3156 13.6746 35.2796 13.6565 35.2526 13.6565C35.2165 13.6565 35.1805 13.6565 35.1444 13.6565C35.1174 13.6565 35.0904 13.6565 35.0724 13.6565V15.225C35.0724 15.2791 35.0904 15.3151 35.1264 15.3512C35.1625 15.3782 35.1985 15.3963 35.2436 15.3963H35.2796V15.4323H34.6128L34.6669 15.4503ZM37.6223 14.8374L37.343 14.1794L37.0636 14.8374H37.6223ZM38.8387 15.4503H40.0911L40.2172 14.8734H40.1812C40.1542 14.9636 40.1181 15.0447 40.0641 15.1168C40.01 15.1889 39.9559 15.234 39.8839 15.2701C39.8118 15.3061 39.7307 15.3241 39.6406 15.3241H39.2712V13.7557C39.2712 13.7106 39.2892 13.6655 39.3252 13.6385C39.3613 13.6024 39.3973 13.5934 39.4423 13.5934H39.4784V13.5664H38.6044V13.5934H38.6404C38.6855 13.5934 38.7305 13.6115 38.7576 13.6385C38.7846 13.6655 38.8116 13.7106 38.8116 13.7557V15.252C38.8116 15.2971 38.7936 15.3422 38.7576 15.3692C38.7215 15.3963 38.6855 15.4143 38.6404 15.4143H38.5954V15.4503H38.8296H38.8387ZM20.0883 18.5602C20.1604 18.5872 20.2324 18.6143 20.3225 18.6233C20.4126 18.6413 20.5027 18.6503 20.5928 18.6503C20.8451 18.6503 21.0434 18.5963 21.1965 18.4791C21.3407 18.3619 21.4218 18.1996 21.4308 18.0013C21.4308 17.8841 21.4128 17.776 21.3677 17.6948C21.3227 17.6047 21.2416 17.5326 21.1515 17.4785L20.5478 17.0909C20.4847 17.0548 20.4307 17.0098 20.3856 16.9647C20.3406 16.9196 20.3225 16.8655 20.3225 16.8024C20.3225 16.7213 20.3676 16.6492 20.4397 16.5861C20.5118 16.523 20.6109 16.496 20.737 16.496C20.8722 16.496 20.9803 16.532 21.0614 16.5951C21.1425 16.6582 21.1785 16.7484 21.1785 16.8565H21.2146L21.2506 16.4329V16.3968H21.0344C21.0163 16.3968 20.9983 16.3968 20.9713 16.3968C20.9082 16.3968 20.8451 16.3878 20.7821 16.3788C20.719 16.3788 20.6649 16.3788 20.6289 16.3788C20.4937 16.3788 20.3856 16.4058 20.2865 16.4509C20.1874 16.496 20.1153 16.5591 20.0612 16.6402C20.0072 16.7213 19.9711 16.8205 19.9621 16.9286C19.9531 17.0458 19.9621 17.154 20.0252 17.2532C20.0793 17.3523 20.1604 17.4334 20.2685 17.4965L20.8181 17.8661C20.9082 17.9112 20.9713 17.9653 21.0073 18.0194C21.0434 18.0734 21.0704 18.1275 21.0704 18.1996C21.0704 18.2988 21.0344 18.3799 20.9533 18.443C20.8812 18.5151 20.7731 18.5512 20.6289 18.5512C20.5027 18.5512 20.3946 18.5241 20.3045 18.4701C20.2144 18.416 20.1423 18.3439 20.0973 18.2537C20.0522 18.1636 20.0342 18.0644 20.0432 17.9563H20.0162C20.0162 17.9563 19.9711 18.0554 19.9441 18.1275C19.9261 18.1906 19.9171 18.2627 19.9171 18.3258C19.9171 18.3889 19.9171 18.443 19.9351 18.4971C19.9801 18.5332 20.0252 18.5692 20.0973 18.5963L20.0883 18.5602ZM21.8002 16.7844C21.8002 16.7844 21.8453 16.8385 21.8453 16.8836V17.9292C21.8453 18.1546 21.9174 18.3348 22.0705 18.461C22.2237 18.5872 22.449 18.6594 22.7553 18.6594C23.0076 18.6594 23.2058 18.5963 23.341 18.461C23.4761 18.3348 23.5482 18.1546 23.5482 17.9292V16.8836C23.5482 16.8836 23.5662 16.8115 23.5933 16.7844C23.6203 16.7574 23.6563 16.7484 23.6924 16.7484H23.7374V16.7213H23.1608V16.7484H23.2058C23.2058 16.7484 23.2779 16.7574 23.3049 16.7844C23.332 16.8115 23.35 16.8385 23.35 16.8836V17.9472C23.35 18.1275 23.3049 18.2717 23.2058 18.3799C23.1157 18.4881 22.9896 18.5332 22.8184 18.5332C22.6472 18.5332 22.5301 18.4791 22.44 18.3709C22.3499 18.2627 22.3048 18.1095 22.3048 17.9202V16.8926C22.3048 16.8926 22.3228 16.8205 22.3499 16.7934C22.3769 16.7664 22.4129 16.7574 22.449 16.7574H22.494V16.7303H21.6651V16.7574H21.7101C21.7101 16.7574 21.7822 16.7664 21.8092 16.7934L21.8002 16.7844ZM24.0888 18.5692C24.1429 18.5963 24.215 18.6143 24.2871 18.6323C24.3682 18.6503 24.4492 18.6503 24.5393 18.6503C24.6835 18.6503 24.8097 18.6233 24.9178 18.5782C25.0259 18.5332 25.107 18.4701 25.1701 18.3799C25.2331 18.2898 25.2692 18.1906 25.2692 18.0734C25.2692 17.9563 25.2512 17.8661 25.2061 17.785C25.1611 17.7039 25.089 17.6408 25.0079 17.6047L24.5123 17.2982C24.5123 17.2982 24.4402 17.2532 24.4042 17.2261C24.3682 17.1991 24.3501 17.172 24.3321 17.145C24.3141 17.1179 24.3051 17.0819 24.3141 17.0458C24.3141 16.9737 24.3501 16.9106 24.4132 16.8655C24.4763 16.8205 24.5574 16.8024 24.6565 16.8024C24.7826 16.8024 24.8817 16.8295 24.9448 16.8836C25.0079 16.9377 25.0439 17.0188 25.0439 17.1179H25.071L25.107 16.7574V16.7303V16.7033H24.9268C24.9088 16.7033 24.8907 16.7033 24.8637 16.7033C24.8006 16.7033 24.7466 16.6943 24.6835 16.6853C24.6204 16.6853 24.5754 16.6853 24.5303 16.6853C24.4222 16.6853 24.3321 16.7033 24.251 16.7394C24.1699 16.7754 24.1069 16.8295 24.0528 16.9016C24.0077 16.9737 23.9717 17.0548 23.9627 17.163C23.9537 17.2712 23.9627 17.3703 24.0168 17.4605C24.0708 17.5506 24.1429 17.6227 24.242 17.6768L24.6925 17.9653C24.7736 18.0103 24.8367 18.0554 24.8727 18.1005C24.9088 18.1455 24.9268 18.1996 24.9268 18.2537C24.9268 18.3258 24.8998 18.3979 24.8367 18.452C24.7736 18.5061 24.6835 18.5332 24.5664 18.5332C24.4583 18.5332 24.3591 18.5061 24.2781 18.461C24.197 18.416 24.1339 18.3529 24.0978 18.2717C24.0528 18.1906 24.0348 18.1005 24.0438 18.0103H24.0168C24.0168 18.0103 23.9717 18.1005 23.9537 18.1636C23.9357 18.2267 23.9267 18.2808 23.9267 18.3439C23.9267 18.407 23.9267 18.452 23.9447 18.4971C23.9717 18.5241 24.0168 18.5602 24.0708 18.5782L24.0888 18.5692ZM26.9271 16.8385C27.0172 16.8385 27.0893 16.8655 27.1433 16.9196C27.1974 16.9737 27.2154 17.0458 27.2154 17.136V17.163H27.2514V16.8385V16.6672C27.2514 16.6672 27.2064 16.6763 27.1704 16.6853C27.1343 16.6853 27.0893 16.6943 27.0442 16.7033C26.9992 16.7033 26.9541 16.7033 26.9181 16.7033H25.7557C25.7557 16.7033 25.6746 16.7033 25.6296 16.7033C25.5845 16.7033 25.5395 16.6943 25.5034 16.6853C25.4674 16.6853 25.4404 16.6672 25.4224 16.6672V16.8295V17.163H25.4584V17.136C25.4584 17.0458 25.4854 16.9737 25.5305 16.9196C25.5755 16.8655 25.6476 16.8385 25.7467 16.8385H26.1071V18.407C26.1071 18.452 26.0891 18.4971 26.0531 18.5241C26.017 18.5602 25.981 18.5692 25.9359 18.5692H25.8999V18.6053H26.7739V18.5692H26.7379C26.6928 18.5692 26.6478 18.5512 26.6207 18.5241C26.5847 18.4881 26.5667 18.452 26.5667 18.407V16.8385H26.9361H26.9271ZM28.4048 18.5332C28.4048 18.5332 28.4318 18.461 28.4138 18.407L28.2876 18.1095H27.6209L27.4947 18.3979C27.4677 18.452 27.4767 18.4971 27.4947 18.5241C27.5217 18.5512 27.5578 18.5692 27.5938 18.5692H27.6209V18.6053H26.9901V18.5692H27.0172C27.0172 18.5692 27.1073 18.5602 27.1523 18.5332C27.1974 18.5061 27.2334 18.461 27.2695 18.3979L27.9182 17.0098C27.9182 17.0098 27.9272 16.9737 27.9452 16.9377C27.9633 16.9016 27.9723 16.8655 27.9903 16.8295C28.0083 16.7844 28.0263 16.7484 28.0353 16.7123C28.0534 16.6763 28.0624 16.6492 28.0624 16.6222H28.0894L28.9274 18.3889C28.9634 18.452 28.9994 18.4971 29.0445 18.5241C29.0895 18.5512 29.1346 18.5602 29.1796 18.5602H29.2067V18.5963H28.2786V18.5602H28.3056C28.3056 18.5602 28.3777 18.5422 28.4048 18.5151V18.5332ZM28.2336 17.9923L27.9542 17.3343L27.6749 17.9923H28.2336ZM29.9545 16.7934C29.9545 16.7934 30.0356 16.7484 30.0807 16.7484H30.1167V16.7213H29.9005H29.2247V16.7484H29.2697C29.3148 16.7484 29.3598 16.7664 29.3959 16.7934C29.4319 16.8295 29.45 16.8655 29.45 16.9106V18.407C29.45 18.452 29.4319 18.4971 29.3959 18.5241C29.3598 18.5602 29.3148 18.5692 29.2697 18.5692H29.2247V18.6053H30.1167V18.5692H30.0807C30.0266 18.5692 29.9906 18.5512 29.9545 18.5241C29.9185 18.4881 29.9005 18.452 29.9005 18.407V16.9106C29.9005 16.8655 29.9185 16.8205 29.9545 16.7934ZM32.4414 16.7934C32.4414 16.7934 32.5134 16.7484 32.5585 16.7484H32.6126V16.7213H31.7295V16.7484H31.7836C31.8287 16.7484 31.8737 16.7664 31.9007 16.7934C31.9368 16.8205 31.9548 16.8655 31.9548 16.9106V17.9472L30.5042 16.6763H30.4771C30.4951 16.8115 30.5132 16.9286 30.5132 17.0368V18.425C30.5132 18.4701 30.4951 18.5061 30.4591 18.5422C30.4231 18.5692 30.387 18.5872 30.333 18.5872H30.2789V18.6233H31.1619V18.5872H31.1078C31.0628 18.5872 31.0177 18.5692 30.9907 18.5422C30.9547 18.5151 30.9366 18.4701 30.9366 18.425V17.3794L32.3873 18.6594H32.4143C32.4053 18.5963 32.3963 18.5422 32.3873 18.4881C32.3873 18.434 32.3873 18.3709 32.3873 18.2898V16.9196C32.3873 16.8746 32.4053 16.8385 32.4414 16.8024V16.7934ZM34.0001 18.5332C34.0001 18.5332 34.0272 18.461 34.0091 18.407L33.883 18.1095H33.2162L33.0901 18.3979C33.0631 18.452 33.0721 18.4971 33.0901 18.5241C33.1171 18.5512 33.1532 18.5692 33.1892 18.5692H33.2162V18.6053H32.5855V18.5692H32.6126C32.6126 18.5692 32.7027 18.5602 32.7477 18.5332C32.7928 18.5061 32.8288 18.461 32.8648 18.3979L33.5136 17.0098C33.5136 17.0098 33.5226 16.9737 33.5406 16.9377C33.5586 16.9016 33.5676 16.8655 33.5857 16.8295C33.6037 16.7844 33.6217 16.7484 33.6307 16.7123C33.6487 16.6763 33.6577 16.6492 33.6577 16.6222H33.6848L34.5227 18.3889C34.5588 18.452 34.5948 18.4971 34.6399 18.5241C34.6849 18.5512 34.73 18.5602 34.775 18.5602H34.8021V18.5963H33.874V18.5602H33.901C33.901 18.5602 33.9731 18.5422 34.0001 18.5151V18.5332ZM33.838 17.9923L33.5586 17.3343L33.2793 17.9923H33.838ZM35.0363 18.407V16.9106C35.0363 16.8565 35.0273 16.8205 34.9913 16.7844C34.9552 16.7574 34.9192 16.7394 34.8651 16.7394H34.8291V16.7123H35.6761C35.7571 16.7123 35.8382 16.7123 35.9283 16.7303C36.0094 16.7394 36.0905 16.7664 36.1626 16.8024C36.2347 16.8385 36.2888 16.8836 36.3338 16.9467C36.3789 17.0098 36.3969 17.0909 36.3969 17.1901C36.3969 17.2712 36.3789 17.3343 36.3428 17.3974C36.3068 17.4515 36.2707 17.4965 36.2167 17.5326C36.1626 17.5596 36.1085 17.5777 36.0455 17.5867C36.1356 17.5867 36.2257 17.6137 36.2978 17.6588C36.3698 17.7039 36.4329 17.7579 36.478 17.8301C36.523 17.9022 36.55 17.9833 36.55 18.0824C36.55 18.1816 36.532 18.2627 36.487 18.3348C36.4419 18.407 36.3879 18.461 36.3158 18.5061C36.2437 18.5512 36.1536 18.5782 36.0635 18.5963C35.9644 18.6143 35.8653 18.6233 35.7662 18.6233H34.8471V18.5872H34.8831C34.9372 18.5872 34.9732 18.5692 35.0093 18.5422C35.0453 18.5151 35.0543 18.4701 35.0543 18.425L35.0363 18.407ZM35.4778 16.8385V18.4881H35.604C35.6761 18.4881 35.7481 18.4701 35.8112 18.443C35.8743 18.416 35.9193 18.3709 35.9644 18.2988C36.0004 18.2357 36.0184 18.1455 36.0184 18.0374C36.0184 17.9653 36.0094 17.9022 35.9824 17.8391C35.9644 17.785 35.9283 17.7399 35.8923 17.7039C35.8563 17.6678 35.8022 17.6408 35.7481 17.6227C35.6941 17.6047 35.631 17.5957 35.5679 17.5957V17.5686C35.613 17.5686 35.658 17.5686 35.7031 17.5506C35.7481 17.5326 35.7842 17.5146 35.8112 17.4875C35.8382 17.4605 35.8653 17.4244 35.8833 17.3794C35.9013 17.3343 35.9103 17.2802 35.9103 17.2081C35.9103 17.0639 35.8743 16.9647 35.8112 16.9106C35.7481 16.8565 35.667 16.8295 35.5679 16.8295H35.4778V16.8385ZM37.4601 16.7934C37.4601 16.7934 37.5412 16.7484 37.5862 16.7484H37.6223V16.7213H37.406H36.7303V16.7484H36.7753C36.8204 16.7484 36.8654 16.7664 36.9015 16.7934C36.9375 16.8205 36.9555 16.8655 36.9555 16.9106V18.407C36.9555 18.452 36.9375 18.4971 36.9015 18.5241C36.8654 18.5512 36.8204 18.5692 36.7753 18.5692H36.7303V18.6053H37.6223V18.5692H37.5862C37.5322 18.5692 37.4961 18.5512 37.4601 18.5241C37.424 18.4971 37.406 18.452 37.406 18.407V16.9106C37.406 16.8655 37.424 16.8205 37.4601 16.7934ZM37.9827 18.5241C37.9827 18.5241 37.9106 18.5692 37.8656 18.5692H37.8205V18.6053H39.3072L39.4333 18.0284H39.3973C39.3703 18.1185 39.3342 18.1996 39.2802 18.2717C39.2261 18.3439 39.172 18.3889 39.1 18.425C39.0279 18.461 38.9468 18.4791 38.8567 18.4791H38.4873V16.9106C38.4873 16.8655 38.5053 16.8205 38.5413 16.7934C38.5774 16.7574 38.6134 16.7484 38.6585 16.7484H38.6945V16.7213H37.8205V16.7484H37.8565C37.9016 16.7484 37.9466 16.7664 37.9737 16.7934C38.0007 16.8205 38.0277 16.8655 38.0277 16.9106V18.407C38.0277 18.452 38.0097 18.4971 37.9737 18.5241H37.9827ZM40.2533 16.7934C40.2533 16.7934 40.3344 16.7484 40.3794 16.7484H40.4155V16.7213H40.1992H39.5234V16.7484H39.5685C39.6135 16.7484 39.6586 16.7664 39.6946 16.7934C39.7307 16.8295 39.7487 16.8655 39.7487 16.9106V18.407C39.7487 18.452 39.7307 18.4971 39.6946 18.5241C39.6586 18.5602 39.6135 18.5692 39.5685 18.5692H39.5234V18.6053H40.4155V18.5692H40.3794C40.3254 18.5692 40.2893 18.5512 40.2533 18.5241C40.2172 18.4881 40.1992 18.452 40.1992 18.407V16.9106C40.1992 16.8655 40.2172 16.8205 40.2533 16.7934ZM40.5957 17.136C40.5957 17.0458 40.6227 16.9737 40.6677 16.9196C40.7128 16.8655 40.7849 16.8385 40.884 16.8385H41.2444V18.407C41.2444 18.452 41.2264 18.4971 41.1903 18.5241C41.1543 18.5512 41.1183 18.5692 41.0732 18.5692H41.0372V18.6053H41.9112V18.5692H41.8751C41.8301 18.5692 41.785 18.5512 41.758 18.5241C41.722 18.4881 41.7039 18.452 41.7039 18.407V16.8385H42.0733C42.1635 16.8385 42.2355 16.8655 42.2896 16.9196C42.3437 16.9737 42.3617 17.0458 42.3617 17.136V17.163H42.3977V16.8385V16.6672C42.3977 16.6672 42.3527 16.6763 42.3166 16.6853C42.2806 16.6853 42.2355 16.6943 42.1905 16.7033C42.1454 16.7033 42.1004 16.7033 42.0643 16.7033H40.902C40.902 16.7033 40.8209 16.7033 40.7759 16.7033C40.7308 16.7033 40.6858 16.6943 40.6497 16.6853C40.6137 16.6853 40.5867 16.6672 40.5686 16.6672V16.8295V17.163H40.6047V17.136H40.5957ZM42.605 16.7934C42.65 16.8205 42.6951 16.8565 42.7221 16.9016L43.2807 17.767V18.407C43.2807 18.452 43.2627 18.4971 43.2267 18.5241C43.1906 18.5512 43.1546 18.5692 43.1005 18.5692H43.0645V18.6053H43.9475V18.5692H43.9114C43.8664 18.5692 43.8213 18.5512 43.7943 18.5241C43.7583 18.4881 43.7402 18.452 43.7402 18.407V17.767L44.3079 16.9016C44.3079 16.9016 44.38 16.8205 44.425 16.7934C44.4701 16.7664 44.5241 16.7484 44.5872 16.7484H44.6323V16.7213H43.9565V16.7484H43.9925C43.9925 16.7484 44.0646 16.7664 44.0826 16.8024C44.1097 16.8385 44.1097 16.8746 44.0826 16.9106L43.6592 17.6227L43.2447 16.9016C43.2447 16.9016 43.2267 16.8295 43.2447 16.7934C43.2627 16.7574 43.2987 16.7394 43.3438 16.7394H43.3798V16.7123H42.4247V16.7394H42.4608C42.5239 16.7394 42.5779 16.7574 42.623 16.7844L42.605 16.7934Z" fill="#764827"/>
</g>
<defs>
<clipPath id="clip0_337_3940">
<rect width="64" height="64" fill="white" transform="translate(0.5)"/>
</clipPath>
</defs>
</svg>
