<svg width="62" height="64" viewBox="0 0 62 64" fill="none" xmlns="http://www.w3.org/2000/svg">
<g clip-path="url(#clip0_337_3898)">
<path d="M31.0046 0.0268555C33.6568 0.0268555 37.5943 3.02855 40.1107 3.84883C42.6271 4.66911 47.5693 4.56995 49.7146 6.1384C51.8599 7.70686 53.2901 12.4573 54.847 14.6026C56.4039 16.757 60.4591 19.5874 61.2738 22.1204C62.0884 24.6533 60.4681 29.3407 60.4681 31.9998C60.4681 34.659 62.0884 39.3463 61.2738 41.8793C60.4591 44.4122 56.4039 47.2426 54.847 49.397C53.2901 51.5514 51.8599 56.3018 49.7146 57.8612C47.5693 59.4297 42.6271 59.3215 40.1107 60.1508C37.5943 60.9711 33.6568 63.9728 31.0046 63.9728C28.3524 63.9728 24.4149 60.9711 21.8985 60.1508C19.3821 59.3305 14.4398 59.4297 12.2945 57.8612C10.1493 56.2928 8.71908 51.5424 7.16217 49.397C5.60526 47.2426 1.55006 44.4122 0.735398 41.8793C-0.0792629 39.3463 1.54101 34.659 1.54101 31.9998C1.54101 29.3407 -0.0792629 24.6533 0.735398 22.1204C1.55006 19.5874 5.60526 16.757 7.16217 14.6026C8.71908 12.4483 10.1493 7.69784 12.2945 6.1384C14.4398 4.56995 19.3821 4.67812 21.8985 3.84883C24.4149 3.02855 28.3524 0.0268555 31.0046 0.0268555Z" fill="#D5BD8F"/>
<path d="M58.6578 32C58.6578 30.2963 59.1013 28.4665 59.391 26.7087C59.6806 24.951 59.744 23.2924 59.5449 22.6794C59.3457 22.0665 58.3229 20.7594 57.0647 19.5155C55.7974 18.2625 54.3672 17.0456 53.3715 15.6665C52.3758 14.2873 51.6607 12.5476 50.8732 10.9521C50.0767 9.35661 49.1625 7.97746 48.6465 7.59887C48.1215 7.22028 46.5374 6.76957 44.7814 6.50816C43.0253 6.24675 41.1607 6.10253 39.5495 5.5707C37.9382 5.04788 36.3361 4.05633 34.7611 3.23605C33.186 2.41577 31.6382 1.83887 30.9955 1.83887C30.3528 1.83887 28.805 2.41577 27.23 3.23605C25.655 4.05633 24.0618 5.04788 22.4506 5.5707C20.8394 6.09351 18.9747 6.23774 17.2187 6.50816C15.4626 6.77859 13.8786 7.22028 13.3536 7.59887C12.8286 7.97746 11.9143 9.35661 11.1268 10.9521C10.3393 12.5476 9.62424 14.2873 8.62854 15.6665C7.63285 17.0456 6.20266 18.2625 4.93541 19.5155C3.66816 20.7684 2.64531 22.0665 2.44617 22.6794C2.24703 23.2924 2.31039 24.951 2.60005 26.7087C2.88971 28.4665 3.33325 30.2963 3.33325 32C3.33325 33.7037 2.88971 35.5335 2.60005 37.2913C2.31039 39.049 2.24703 40.7076 2.44617 41.3206C2.64531 41.9335 3.66816 43.2315 4.93541 44.4845C6.20266 45.7375 7.63285 46.9544 8.62854 48.3335C9.62424 49.7127 10.3393 51.4524 11.1268 53.0479C11.9143 54.6434 12.8376 56.0225 13.3536 56.4011C13.8786 56.7797 15.4626 57.2304 17.2187 57.5008C18.9747 57.7622 20.8394 57.9065 22.4506 58.4383C24.0618 58.9611 25.655 59.9527 27.23 60.7729C28.805 61.5932 30.3528 62.1701 30.9955 62.1701C31.6382 62.1701 33.186 61.5932 34.7611 60.7729C36.3361 59.9527 37.9382 58.9611 39.5495 58.4383C41.1607 57.9155 43.0253 57.7713 44.7814 57.5008C46.5374 57.2394 48.1215 56.7887 48.6465 56.4011C49.1715 56.0135 50.0857 54.6434 50.8732 53.0479C51.6607 51.4524 52.3758 49.7127 53.3715 48.3335C54.3672 46.9544 55.7974 45.7375 57.0647 44.4935C58.3319 43.2406 59.3457 41.9425 59.5449 41.3296C59.744 40.7166 59.6806 39.058 59.391 37.3003C59.1013 35.5425 58.6578 33.7127 58.6578 32.009V32ZM58.2776 37.4715C58.5673 39.1932 58.5401 40.7527 58.4767 40.96C58.4043 41.1673 57.5082 42.4473 56.2681 43.6642C55.028 44.8811 53.5888 46.089 52.4573 47.6575C51.3258 49.2169 50.6379 50.9656 49.8594 52.5251C49.081 54.0845 48.1577 55.3375 47.9767 55.4637C47.7956 55.5899 46.3202 56.0946 44.6094 56.356C42.8986 56.6175 41.0249 56.7346 39.1964 57.3296C37.368 57.9245 35.7839 58.9341 34.2451 59.7363C32.7063 60.5386 31.2218 60.9983 30.9955 60.9983C30.7692 60.9983 29.2847 60.5386 27.755 59.7363C26.2162 58.9341 24.6321 57.9245 22.8036 57.3296C20.9752 56.7346 19.1015 56.6084 17.3907 56.356C15.6799 56.1037 14.2044 55.5899 14.0234 55.4637C13.8424 55.3375 12.9191 54.0755 12.1406 52.5251C11.3712 50.9656 10.6742 49.2169 9.54277 47.6575C8.4113 46.098 6.97207 44.8901 5.73197 43.6642C4.49188 42.4473 3.59575 41.1673 3.52333 40.96C3.45092 40.7527 3.43282 39.1842 3.72247 37.4715C4.01213 35.7589 4.47377 33.929 4.47377 32C4.47377 30.071 4.01213 28.2411 3.72247 26.5284C3.43282 24.8068 3.45997 23.2473 3.52333 23.04C3.5867 22.8327 4.49188 21.5527 5.73197 20.3358C6.97207 19.1189 8.4113 17.911 9.54277 16.3425C10.6742 14.7741 11.3712 13.0344 12.1406 11.4749C12.91 9.91549 13.8424 8.66253 14.0234 8.53633C14.2044 8.41013 15.6799 7.90535 17.3907 7.64394C19.1015 7.38253 20.9752 7.26535 22.8036 6.67042C24.6321 6.07549 26.2162 5.06591 27.755 4.26366C29.2938 3.4614 30.7783 2.99267 30.9955 2.99267C31.2128 2.99267 32.7063 3.45239 34.2451 4.26366C35.7839 5.06591 37.368 6.07549 39.1964 6.67042C41.0249 7.26535 42.8986 7.39154 44.6094 7.64394C46.3202 7.90535 47.7956 8.40112 47.9767 8.53633C48.1577 8.66253 49.09 9.9245 49.8594 11.4749C50.6379 13.0344 51.3258 14.7831 52.4573 16.3425C53.5888 17.902 55.028 19.1099 56.2681 20.3358C57.5082 21.5617 58.4043 22.8327 58.4767 23.04C58.5492 23.2473 58.5673 24.8158 58.2776 26.5284C57.9879 28.2501 57.5263 30.071 57.5263 32C57.5263 33.929 57.9879 35.7589 58.2776 37.4715Z" fill="#C85C3D"/>
<path d="M28.2256 40.7619H29.5562L28.8864 35.8853L28.2256 40.7619Z" fill="#2D3E3E"/>
<path d="M37.739 29.2148H39.0696L38.3998 24.3472L37.739 29.2148Z" fill="#2D3E3E"/>
<path d="M23.9169 35.5605H23.2561V38.5172H23.7992C24.3152 38.5172 24.6229 38.2738 24.6229 37.4986V36.5521C24.6229 35.867 24.4057 35.5605 23.9169 35.5605Z" fill="#2D3E3E"/>
<path d="M34.2179 29.9447V29.1064C34.2179 28.214 33.9554 27.9346 33.3309 27.9346H32.7153V30.8912H33.5028C33.9645 30.8912 34.2179 30.6568 34.2179 29.9447Z" fill="#2D3E3E"/>
<path d="M28.3523 30.9994C28.7868 30.9994 29.0674 30.7379 29.0674 30.0529V24.8518C29.0674 24.1667 28.7958 23.9053 28.3523 23.9053C27.9088 23.9053 27.6372 24.1667 27.6372 24.8518V30.0529C27.6372 30.7379 27.9088 30.9994 28.3523 30.9994Z" fill="#2D3E3E"/>
<path d="M31.0046 12.0156C19.9252 12.0156 10.9368 20.9666 10.9368 31.9999C10.9368 43.0331 19.9252 51.9841 31.0046 51.9841C42.084 51.9841 51.0724 43.0331 51.0724 31.9999C51.0724 20.9666 42.084 12.0156 31.0046 12.0156ZM31.3304 22.6342H33.4124C34.8425 22.6342 35.4581 23.3644 35.4581 24.8517V25.1942C35.4581 26.1858 35.1865 26.8168 34.571 27.1322C35.3132 27.4477 35.6029 28.1779 35.6029 29.1965V29.9807C35.6029 31.468 34.8878 32.2613 33.5119 32.2613H31.3395V22.6252L31.3304 22.6342ZM22.1248 22.6342H23.5006V30.8911H25.7726V32.2703H22.1248V22.6342ZM17.1191 24.9508C17.1191 23.4094 17.8252 22.526 19.1739 22.526C20.5226 22.526 21.2287 23.4094 21.2287 24.9508V25.8883H19.9252V24.8517C19.9252 24.1666 19.6536 23.9052 19.2101 23.9052C18.7666 23.9052 18.495 24.1666 18.495 24.8517V30.0528C18.495 30.7379 18.7666 30.9903 19.2101 30.9903C19.6536 30.9903 19.9252 30.7379 19.9252 30.0528V28.277H19.3006V26.8979H21.2287V29.9537C21.2287 31.4951 20.5226 32.3784 19.1739 32.3784C17.8252 32.3784 17.1191 31.4951 17.1191 29.9537V24.9418V24.9508ZM21.2739 35.5604H19.8347V43.8173H18.4588V35.5604H17.0196V34.1813H21.283V35.5604H21.2739ZM24.7588 43.8173C24.6864 43.5739 24.6321 43.4207 24.6321 42.6365V41.1221C24.6321 40.2297 24.3606 39.8962 23.7269 39.8962H23.2472V43.8173H21.8713V34.1813H23.9532C25.3834 34.1813 25.9989 34.9114 25.9989 36.3987V37.1559C25.9989 38.1475 25.7093 38.7965 25.0938 39.112C25.7817 39.4275 26.008 40.1576 26.008 41.1582V42.6455C26.008 43.1142 26.017 43.4568 26.1619 43.8173H24.7588ZM26.2614 24.9508C26.2614 23.4094 27.0037 22.526 28.3524 22.526C29.7011 22.526 30.4434 23.4094 30.4434 24.9508V29.9627C30.4434 31.5041 29.7011 32.3875 28.3524 32.3875C27.0037 32.3875 26.2614 31.5041 26.2614 29.9627V24.9508ZM29.9817 43.8173L29.7464 42.0686H28.0537L27.8184 43.8173H26.5511L27.9541 34.1813H29.9727L31.3757 43.8173H29.9817ZM34.743 43.8173H32.6882L31.3304 34.1813H32.7244L33.7744 42.0415L34.8244 34.1813H36.0917L34.7339 43.8173H34.743ZM40.4999 35.5604H38.1193V38.2466H40.0111V39.6258H38.1193V42.4472H40.4999V43.8263H36.7434V34.1903H40.4999V35.5694V35.5604ZM39.4952 32.2703L39.2598 30.5215H37.5671L37.3318 32.2703H36.0645L37.4676 22.6342H39.4861L40.8891 32.2703H39.4952ZM44.9986 43.8173H41.3508V34.1813H42.7266V42.4382H44.9986V43.8173ZM45.1706 32.2703H41.5228V22.6342H42.8986V30.8911H45.1706V32.2703Z" fill="#2D3E3E"/>
<path d="M34.0822 25.5368V24.9959C34.0822 24.3109 33.8649 24.0044 33.3761 24.0044H32.7153V26.5464H33.2584C33.7744 26.5464 34.0822 26.303 34.0822 25.5278V25.5368Z" fill="#2D3E3E"/>
<path d="M31.0045 5.57959C31.0045 5.57959 30.1989 8.13058 29.5833 8.01339C28.9678 7.89621 28.5424 6.89565 28.5424 6.89565C28.5424 6.89565 28.5967 8.401 27.9902 8.48212C27.3747 8.56325 26.207 6.91367 26.207 6.91367L27.5467 10.1227H34.4532L35.7929 6.91367C35.7929 6.91367 34.6252 8.56325 34.0097 8.48212C33.3942 8.401 33.4575 6.89565 33.4575 6.89565C33.4575 6.89565 33.0321 7.89621 32.4166 8.01339C31.801 8.13058 30.9954 5.57959 30.9954 5.57959H31.0045Z" fill="#2D3E3E"/>
<path d="M25.6278 10.132C25.501 9.96075 25.3924 9.77145 25.32 9.57314C25.2476 9.37483 25.2023 9.1585 25.1933 8.95117L17.3816 12.4577L25.6278 10.132Z" fill="#2D3E3E"/>
<path d="M44.6184 12.4394L36.8429 8.94189C36.8339 9.14922 36.7886 9.36556 36.7162 9.56387C36.6438 9.76218 36.5352 9.95147 36.4084 10.1227L44.6184 12.4303V12.4394Z" fill="#2D3E3E"/>
<path d="M48.8908 16.099L49.5516 17.0996L48.3567 17.0185L47.6054 17.9559L47.3158 16.8021L46.1934 16.3785L47.2072 15.7475L47.2615 14.5576L48.1848 15.3238L49.3434 15.0083L48.8998 16.1171L48.8908 16.099ZM52.2219 21.0838L52.6201 22.2106L51.4796 21.85L50.5292 22.5802V21.3903L49.5335 20.7142L50.674 20.3447L51.0089 19.1999L51.715 20.1644L52.9098 20.1283L52.2128 21.0928L52.2219 21.0838ZM54.2495 26.7176L54.3671 27.9075L53.3443 27.2855L52.249 27.7633L52.5296 26.6004L51.7331 25.708L52.9279 25.6179L53.5344 24.5903L53.9869 25.69L55.1546 25.9424L54.2404 26.7176H54.2495ZM54.874 32.6759L54.702 33.8568L53.8602 33.0094L52.6835 33.2168L53.2356 32.1531L52.6744 31.0985L53.8602 31.2968L54.693 30.4404L54.874 31.6213L55.9512 32.1441L54.874 32.6759ZM54.0413 38.6072L53.5887 39.7159L52.9732 38.6883L51.7783 38.6072L52.5658 37.7148L52.2762 36.561L53.3805 37.0297L54.3943 36.3987L54.2857 37.5886L55.2089 38.3548L54.0413 38.6162V38.6072Z" fill="#5A7B7A"/>
<path d="M12.6657 14.9903L13.8243 15.3057L14.7476 14.5396L14.8019 15.7294L15.8157 16.3604L14.6933 16.7841L14.4036 17.9379L13.6523 17.0004L12.4575 17.0815L13.1183 16.081L12.6747 14.9722L12.6657 14.9903ZM9.08116 20.1193L10.276 20.1553L10.982 19.1908L11.317 20.3356L12.4575 20.7052L11.4708 21.3812V22.5711L10.5204 21.841L9.37987 22.2015L9.77815 21.0748L9.08116 20.1103V20.1193ZM6.83632 25.9424L8.004 25.69L8.45659 24.5903L9.06306 25.6179L10.2579 25.708L9.46133 26.6004L9.74194 27.7632L8.64667 27.2855L7.62382 27.9074L7.74149 26.7176L6.82726 25.9424H6.83632ZM6.05786 32.1441L7.13502 31.6212L7.31606 30.4404L8.14882 31.2967L9.33461 31.0984L8.7734 32.1531L9.32556 33.2167L8.14882 33.0094L7.30701 33.8567L7.13502 32.6759L6.05786 32.1441ZM6.79106 38.3367L7.71434 37.5705L7.60572 36.3807L8.61952 37.0117L9.72384 36.5429L9.43418 37.6967L10.2217 38.5891L9.02685 38.6703L8.41133 39.6979L7.95874 38.5891L6.79106 38.3277V38.3367Z" fill="#5A7B7A"/>
<path d="M11.1357 44.4034L11.6426 45.1605L10.656 45.8186C10.5564 45.7374 10.4568 45.6563 10.3663 45.5572C10.2758 45.458 10.1853 45.3498 10.0948 45.2146C9.96805 45.0253 9.89564 44.836 9.88659 44.6558C9.87753 44.4755 9.91374 44.3042 10.0224 44.1329C10.131 43.9617 10.2758 43.8174 10.4931 43.6732C10.6922 43.538 10.8913 43.4659 11.0905 43.4479C11.2896 43.4298 11.4797 43.4659 11.6517 43.556C11.8237 43.6462 11.9866 43.8084 12.1314 44.0158C12.1948 44.1149 12.2582 44.2231 12.2944 44.3312C12.3306 44.4394 12.3668 44.5476 12.3849 44.6558L11.9685 44.7369C11.9594 44.6558 11.9413 44.5746 11.9142 44.4845C11.887 44.3943 11.8418 44.3132 11.7875 44.2321C11.706 44.1149 11.6155 44.0338 11.5069 43.9797C11.3982 43.9256 11.2715 43.9166 11.1448 43.9256C11.0181 43.9346 10.8823 43.9977 10.7556 44.0789C10.6288 44.16 10.5293 44.2501 10.4568 44.3493C10.3844 44.4484 10.3392 44.5476 10.3392 44.6558C10.3392 44.7639 10.3663 44.8811 10.4478 44.9983C10.484 45.0524 10.5202 45.1065 10.5564 45.1335C10.5926 45.1696 10.6198 45.2056 10.6469 45.2327L11.0452 44.9712L10.8008 44.6107L11.1357 44.3853V44.4034Z" fill="#2D3E3E"/>
<path d="M11.9685 47.6215L12.2853 47.1527L11.7513 46.5127L11.2263 46.7291L10.8914 46.3234L13.1815 45.4941L13.5616 45.9539L12.3034 48.0361L11.9685 47.6305V47.6215ZM12.5207 46.8012L12.8284 46.3325C12.8284 46.3325 12.8737 46.2603 12.9099 46.2153C12.9461 46.1702 12.9733 46.1161 13.0095 46.071C13.0457 46.026 13.0728 45.9809 13.1 45.9448C13.0638 45.9629 13.0095 45.9899 12.9461 46.0079C12.8828 46.026 12.8284 46.062 12.7741 46.0801C12.7198 46.0981 12.6836 46.1161 12.6565 46.1251L12.1405 46.3325L12.5207 46.7922V46.8012Z" fill="#2D3E3E"/>
<path d="M14.7929 47.3059C14.9377 47.4501 15.0463 47.5944 15.1006 47.7206C15.1549 47.8468 15.1821 47.9729 15.1549 48.0901C15.1278 48.2073 15.0644 48.3245 14.9558 48.4327C14.8834 48.5048 14.8019 48.5589 14.7205 48.5859C14.639 48.613 14.5575 48.622 14.467 48.613C14.3855 48.613 14.3041 48.5859 14.2226 48.5589L13.9963 49.7397L13.6161 49.3611L13.8515 48.3606L13.6704 48.1803L13.0459 48.8022L12.7019 48.4597L14.3222 46.8462L14.7929 47.3149V47.3059ZM14.4851 47.5583L14.3765 47.4501L13.942 47.8828L14.0506 47.991C14.1683 48.1082 14.2679 48.1622 14.3493 48.1803C14.4308 48.1983 14.5213 48.1622 14.5937 48.0901C14.6661 48.018 14.7023 47.9369 14.6752 47.8468C14.6571 47.7656 14.5937 47.6665 14.4761 47.5493L14.4851 47.5583Z" fill="#2D3E3E"/>
<path d="M15.5168 51.0016L15.7341 50.4788L15.0914 49.947L14.6207 50.2625L14.2134 49.929L16.3043 48.667L16.766 49.0456L15.9332 51.3261L15.5259 50.9926L15.5168 51.0016ZM15.9061 50.0912L16.1143 49.5774C16.1143 49.5774 16.1505 49.4963 16.1686 49.4422C16.1867 49.3881 16.2138 49.334 16.241 49.2799C16.2681 49.2259 16.2862 49.1808 16.3043 49.1357C16.2681 49.1628 16.2229 49.1898 16.1686 49.2349C16.1143 49.2709 16.0599 49.307 16.0147 49.343C15.9694 49.3791 15.9332 49.3971 15.9061 49.4152L15.4444 49.7216L15.9061 50.1002V50.0912Z" fill="#2D3E3E"/>
<path d="M18.1148 52.7954L17.5988 52.4619L17.7165 50.4697H17.7075C17.6712 50.5238 17.635 50.5869 17.5988 50.65C17.5626 50.7131 17.5264 50.7762 17.4902 50.8393C17.454 50.9024 17.4178 50.9655 17.3816 51.0286L16.7932 51.93L16.4312 51.6957L17.6894 49.7847L18.2053 50.1182L18.0967 52.0923H18.1057C18.1419 52.0382 18.1781 51.9751 18.2144 51.921C18.2506 51.8579 18.2868 51.8038 18.323 51.7407C18.3592 51.6776 18.3954 51.6235 18.4316 51.5604L19.029 50.659L19.3911 50.8934L18.1329 52.8044L18.1148 52.7954Z" fill="#2D3E3E"/>
<path d="M19.6625 53.625L19.228 53.3996L20.097 51.732L19.5448 51.4436L19.7349 51.083L21.2737 51.8762L21.0836 52.2368L20.5315 51.9484L19.6625 53.616V53.625Z" fill="#2D3E3E"/>
<path d="M20.7761 54.1564L21.6904 52.0651L22.1339 52.2544L21.2197 54.3457L20.7761 54.1564ZM22.8128 51.7767V51.8037C22.7585 51.8217 22.7132 51.8398 22.6498 51.8578C22.5865 51.8758 22.5231 51.8938 22.4507 51.9209C22.3783 51.9389 22.3149 51.9569 22.2425 51.975C22.1792 51.993 22.1158 52.002 22.0705 52.011L21.7809 51.8848L21.799 51.8488C21.8442 51.8217 21.8985 51.7947 21.9619 51.7676C22.0253 51.7406 22.0886 51.7045 22.152 51.6685C22.2154 51.6324 22.2697 51.5964 22.3149 51.5693L22.8037 51.7857L22.8128 51.7767Z" fill="#2D3E3E"/>
<path d="M23.3287 55.1301L23.3468 54.5622L22.5593 54.2917L22.2244 54.7515L21.7266 54.5802L23.2473 52.6782L23.8085 52.8765V55.3103L23.3287 55.1391V55.1301ZM23.374 54.1385L23.3921 53.5796C23.3921 53.5796 23.3921 53.4985 23.3921 53.4354C23.3921 53.3813 23.3921 53.3182 23.3921 53.2551C23.3921 53.192 23.3921 53.147 23.4011 53.1019C23.374 53.1379 23.3468 53.183 23.3106 53.2371C23.2744 53.2912 23.2382 53.3453 23.202 53.3903C23.1658 53.4354 23.1477 53.4715 23.1296 53.4895L22.8037 53.9402L23.3649 54.1385H23.374Z" fill="#2D3E3E"/>
<path d="M27.5016 54.9229C27.4563 55.1753 27.3658 55.3737 27.2391 55.5269C27.1124 55.6801 26.9494 55.7793 26.7412 55.8334C26.5421 55.8875 26.3158 55.8875 26.0533 55.8334L25.4197 55.7162L25.8451 53.4717L26.5512 53.6069C26.7865 53.652 26.9856 53.7331 27.1395 53.8503C27.2934 53.9675 27.4111 54.1117 27.4744 54.292C27.5378 54.4722 27.5468 54.6796 27.5016 54.9229ZM27.0037 54.8418C27.0309 54.6796 27.0399 54.5353 27.0037 54.4182C26.9766 54.301 26.9223 54.2108 26.8318 54.1387C26.7503 54.0666 26.6326 54.0215 26.4968 53.9945L26.2434 53.9494L25.9628 55.4097L26.171 55.4458C26.4063 55.4908 26.5874 55.4638 26.7231 55.3556C26.8589 55.2565 26.9494 55.0762 26.9947 54.8328L27.0037 54.8418Z" fill="#2D3E3E"/>
<path d="M29.3572 56.275L28.0447 56.1578L28.2529 53.8862L29.5654 54.0034L29.5292 54.4L28.6964 54.3189L28.6511 54.8147L29.4206 54.8868L29.3843 55.2834L28.6149 55.2113L28.5606 55.7972L29.3934 55.8783L29.3572 56.275Z" fill="#2D3E3E"/>
<path d="M32.498 55.6439C32.498 55.7791 32.4708 55.8963 32.4075 55.9955C32.3441 56.0946 32.2536 56.1757 32.1269 56.2388C32.0001 56.2929 31.8462 56.329 31.6743 56.329C31.5928 56.329 31.5204 56.329 31.4389 56.329C31.3665 56.329 31.2941 56.3109 31.2217 56.2929C31.1493 56.2749 31.0859 56.2478 31.0225 56.2208V55.7701C31.1221 55.8152 31.2307 55.8512 31.3484 55.8873C31.4661 55.9233 31.5837 55.9414 31.7014 55.9324C31.7829 55.9324 31.8462 55.9143 31.8915 55.8963C31.9368 55.8783 31.973 55.8422 31.9911 55.8062C32.0092 55.7701 32.0182 55.725 32.0182 55.68C32.0182 55.6259 32.0001 55.5718 31.9549 55.5357C31.9096 55.4997 31.8644 55.4636 31.7919 55.4276C31.7195 55.3915 31.6471 55.3555 31.5566 55.3194C31.5023 55.2924 31.448 55.2653 31.3756 55.2293C31.3122 55.1932 31.2488 55.1571 31.1945 55.1031C31.1402 55.049 31.0859 54.9949 31.0497 54.9138C31.0135 54.8326 30.9863 54.7515 30.9863 54.6433C30.9863 54.5081 31.0135 54.3909 31.0678 54.2918C31.1312 54.1926 31.2126 54.1205 31.3303 54.0574C31.448 54.0033 31.5837 53.9763 31.7376 53.9673C31.8553 53.9673 31.973 53.9673 32.0816 53.9943C32.1902 54.0214 32.3079 54.0574 32.4256 54.1025L32.2807 54.4811C32.1721 54.445 32.0816 54.409 31.9911 54.3909C31.9096 54.3729 31.8191 54.3639 31.7376 54.3639C31.6743 54.3639 31.629 54.3729 31.5837 54.4C31.5385 54.418 31.5113 54.445 31.4932 54.4811C31.4751 54.5171 31.4661 54.5532 31.4661 54.6073C31.4661 54.6614 31.4842 54.7064 31.5204 54.7425C31.5566 54.7786 31.6018 54.8146 31.6652 54.8417C31.7286 54.8687 31.81 54.9138 31.9096 54.9588C32.0273 55.0129 32.1269 55.067 32.2174 55.1211C32.2988 55.1752 32.3712 55.2473 32.4165 55.3284C32.4618 55.4095 32.4889 55.5087 32.4889 55.6259L32.498 55.6439Z" fill="#2D3E3E"/>
<path d="M34.6072 56.0678L34.3809 55.5449L33.5481 55.6441L33.4486 56.203L32.9326 56.2661L33.4576 53.8954L34.046 53.8232L35.1231 56.0047L34.6072 56.0678ZM34.218 55.1573L33.9917 54.6525C33.9917 54.6525 33.9555 54.5714 33.9374 54.5263C33.9102 54.4723 33.8921 54.4182 33.865 54.3641C33.8378 54.31 33.8197 54.2649 33.8016 54.2199C33.8016 54.2649 33.7925 54.319 33.7744 54.3821C33.7654 54.4452 33.7563 54.5083 33.7473 54.5624C33.7382 54.6165 33.7292 54.6616 33.7292 54.6886L33.6296 55.2385L34.227 55.1663L34.218 55.1573Z" fill="#2D3E3E"/>
<path d="M36.5532 55.6979L36.0826 55.797L35.6843 53.9581L35.0778 54.0843L34.9963 53.6877L36.689 53.3271L36.7705 53.7238L36.164 53.85L36.5623 55.6888L36.5532 55.6979Z" fill="#2D3E3E"/>
<path d="M37.7481 55.4003L37.1145 53.2099L37.5852 53.0747L38.2188 55.2651L37.7481 55.4003Z" fill="#2D3E3E"/>
<path d="M40.0653 53.9671C40.1106 54.0933 40.1196 54.2195 40.0925 54.3367C40.0653 54.4539 40.0019 54.562 39.9024 54.6522C39.8028 54.7423 39.667 54.8235 39.495 54.8866C39.4226 54.9136 39.3412 54.9316 39.2687 54.9497C39.1963 54.9677 39.1239 54.9767 39.0515 54.9767C38.9791 54.9767 38.9067 54.9767 38.8433 54.9767L38.6894 54.553C38.8071 54.553 38.9248 54.562 39.0515 54.553C39.1782 54.544 39.2869 54.526 39.3955 54.4899C39.4679 54.4629 39.5222 54.4358 39.5675 54.3998C39.6127 54.3637 39.6308 54.3277 39.6399 54.2826C39.6489 54.2375 39.6399 54.2015 39.6308 54.1564C39.6127 54.1023 39.5765 54.0663 39.5222 54.0392C39.4679 54.0122 39.4045 53.9942 39.3321 53.9851C39.2597 53.9761 39.1692 53.9671 39.0787 53.9581C39.0243 53.9581 38.9519 53.9401 38.8795 53.9311C38.8071 53.922 38.7347 53.895 38.6623 53.868C38.5899 53.8409 38.5265 53.7959 38.4631 53.7328C38.3998 53.6787 38.3545 53.5975 38.3183 53.4984C38.273 53.3722 38.264 53.246 38.2912 53.1378C38.3183 53.0297 38.3726 52.9215 38.4722 52.8404C38.5718 52.7592 38.6804 52.6781 38.8343 52.624C38.9429 52.588 39.0606 52.5609 39.1692 52.5429C39.2778 52.5339 39.4045 52.5339 39.5312 52.5429L39.5131 52.9485C39.3955 52.9485 39.2959 52.9485 39.2144 52.9485C39.1239 52.9485 39.0425 52.9756 38.961 53.0026C38.9067 53.0206 38.8614 53.0477 38.8252 53.0837C38.789 53.1198 38.7709 53.1558 38.7618 53.1919C38.7618 53.228 38.7618 53.273 38.7709 53.3181C38.789 53.3722 38.8162 53.4082 38.8614 53.4263C38.9067 53.4443 38.961 53.4713 39.0334 53.4804C39.1058 53.4894 39.1963 53.4984 39.305 53.5074C39.4317 53.5164 39.5494 53.5435 39.6489 53.5705C39.7485 53.5975 39.83 53.6426 39.9024 53.7057C39.9748 53.7688 40.0291 53.8499 40.0653 53.9671Z" fill="#2D3E3E"/>
<path d="M41.3508 54.1023L40.9163 54.3006L39.9568 52.2274L41.1516 51.6865L41.3146 52.0471L40.5542 52.3896L40.7986 52.9215L41.5046 52.5969L41.6676 52.9575L40.9615 53.282L41.3417 54.1023H41.3508Z" fill="#2D3E3E"/>
<path d="M43.9758 52.7234L43.5595 52.3358L42.8353 52.7504L42.962 53.3003L42.5095 53.5617L42.0659 51.173L42.5819 50.8755L44.4284 52.462L43.9758 52.7234ZM43.2608 52.0473L42.8534 51.6687C42.8534 51.6687 42.7901 51.6146 42.7448 51.5696C42.6995 51.5245 42.6543 51.4884 42.6181 51.4434C42.5728 51.3983 42.5366 51.3623 42.5095 51.3352C42.5185 51.3803 42.5366 51.4344 42.5547 51.4975C42.5728 51.5606 42.5819 51.6237 42.6 51.6777C42.6181 51.7318 42.6271 51.7769 42.6271 51.8039L42.7539 52.3448L43.2698 52.0473H43.2608Z" fill="#2D3E3E"/>
<path d="M44.6004 50.0191C44.528 50.0731 44.4646 50.1362 44.4284 50.2084C44.3922 50.2805 44.3741 50.3526 44.3741 50.4427C44.3741 50.5329 44.3922 50.614 44.4284 50.7041C44.4646 50.7943 44.5189 50.8934 44.5823 50.9926C44.6728 51.1278 44.7724 51.2269 44.8719 51.2991C44.9715 51.3712 45.0711 51.4072 45.1797 51.4072C45.2883 51.4072 45.3879 51.3712 45.4965 51.29C45.5689 51.236 45.6413 51.1729 45.7047 51.1007C45.7681 51.0286 45.8314 50.9475 45.9038 50.8484L46.1392 51.1819C46.0849 51.272 46.0125 51.3531 45.9491 51.4253C45.8857 51.4974 45.7952 51.5695 45.6957 51.6416C45.5056 51.7768 45.3155 51.8489 45.1344 51.8579C44.9534 51.8669 44.7814 51.8219 44.6185 51.7227C44.4556 51.6236 44.3107 51.4793 44.175 51.281C44.0754 51.1368 44.003 51.0016 43.9577 50.8574C43.9125 50.7131 43.8944 50.5689 43.9125 50.4337C43.9215 50.2985 43.9668 50.1633 44.0482 50.0371C44.1206 49.9109 44.2293 49.8027 44.3741 49.7036C44.4646 49.6405 44.5642 49.5864 44.6819 49.5413C44.7905 49.4962 44.9082 49.4692 45.0168 49.4512L45.1163 49.8658C45.0258 49.8838 44.9353 49.9019 44.8448 49.9289C44.7543 49.956 44.6819 49.992 44.6094 50.0371L44.6004 50.0191Z" fill="#2D3E3E"/>
<path d="M46.2838 48.6762C46.2114 48.7393 46.1662 48.8024 46.13 48.8745C46.0938 48.9466 46.0847 49.0277 46.0938 49.1088C46.0938 49.19 46.13 49.2801 46.1662 49.3703C46.2114 49.4604 46.2748 49.5505 46.3472 49.6407C46.4558 49.7669 46.5554 49.857 46.664 49.9111C46.7726 49.9742 46.8722 50.0012 46.9808 49.9832C47.0895 49.9652 47.189 49.9291 47.2886 49.839C47.361 49.7759 47.4244 49.7128 47.4787 49.6317C47.533 49.5505 47.5964 49.4694 47.6507 49.3703L47.9132 49.6767C47.8589 49.7759 47.8045 49.866 47.7412 49.9381C47.6778 50.0193 47.5964 50.0914 47.5058 50.1725C47.3248 50.3257 47.1438 50.4159 46.9718 50.4429C46.7907 50.47 46.6188 50.4429 46.4468 50.3528C46.2748 50.2626 46.1119 50.1365 45.958 49.9562C45.8494 49.821 45.7588 49.6857 45.7045 49.5505C45.6502 49.4153 45.614 49.2711 45.614 49.1359C45.614 49.0007 45.6502 48.8655 45.7136 48.7303C45.7769 48.6041 45.8765 48.4779 46.0032 48.3697C46.0938 48.2976 46.1843 48.2345 46.2929 48.1804C46.4015 48.1263 46.5101 48.0903 46.6188 48.0542L46.7545 48.4508C46.664 48.4779 46.5735 48.5049 46.492 48.541C46.4106 48.577 46.3291 48.6221 46.2657 48.6762H46.2838Z" fill="#2D3E3E"/>
<path d="M48.5106 49.2258L46.8994 47.6033L47.2434 47.2607L48.8546 48.8833L48.5106 49.2258Z" fill="#2D3E3E"/>
<path d="M48.2209 45.1333L48.2481 45.1513C48.2481 45.1513 48.2481 45.2505 48.2481 45.3136C48.2481 45.3767 48.2481 45.4488 48.2481 45.5209C48.2481 45.593 48.2481 45.6651 48.2481 45.7372C48.2481 45.8094 48.2481 45.8634 48.239 45.9175L48.0308 46.1609L47.9946 46.1339C47.9946 46.0798 47.9765 46.0257 47.9675 45.9536C47.9584 45.8815 47.9403 45.8094 47.9222 45.7372C47.9041 45.6651 47.8951 45.602 47.877 45.5479L48.2209 45.1423V45.1333ZM49.9408 45.9626C50.0765 46.0798 50.1852 46.197 50.2666 46.3232C50.3481 46.4494 50.4024 46.5846 50.4205 46.7198C50.4386 46.855 50.4296 46.9902 50.3843 47.1344C50.339 47.2787 50.2576 47.4139 50.1309 47.5581C50.0132 47.7023 49.8864 47.8015 49.7507 47.8736C49.6149 47.9367 49.4882 47.9727 49.3433 47.9727C49.2076 47.9727 49.0718 47.9457 48.927 47.8826C48.7912 47.8195 48.6464 47.7384 48.5196 47.6212C48.3386 47.468 48.2028 47.3057 48.1214 47.1344C48.0399 46.9632 48.0127 46.7829 48.0399 46.5936C48.067 46.4043 48.1666 46.224 48.3295 46.0347C48.4925 45.8454 48.6645 45.7192 48.8364 45.6651C49.0084 45.611 49.1985 45.602 49.3795 45.6651C49.5606 45.7282 49.7507 45.8274 49.9317 45.9806L49.9408 45.9626ZM48.8545 47.2336C48.9722 47.3327 49.0899 47.4139 49.2076 47.4589C49.3252 47.504 49.4339 47.513 49.5334 47.486C49.633 47.4589 49.7326 47.3958 49.8231 47.2967C49.9136 47.1885 49.9589 47.0894 49.9679 46.9812C49.9679 46.873 49.9498 46.7739 49.8865 46.6657C49.8231 46.5575 49.7326 46.4584 49.6149 46.3502C49.4339 46.197 49.2619 46.1068 49.0989 46.0888C48.936 46.0708 48.7912 46.1339 48.6554 46.2871C48.5649 46.3953 48.5196 46.4944 48.5106 46.6026C48.5106 46.7108 48.5287 46.8099 48.592 46.9181C48.6554 47.0263 48.7459 47.1254 48.8726 47.2336H48.8545Z" fill="#2D3E3E"/>
<path d="M52.421 44.3946L52.077 44.9084L50.0856 44.7731C50.149 44.8182 50.2124 44.8543 50.2757 44.8993C50.3391 44.9354 50.4024 44.9715 50.4658 45.0165C50.5292 45.0526 50.5925 45.0886 50.6559 45.1337L51.552 45.7286L51.3076 46.0892L49.4067 44.8182L49.7507 44.3134L51.733 44.4396C51.6697 44.3946 51.6154 44.3585 51.552 44.3224C51.4887 44.2864 51.4343 44.2503 51.371 44.2143C51.3076 44.1782 51.2533 44.1422 51.1899 44.1061L50.2938 43.5022L50.5382 43.1416L52.4391 44.4126L52.421 44.3946Z" fill="#2D3E3E"/>
</g>
<defs>
<clipPath id="clip0_337_3898">
<rect width="61" height="64" fill="white" transform="translate(0.5)"/>
</clipPath>
</defs>
</svg>
