<svg width="65" height="64" viewBox="0 0 65 64" fill="none" xmlns="http://www.w3.org/2000/svg">
<g clip-path="url(#clip0_337_3947)">
<path d="M64.5 31.7998C64.5 49.4729 50.1731 63.7998 32.5 63.7998C14.8269 63.7998 0.5 49.4729 0.5 31.7998C0.5 14.1267 14.8269 -0.200195 32.5 -0.200195C50.1731 -0.200195 64.5 14.1267 64.5 31.7998Z" fill="#9AC42F"/>
<path d="M32.3845 42.4533H53.9312V63.9999H32.3845V42.4533ZM22.2067 16.8622C21.3801 16.711 20.6512 16.5688 19.9223 16.471C19.7267 16.4444 19.4956 16.5066 19.3178 16.5955C18.6956 16.8799 18.6156 17.6177 19.2112 17.9555C19.6556 18.2044 20.1712 18.3288 20.6512 18.5066C21.7001 18.8977 22.6512 19.431 23.1223 20.5155C24.1534 22.8977 22.7223 25.1822 20.029 25.4399C18.909 25.5466 17.8156 25.3777 16.7578 24.9688C16.349 24.8088 16.1623 24.5599 16.1534 24.1066C16.1356 23.4844 16.0378 22.8533 15.9667 22.1066C16.2156 22.231 16.3934 22.311 16.5623 22.3999C17.469 22.9066 18.429 23.1822 19.4867 23.1022C20.1001 23.0577 20.5534 22.7288 20.6423 22.2488C20.7223 21.8044 20.429 21.351 19.8512 21.1199C19.1934 20.8533 18.5001 20.6844 17.8778 20.3555C16.1801 19.4577 15.7801 17.7422 16.4112 16.1155C16.909 14.8355 18.0201 14.311 19.3001 14.1422C20.349 13.9999 21.3623 14.1955 22.3401 14.5777C22.6156 14.6844 22.7134 14.8444 22.6245 15.1555C22.4645 15.7422 22.3401 16.3377 22.2245 16.8622H22.2067ZM43.5667 34.8888C44.6334 34.8888 45.5845 33.8488 45.4601 32.7733C45.3623 31.9466 44.9978 31.2355 44.3401 30.711C42.7134 29.4222 40.0467 29.7244 38.749 31.351C37.3712 33.0755 37.5845 35.8933 39.229 37.2355C40.7845 38.5066 42.5267 38.4977 44.3223 37.911C44.4556 37.8666 44.6423 37.751 44.6601 37.6444C44.7667 36.9688 44.8378 36.2755 44.9267 35.5466C42.5445 36.3377 41.2201 36.151 40.5801 34.8977H43.5667V34.8888ZM41.9401 31.9199C42.4823 31.9288 42.8734 32.3288 42.9534 32.9955H40.6423C40.7845 32.3733 41.3534 31.911 41.9401 31.9199ZM41.469 22.1244C41.9667 23.0133 42.6778 23.351 43.5134 23.3066C44.2778 23.271 45.0334 23.0755 45.8601 22.9422C45.7978 23.5199 45.7445 24.1777 45.6645 24.8355C45.6467 24.9422 45.5223 25.0755 45.4245 25.1199C43.4156 25.991 40.269 25.751 39.1223 23.0133C38.4112 21.2977 38.9001 19.2177 40.2601 18.0888C41.5667 17.0133 43.6734 16.8799 45.0423 17.8044C46.0467 18.4799 46.5001 19.4488 46.4023 20.6577C46.3578 21.1733 45.3445 22.1155 44.8201 22.1155H41.469V22.1244ZM43.8778 20.3022C43.8956 19.6888 43.549 19.2799 43.0067 19.2355C42.2956 19.1733 41.6823 19.6355 41.6023 20.3022H43.8778ZM32.2778 24.1866C31.6645 24.6755 31.149 25.1288 30.589 25.5022C30.429 25.6088 30.0823 25.5199 29.869 25.4133C29.6201 25.2888 29.4334 25.0488 29.1934 24.8266C28.4378 25.5199 27.5312 25.7244 26.509 25.4666C25.469 25.2088 24.7312 24.391 24.5801 23.2888C24.4378 22.2755 24.9001 21.1999 25.8601 20.8088C26.7223 20.4533 27.6823 20.311 28.6423 20.071C28.7312 19.6533 28.5445 19.3422 28.0112 19.3688C27.3356 19.3955 26.6601 19.5466 25.9845 19.6622C25.8067 19.6888 25.6378 19.7955 25.4067 19.8933C25.2645 19.3066 25.1045 18.7733 25.0245 18.231C24.9978 18.071 25.1578 17.7866 25.309 17.7155C26.7756 17.0666 28.2778 16.9599 29.7623 17.5999C30.7756 18.0355 31.2556 18.8799 31.2912 19.9733C31.309 20.7022 31.3178 21.431 31.2912 22.1599C31.2645 22.9777 31.309 23.751 32.269 24.1866H32.2778ZM28.6512 21.9288C28.2156 22.0177 27.7534 21.9999 27.4423 22.2044C27.2112 22.3555 27.0601 22.8088 27.0778 23.111C27.1045 23.511 27.5045 23.591 27.8778 23.5555C28.5267 23.4933 28.7934 23.0044 28.6512 21.9288ZM26.6334 32.9066C26.5445 32.1777 26.0645 32.0088 25.5934 32.0533C24.829 32.1244 24.0734 32.3288 23.2378 32.4888C23.1223 32.0088 22.9623 31.4488 22.8556 30.871C22.8378 30.7466 23.0067 30.5155 23.1401 30.4533C24.6423 29.7866 26.1712 29.6533 27.6912 30.3644C28.6423 30.8088 29.1223 31.5999 29.1134 32.6666V35.031C29.1134 35.7866 29.229 36.4977 30.1178 36.9066C29.4867 37.4133 28.9445 37.8844 28.3578 38.2844C28.2245 38.3733 27.8867 38.231 27.6912 38.1155C27.4512 37.9733 27.2645 37.7422 27.0334 37.5288C26.269 38.3555 25.2734 38.4266 24.2512 38.1688C23.0512 37.8666 22.3045 36.7199 22.4112 35.511C22.5267 34.231 23.4867 33.2799 24.8112 33.1199C25.3978 33.0488 25.9845 32.9777 26.6156 32.9066H26.6334ZM26.5978 34.6666C26.1978 34.7199 25.7978 34.6755 25.4956 34.8266C25.229 34.9599 24.9978 35.2888 24.8912 35.5733C24.8378 35.7244 25.0245 36.1155 25.1934 36.1688C25.4601 36.2666 25.8423 36.2755 26.0912 36.151C26.6423 35.8666 26.6778 35.3155 26.5978 34.6577V34.6666ZM33.7267 17.3955C33.789 16.791 33.8067 16.2133 33.9045 15.6533C34.0221 14.9364 34.3887 14.284 34.9399 13.8109C35.4911 13.3377 36.1915 13.0742 36.9178 13.0666C37.5312 13.0577 38.1356 13.1377 38.749 13.1733C39.1312 13.191 39.2467 13.3866 39.149 13.7422C39.0156 14.2577 38.8912 14.7822 38.7578 15.3422C38.029 15.2799 37.1845 14.871 36.7045 15.6533C36.4201 16.1155 36.4112 16.7555 36.2601 17.431H38.6156C38.4378 18.1422 38.3134 18.7555 38.109 19.351C38.0645 19.4933 37.7712 19.6266 37.5934 19.6355C36.3934 19.7155 36.3845 19.7066 36.3845 20.9333C36.3845 22.2044 36.3667 23.4666 36.3845 24.7377C36.3845 25.191 36.2245 25.3599 35.7801 25.3333C35.3001 25.3066 34.8201 25.3066 34.3401 25.3333C33.9045 25.3599 33.7801 25.1822 33.7801 24.7644C33.7978 23.271 33.7712 21.7688 33.7978 20.2755C33.7978 19.8044 33.6734 19.5999 33.1845 19.6533C32.7756 19.7066 32.5712 19.5288 32.6245 19.0933C32.6423 18.9422 32.6245 18.7822 32.6245 18.631C32.6245 17.8962 32.989 17.4844 33.7178 17.3955H33.7267ZM11.949 27.5999C11.949 28.3733 11.9667 29.0222 11.949 29.671C11.9312 30.0622 12.0912 30.1777 12.4467 30.1688C13.0778 30.151 13.7001 30.1688 14.4467 30.1688C14.2778 30.8977 14.1534 31.5377 13.9756 32.1688C13.949 32.2666 13.7001 32.3555 13.5578 32.3644C13.0601 32.391 12.5623 32.3733 12.0023 32.3733C12.0023 33.431 11.9667 34.4533 12.029 35.4755C12.0378 35.6622 12.429 35.8933 12.6867 35.9822C12.9445 36.071 13.2467 35.9999 13.6023 35.9999C13.5401 36.5866 13.4956 37.1466 13.4245 37.7066C13.408 37.7687 13.379 37.8267 13.3393 37.8771C13.2995 37.9276 13.2499 37.9694 13.1934 37.9999C11.8423 38.7199 9.6734 37.751 9.40673 36.2666C9.29118 35.6177 9.36229 34.9333 9.3534 34.2577V32.3644C9.06896 32.3644 8.81118 32.3466 8.5534 32.3644C8.13562 32.4088 8.00229 32.2133 8.02007 31.831C8.03785 31.4666 8.04673 31.1022 8.02007 30.7377C7.98451 30.2755 8.18896 30.0977 8.62451 30.151C9.17562 30.2222 9.39784 30.0533 9.37118 29.431C9.33562 28.3733 9.14896 28.6044 10.2156 28.2044C10.749 27.9999 11.2912 27.8222 11.9578 27.591L11.949 27.5999ZM51.1578 35.3777C51.7978 35.6266 52.3134 35.8577 52.8645 36.0266C53.1667 36.1155 53.5134 36.1333 53.8245 36.0977C53.9934 36.0799 54.2334 35.8844 54.2512 35.7422C54.2778 35.6088 54.0912 35.3688 53.9401 35.2799C53.7178 35.1466 53.4423 35.1022 53.1845 35.0133C51.8601 34.5333 51.1401 33.5822 51.229 32.4266C51.3267 31.1466 52.189 30.2044 53.6378 30.0799C54.4734 30.0088 55.3356 30.2399 56.1801 30.3555C56.4823 30.3999 56.5801 30.5866 56.4912 30.8977C56.349 31.3866 56.2423 31.8933 56.1178 32.4177C55.7445 32.311 55.4245 32.1955 55.0867 32.1155C54.8645 32.0622 54.6245 31.9999 54.4112 32.0444C54.2245 32.0888 54.0645 32.2666 53.8867 32.3822C54.0201 32.5422 54.109 32.7822 54.2778 32.8622C54.6867 33.0577 55.149 33.1555 55.5578 33.351C56.5623 33.831 57.0334 34.6755 56.9712 35.7688C56.909 36.8533 56.3223 37.5999 55.3001 37.9644C54.909 38.1066 54.4734 38.2399 54.0734 38.2044C53.2823 38.1333 52.4912 37.9644 51.7178 37.7866C51.5578 37.751 51.3445 37.5288 51.3178 37.3688C51.2201 36.7288 51.1934 36.0799 51.1401 35.3777H51.1578ZM29.6645 30.1777C30.4912 30.1777 31.2467 30.1599 32.0023 30.1955C32.1178 30.1955 32.2778 30.4355 32.3312 30.5955C32.7934 31.8044 33.229 33.0222 33.6734 34.231C34.109 33.0488 34.5712 31.8577 34.9801 30.6577C35.1223 30.2488 35.3445 30.1333 35.7445 30.151C36.3312 30.1688 36.9178 30.151 37.6378 30.151L36.9534 31.9466C36.2601 33.7688 35.549 35.5822 34.8823 37.4222C34.6956 37.9199 34.4734 38.151 33.8956 38.1244C32.6423 38.071 32.6334 38.1155 32.1978 36.9777C31.4067 34.9066 30.6245 32.8355 29.8334 30.7555C29.7712 30.6044 29.7356 30.4355 29.6556 30.1688L29.6645 30.1777ZM50.349 36.2044C50.0556 36.8888 49.8245 37.4755 49.549 38.0444C49.4867 38.1777 49.2645 38.3199 49.1223 38.3199C47.7978 38.3022 46.7223 37.3066 46.7045 35.9644C46.6601 32.7022 46.6867 29.4399 46.6778 26.1777C46.6778 25.8488 46.8112 25.7422 47.1223 25.7422C47.6378 25.751 48.1623 25.7688 48.6778 25.7422C49.1578 25.7155 49.3001 25.8844 49.3001 26.3644C49.2823 29.1288 49.3001 31.8844 49.2823 34.6488C49.2823 35.4222 49.3267 36.0888 50.3578 36.2044H50.349ZM18.9623 38.0088C18.1001 38.0088 17.3445 38.0266 16.5801 37.991C16.4734 37.991 16.2956 37.751 16.2867 37.6177C16.269 35.2799 16.269 32.9333 16.2867 30.5955C16.2867 30.4444 16.5267 30.1866 16.669 30.1777C17.2823 30.1333 17.8956 30.1333 18.509 30.1777C18.6601 30.1866 18.8378 30.4177 18.909 30.5866C18.9801 30.7377 18.9267 30.951 18.9267 31.2799C19.7267 30.2488 20.5978 29.7688 21.8334 30.1866C21.6201 31.111 21.4245 31.9999 21.2201 32.9066C20.9178 32.871 20.6601 32.8266 20.4023 32.8177C19.5134 32.7999 18.989 33.2888 18.9712 34.1688C18.9534 35.1644 18.9712 36.1688 18.9712 37.1644V37.9999L18.9623 38.0088Z" fill="#020741"/>
<path d="M36.1088 50.0798C36.0466 49.8931 35.9844 49.8131 35.7977 49.8131H35.7533V49.7153C35.9222 49.7153 36.0555 49.7242 36.1533 49.7242C36.2688 49.7242 36.4111 49.7242 36.5711 49.7153V49.8131H36.5533C36.4199 49.8131 36.3577 49.8576 36.3577 49.9465C36.3577 49.9731 36.3577 50.0087 36.3755 50.0531L36.8466 51.4842L37.371 49.6976H37.4688L38.0377 51.4842L38.4555 50.062C38.4555 50.062 38.4733 49.9731 38.4733 49.9376C38.4733 49.8309 38.4199 49.8131 38.2688 49.8042V49.7065C38.4022 49.7065 38.5177 49.7153 38.6244 49.7153C38.6955 49.7153 38.8022 49.7153 38.9444 49.7065V49.8042C38.7488 49.8042 38.6866 49.8753 38.6244 50.062L37.9933 51.9642H37.9311L37.3622 50.1598L36.8288 51.9642H36.7577L36.0999 50.0709L36.1088 50.0798ZM38.8555 50.8265C38.8555 50.1776 39.3355 49.6709 39.9666 49.6709C40.6422 49.6709 41.1399 50.1598 41.1399 50.8265C41.1399 51.4931 40.6688 51.9731 40.0111 51.9731C39.3533 51.9731 38.8466 51.4753 38.8466 50.8265H38.8555ZM40.0466 51.8576C40.4911 51.8576 40.8466 51.4753 40.8466 50.9153C40.8466 50.2665 40.4822 49.7865 39.9577 49.7865C39.4777 49.7865 39.1666 50.1331 39.1666 50.7642C39.1666 51.422 39.5755 51.8576 40.0555 51.8576H40.0466ZM42.731 51.4576C42.8822 51.7242 42.9622 51.8753 43.2555 51.8842V51.9553C43.1933 51.9553 43.1311 51.9642 43.0777 51.9642C42.8022 51.9642 42.6777 51.8665 42.5177 51.6087L42.2333 51.1376C42.1711 51.0398 42.1355 50.9687 42.0999 50.9509C42.0733 50.942 41.9933 50.9331 41.8511 50.9242V51.502C41.8511 51.742 41.8688 51.8398 42.0822 51.8398H42.1177V51.9376C41.9488 51.9376 41.8244 51.9287 41.7266 51.9287C41.6288 51.9287 41.4955 51.9287 41.3355 51.9376V51.8398H41.3444C41.5399 51.8398 41.5933 51.7598 41.5933 51.5198V50.0709C41.5933 49.8931 41.5311 49.822 41.3799 49.822H41.3355V49.7242C41.4866 49.7331 41.6022 49.7331 41.6733 49.7331C41.8599 49.7331 42.0288 49.7153 42.1799 49.7153C42.6333 49.7153 42.8822 49.9465 42.8822 50.2931C42.8822 50.5953 42.7311 50.7731 42.4199 50.8442L42.7577 51.4487L42.731 51.4576ZM42.0733 50.8087C42.4022 50.8087 42.5711 50.6487 42.5711 50.3465C42.5711 50.0176 42.3844 49.8309 42.0466 49.8309C42.0022 49.8309 41.9311 49.8309 41.8511 49.8398V50.782C41.9222 50.7998 42.0022 50.8087 42.0733 50.8087ZM43.8688 49.7331C43.9666 49.7331 44.0999 49.7331 44.2688 49.7242V49.822C44.0911 49.822 44.0111 49.8931 44.0111 50.0709V51.4487C44.0111 51.7509 44.1266 51.8042 44.5088 51.8042C44.891 51.8042 45.0155 51.7331 45.051 51.3776H45.1399C45.1399 51.5553 45.1399 51.742 45.131 51.9376C44.5888 51.9376 44.2155 51.9287 44.0199 51.9287C43.8955 51.9287 43.7177 51.9287 43.4866 51.9376V51.8398H43.4955C43.691 51.8398 43.7444 51.7598 43.7444 51.5198V50.0709C43.7444 49.8931 43.6911 49.822 43.5311 49.822H43.4866V49.7242C43.6466 49.7242 43.771 49.7331 43.8777 49.7331H43.8688ZM45.3266 51.8309H45.3444C45.5577 51.8309 45.5933 51.742 45.5933 51.4842V50.0531C45.5933 49.8753 45.5311 49.8042 45.3799 49.8042H45.3355V49.7065C45.4777 49.7065 45.6111 49.7153 45.7266 49.7153C45.9133 49.7153 46.1088 49.6976 46.3044 49.6976C46.6866 49.6976 46.971 49.7687 47.211 49.9642C47.4422 50.1509 47.5755 50.462 47.5755 50.7731C47.5755 51.4842 47.1133 51.9198 46.2777 51.9198C46.0822 51.9198 45.8955 51.902 45.7177 51.902C45.6022 51.902 45.4688 51.902 45.3177 51.9109V51.8131L45.3266 51.8309ZM45.8688 51.4576C45.8688 51.7331 45.9399 51.8131 46.2688 51.8131C46.9355 51.8131 47.3177 51.4576 47.3177 50.8976C47.3177 50.2665 46.9177 49.8398 46.2688 49.8398C46.1444 49.8398 46.0111 49.8487 45.8688 49.8576V51.4576ZM36.3755 52.5509C35.9844 52.5509 35.851 52.6309 35.8422 52.9865H35.7444V52.4265H37.6555V52.9865H37.5577C37.5577 52.5865 37.4244 52.5509 37.0244 52.5509H36.8288V54.2042C36.8288 54.462 36.8377 54.542 37.1044 54.542V54.6398C36.9177 54.6398 36.7844 54.6309 36.7044 54.6309C36.6066 54.6309 36.4733 54.6309 36.2955 54.6398V54.542C36.5177 54.542 36.5711 54.4709 36.5711 54.222V52.5509H36.3755ZM39.2822 54.1598C39.4333 54.4265 39.5133 54.5776 39.8066 54.5865V54.6576C39.7444 54.6576 39.6822 54.6665 39.6288 54.6665C39.3533 54.6665 39.2288 54.5687 39.0688 54.3109L38.7844 53.8398C38.7222 53.742 38.6866 53.6709 38.651 53.6531C38.6244 53.6442 38.5444 53.6353 38.4022 53.6265V54.2042C38.4022 54.4442 38.4199 54.542 38.6333 54.542H38.6688V54.6398C38.4999 54.6398 38.3755 54.6309 38.2777 54.6309C38.1799 54.6309 38.0466 54.6309 37.8866 54.6398V54.542H37.8955C38.091 54.542 38.1444 54.462 38.1444 54.222V52.7731C38.1444 52.5953 38.0822 52.5242 37.9311 52.5242H37.8866V52.4265C38.0377 52.4353 38.1533 52.4353 38.2244 52.4353C38.411 52.4353 38.5799 52.4176 38.731 52.4176C39.1844 52.4176 39.4333 52.6487 39.4333 52.9953C39.4333 53.2976 39.2822 53.4753 38.971 53.5465L39.3088 54.1509L39.2822 54.1598ZM38.6244 53.5109C38.9533 53.5109 39.1222 53.3509 39.1222 53.0487C39.1222 52.7198 38.9355 52.5331 38.5977 52.5331C38.5533 52.5331 38.4822 52.5331 38.4022 52.542V53.4842C38.4733 53.502 38.5533 53.5109 38.6244 53.5109Z" fill="white"/>
<path d="M39.7889 54.5602C39.9489 54.5513 40.0556 54.4802 40.1089 54.3291L40.8644 52.3735H40.9178L41.7178 54.2935C41.7889 54.4713 41.8867 54.5513 42.0644 54.5602V54.658C41.8867 54.658 41.7622 54.6491 41.7 54.6491C41.5667 54.6491 41.4156 54.6491 41.2467 54.658V54.5602C41.4067 54.5602 41.4956 54.5069 41.4956 54.4091C41.4956 54.3913 41.4956 54.3558 41.4778 54.3291L41.2467 53.7691H40.5L40.3133 54.3291C40.3133 54.3291 40.2956 54.4002 40.2956 54.4358C40.2956 54.5158 40.34 54.5424 40.4822 54.5602V54.658C40.3311 54.658 40.2067 54.6491 40.1 54.6491C40.0467 54.6491 39.9489 54.6491 39.8067 54.658V54.5602H39.7889ZM41.1756 53.6358L40.8378 52.8002L40.5356 53.6358H41.1756ZM41.7978 52.8269C41.7178 52.6313 41.6378 52.5424 41.4422 52.5246V52.4269C41.6111 52.4269 41.7533 52.4358 41.8511 52.4358C41.9756 52.4358 42.1089 52.4358 42.26 52.4269V52.5246C42.1 52.5246 42.02 52.5691 42.02 52.658C42.02 52.6758 42.0289 52.7113 42.0467 52.7469L42.6867 54.2935L43.2822 52.7735C43.3 52.7113 43.3178 52.6669 43.3178 52.6313C43.3178 52.5513 43.2644 52.5246 43.1311 52.5158V52.418C43.2733 52.418 43.38 52.4269 43.4689 52.4269C43.5756 52.4269 43.6911 52.4269 43.8067 52.418V52.5158C43.5844 52.5158 43.54 52.6224 43.46 52.818L42.6511 54.6758H42.58L41.8067 52.818L41.7978 52.8269ZM44.1267 54.5424C44.3222 54.5424 44.3756 54.4624 44.3756 54.2224V52.7735C44.3756 52.5958 44.3133 52.5246 44.1622 52.5246H44.1178V52.4269C44.34 52.4358 44.5444 52.4358 44.74 52.4358C44.9356 52.4358 45.2022 52.4358 45.5844 52.4269V52.4891C45.5844 52.6313 45.6022 52.7824 45.6022 52.9424H45.5222C45.5133 52.5958 45.3178 52.5602 44.8378 52.5602H44.6511V53.4135H44.8556C45.1667 53.4135 45.3 53.378 45.3 53.2002V53.1646H45.3889V53.7513H45.3C45.3 53.5558 45.1933 53.5291 44.9267 53.5291H44.6511V54.2135C44.6511 54.4802 44.6867 54.5069 45.0067 54.5069C45.4511 54.5069 45.6022 54.4713 45.6822 54.0891H45.7622C45.7533 54.2846 45.7089 54.4713 45.7089 54.6402C45.3089 54.6402 45.0067 54.6313 44.82 54.6313C44.6067 54.6313 44.3756 54.6313 44.1267 54.6402V54.5424ZM46.42 52.4446C46.5178 52.4446 46.6511 52.4446 46.82 52.4358V52.5335C46.6422 52.5335 46.5622 52.6046 46.5622 52.7824V54.1602C46.5622 54.4624 46.6778 54.5158 47.06 54.5158C47.4422 54.5158 47.5667 54.4446 47.6022 54.0891H47.6911C47.6911 54.2669 47.6911 54.4535 47.6822 54.6491C47.14 54.6491 46.7667 54.6402 46.5711 54.6402C46.4467 54.6402 46.2689 54.6402 46.0378 54.6491V54.5513H46.0467C46.2422 54.5513 46.2956 54.4713 46.2956 54.2313V52.7824C46.2956 52.6046 46.2422 52.5335 46.0822 52.5335H46.0378V52.4358C46.1978 52.4358 46.3222 52.4446 46.4289 52.4446H46.42ZM50.0022 54.6224H49.7356L49.54 54.3913C49.38 54.578 49.1667 54.6669 48.9267 54.6669C48.5622 54.6669 48.2867 54.3735 48.2867 54.0535C48.2867 53.8135 48.4289 53.6269 48.7133 53.458C48.5178 53.2624 48.4111 53.0935 48.4111 52.9069C48.4111 52.6224 48.6511 52.3735 48.9622 52.3735C49.2733 52.3735 49.46 52.5602 49.46 52.8002C49.46 53.0135 49.3 53.218 48.9711 53.3958L49.6022 54.1158C49.6556 54.018 49.6733 53.9024 49.6733 53.778C49.6733 53.5824 49.6111 53.5202 49.4156 53.5113V53.4224C49.54 53.4224 49.6556 53.4313 49.7356 53.4313C49.8156 53.4313 49.9311 53.4313 50.0644 53.4224V53.5113C49.8778 53.5113 49.8333 53.5558 49.8067 53.7069C49.78 53.8224 49.7711 53.9824 49.6822 54.1691L49.8333 54.338C49.9578 54.4713 50.0733 54.5158 50.2867 54.5246V54.6135H50.02L50.0022 54.6224ZM48.7667 53.5469C48.5978 53.6446 48.5089 53.7958 48.5089 53.9824C48.5089 54.2846 48.7578 54.5335 49.0422 54.5335C49.1844 54.5335 49.3356 54.4713 49.4689 54.3469L48.7667 53.5469ZM49.2378 52.898C49.2378 52.6669 49.0778 52.498 48.8822 52.498C48.7222 52.498 48.58 52.6491 48.58 52.8002C48.58 52.9158 48.6422 53.0224 48.7578 53.1558L48.9178 53.3424C49.1311 53.2269 49.2467 53.0758 49.2467 52.8891L49.2378 52.898ZM36.3489 55.1913C35.9578 55.1913 35.8244 55.2713 35.8156 55.6269H35.7178V55.0669H37.6289V55.6269H37.5311C37.5311 55.2269 37.3978 55.1913 36.9978 55.1913H36.8022V56.8446C36.8022 57.1024 36.8111 57.1824 37.0778 57.1824V57.2802C36.8911 57.2802 36.7578 57.2713 36.6778 57.2713C36.58 57.2713 36.4467 57.2713 36.2689 57.2802V57.1824C36.4911 57.1824 36.5444 57.1113 36.5444 56.8624V55.1913H36.3489ZM37.8244 56.1869C37.8244 55.538 38.3044 55.0313 38.9356 55.0313C39.6111 55.0313 40.1089 55.5202 40.1089 56.1869C40.1089 56.8535 39.6378 57.3335 38.98 57.3335C38.3222 57.3335 37.8156 56.8358 37.8156 56.1869H37.8244ZM39.0244 57.2091C39.4689 57.2091 39.8244 56.8269 39.8244 56.2669C39.8244 55.618 39.46 55.138 38.9356 55.138C38.4556 55.138 38.1444 55.4846 38.1444 56.1158C38.1444 56.7735 38.5533 57.2091 39.0333 57.2091H39.0244ZM40.2689 55.1646H40.2244V55.0669C40.3844 55.0669 40.5178 55.0758 40.6156 55.0758C40.7133 55.0758 40.8467 55.0758 41.0067 55.0669V55.1646C40.7756 55.1646 40.7489 55.2624 40.7489 55.5558V56.5158C40.7489 56.9424 41.0067 57.2002 41.38 57.2002C41.8067 57.2002 42.0911 56.9069 42.0911 56.3558V55.9291C42.0911 55.3513 42.0911 55.1646 41.8333 55.1646V55.0669C41.9578 55.0669 42.0644 55.0758 42.1444 55.0758C42.2244 55.0758 42.3311 55.0758 42.4556 55.0669V55.1646C42.26 55.1913 42.2422 55.2713 42.2422 55.5024V56.0713C42.2422 56.4358 42.2422 56.7202 42.0822 56.9602C41.9222 57.1913 41.6644 57.3246 41.3533 57.3246C40.8289 57.3246 40.4822 56.9869 40.4822 56.4002V55.4135C40.4822 55.2358 40.42 55.1646 40.2689 55.1646ZM44.1889 56.8002C44.34 57.0669 44.42 57.218 44.7133 57.2269V57.298C44.6511 57.298 44.5889 57.3069 44.5356 57.3069C44.26 57.3069 44.1356 57.2091 43.9756 56.9513L43.6911 56.4802C43.6289 56.3824 43.5933 56.3113 43.5578 56.2935C43.5311 56.2846 43.4511 56.2758 43.3089 56.2669V56.8446C43.3089 57.0846 43.3267 57.1824 43.54 57.1824H43.5756V57.2802C43.4067 57.2802 43.2822 57.2713 43.1844 57.2713C43.0867 57.2713 42.9533 57.2713 42.7933 57.2802V57.1824H42.8022C42.9978 57.1824 43.0511 57.1024 43.0511 56.8624V55.4135C43.0511 55.2358 42.9889 55.1646 42.8378 55.1646H42.7933V55.0669C42.9444 55.0758 43.06 55.0758 43.1311 55.0758C43.3178 55.0758 43.4867 55.058 43.6378 55.058C44.0911 55.058 44.34 55.2891 44.34 55.6358C44.34 55.938 44.1889 56.1158 43.8778 56.1869L44.2156 56.7913L44.1889 56.8002ZM43.5222 56.1513C43.8511 56.1513 44.02 55.9913 44.02 55.6891C44.02 55.3602 43.8333 55.1735 43.4956 55.1735C43.4511 55.1735 43.38 55.1735 43.3 55.1824V56.1246C43.3711 56.1424 43.4511 56.1513 43.5222 56.1513ZM44.9444 57.1824H44.9622C45.14 57.1824 45.2022 57.1024 45.2022 56.8624V55.4135C45.2022 55.2358 45.14 55.1646 44.9889 55.1646H44.9444V55.0669C45.1044 55.0669 45.2378 55.0758 45.3444 55.0758C45.4511 55.0758 45.5756 55.0758 45.7356 55.0669V55.1646C45.5044 55.1646 45.4778 55.2624 45.4778 55.5558V56.8446C45.4778 57.0846 45.4956 57.1824 45.7 57.1824H45.7267V57.2802C45.5489 57.2802 45.4156 57.2713 45.3267 57.2713C45.2378 57.2713 45.1133 57.2713 44.9356 57.2802V57.1824H44.9444ZM46.0289 56.7113H46.1178C46.1444 57.0135 46.3667 57.2091 46.6511 57.2091C46.9356 57.2091 47.1222 57.0224 47.1222 56.7735C47.1222 56.498 46.9356 56.4002 46.6244 56.258C46.2422 56.0891 46.0289 55.9558 46.0289 55.6269C46.0289 55.298 46.3044 55.0313 46.7222 55.0313C46.9267 55.0313 47.1044 55.0846 47.2733 55.1113V55.6358H47.1844C47.1667 55.3158 46.9889 55.1558 46.6778 55.1558C46.4378 55.1558 46.2689 55.3246 46.2689 55.5202C46.2689 55.6535 46.3311 55.7691 46.4467 55.8491C46.6422 55.9735 46.8556 56.0446 47.0244 56.1513C47.2378 56.2846 47.3356 56.4358 47.3356 56.6669C47.3356 57.0758 47.06 57.3424 46.5711 57.3424C46.3933 57.3424 46.2156 57.3158 46.0289 57.2624V56.738V56.7113ZM47.6911 57.1824C47.8333 57.1824 47.9044 57.1202 47.9311 56.9691C47.9489 56.8713 47.9578 56.6491 47.9667 56.2935L47.9933 55.4669C47.9933 55.218 47.9667 55.1646 47.7178 55.1558V55.058H48.2067L49.0244 56.8624L49.7978 55.058H50.3311V55.1558C50.1 55.1735 50.0733 55.2713 50.0733 55.5113V56.7824C50.0911 57.0758 50.1 57.1735 50.3489 57.1735V57.2713C50.18 57.2713 50.0556 57.2624 49.9667 57.2624C49.8778 57.2624 49.7444 57.2624 49.5756 57.2713V57.1735C49.78 57.1646 49.8156 57.1113 49.8156 56.9246V55.3069L48.9978 57.2891H48.9267L48.1089 55.4846V56.8802C48.1 57.0758 48.1533 57.1558 48.3222 57.1735V57.2713H47.6822V57.1735L47.6911 57.1824ZM37.8333 58.3647C37.6733 58.0447 37.4067 57.8935 37.0156 57.8935C36.5178 57.8935 36.1356 58.2758 36.1356 58.8624C36.1356 59.4935 36.4911 59.938 37.0244 59.938C37.38 59.938 37.6467 59.778 37.8956 59.4402V59.6891C37.7 59.9202 37.3622 60.0624 37.0067 60.0624C36.3044 60.0624 35.8333 59.5913 35.8333 58.9424C35.8333 58.2935 36.3311 57.7602 37.0156 57.7602C37.3622 57.7602 37.6289 57.8935 37.8778 57.9558V58.3647H37.8333ZM38.1978 58.9158C38.1978 58.2669 38.6778 57.7602 39.3089 57.7602C39.9844 57.7602 40.4822 58.2491 40.4822 58.9158C40.4822 59.5824 40.0111 60.0624 39.3533 60.0624C38.6956 60.0624 38.1889 59.5646 38.1889 58.9158H38.1978ZM39.3889 59.938C39.8333 59.938 40.1889 59.5558 40.1889 58.9958C40.1889 58.3469 39.8244 57.8669 39.3 57.8669C38.82 57.8669 38.5089 58.2135 38.5089 58.8446C38.5089 59.5024 38.9178 59.938 39.3978 59.938H39.3889ZM40.5711 57.8935H40.5267V57.7958C40.6867 57.7958 40.82 57.8046 40.9178 57.8046C41.0156 57.8046 41.1489 57.8046 41.3089 57.7958V57.8935C41.0778 57.8935 41.0511 57.9913 41.0511 58.2846V59.2446C41.0511 59.6713 41.3089 59.9291 41.6822 59.9291C42.1089 59.9291 42.3933 59.6358 42.3933 59.0846V58.658C42.3933 58.0802 42.3933 57.8935 42.1356 57.8935V57.7958C42.26 57.7958 42.3667 57.8046 42.4467 57.8046C42.5267 57.8046 42.6333 57.8046 42.7578 57.7958V57.8935C42.5622 57.9202 42.5444 58.0002 42.5444 58.2313V58.8002C42.5444 59.1646 42.5444 59.4491 42.3844 59.6891C42.2244 59.9202 41.9667 60.0535 41.6556 60.0535C41.1311 60.0535 40.7844 59.7158 40.7844 59.1291V58.1424C40.7844 57.9647 40.7222 57.8935 40.5711 57.8935ZM43.4778 58.6491C43.4778 59.298 43.4956 59.6713 43.5133 59.7513C43.54 59.8669 43.5933 59.9024 43.7444 59.9113V60.0091C43.6022 60.0091 43.4956 60.0002 43.4067 60.0002C43.3178 60.0002 43.22 60.0002 43.0689 60.0091V59.9113C43.2556 59.9024 43.3089 59.8313 43.3178 59.6269C43.3178 59.6091 43.3444 59.0935 43.3444 58.1246C43.3444 57.9291 43.2822 57.8935 43.0511 57.8935V57.7958H43.54L44.98 59.5735V59.1558C44.98 58.498 44.9711 58.1335 44.9444 58.0447C44.9178 57.9291 44.8644 57.8935 44.7133 57.8847V57.7869C44.8378 57.7869 44.9444 57.7958 45.0511 57.7958C45.1489 57.7958 45.2556 57.7958 45.3889 57.7869V57.8847C45.2111 57.8935 45.1578 57.9646 45.14 58.1513C45.1311 58.2846 45.1133 58.9069 45.1044 60.018H44.9978L43.4778 58.1335C43.4778 58.3113 43.4689 58.4713 43.4689 58.6402L43.4778 58.6491ZM47.5578 58.3647C47.3978 58.0447 47.1311 57.8935 46.74 57.8935C46.2422 57.8935 45.86 58.2758 45.86 58.8624C45.86 59.4935 46.2156 59.938 46.7489 59.938C47.1044 59.938 47.3711 59.778 47.62 59.4402V59.6891C47.4244 59.9202 47.0867 60.0624 46.7311 60.0624C46.0289 60.0624 45.5578 59.5913 45.5578 58.9424C45.5578 58.2935 46.0556 57.7602 46.74 57.7602C47.0867 57.7602 47.3533 57.8935 47.6022 57.9558V58.3647H47.5578ZM47.78 59.9113H47.7978C47.9756 59.9113 48.0378 59.8313 48.0378 59.5913V58.1424C48.0378 57.9647 47.9756 57.8935 47.8244 57.8935H47.78V57.7958C47.94 57.7958 48.0733 57.8046 48.18 57.8046C48.2867 57.8046 48.4111 57.8046 48.5711 57.7958V57.8935C48.34 57.8935 48.3133 57.9913 48.3133 58.2846V59.5735C48.3133 59.8135 48.3311 59.9113 48.5356 59.9113H48.5622V60.0091C48.3844 60.0091 48.2511 60.0002 48.1622 60.0002C48.0733 60.0002 47.9489 60.0002 47.7711 60.0091V59.9113H47.78ZM49.2911 57.8135C49.3889 57.8135 49.5222 57.8135 49.6911 57.8046V57.9024C49.5133 57.9024 49.4333 57.9735 49.4333 58.1513V59.5291C49.4333 59.8313 49.5489 59.8847 49.9311 59.8847C50.3133 59.8847 50.4378 59.8135 50.4733 59.458H50.5622C50.5622 59.6358 50.5622 59.8224 50.5533 60.018C50.0111 60.018 49.6378 60.0091 49.4422 60.0091C49.3178 60.0091 49.14 60.0091 48.9089 60.018V59.9202H48.9178C49.1133 59.9202 49.1667 59.8402 49.1667 59.6002V58.1513C49.1667 57.9735 49.1133 57.9024 48.9533 57.9024H48.9089V57.8046C49.0689 57.8046 49.1933 57.8135 49.3 57.8135H49.2911Z" fill="white"/>
<path d="M48.98 48.9336C49.4954 48.9336 49.9133 48.5157 49.9133 48.0002C49.9133 47.4848 49.4954 47.0669 48.98 47.0669C48.4645 47.0669 48.0466 47.4848 48.0466 48.0002C48.0466 48.5157 48.4645 48.9336 48.98 48.9336Z" fill="#9AC42F"/>
<path d="M50.5799 47.9999C50.5799 47.111 49.8599 46.3999 48.9799 46.3999C48.7399 46.3999 48.5177 46.4532 48.3132 46.551V47.1288C48.4999 46.9866 48.731 46.8977 48.9799 46.8977C49.5932 46.8977 50.0821 47.3955 50.0821 47.9999C50.0821 48.1777 50.0288 48.3466 49.9488 48.4977L48.3132 50.9688V51.8577L50.3043 48.8977C50.4821 48.6399 50.5888 48.3377 50.5888 47.9999H50.5799Z" fill="white"/>
<path d="M27.5578 43.4843C27.5578 43.5998 27.54 43.6976 27.5133 43.7865C27.4866 43.8754 27.4333 43.9554 27.38 44.0176C27.3266 44.0798 27.2555 44.1243 27.1666 44.1598C27.0778 44.1954 26.9889 44.2132 26.8911 44.2132C26.8111 44.2132 26.7311 44.2132 26.6422 44.1865C26.5533 44.1598 26.4733 44.1421 26.3933 44.1154V42.2754H26.6333V43.0576C26.6866 42.9687 26.7666 42.8976 26.8378 42.8621C26.9089 42.8265 26.9978 42.8087 27.0866 42.8087C27.1666 42.8087 27.2289 42.8265 27.2911 42.8532C27.3533 42.8798 27.3978 42.9332 27.4422 42.9954C27.4866 43.0576 27.5133 43.1287 27.5311 43.2087C27.5489 43.2887 27.5578 43.3865 27.5578 43.4932V43.4843ZM27.3178 43.4932C27.3178 43.4221 27.3178 43.3598 27.3 43.2976C27.2822 43.2354 27.2733 43.1909 27.2466 43.1465C27.22 43.1021 27.1933 43.0665 27.1578 43.0487C27.1222 43.0309 27.0778 43.0132 27.0333 43.0132C27.0066 43.0132 26.9711 43.0132 26.9444 43.0309C26.9178 43.0487 26.8822 43.0576 26.8466 43.0754C26.8111 43.0932 26.7755 43.1287 26.74 43.1643C26.7044 43.1998 26.66 43.2443 26.6244 43.2976V43.9554C26.6689 43.9732 26.7133 43.9909 26.7666 43.9998C26.82 44.0087 26.8644 44.0176 26.9 44.0176C26.9533 44.0176 27.0066 44.0176 27.0511 43.9909C27.0955 43.9643 27.14 43.9465 27.1844 43.9021C27.2289 43.8576 27.2555 43.8043 27.2733 43.7421C27.2911 43.6798 27.3089 43.5909 27.3089 43.4932H27.3178ZM28.9089 42.8265L28.4466 44.0443C28.4022 44.1687 28.3489 44.2754 28.2955 44.3643C28.2422 44.4532 28.1889 44.5243 28.1266 44.5865C28.0644 44.6487 28.0022 44.6843 27.9311 44.7109C27.86 44.7376 27.78 44.7554 27.6911 44.7554H27.5666V44.5421H27.7C27.7444 44.5421 27.78 44.5421 27.8244 44.5243C27.8689 44.5065 27.8955 44.4887 27.9311 44.4621C27.9666 44.4354 27.9933 44.3998 28.0289 44.3554C28.0644 44.3109 28.0911 44.2576 28.1178 44.1954L27.5755 42.8354H27.8422L28.1889 43.7332L28.26 43.9465L28.34 43.7332L28.66 42.8354H28.9178L28.9089 42.8265Z" fill="#020741"/>
</g>
<defs>
<clipPath id="clip0_337_3947">
<rect width="64" height="64" fill="white" transform="translate(0.5)"/>
</clipPath>
</defs>
</svg>
