<svg width="60" height="64" viewBox="0 0 60 64" fill="none" xmlns="http://www.w3.org/2000/svg">
<g clip-path="url(#clip0_337_4110)">
<path d="M14.1546 28.5475C14.3465 27.7723 14.5567 27.1684 14.7212 26.7357C14.8948 26.285 14.9222 26.267 14.9953 26.0236C15.1598 25.4286 15.1872 24.8067 15.105 24.1757C15.041 23.707 15.105 23.2923 15.4614 22.8957C15.6716 22.6613 15.7447 22.2286 15.7447 21.8861C15.7264 21.165 15.964 20.6962 16.5488 20.2005C17.2981 19.5695 18.0657 18.8303 18.0109 17.6675C18.0017 17.3881 18.2302 17.0455 18.4495 16.8292C18.9886 16.2974 19.3816 15.7024 19.6192 15.0534C19.7197 14.774 19.9481 14.1701 19.8842 13.4039C19.8659 13.1154 19.8111 12.872 19.7562 12.7098C29.5065 12.6827 39.2567 12.6467 49.0161 12.6196C48.6505 13.4489 48.3124 14.152 48.0292 14.6929C47.1428 16.4326 47.225 15.9278 46.9691 16.5498C46.7224 17.1447 46.3203 17.343 45.7355 17.4241C45.4431 17.4692 45.1415 17.6315 44.8948 17.8117C44.639 18.001 44.6755 18.2534 44.9953 18.3796C45.2695 18.4878 45.5528 18.596 45.8452 18.6591C46.631 18.8303 46.9235 19.0917 46.9326 19.876C46.9326 20.4529 47.2067 20.7954 47.6819 21.0478C47.8281 21.1289 47.9743 21.2101 48.1114 21.3092C48.4769 21.5706 48.6231 21.8681 48.5317 22.3639C48.3398 23.3734 47.6728 24.0044 46.8778 24.5002C46.1833 24.9329 45.3974 25.2213 44.6664 25.5909C43.7069 26.0686 42.6652 25.7802 41.6691 25.9244C40.4903 26.0957 39.2841 26.1498 38.1053 26.3571C37.6575 26.4382 37.2463 26.7537 36.8443 27.0151C35.903 27.6101 35.5558 28.3402 34.5963 28.5024C34.4775 28.5205 34.377 28.5295 34.2673 28.5295C33.0063 28.5746 21.8397 28.5565 14.1455 28.5385L14.1546 28.5475Z" fill="white"/>
<path d="M30.2558 23.3824C31.7951 23.3824 33.0429 22.1515 33.0429 20.6331C33.0429 19.1147 31.7951 17.8838 30.2558 17.8838C28.7166 17.8838 27.4688 19.1147 27.4688 20.6331C27.4688 22.1515 28.7166 23.3824 30.2558 23.3824Z" fill="#FFBE23"/>
<path d="M29.4608 27.4391C29.342 27.4391 29.2324 27.403 29.2232 27.376C29.2872 26.5197 29.3603 25.6543 29.4425 24.7889L29.5065 24.0768L29.5522 23.7523C29.3146 23.8695 29.141 24.1309 28.9765 24.4735C28.8577 24.7168 28.7755 24.9151 28.5744 25.5011L28.4374 25.8977C28.1815 26.6368 28.081 26.9163 27.9256 26.9433C27.7612 26.9433 27.6332 26.8261 27.6149 26.7991L27.7886 26.3664C28.1084 25.465 28.4374 24.5366 28.7115 23.572C28.0718 23.9506 27.6424 24.4554 27.3043 25.0053C27.1855 25.2036 27.0758 25.4109 26.9844 25.5912C26.7743 25.9878 26.6098 26.3033 26.427 26.3033C26.2717 26.3033 26.1437 26.105 26.1255 26.0599C26.6006 25.3568 28.0901 23.1123 28.0901 23.1123L27.9987 22.914L27.2951 23.3647C26.8017 23.7343 26.3174 24.1039 25.833 24.4915C25.696 24.5997 25.5772 24.7259 25.4584 24.852C25.3396 24.9873 25.2117 25.1135 25.0746 25.2216C25.038 25.2216 24.9467 25.1585 24.8827 25.0684C25.431 24.3833 26.0432 23.8244 26.6555 23.2656L27.3134 22.6616L27.2494 22.4543C27.2494 22.4543 27.1672 22.3642 27.1306 22.3642L26.2717 22.7878C25.5863 23.1304 24.8918 23.4729 24.2065 23.8154C24.0511 23.8966 23.978 23.9326 23.9323 23.9326C23.8684 23.9326 23.8044 23.8515 23.6399 23.6532L24.1882 23.4278C24.6085 23.1844 25.0198 22.9411 25.4584 22.7337C25.8696 22.5264 26.2991 22.3551 26.7286 22.1839L27.3043 21.9495L27.2586 21.625L26.3265 21.7602C25.4036 21.9495 24.4898 22.1478 23.5668 22.3281C23.5668 22.3281 23.4572 22.229 23.4389 22.1118C24.0054 21.8504 24.572 21.7151 25.1294 21.5709C25.4767 21.4808 25.8239 21.3997 26.1803 21.3095C26.3722 21.2554 26.5641 21.1923 26.7925 21.1022L27.1763 20.967L26.3905 20.7957L23.512 20.6605C23.512 20.6605 23.311 20.6605 23.2835 20.6605C23.183 20.6605 23.1465 20.6605 23.1191 20.6515C23.0642 20.4802 23.0916 20.3991 23.1191 20.3811H23.3841C23.7039 20.3811 24.0237 20.3811 24.3435 20.3991L25.0929 20.4171H27.0118C27.0118 20.4171 27.0941 20.2819 27.1032 20.2459C26.5549 20.0025 25.5406 19.732 24.6908 19.5067C24.0603 19.3354 23.512 19.1912 23.3658 19.1461C23.247 19.1101 23.1647 19.056 23.1282 18.9839C23.0916 18.9028 23.1008 18.8036 23.1556 18.6684L27.1124 19.6419C27.1489 19.6419 27.2312 19.5337 27.2494 19.5067C27.2586 19.4706 27.286 19.3354 27.2494 19.3264L26.8199 19.1101C26.4636 18.9298 26.1163 18.7495 25.7599 18.5602C25.1386 18.2267 24.5172 17.8932 23.9141 17.5326C23.9141 17.5326 23.9323 17.4605 23.9872 17.3704C24.042 17.2802 24.0968 17.2351 24.1151 17.2351C24.508 17.4515 24.9101 17.6768 25.3122 17.9022C25.7234 18.1366 26.1437 18.3709 26.5641 18.5873C26.7743 18.6954 27.0027 18.7766 27.2311 18.8577L27.551 18.9659C27.5875 18.9659 27.6424 18.9118 27.6606 18.8847C27.6789 18.8577 27.7155 18.7675 27.688 18.7405L25.0563 16.4239C25.0015 16.3788 24.9375 16.3337 24.8644 16.2887C24.7456 16.2166 24.6177 16.1354 24.5994 16.0453C24.5994 16.0002 24.6085 15.9551 24.6542 15.9011C24.7182 15.8199 24.773 15.7839 24.8279 15.7839C24.9192 15.7839 25.0289 15.9011 25.1294 15.9912C25.1842 16.0453 25.2391 16.0994 25.2848 16.1354C25.8605 16.5681 26.427 17.0188 26.9936 17.4695L27.7794 18.0915C27.8343 18.1366 27.8982 18.1726 27.9896 18.2267L28.1906 18.3439L27.9074 17.6859C27.3043 16.8025 26.756 15.9912 26.2077 15.1709C26.2442 15.0628 26.3448 15.0087 26.3996 15.0087C26.8748 15.5766 27.3134 16.1444 27.752 16.7213L28.3917 17.5506C28.4556 17.6318 28.5287 17.7129 28.6293 17.803L28.7846 17.9653L28.1358 15.8199L27.4596 13.9811C27.5236 13.9811 27.5875 13.936 27.6515 13.936C27.7612 13.936 27.8343 14.0712 27.8891 14.1794C28.0262 14.4859 28.1449 14.8013 28.2729 15.1168L28.5105 15.7028C28.7937 16.3878 29.0587 17.0098 29.4243 17.6047L29.4791 16.8115C29.3877 15.865 29.2963 14.9275 29.2232 13.9811C29.2506 13.945 29.3237 13.918 29.4151 13.918C29.5065 13.918 29.5705 13.945 29.5705 13.972C29.6984 14.8013 29.7989 15.6306 29.8903 16.4599L29.9908 17.3163C30 17.3974 30.0274 17.4785 30.1644 17.5687L30.3746 16.9647C30.5391 16.0273 30.7036 15.0988 30.8681 14.1613C30.8772 14.1073 30.8681 14.0442 30.8681 13.9901C30.8681 13.936 30.8589 13.8729 30.8681 13.8459C30.8772 13.8278 30.932 13.8008 31.0143 13.8008C31.1605 13.8008 31.2793 13.8639 31.2884 13.8909C31.197 14.7112 31.0874 15.5315 30.9869 16.3518L30.8498 17.3974L30.9046 17.7129L31.3981 16.9106C31.7727 16.0543 32.12 15.2611 32.4764 14.4768C32.4946 14.4228 32.5129 14.3687 32.5312 14.3146C32.586 14.1523 32.6134 14.0712 32.7414 14.0712C32.787 14.0712 32.8327 14.0802 32.8967 14.0982C32.8876 14.1163 32.8693 14.3867 32.7962 14.567C32.5769 15.1168 32.3393 15.6667 32.1108 16.2166L31.6631 17.2802C31.6174 17.3884 31.5991 17.5146 31.5808 17.6318L31.5534 17.785L31.7727 17.9563L32.3576 17.2802L33.7283 15.4504C33.7922 15.3692 33.847 15.2791 33.9019 15.189C33.9933 15.0537 34.0755 14.9185 34.1852 14.8013C34.2217 14.8194 34.3953 14.9726 34.4045 15.0267C33.8562 15.9191 33.2988 16.8205 32.7231 17.7399L32.3667 18.3078C32.3667 18.3078 32.4032 18.3439 32.4215 18.3709C32.4215 18.3709 32.4398 18.3799 32.4581 18.3799C32.4946 18.3799 32.5312 18.3709 32.5495 18.3529C32.6317 18.3078 32.7139 18.2628 32.787 18.1997L35.2177 16.1444C35.3365 16.0363 35.4553 15.9371 35.5924 15.847H35.7934C35.83 15.9281 35.83 16.0723 35.8117 16.0994C35.501 16.3788 35.1812 16.6582 34.8614 16.9377C34.4776 17.2712 34.0938 17.6137 33.7191 17.9563C33.4724 18.1816 33.2531 18.4791 33.0246 18.9118L34.6969 18.1366L36.7803 16.9918C36.826 17.0639 36.8991 17.136 36.9083 17.1991C36.7803 17.3974 36.3965 17.6137 36.1772 17.7399L36.0493 17.812C35.1264 18.3619 34.2126 18.9118 33.3353 19.5518L33.8196 19.5878C34.1577 19.5157 34.505 19.4526 34.8431 19.3535C35.1903 19.2633 35.5376 19.1551 35.8848 19.047C36.2321 18.9388 36.5793 18.8397 36.9266 18.7405C37.0636 18.9388 37.0636 19.0199 37.0453 19.029C36.159 19.3174 35.2634 19.5968 34.3679 19.8763L33.6095 20.1106C33.6095 20.1106 33.5638 20.2368 33.5729 20.2639C33.5729 20.2999 33.6186 20.3991 33.6552 20.3991C33.6552 20.3991 35.7843 20.2999 36.4697 20.2729C36.5884 20.2729 36.7164 20.2729 36.8443 20.2729C37.0088 20.2729 37.1641 20.2729 37.3195 20.2999C37.3743 20.5073 37.3469 20.5794 37.3286 20.5884C36.3783 20.6605 35.4279 20.7236 34.4776 20.7777L33.5181 20.8408L33.2896 20.994L33.8471 21.2644C34.2126 21.3636 34.5507 21.4628 34.8888 21.5439C35.099 21.5889 35.3 21.643 35.501 21.6971C36.0036 21.8323 36.5336 21.9585 37.0636 22.0216C37.1276 22.0216 37.2829 22.0487 37.3286 22.1298C37.3652 22.2019 37.3286 22.3371 37.2464 22.3822C37.219 22.3822 37.2007 22.3822 37.1824 22.3822C37.1002 22.3822 37.0453 22.3642 36.9997 22.3461C36.296 22.1659 35.6746 22.0397 35.0441 21.9044L34.2126 21.7242C33.911 21.6611 33.6917 21.607 33.4358 21.607C33.381 21.607 33.3262 21.607 33.2714 21.607L33.3627 21.8143C33.445 21.8774 33.5364 21.9315 33.6277 21.9856L34.5233 22.4813C35.1538 22.8239 35.7752 23.1754 36.3965 23.527C36.3234 23.7433 36.2595 23.7884 36.2412 23.7884C35.6198 23.4729 35.0076 23.1484 34.3862 22.8239L33.5089 22.3642C33.4084 22.3101 33.2988 22.274 33.1983 22.229C33.1708 22.2199 33.0703 22.1929 33.0155 22.1929C32.9972 22.1929 32.9881 22.1929 32.9789 22.1929L32.8876 22.3101L35.7569 25.3298C35.7569 25.3298 35.7478 25.3298 35.7386 25.3298C35.7021 25.3298 35.6472 25.3568 35.5833 25.3568C35.5284 25.3568 35.4371 25.3388 35.3183 25.2487C35.1172 25.1044 34.9253 24.9332 34.7426 24.7709L34.5141 24.5726C33.8471 24.0047 33.1617 23.4278 32.385 22.923L32.7688 24.0318L33.1251 24.5185C33.5272 25.0594 33.9293 25.6092 34.3222 26.1591C34.304 26.1861 34.1212 26.3304 34.0664 26.3394C33.7374 25.8887 31.8641 23.3016 31.8641 23.3016C31.8641 23.3016 31.8458 23.2926 31.8276 23.2926C31.7819 23.2926 31.7088 23.3197 31.6813 23.3287L32.2479 25.3118L32.851 27.2137C32.6865 27.1777 32.6043 27.1416 32.522 27.0785L32.385 26.6819C31.8915 25.3118 31.5626 24.5456 31.4072 24.167L31.1239 23.527L30.9503 23.6802C30.9229 23.7433 30.9138 23.7974 30.9138 23.8515L31.0051 24.9422C31.0691 25.6723 31.1331 26.3935 31.1879 27.1236C31.1513 27.1687 31.0874 27.1867 31.0234 27.1867C30.9503 27.1867 30.8681 27.1597 30.8589 27.1146C30.8132 26.9163 30.795 26.709 30.7675 26.5016C30.7584 26.3844 30.7401 26.2582 30.731 26.1411C30.6488 25.5371 30.4203 23.9867 30.4203 23.9867C30.402 23.8695 30.3746 23.7523 30.2193 23.6171C30.2193 23.6171 30.2193 23.6171 30.2101 23.6171C30.1919 23.6171 30.1553 23.6532 30.137 23.6532C30.1188 23.6532 30.0822 23.7253 30.0731 23.7433C30.0548 23.8244 30.0274 23.9056 30.0182 23.9777L29.9817 24.185C29.8903 24.6898 29.7989 25.1856 29.7258 25.6904C29.6801 26.0059 29.6436 26.3213 29.607 26.6368L29.5613 27.0064C29.5522 27.2047 29.5522 27.2678 29.5248 27.3219H29.4334L29.4608 27.4391Z" fill="#FFBE23"/>
<path d="M31.0235 13.8905C31.1058 13.8905 31.188 13.9175 31.2246 13.9355C31.1332 14.7558 31.0235 15.5761 30.923 16.3874L30.7951 17.3969C30.7951 17.442 30.7951 17.4871 30.8134 17.5592C30.8225 17.5953 30.8316 17.6584 30.8499 17.7395C30.859 17.8026 30.9139 17.8477 30.9687 17.8477C30.9687 17.8477 30.9778 17.8477 30.987 17.8477C31.0418 17.8477 31.0966 17.8116 31.1149 17.7665L31.517 16.8471C31.8734 16.0358 32.2115 15.2696 32.5496 14.5124C32.577 14.4584 32.5953 14.4043 32.6135 14.3502C32.6684 14.1699 32.6958 14.1519 32.7597 14.1519C32.778 14.1519 32.7963 14.1519 32.8237 14.1519C32.8237 14.242 32.8054 14.4223 32.7506 14.5485C32.5313 15.0893 32.3029 15.6212 32.0835 16.162C31.9282 16.5316 31.7728 16.8922 31.6175 17.2617C31.5718 17.3789 31.5535 17.5051 31.5353 17.6223C31.5353 17.6764 31.517 17.7215 31.5078 17.7755C31.4987 17.8386 31.5261 17.8927 31.581 17.9198L31.7637 18.0189C31.7637 18.0189 31.8094 18.0369 31.8277 18.0369C31.8734 18.0369 31.9099 18.0189 31.9373 17.9829L32.4216 17.3429C32.8877 16.7299 33.3446 16.1169 33.8015 15.495C33.8654 15.4048 33.9203 15.3237 33.9842 15.2336C34.0573 15.1254 34.1304 15.0172 34.2036 14.9181C34.2492 14.9451 34.3041 14.9992 34.3315 15.0353C33.8106 15.8916 33.2806 16.7389 32.7506 17.5953L32.3211 18.2803C32.2846 18.3344 32.2937 18.4065 32.3394 18.4516C32.3668 18.4786 32.4034 18.4877 32.4399 18.4877C32.4673 18.4877 32.4947 18.4877 32.513 18.4696C32.5404 18.4516 32.5679 18.4336 32.6044 18.4155C32.6775 18.3705 32.7689 18.3254 32.8511 18.2623C33.3994 17.8026 33.9568 17.3338 34.5051 16.8741L35.163 16.3243C35.2087 16.2882 35.2544 16.2431 35.3001 16.2071C35.4189 16.0989 35.5286 15.9998 35.6474 15.9277C35.6474 15.9277 35.6656 15.9277 35.693 15.9277C35.7205 15.9277 35.7387 15.9277 35.757 15.9277C35.7753 15.9817 35.7844 16.0538 35.7844 16.0629C35.4737 16.3513 35.1539 16.6307 34.8341 16.9102C34.4503 17.2437 34.0665 17.5772 33.701 17.9288C33.4451 18.1631 33.2258 18.4696 32.9973 18.9023C32.9699 18.9564 32.9791 19.0195 33.0247 19.0646C33.0522 19.0916 33.0887 19.1006 33.1253 19.1006C33.1527 19.1006 33.171 19.1006 33.1892 19.0826L35.4189 17.8567L36.7713 17.1175C36.8444 17.1716 36.8627 17.2167 36.8627 17.2527C36.7622 17.3609 36.3784 17.5862 36.1774 17.7034L36.0403 17.7846L35.9763 17.8206C35.0991 18.3434 34.1853 18.8933 33.3263 19.5333C33.2715 19.5693 33.2532 19.6415 33.2806 19.7046C33.308 19.7586 33.3537 19.7857 33.4085 19.7857C33.4177 19.7857 33.4268 19.7857 33.436 19.7857C33.5822 19.7496 33.7375 19.7226 33.8837 19.6955C34.2127 19.6324 34.5508 19.5603 34.8798 19.4702C35.227 19.371 35.5742 19.2719 35.9306 19.1637C36.2596 19.0646 36.5977 18.9654 36.9358 18.8662C36.9632 18.9023 36.9998 18.9834 37.0089 19.0285C36.1408 19.3169 35.2544 19.5874 34.4046 19.8488L33.6187 20.0922C33.5548 20.1102 33.5182 20.1733 33.5182 20.2364V20.3085L33.5365 20.3896C33.5365 20.4617 33.6004 20.5158 33.6735 20.5158L34.432 20.4798C35.1173 20.4527 35.8027 20.4167 36.488 20.3896C36.6068 20.3896 36.7348 20.3896 36.8536 20.3896C37.0181 20.3896 37.1643 20.3896 37.2922 20.4167C37.3105 20.4527 37.3105 20.5338 37.2922 20.5789C36.3967 20.642 35.5103 20.7051 34.6148 20.7592L33.5182 20.8313C33.4634 20.8313 33.4177 20.8674 33.372 20.9034C33.3446 20.9215 33.308 20.9575 33.2532 21.0026C33.2075 21.0386 33.1892 21.0837 33.1984 21.1378C33.2075 21.1919 33.2441 21.2279 33.2989 21.246C33.4816 21.3 33.6644 21.3451 33.838 21.3902C34.2035 21.4893 34.5417 21.5885 34.8889 21.6696C35.0991 21.7147 35.3092 21.7688 35.5103 21.8229C36.0129 21.9491 36.5337 22.0843 37.0729 22.1474C37.2191 22.1654 37.2648 22.1924 37.2739 22.2195C37.2922 22.2646 37.2739 22.3547 37.2008 22.3907C37.1551 22.3907 37.0912 22.3637 37.0455 22.3457C37.0089 22.3277 36.9815 22.3186 36.9541 22.3096C36.3327 22.1564 35.693 22.0302 35.0808 21.895C34.8067 21.8409 34.5234 21.7778 34.2492 21.7147L34.1853 21.6967C33.9568 21.6426 33.7192 21.5975 33.4542 21.5975C33.3994 21.5975 33.3446 21.5975 33.2806 21.5975C33.2258 21.5975 33.171 21.6426 33.1527 21.6967C33.1344 21.7507 33.1527 21.8138 33.2075 21.8499L33.3263 21.931C33.4177 21.9941 33.4999 22.0482 33.6004 22.1023C33.8929 22.2646 34.1853 22.4268 34.4777 22.5891C35.0991 22.9316 35.7205 23.2741 36.3327 23.6257C36.3236 23.6707 36.2779 23.7429 36.2413 23.7699C35.6382 23.4634 35.0351 23.1479 34.432 22.8324C34.1396 22.6792 33.838 22.5169 33.5456 22.3637C33.4451 22.3096 33.3354 22.2736 33.2349 22.2285L33.0979 22.1744C33.0979 22.1744 33.0613 22.1654 33.043 22.1654C32.9973 22.1654 32.9516 22.1834 32.9334 22.2195L32.8877 22.2826L32.8511 22.3367C32.8146 22.3907 32.8146 22.4629 32.8603 22.5169L33.5091 23.175L35.6382 25.3564C35.6382 25.3564 35.6199 25.3564 35.6108 25.3564C35.5468 25.3564 35.4737 25.3203 35.3915 25.2662C35.1905 25.122 34.9986 24.9598 34.8158 24.7975C34.7427 24.7344 34.6605 24.6623 34.5691 24.5812C33.9111 24.0223 33.2258 23.4454 32.4491 22.9406C32.4216 22.9226 32.4034 22.9136 32.376 22.9136C32.3394 22.9136 32.312 22.9226 32.2846 22.9496C32.2389 22.9857 32.2206 23.0578 32.248 23.1119L32.5404 23.7158L32.7506 24.1575L33.107 24.6443C33.4908 25.1671 33.8837 25.6899 34.2584 26.2217C34.231 26.2578 34.1761 26.3029 34.1396 26.3209C33.8015 25.8792 33.4725 25.4285 33.1527 24.9778L32.8511 24.5541L32.0104 23.3913L31.9647 23.3282C31.9647 23.3282 31.8916 23.2831 31.8459 23.2831C31.8185 23.2831 31.782 23.2831 31.7546 23.3012L31.6906 23.3282C31.6266 23.3553 31.5992 23.4274 31.6175 23.4905L32.2572 25.5096L32.7872 27.1772C32.7323 27.1772 32.6684 27.1322 32.641 27.1051L32.5039 26.7175C32.0013 25.3384 31.6723 24.5631 31.517 24.1936C31.4713 24.0944 31.4439 24.0223 31.4256 23.9772C31.3982 23.9051 31.3616 23.833 31.3159 23.7429L31.2337 23.5626C31.2063 23.5175 31.1606 23.4815 31.1058 23.4815C31.1058 23.4815 31.1058 23.4815 31.0966 23.4815C31.0418 23.4815 30.987 23.5265 30.9687 23.5806C30.9504 23.6347 30.9413 23.6798 30.923 23.7158C30.8956 23.7879 30.8773 23.851 30.8865 23.9141C30.9139 24.2657 30.9504 24.6082 30.9778 24.9598C31.0418 25.6989 31.1058 26.4471 31.1697 27.1592C31.1606 27.1592 31.1241 27.1862 31.0601 27.1862C30.9961 27.1862 30.9687 27.1682 30.9687 27.1682C30.923 26.9699 30.9047 26.7716 30.8865 26.5553C30.8773 26.4291 30.859 26.3119 30.8408 26.1857C30.7494 25.5457 30.658 24.9147 30.5666 24.2747L30.5301 24.0223C30.5118 23.8961 30.4753 23.7609 30.3016 23.6167C30.2742 23.5986 30.2468 23.5806 30.2103 23.5806C30.192 23.5806 30.1828 23.5806 30.1646 23.5806C30.1189 23.5986 30.0823 23.6347 30.0732 23.6798L30.0458 23.7789C30.0275 23.86 30.0001 23.9322 29.9909 24.0133L29.9361 24.3468C29.8539 24.8065 29.7716 25.2753 29.6985 25.735C29.6528 26.0415 29.6163 26.3569 29.5797 26.6724L29.534 27.051C29.534 27.051 29.534 27.1322 29.534 27.1772C29.534 27.2313 29.534 27.2854 29.5249 27.3215C29.5158 27.3215 29.5066 27.3215 29.4884 27.3215C29.4244 27.3215 29.3604 27.3034 29.3239 27.2944C29.3878 26.42 29.4609 25.5277 29.5432 24.6713L29.598 24.0403C29.598 23.9953 29.6071 23.9502 29.6163 23.8781L29.6437 23.7248C29.6437 23.6617 29.6163 23.5986 29.5523 23.5806C29.534 23.5806 29.5158 23.5716 29.5066 23.5716C29.4609 23.5716 29.4152 23.5896 29.3878 23.6347C29.2142 23.8781 29.068 24.1395 28.9309 24.4099C28.8121 24.6533 28.7299 24.8606 28.5197 25.4465L28.3827 25.8341C28.1451 26.5102 28.0354 26.8257 27.8983 26.8437C27.8252 26.8437 27.7521 26.7986 27.7064 26.7626L27.8618 26.3299C28.1816 25.4375 28.5106 24.5181 28.7756 23.5626C28.7939 23.4995 28.7756 23.4454 28.7116 23.4093C28.6842 23.3913 28.6659 23.3913 28.6385 23.3913C28.602 23.3913 28.5746 23.4003 28.5471 23.4274C28.0171 23.8781 27.5785 24.3919 27.2404 24.9507C27.1125 25.1581 27.012 25.3564 26.9206 25.5367C26.7378 25.8792 26.5733 26.2127 26.4271 26.2127C26.354 26.2127 26.2626 26.1226 26.2261 26.0595C26.7013 25.3203 27.1947 24.5902 27.679 23.851L28.1633 23.1299C28.1908 23.0848 28.1908 23.0217 28.1633 22.9767L28.1085 22.8955L28.0811 22.8505C28.0811 22.8505 28.0263 22.7964 27.9897 22.7964C27.9897 22.7964 27.9806 22.7964 27.9714 22.7964C27.944 22.7964 27.9075 22.8054 27.8892 22.8234L27.3044 23.2651C26.8201 23.6347 26.3083 24.0133 25.824 24.4099C25.687 24.5181 25.5682 24.6533 25.4494 24.7795C25.3306 24.9057 25.2209 25.0229 25.1021 25.122C25.0473 25.095 24.9742 25.0048 24.9468 24.9507C25.5682 24.3648 26.1987 23.7879 26.8383 23.202L27.4049 22.6882C27.4506 22.6431 27.4597 22.571 27.4232 22.5079L27.3044 22.3277C27.3044 22.3277 27.2313 22.2646 27.1856 22.2646C27.1673 22.2646 27.1399 22.2646 27.1216 22.2826L26.2901 22.6972C25.5956 23.0398 24.9011 23.3823 24.2066 23.7338L24.1609 23.7609C24.0695 23.806 23.9873 23.851 23.9599 23.851C23.9416 23.851 23.8868 23.7969 23.8319 23.7248C23.969 23.6437 24.1152 23.5626 24.2523 23.4815C24.6818 23.2291 25.0838 22.9947 25.5133 22.7874C25.9245 22.5891 26.3632 22.4088 26.7926 22.2375C26.9845 22.1654 27.1764 22.0843 27.3592 22.0031C27.4232 21.9761 27.4597 21.904 27.4414 21.8319L27.4049 21.7147L27.3683 21.5975C27.3501 21.5434 27.2952 21.5074 27.2313 21.5074C27.2221 21.5074 27.213 21.5074 27.2039 21.5074L26.354 21.6877C25.4311 21.8769 24.5082 22.0753 23.6126 22.2646C23.5761 22.2465 23.5304 22.1293 23.5395 22.0753C24.0878 21.922 24.6452 21.7778 25.1844 21.6426C25.5316 21.5524 25.888 21.4713 26.2352 21.3812C26.4363 21.3271 26.6282 21.255 26.8566 21.1738C26.9754 21.1288 27.0942 21.0837 27.2404 21.0386C27.3044 21.0206 27.3409 20.9575 27.3318 20.8854C27.3226 20.8223 27.2678 20.7682 27.2039 20.7682L26.1164 20.7141L23.5669 20.5879H23.5121C23.5121 20.5879 23.439 20.5879 23.4116 20.5879H23.3202C23.3202 20.5879 23.2745 20.5879 23.2562 20.5879C23.238 20.5879 23.2197 20.5879 23.2197 20.5879C23.2014 20.5609 23.2014 20.4888 23.2106 20.4347C23.2745 20.4347 23.3385 20.4347 23.4025 20.4347C23.7314 20.4347 24.0513 20.4347 24.3802 20.4527C24.6269 20.4527 24.8828 20.4617 25.1295 20.4707C25.3854 20.4707 25.6413 20.4707 25.888 20.4707H26.4637H27.0394C27.1033 20.4707 27.1673 20.4257 27.1764 20.3536L27.2039 20.2184C27.213 20.1462 27.1764 20.0831 27.1033 20.0561C26.5916 19.9119 25.559 19.6324 24.7 19.4071C24.0787 19.2448 23.5578 19.1006 23.4025 19.0555C23.3019 19.0285 23.238 18.9834 23.2106 18.9293C23.1923 18.8843 23.1923 18.8302 23.2106 18.7761L23.6035 18.8662L27.1399 19.6865C27.1399 19.6865 27.1582 19.6865 27.1673 19.6865C27.2221 19.6865 27.277 19.6505 27.2952 19.5964L27.3318 19.4972L27.3683 19.3981C27.3958 19.335 27.3683 19.2629 27.3044 19.2268L26.8475 18.9924C26.5094 18.8212 26.1621 18.6409 25.824 18.4606C25.2301 18.1451 24.6269 17.8116 24.033 17.46C24.0513 17.3969 24.1152 17.2978 24.1426 17.2617C24.5356 17.4691 24.9194 17.6854 25.3032 17.9017C25.7235 18.1361 26.1438 18.3705 26.5642 18.5958C26.7835 18.713 27.0211 18.7941 27.2495 18.8662C27.3501 18.9023 27.4597 18.9384 27.5602 18.9744C27.5785 18.9744 27.5968 18.9834 27.6059 18.9834C27.6516 18.9834 27.6973 18.9654 27.7156 18.9293L27.7887 18.8302C27.8344 18.7761 27.8252 18.695 27.7704 18.6499L27.1582 18.1091C26.482 17.5141 25.8149 16.9282 25.1387 16.3333C25.0838 16.2882 25.0107 16.2431 24.9376 16.1981C24.8463 16.144 24.7183 16.0629 24.7092 15.9998C24.7092 15.9727 24.7275 15.9277 24.7457 15.9006C24.7732 15.8646 24.8188 15.8105 24.8645 15.8105C24.9285 15.8105 25.0382 15.9186 25.1113 15.9998C25.1661 16.0629 25.2209 16.1169 25.2757 16.153C25.8514 16.5857 26.4271 17.0454 26.9845 17.4871C27.2495 17.6944 27.5054 17.9017 27.7704 18.1091C27.8252 18.1541 27.8892 18.1902 27.9897 18.2533C28.0445 18.2893 28.1085 18.3254 28.1908 18.3705C28.2182 18.3885 28.2364 18.3885 28.2639 18.3885C28.3004 18.3885 28.337 18.3705 28.3644 18.3434C28.4101 18.2984 28.4192 18.2262 28.3827 18.1722L27.8801 17.442C27.3226 16.6217 26.8109 15.8646 26.3083 15.1344C26.3175 15.0984 26.3997 15.0443 26.4089 15.0262C26.8566 15.5851 27.2861 16.153 27.7247 16.7119C27.944 16.9913 28.1542 17.2798 28.3735 17.5592C28.4375 17.6493 28.5197 17.7215 28.6111 17.8206C28.6568 17.8657 28.7116 17.9198 28.7665 17.9829C28.7939 18.0099 28.8304 18.0279 28.867 18.0279C28.8944 18.0279 28.9127 18.0279 28.9401 18.0099C28.9949 17.9738 29.0223 17.9107 28.9949 17.8477L28.4649 16.4054L27.5877 14.0167C27.5877 14.0167 27.6516 13.9806 27.679 13.9806C27.7339 13.9806 27.7978 14.0527 27.8527 14.1789C27.9897 14.4854 28.1085 14.7919 28.2273 15.1074C28.3096 15.3057 28.3827 15.504 28.4649 15.7023C28.7482 16.3874 29.0132 17.0093 29.3878 17.6133C29.4152 17.6584 29.4609 17.6764 29.5066 17.6764C29.5249 17.6764 29.534 17.6764 29.5523 17.6764C29.6163 17.6584 29.6528 17.5953 29.6437 17.5322L29.5706 16.7119C29.4884 15.8015 29.397 14.891 29.3239 13.9806C29.3421 13.9716 29.3878 13.9626 29.4427 13.9626C29.4792 13.9626 29.5066 13.9626 29.5158 13.9626H29.5249C29.6437 14.7829 29.7534 15.6212 29.8447 16.4324L29.9544 17.3068C29.9635 17.406 30.0001 17.5051 30.1646 17.6133C30.192 17.6313 30.2103 17.6313 30.2377 17.6313C30.2559 17.6313 30.2742 17.6313 30.2925 17.6223C30.3382 17.6043 30.3656 17.5682 30.3747 17.5231L30.5118 16.7569C30.6672 15.8916 30.8134 15.0262 30.9687 14.1609C30.9778 14.0978 30.9687 14.0347 30.9687 13.9716C30.9687 13.9355 30.9687 13.8815 30.9596 13.8724C30.9596 13.8724 30.9961 13.8544 31.0509 13.8544M31.0235 13.7462C30.9322 13.7462 30.8499 13.7643 30.8225 13.8184C30.7677 13.8995 30.8225 14.0437 30.8042 14.1609C30.6123 15.2786 30.4113 16.4054 30.2103 17.5231C30.0823 17.442 30.0732 17.3789 30.064 17.3158C29.927 16.1981 29.799 15.0803 29.6346 13.9626C29.6254 13.8815 29.5158 13.8454 29.4061 13.8454C29.2782 13.8454 29.132 13.8995 29.1411 13.9806C29.2416 15.1795 29.3604 16.3693 29.4701 17.5592C29.0863 16.9462 28.8213 16.3062 28.5563 15.6662C28.3461 15.1615 28.1542 14.6386 27.944 14.1338C27.8709 13.9626 27.7704 13.8544 27.6425 13.8544C27.5694 13.8544 27.478 13.8995 27.3866 13.9896C27.8527 15.2696 28.3187 16.5406 28.8213 17.9108C28.6477 17.7305 28.5289 17.6223 28.4375 17.4961C27.7795 16.6488 27.1399 15.7924 26.4728 14.9631C26.4545 14.9361 26.4271 14.9271 26.3906 14.9271C26.2626 14.9271 26.0707 15.0984 26.1347 15.1975C26.7926 16.1891 27.4597 17.1716 28.209 18.2713C27.9897 18.1361 27.8892 18.082 27.807 18.0189C26.9754 17.3699 26.153 16.7029 25.3123 16.0629C25.1661 15.9547 25.0016 15.6843 24.8097 15.6843C24.7366 15.6843 24.6635 15.7203 24.5813 15.8285C24.3437 16.144 24.7914 16.2702 24.9925 16.4415C25.8697 17.2167 26.747 17.9919 27.6242 18.7581C27.5968 18.7941 27.5694 18.8302 27.5511 18.8662C27.2221 18.74 26.884 18.6589 26.5733 18.4967C25.7418 18.055 24.9376 17.5772 24.1152 17.1355H24.0969C23.9781 17.1355 23.768 17.5141 23.8594 17.5682C24.4625 17.9288 25.0838 18.2623 25.7052 18.5958C26.1987 18.8572 26.6921 19.1096 27.1856 19.362C27.1582 19.4251 27.1399 19.4972 27.1125 19.5603C25.7692 19.2538 24.4259 18.9384 23.0552 18.6229C22.9364 18.9023 23.0004 19.1006 23.3019 19.1908C23.6583 19.2899 26.1164 19.9479 26.9937 20.1913C26.9937 20.2364 26.9754 20.2815 26.9663 20.3265C26.5825 20.3265 26.1987 20.3265 25.8057 20.3265C25.5499 20.3265 25.3032 20.3265 25.0473 20.3265C24.4716 20.3265 23.8959 20.2905 23.3202 20.2905C23.238 20.2905 23.1557 20.2905 23.0735 20.2905C22.9456 20.2905 22.9456 20.66 23.0735 20.6961C23.1283 20.7051 23.174 20.7141 23.2288 20.7141C23.2928 20.7141 23.3568 20.7141 23.4207 20.7141C23.439 20.7141 23.4573 20.7141 23.4664 20.7141C24.6269 20.7682 25.7875 20.8223 27.1033 20.8854C26.683 21.0296 26.3997 21.1468 26.1164 21.2279C25.2118 21.4623 24.2888 21.6786 23.3842 21.931C23.238 21.9761 23.3568 22.3817 23.5121 22.3817C23.5121 22.3817 23.5212 22.3817 23.5304 22.3817C24.7366 22.1384 25.9428 21.886 27.149 21.6336C27.1764 21.7147 27.2039 21.7958 27.2313 21.8679C26.6099 22.1293 25.9794 22.3547 25.3763 22.6522C24.7549 22.9586 24.1609 23.3282 23.5395 23.6798C23.7131 23.8961 23.7862 23.9862 23.8868 23.9862C23.9599 23.9862 24.0421 23.9412 24.1975 23.86C25.1661 23.3643 26.1347 22.8955 27.1033 22.4088C27.1399 22.4719 27.1856 22.526 27.2221 22.5891C26.3906 23.3462 25.559 24.1034 24.7366 24.8786C24.6452 24.9688 24.8919 25.2662 25.029 25.2662C25.0473 25.2662 25.0564 25.2662 25.0747 25.2482C25.3488 25.0409 25.559 24.7344 25.8332 24.5181C26.5094 23.9772 27.213 23.4634 27.8983 22.9316C27.9258 22.9677 27.9532 23.0127 27.9897 23.0488C27.3318 24.0403 26.6647 25.0409 26.0159 26.0415C26.0068 26.0595 26.1621 26.3389 26.3723 26.3479C26.3723 26.3479 26.3723 26.3479 26.3814 26.3479C26.7013 26.3479 26.9114 25.6989 27.3226 25.0229C27.5602 24.6262 27.9532 24.0854 28.602 23.5355C28.2821 24.6713 27.8892 25.735 27.5054 26.8077C27.5054 26.8257 27.6699 26.9969 27.8527 26.9969C27.8709 26.9969 27.8801 26.9969 27.8983 26.9969C28.1268 26.9609 28.209 26.6364 28.602 25.5186C28.803 24.9327 28.8852 24.7434 29.004 24.5C29.1685 24.1665 29.333 23.9051 29.4518 23.7429C29.4244 23.9141 29.4152 23.9953 29.4061 24.0674C29.3056 25.1761 29.2051 26.2758 29.132 27.3846C29.132 27.4476 29.3056 27.5017 29.4335 27.5017C29.5066 27.5017 29.5706 27.4837 29.5889 27.4477C29.6346 27.3485 29.6163 27.2223 29.6346 27.1051C29.6894 26.6634 29.7259 26.2308 29.799 25.7891C29.8904 25.2122 29.9909 24.6443 30.0915 24.0764C30.1097 23.9682 30.1463 23.86 30.1737 23.7519C30.3108 23.8691 30.3382 23.9682 30.3565 24.0764C30.4661 24.7975 30.5666 25.5186 30.6672 26.2308C30.7128 26.5553 30.722 26.8978 30.7951 27.2133C30.8134 27.2944 30.923 27.3395 31.0235 27.3395C31.1423 27.3395 31.2611 27.2854 31.2611 27.1953C31.188 26.1046 31.0784 25.0138 30.987 23.9231C30.987 23.86 31.0235 23.7969 31.0692 23.6347C31.1606 23.833 31.2154 23.9322 31.252 24.0403C31.3342 24.2567 31.6906 25.0229 32.3303 26.7806C32.3851 26.9338 32.4399 27.0781 32.4856 27.2043C32.4947 27.2133 32.6227 27.3305 32.7689 27.3305C32.7963 27.3305 32.8237 27.3305 32.842 27.3215C32.8694 27.3215 32.8968 27.3034 32.9242 27.2764C32.5222 26.0054 32.1201 24.7344 31.718 23.4634C31.7454 23.4454 31.782 23.4364 31.8094 23.4184C32.1018 23.824 32.4034 24.2296 32.6958 24.6353C33.1435 25.2482 33.5822 25.8702 34.0391 26.4741C34.0391 26.4741 34.0573 26.4831 34.0665 26.4831C34.1579 26.4831 34.4229 26.2668 34.3772 26.1947C33.8654 25.4826 33.3446 24.7795 32.8237 24.0764C32.6592 23.7338 32.4947 23.4003 32.3394 23.0578C33.107 23.5626 33.7832 24.1305 34.4594 24.6984C34.7244 24.9237 34.9894 25.1671 35.2727 25.3744C35.3823 25.4555 35.492 25.4916 35.5742 25.4916C35.6839 25.4916 35.757 25.4375 35.7936 25.3474C34.7975 24.3288 33.8654 23.3643 32.9242 22.4088C32.9516 22.3727 32.9791 22.3277 33.0065 22.2916C33.1527 22.3547 33.308 22.3998 33.4451 22.4719C34.3498 22.9496 35.2544 23.4364 36.1682 23.8961C36.1774 23.8961 36.1865 23.8961 36.2048 23.8961C36.3418 23.8961 36.5155 23.5716 36.3967 23.4995C35.4829 22.9767 34.5508 22.4719 33.6187 21.9581C33.4908 21.886 33.3629 21.7958 33.2349 21.7057C33.2898 21.7057 33.3446 21.7057 33.3994 21.7057C33.6735 21.7057 33.9203 21.7688 34.1579 21.8138C35.0625 22.0122 35.9672 22.1924 36.8627 22.3998C36.9175 22.4088 37.0363 22.4809 37.146 22.4809C37.1825 22.4809 37.2099 22.4809 37.2465 22.4538C37.3562 22.3907 37.411 22.2195 37.3562 22.1113C37.2922 21.9851 37.1094 21.9671 37.0363 21.9581C36.3053 21.8769 35.5925 21.6426 34.8706 21.4803C34.368 21.3631 33.8746 21.2099 33.2898 21.0567C33.436 20.9485 33.4542 20.9215 33.4816 20.9124C34.7518 20.8313 36.022 20.7502 37.3013 20.66C37.4293 20.651 37.4293 20.2544 37.2922 20.2364C37.1368 20.2184 36.9724 20.2093 36.8079 20.2093C36.6799 20.2093 36.5611 20.2093 36.4332 20.2093C35.492 20.2454 34.5599 20.2905 33.6187 20.3355L33.6004 20.1733C34.7518 19.8127 35.9032 19.4702 37.0455 19.0916C37.1734 19.0465 37.0455 18.6679 36.8993 18.6679C36.8993 18.6679 36.8901 18.6679 36.881 18.6679C36.1865 18.8572 35.5011 19.0826 34.8067 19.2719C34.3315 19.3981 33.8472 19.4882 33.3629 19.5874C34.2401 18.9384 35.1539 18.3975 36.0677 17.8477C36.2505 17.7395 36.7805 17.451 36.9175 17.2888C37.0089 17.1806 36.9541 17.0364 36.7256 16.9012C35.4006 17.6313 34.2401 18.2713 33.0704 18.9023C33.2623 18.5417 33.4725 18.2172 33.7467 17.9648C34.432 17.3338 35.1448 16.7299 35.8301 16.1079C35.8849 16.0538 35.8667 15.8646 35.821 15.7744C35.8027 15.7384 35.7205 15.7203 35.6474 15.7203C35.6017 15.7203 35.556 15.7203 35.5377 15.7474C35.3549 15.8646 35.1996 16.0178 35.0351 16.162C34.2675 16.811 33.4999 17.46 32.7323 18.1091C32.6318 18.1902 32.513 18.2443 32.4216 18.3074C33.107 17.1986 33.7923 16.1169 34.4594 15.0172C34.5051 14.9361 34.2492 14.7107 34.1579 14.7107C34.1487 14.7107 34.1396 14.7107 34.1304 14.7198C33.9568 14.9181 33.8289 15.1524 33.6735 15.3688C33.0522 16.1981 32.4308 17.0274 31.8094 17.8567C31.7454 17.8206 31.6906 17.7936 31.6266 17.7575C31.6632 17.5953 31.6632 17.424 31.7272 17.2707C32.1018 16.3603 32.4947 15.4679 32.8603 14.5575C32.9425 14.3592 32.9608 14.0167 32.9151 13.9986C32.842 13.9716 32.7872 13.9626 32.7323 13.9626C32.4856 13.9626 32.4856 14.215 32.4034 14.4133C31.9373 15.4499 31.4804 16.4955 30.9687 17.6674C30.9322 17.46 30.9047 17.415 30.9139 17.3699C31.0601 16.1981 31.2154 15.0353 31.3525 13.8634C31.3616 13.7733 31.1697 13.7012 31.0144 13.7012L31.0235 13.7462Z" fill="#1A1100"/>
<path d="M29.4516 21.5889C29.4516 21.5889 29.3968 21.679 29.3694 21.7151C29.6984 21.9404 29.6435 22.5444 30.2375 22.4993C30.7858 22.4542 30.7675 21.9404 31.0691 21.5889H29.4516ZM30.2284 22.2199C29.9542 22.2379 29.9725 21.9584 29.8263 21.8593C29.8354 21.8413 29.8537 21.8232 29.8628 21.7962H30.6213C30.4842 21.9584 30.4842 22.2018 30.2284 22.2199Z" fill="#1A1100"/>
<path d="M30.1828 17.7937C31.7729 17.7937 33.0704 19.0737 33.0704 20.6422C33.0704 22.2106 31.7729 23.4906 30.1828 23.4906C28.5928 23.4906 27.2952 22.2106 27.2952 20.6422C27.2952 19.0737 28.5928 17.7937 30.1828 17.7937ZM30.1828 17.4512C28.3918 17.4512 26.948 18.8844 26.948 20.6422C26.948 22.3999 28.4009 23.8331 30.1828 23.8331C31.9647 23.8331 33.4177 22.3999 33.4177 20.6422C33.4177 18.8844 31.9647 17.4512 30.1828 17.4512Z" fill="#1A1100"/>
<path d="M31.8824 19.6599C31.6539 19.3354 31.1057 19.2272 30.7401 19.3985C30.2924 19.6058 30.3564 19.9754 30.4203 20.336C30.466 20.5613 30.5391 20.7687 30.6122 21.0211H29.8812C29.9451 20.7506 30.0457 20.5163 30.0274 20.2999C30 20.0115 29.9634 19.5878 29.7807 19.4887C29.5248 19.3354 29.1044 19.3625 28.7846 19.4346C28.4648 19.5067 28.3277 19.8492 28.4831 20.1196C28.5836 20.2999 28.8851 20.4171 29.1136 20.4802C29.2781 20.5163 29.47 20.4081 29.7898 20.327C29.6253 20.5523 29.5065 20.6605 29.47 20.7867C29.4426 20.9039 29.4608 21.1292 29.5339 21.1743C29.9086 21.4087 30.3198 21.5619 30.7584 21.2734C31.1514 21.0211 30.932 20.6875 30.8681 20.372C30.8681 20.354 30.8955 20.327 30.9046 20.318C31.0508 20.372 31.2153 20.4892 31.325 20.4532C31.5534 20.3811 31.7819 20.2639 31.9464 20.1016C32.0103 20.0385 31.9646 19.7861 31.8824 19.6689V19.6599ZM29.4151 20.1106C29.4151 20.1106 29.4426 20.0836 29.4426 20.0746C29.4426 19.9844 29.3238 19.9123 29.1776 19.9123C29.0313 19.9123 28.9126 19.9844 28.9126 20.0746C28.9126 20.0926 28.9308 20.1016 28.94 20.1106C28.8577 20.0656 28.812 20.0025 28.812 19.9394C28.812 19.8132 28.9765 19.705 29.1776 19.705C29.3786 19.705 29.5431 19.8132 29.5431 19.9394C29.5431 20.0115 29.4882 20.0746 29.4151 20.1106ZM31.4346 20.0565C31.4255 19.9754 31.3158 19.9033 31.1788 19.9033C31.0417 19.9033 30.932 19.9754 30.9229 20.0565C30.8772 20.0205 30.8407 19.9664 30.8407 19.9123C30.8407 19.7861 30.9869 19.678 31.1788 19.678C31.3707 19.678 31.5169 19.7771 31.5169 19.9123C31.5169 19.9664 31.4803 20.0205 31.4346 20.0565Z" fill="#1A1100"/>
<path d="M19.7563 12.7008C19.8203 12.5025 19.8569 12.3673 19.9117 12.2321C20.4782 10.7898 21.2824 9.47379 22.0774 8.13069C23.0186 6.55323 23.6491 4.78647 23.3567 2.85745C23.2653 2.28055 24.234 1.23492 24.8736 1.24393C25.8148 1.24393 26.6007 0.991536 27.2221 0.252381C27.5602 -0.153253 28.0719 0.0180149 28.4923 0.0991416C29.269 0.261395 30.0366 0.486747 30.8133 0.685057C30.9595 0.721113 31.1057 0.721113 31.2611 0.748156C31.6723 0.80224 32.0378 0.856325 32.2388 1.34309C32.4673 1.89294 33.1252 2.09125 33.9019 1.90196C34.3497 1.79379 34.6878 1.89294 35.0625 2.13632C35.5559 2.45182 36.1225 2.66816 36.6616 2.92956C37.7033 3.43435 38.7359 3.96618 39.7959 4.4259C40.5361 4.74139 41.3403 4.93069 42.0896 5.22816C42.7018 5.47154 43.2867 5.78703 43.8806 6.06647C44.0725 6.15661 44.2644 6.26478 44.4563 6.36393C44.9315 6.60731 44.9863 6.87773 44.6299 7.28337C44.2096 7.76111 43.7801 8.22083 43.378 8.70759C43.2318 8.87886 43.1404 9.10421 43.0765 9.32055C42.976 9.64506 43.113 9.89745 43.4511 9.96055C45.5803 10.3391 47.6637 10.3572 49.6467 9.31154C50.9169 8.64449 51.4012 7.50872 51.8307 6.27379C52.1048 5.45351 52.4886 4.66027 52.8998 3.89407C53.2196 3.29013 53.9872 3.19097 54.5446 3.59661C55.2117 4.08337 55.6778 4.70534 55.8879 5.50759C56.0341 6.05745 55.8971 6.55323 55.6686 7.06703C55.2848 7.93238 54.8097 8.72562 54.1883 9.42872C53.9598 9.68111 53.6583 9.87041 53.4024 10.0958C53.11 10.3482 52.8541 10.6727 52.5252 10.862C51.721 11.3217 50.8163 11.6372 50.0579 12.16C49.1715 12.7729 48.2212 12.7729 47.2434 12.7729C38.3796 12.7729 29.5249 12.7729 20.661 12.7729C20.3869 12.7729 20.1036 12.7459 19.7563 12.7279V12.7008Z" fill="#44A2C9"/>
<path d="M10.399 43.0961C10.4721 42.9068 10.5086 42.7355 10.5909 42.5823C10.9655 41.9423 11.3493 41.3113 11.7331 40.6713C11.788 40.5722 11.8702 40.473 11.8885 40.3648C11.9067 40.1755 11.9342 39.9502 11.8519 39.806C11.8062 39.7248 11.523 39.7609 11.3493 39.7789C10.9564 39.815 10.5635 39.8691 10.1614 39.9231C10.0152 39.4544 10.2254 39.184 10.4812 38.9406C10.7005 38.7333 10.9473 38.571 11.1848 38.3817C11.523 38.1023 11.7697 37.8409 11.6783 37.3C11.6235 36.9305 11.8702 36.4798 12.0438 36.1012C12.1992 35.7767 12.4916 35.5153 12.6378 35.1908C12.7383 34.9474 12.8023 34.6048 12.7018 34.3795C12.5647 34.073 12.5555 33.8386 12.7749 33.6223C13.3231 33.0634 13.2957 32.4144 13.113 31.7293C13.0216 31.3778 12.9211 31.0262 12.8662 30.6747C12.7931 30.242 12.7931 29.8184 13.1861 29.4938C13.2866 29.4127 13.3871 29.2955 13.4237 29.1784C13.579 28.5384 14.0633 28.5474 14.5842 28.5474C19.4639 28.5474 24.3527 28.5474 29.2324 28.5474C30.8681 28.5474 32.5129 28.5474 34.2765 28.5474C34.0389 29.0071 33.8379 29.3586 33.6826 29.7282C33.5912 29.9355 33.5912 30.1789 33.5364 30.4043C33.5089 30.5215 33.5089 30.6927 33.4358 30.7558C32.6865 31.3057 31.992 31.9727 30.996 32.0719C30.8498 32.0899 30.6396 32.0448 30.5391 31.9457C29.8537 31.2786 29.671 31.2606 29.0496 31.9547C28.7389 32.3062 28.4922 32.4775 28.1084 32.0629C28.0444 31.9908 27.7977 32.0629 27.6606 32.1079C27.5875 32.135 27.551 32.2612 27.487 32.3423C27.2768 32.5767 27.0667 32.811 26.8565 33.0364C26.6372 32.8381 26.4179 32.6217 26.1803 32.4415C26.0798 32.3603 25.8787 32.2792 25.8056 32.3243C25.6503 32.4144 25.4401 32.6037 25.4492 32.7299C25.5041 33.3789 25.1294 33.8026 24.7548 34.2623C24.307 34.8122 24.243 35.326 24.7182 35.8217C24.7822 35.8939 24.837 35.984 24.8918 36.0651C25.3853 36.7682 25.3579 36.9034 24.7182 37.5254C24.5354 37.7057 24.3435 38.0031 24.3618 38.2375C24.4258 39.1029 23.978 39.7158 23.4572 40.3108C23.2196 40.5902 22.918 40.8336 22.7627 41.1491C22.3972 41.8882 21.7484 42.0415 21.0173 42.0955C18.9795 42.2398 16.9692 42.0505 14.9862 41.5637C14.5659 41.4646 14.2735 41.5367 13.9445 41.8251C13.0307 42.6364 11.8976 42.9699 10.7097 43.1592C10.6366 43.1682 10.5452 43.1412 10.399 43.1141V43.0961Z" fill="#44A2C9"/>
<path d="M33.0702 55.5178C32.1016 54.346 31.1878 53.2462 30.274 52.1555C30.1644 52.0203 30.009 51.8491 29.8537 51.84C29.3785 51.795 28.8942 51.822 28.3916 51.822V59.2316H30.1918V55.1662C30.3654 55.3465 30.4842 55.4547 30.5847 55.5809C31.3523 56.5183 32.1747 57.4198 32.8601 58.4203C33.3627 59.1505 33.9475 59.4119 34.7882 59.2586C34.8065 59.2586 34.8156 59.2496 34.843 59.2406V51.8671H33.0794V55.5268L33.0702 55.5178Z" fill="#0F2537"/>
<path d="M49.8842 52.5071C49.8842 53.5076 49.8842 54.5082 49.8842 55.635C49.6923 55.4096 49.5918 55.2834 49.4913 55.1662C48.6323 54.1476 47.7825 53.12 46.9235 52.1105C46.823 51.9933 46.6676 51.8581 46.5306 51.84C46.0737 51.804 45.6076 51.831 45.1416 51.831V59.2586H46.9418V55.1933C47.152 55.4367 47.289 55.5809 47.417 55.7341C48.2759 56.7978 49.1258 57.8614 49.9939 58.9071C50.1309 59.0693 50.332 59.2406 50.533 59.2767C50.8711 59.3398 51.2275 59.2947 51.6296 59.2947V51.84C51.2549 51.84 50.9077 51.84 50.5513 51.84C50.1066 51.84 49.8842 52.0684 49.8842 52.5251V52.5071Z" fill="#0F2537"/>
<path d="M21.5931 55.1752C21.3098 54.9318 20.6793 55.058 20.2041 55.04C19.6467 55.022 19.0801 55.04 18.4953 55.04V56.4823H19.6741C19.6741 56.8248 19.7106 57.0952 19.665 57.3476C19.6375 57.4828 19.5005 57.6721 19.3817 57.7082C18.4496 57.9606 17.3805 57.4828 16.9418 56.6445C16.5215 55.8242 16.5306 54.9949 17.088 54.2558C17.7277 53.4175 18.6324 53.2823 19.6193 53.4986C20.0031 53.5797 20.4782 53.8411 20.7432 53.7059C21.0265 53.5617 21.0905 53.0299 21.2824 52.6783C21.4743 52.3358 21.3646 52.1915 21.0174 52.0654C19.8112 51.6237 18.5958 51.5606 17.3622 51.9031C14.6756 52.6513 13.6522 55.9594 15.4432 58.0146C16.9418 59.7363 19.8386 59.7363 21.456 58.5825C21.5839 58.4924 21.6753 58.258 21.6844 58.0958C21.7119 57.5639 21.6936 57.0411 21.6844 56.5093C21.6753 56.0496 21.8215 55.3916 21.5839 55.1752H21.5931Z" fill="#0F2537"/>
<path d="M24.5721 56.239H26.9389V54.6525H24.5813V53.3995H27.277V51.8491H22.6257V59.2587H27.3227V57.6362H24.5813V56.248L24.5721 56.239Z" fill="#0F2537"/>
<path d="M35.5376 53.4627H37.5205V59.2317H39.5218V53.4627H41.523V51.8853H35.5467V53.4717L35.5376 53.4627Z" fill="#0F2537"/>
<path d="M42.1719 59.2314H44.1183V51.8579H42.1719V59.2314Z" fill="#0F2537"/>
<path d="M23.7496 47.9099C23.8958 48.0902 24.7639 49.1178 24.7639 49.1178C24.7639 49.1178 25.2574 49.1178 25.8514 49.1178C25.5864 48.6941 25.2757 48.2074 25.0107 47.7927C25.5041 47.4862 25.7417 47.0536 25.6046 46.4857C25.4676 45.9358 25.0564 45.6474 24.5172 45.6023C23.905 45.5482 23.2927 45.5933 22.6531 45.5933V49.1268H23.7405V47.9189L23.7496 47.9099ZM23.7496 46.3775C24.0603 46.3955 24.3893 46.2784 24.5721 46.5848C24.636 46.684 24.6177 46.8823 24.5538 46.9995C24.3802 47.324 24.0512 47.2068 23.7496 47.2248V46.3775Z" fill="#0F2537"/>
<path d="M38.6172 48.2254H37.0729V47.7026H38.5167V46.9364L37.0729 46.9093V46.3955H38.6172V45.5933H36.1042V49.1088H38.6263V48.2254H38.6172Z" fill="#0F2537"/>
<path d="M32.9241 47.973L31.8093 45.5121H30.8132C31.3067 46.6028 31.791 47.7386 32.2479 48.7933C32.3667 49.0637 32.385 49.1538 32.6774 49.1538C32.915 49.1538 33.1343 49.1538 33.2896 49.1538C33.3627 49.1538 33.4998 49.0186 33.582 48.8113C33.9658 47.8468 34.9436 45.6023 34.9802 45.4761L33.9567 45.4941L32.9241 47.9549V47.973Z" fill="#0F2537"/>
<path d="M19.135 49.0905H20.2132V46.3592H21.1636V45.584H18.2029V46.3682H19.1258V49.0905H19.135Z" fill="#0F2537"/>
<path d="M42.6286 48.1985H41.3402V45.5664H40.3533V49.118H42.6286V48.1985Z" fill="#0F2537"/>
<path d="M15.0321 58.8801C14.4655 58.132 13.899 57.3838 13.3416 56.6266C13.1771 56.4103 13.2136 56.248 13.4421 56.0497C14.2097 55.4007 14.4929 54.2469 14.164 53.2914C13.8716 52.4621 13.0217 51.8672 11.9709 51.8401C10.8652 51.8131 9.75947 51.8401 8.57153 51.8401V59.2407H10.5362V56.7889C11.0571 56.6447 11.3586 56.7889 11.5505 57.2396C11.8064 57.8075 12.1171 58.3573 12.4278 58.9072C12.51 59.0514 12.6745 59.2497 12.8024 59.2497C13.6431 59.2768 14.4838 59.2678 15.4524 59.2678C15.2331 59.0694 15.1143 58.9883 15.0229 58.8801H15.0321ZM12.1628 54.7156C11.8064 55.3647 11.1576 55.1303 10.5545 55.1663V53.4627C11.1759 53.4987 11.8338 53.2734 12.1993 53.8863C12.3181 54.0847 12.2816 54.4813 12.1628 54.7066V54.7156Z" fill="#0F2537"/>
<path d="M5.39148 52.6421C5.227 52.1734 5.16303 51.5334 4.82493 51.299C4.46854 51.0557 3.82889 51.2269 3.31716 51.1729C2.90595 51.1278 2.76888 51.3171 2.65009 51.6506C2.10181 53.2641 1.54439 54.8686 0.977834 56.4821C0.658005 57.4016 0.3199 58.312 -0.0273438 59.2855C0.383865 59.2855 1.59008 59.2855 1.94646 59.2855L2.18405 58.4472C2.32416 57.9424 2.39422 57.69 2.39422 57.69C2.61353 57.69 4.93458 57.69 5.15389 57.69L5.71131 59.2765C6.27786 59.2945 7.04545 59.2765 7.64856 59.2765C7.60287 59.0962 7.57546 58.9881 7.53891 58.8799C6.82614 56.7976 6.11338 54.7154 5.39148 52.6421ZM2.95164 56.1847C3.23492 55.2112 3.49992 54.2917 3.77406 53.3633C3.80147 53.3633 3.83802 53.3633 3.86544 53.3633C4.14871 54.2917 4.43199 55.2202 4.72441 56.1847H2.95164Z" fill="#0F2537"/>
<path d="M59.9359 58.9432C59.1866 56.8069 58.4464 54.6705 57.6971 52.5342C57.5418 52.1015 57.4961 51.4976 57.1762 51.2812C56.8381 51.0559 56.2442 51.2181 55.7599 51.1731C55.3304 51.128 55.1385 51.2993 55.0105 51.6959C54.2704 53.9043 53.4936 56.1038 52.7352 58.3032C52.6255 58.6097 52.5159 58.9162 52.3879 59.2587C52.5981 59.2677 52.7443 59.2857 52.8905 59.2767C53.3383 59.2767 54.1973 59.2947 54.1973 59.2947L54.7364 57.6722H57.5235C57.5235 57.6722 57.9438 58.8531 58.0718 59.2497H60.0182C59.9816 59.1235 59.9633 59.0333 59.9359 58.9432ZM55.3212 56.1669C55.6045 55.2114 55.8786 54.2739 56.1893 53.2012C56.5183 54.2739 56.7924 55.2024 57.094 56.1669H55.3212Z" fill="#0F2537"/>
<path d="M29.3787 49.1539C29.3787 49.1539 30.2468 49.1539 30.4844 49.1539L29.0406 45.7195C28.9035 45.4131 28.1907 45.4311 28.0445 45.7466L26.5459 49.1269H27.5968L27.8252 48.4508H29.1502L29.3878 49.1359L29.3787 49.1539ZM28.145 47.5945C28.2638 47.315 28.3735 47.0536 28.538 46.657C28.6933 47.0446 28.7847 47.297 28.9035 47.5945H28.145Z" fill="#0F2537"/>
<path d="M59.9818 62.6206H0.0183105V63.9998H59.9818V62.6206Z" fill="#44A2C9"/>
<path d="M15.1873 46.855H0V47.8916H15.1873V46.855Z" fill="#44A2C9"/>
<path d="M60.0001 46.855H44.8127V47.8916H60.0001V46.855Z" fill="#44A2C9"/>
</g>
<defs>
<clipPath id="clip0_337_4110">
<rect width="60" height="64" fill="white"/>
</clipPath>
</defs>
</svg>
