<svg width="53" height="64" viewBox="0 0 53 64" fill="none" xmlns="http://www.w3.org/2000/svg">
<g clip-path="url(#clip0_337_4159)">
<path fill-rule="evenodd" clip-rule="evenodd" d="M44.4661 26.5192L0 8.30176L6.65644 63.9637H51.4369L44.4661 26.5192Z" fill="url(#paint0_linear_337_4159)"/>
<path d="M43.4869 44.9262C43.5768 45.4581 43.6486 45.9899 43.7205 46.5127C44.0259 48.604 44.3313 50.7042 44.6278 52.7955C44.6008 52.8496 44.5739 52.8947 44.5469 52.9488C43.3971 50.2896 42.2473 47.6304 41.0974 44.9803C41.0256 44.809 40.9627 44.6738 40.7202 44.6738C39.8488 44.6919 38.9685 44.6828 38.0971 44.6738C37.8815 44.6738 37.8097 44.7099 37.8546 44.9623C38.0881 46.4766 38.2947 47.991 38.5193 49.5054C38.9595 52.5431 39.4086 55.5809 39.8488 58.6276C39.8758 58.8169 39.9386 58.871 40.1183 58.862C40.7202 58.862 41.322 58.853 41.9149 58.862C42.1036 58.862 42.1215 58.7899 42.1036 58.6276C41.861 56.9871 41.6185 55.3465 41.3759 53.6969C41.1513 52.1195 40.9268 50.542 40.7022 48.9645C40.7291 48.9104 40.7561 48.8564 40.7741 48.8023C41.1963 49.7578 41.6185 50.7133 42.0317 51.6688C43.0288 53.9493 44.0259 56.2389 45.023 58.5195C45.0769 58.6457 45.0769 58.853 45.2925 58.853C46.101 58.853 46.9185 58.853 47.7269 58.853C47.6461 58.2581 47.5832 57.7172 47.5024 57.1764C47.1969 55.1212 46.8825 53.0659 46.5771 51.0107C46.2807 48.9826 45.9932 46.9454 45.7147 44.9082C45.6878 44.7369 45.6249 44.6828 45.4632 44.6828C44.8613 44.6828 44.2595 44.6828 43.6666 44.6828C43.4869 44.6828 43.451 44.7369 43.478 44.9172L43.4869 44.9262Z" fill="white"/>
<path d="M11.1211 58.6815C12.2799 59.1682 13.4836 59.2043 14.6784 58.8347C15.7294 58.5102 16.3312 57.753 16.4211 56.6533C16.5379 55.3012 16.2055 54.0573 15.3431 52.9936C14.6334 52.1192 13.7351 51.4702 12.8368 50.8212C12.244 50.3975 11.6511 49.9649 11.148 49.424C10.618 48.8561 10.3036 48.2071 10.3306 47.4139C10.3395 47.0804 10.4653 46.8009 10.7707 46.6387C11.4984 46.2511 12.4685 46.6206 12.738 47.4049C12.8458 47.7023 12.8907 48.0088 12.9177 48.3243C12.9357 48.5587 13.0165 48.6668 13.277 48.6488C13.7441 48.6218 14.2112 48.6488 14.6873 48.6488C15.3611 48.6488 15.3701 48.6488 15.2533 47.9728C14.9838 46.3863 14.2382 45.1784 12.6212 44.7006C11.6601 44.4122 10.6899 44.4032 9.7287 44.6646C8.64175 44.953 7.94107 45.7373 7.84226 46.8099C7.7165 48.0809 8.02192 49.2437 8.82141 50.2623C9.49514 51.1097 10.3485 51.7587 11.2199 52.3806C11.8397 52.8223 12.4506 53.255 12.9806 53.8049C13.5914 54.4268 13.9238 55.175 13.9238 56.0584C13.9238 56.446 13.789 56.7795 13.4028 56.9418C12.5045 57.3294 11.5523 56.8336 11.3457 55.8871C11.2828 55.5716 11.2289 55.2471 11.1929 54.9226C11.175 54.7514 11.1121 54.6973 10.9504 54.7063C10.636 54.7153 10.3216 54.7063 10.0162 54.7063C9.70175 54.7063 9.38734 54.7243 9.08192 54.7063C8.85734 54.6882 8.81243 54.7874 8.83938 54.9767C8.89328 55.3012 8.93819 55.6167 8.99209 55.9412C9.24362 57.2122 9.8904 58.1947 11.1121 58.7085L11.1211 58.6815Z" fill="white"/>
<path d="M35.4562 58.6094C35.4831 58.8078 35.555 58.8799 35.7436 58.8709C36.067 58.8618 36.3994 58.8709 36.7228 58.8709C37.0462 58.8709 37.3785 58.8528 37.7019 58.8709C37.9355 58.8889 38.0163 58.8348 37.9714 58.5734C37.8277 57.699 37.7109 56.8156 37.5762 55.9323C37.0462 52.2816 36.5162 48.6399 35.9951 44.9892C35.9682 44.7728 35.8873 44.6737 35.6538 44.6827C35.016 44.7007 34.3782 44.6917 33.7404 44.6827C33.5068 44.6827 33.435 44.7097 33.4709 44.9892C33.8123 47.2337 34.1267 49.4872 34.4501 51.7407C34.7824 54.0303 35.1238 56.3199 35.4472 58.6094H35.4562Z" fill="white"/>
<path d="M47.8258 60.5564C47.7359 60.5564 47.6461 60.5564 47.5563 60.5564C43.9271 60.5564 40.3069 60.5474 36.6778 60.5474C27.8474 60.5474 19.0171 60.5474 10.1868 60.5474C10.079 60.5474 9.98016 60.5474 9.87236 60.5474C9.76457 60.5474 9.6927 60.5744 9.70168 60.7006C9.70168 60.8178 9.72863 60.9079 9.88135 60.8989C9.97118 60.8989 10.061 60.8989 10.1508 60.8989C16.3851 60.8989 22.6193 60.8989 28.8535 60.8989C35.0788 60.9079 41.2951 60.9079 47.5203 60.9079C47.6281 60.9079 47.7269 60.9079 47.8347 60.9079C47.9336 60.9079 48.0144 60.9079 48.0054 60.7637C47.9964 60.6465 47.9785 60.5564 47.8258 60.5654V60.5564Z" fill="white"/>
<path d="M45.2836 42.9971C45.3914 42.9971 45.4094 42.925 45.4004 42.8439C45.4004 42.7627 45.4004 42.6816 45.2926 42.6726C45.1848 42.6726 45.086 42.6726 44.9782 42.6726C32.4828 42.6726 19.9874 42.6726 7.48297 42.6726C7.33924 42.6726 7.19551 42.6365 7.06077 42.7086C7.03382 43.0782 7.29433 43.0061 7.50992 43.0061C19.9964 43.0061 32.4828 43.0061 44.9603 43.0061C45.0681 43.0061 45.1669 43.0061 45.2747 43.0061L45.2836 42.9971Z" fill="white"/>
<path d="M24.8291 39.0581C24.9189 39.0581 25.0087 39.0581 25.0986 39.0581C28.3145 39.0581 31.5394 39.0581 34.7553 39.0581C37.2975 39.0581 39.8398 39.0581 42.382 39.0581C43.1275 39.0581 43.8642 39.0581 44.6098 39.0581C44.6906 39.0581 44.8433 39.1302 44.8433 38.95C44.8433 38.8057 44.7804 38.6976 44.6098 38.7066C44.502 38.7066 44.4031 38.7066 44.2953 38.7066C38.2857 38.7066 32.276 38.7066 26.2664 38.7066C25.7813 38.7066 25.3052 38.7066 24.8201 38.7066C24.7033 38.7066 24.6135 38.7246 24.6314 38.8778C24.6494 38.995 24.6764 39.0762 24.8201 39.0671L24.8291 39.0581Z" fill="white"/>
<path d="M15.8011 40.4732C16.0257 41.1853 16.0257 41.1673 16.7623 41.1853C17.0767 41.1943 17.1216 41.0681 17.1216 40.7977C17.1396 39.5267 17.1755 38.2647 17.2115 36.9938C17.2115 36.7504 17.2294 36.5701 16.8881 36.5971C16.6096 36.6152 16.4389 36.5971 16.4479 36.9757C16.4748 37.9492 16.4569 38.9318 16.4569 39.9053C16.4299 39.9053 16.412 39.9053 16.385 39.9143C16.1065 38.9678 15.8101 38.0304 15.5586 37.0839C15.4598 36.7143 15.316 36.543 14.9028 36.5881C14.6333 36.6152 14.5884 36.6602 14.6693 36.9216C15.0555 38.0935 15.4238 39.2743 15.7921 40.4552L15.8011 40.4732Z" fill="white"/>
<path d="M18.4512 41.1763C19.1249 41.1763 19.7986 41.1763 20.4813 41.1763C20.4394 40.7376 20.2089 40.5153 19.7896 40.5093C19.7357 40.5093 19.6818 40.5093 19.6369 40.5093C19.2237 40.5033 18.9842 40.2929 18.9183 39.8783C18.7835 39.1211 18.7835 39.1211 19.5381 39.1031C19.6639 39.1031 19.9334 39.2383 19.8885 38.9138C19.8615 38.7065 19.9513 38.409 19.5291 38.418C18.6847 38.436 18.6847 38.418 18.5769 37.5707C18.5769 37.5346 18.5769 37.4896 18.5679 37.4535C18.532 37.2822 18.5949 37.2282 18.7656 37.2282C19.062 37.2372 19.3674 37.2282 19.6639 37.2282C19.7896 37.2282 19.9513 37.2552 19.8974 37.0389C19.8525 36.8766 19.9783 36.5972 19.6639 36.5972C19.053 36.5972 18.4422 36.5972 17.8313 36.5972C17.6786 36.5972 17.6247 36.6332 17.6517 36.7955C17.8583 38.1927 18.0649 39.5808 18.2625 40.978C18.2805 41.1042 18.3344 41.1583 18.4691 41.1583L18.4512 41.1763Z" fill="white"/>
<path d="M7.61766 40.8606C7.68054 41.3744 8.04885 41.1581 8.29139 41.1671C8.63274 41.1671 8.4441 40.8967 8.42614 40.7615C8.29139 39.7249 8.15664 38.6882 7.968 37.6606C7.89614 37.282 8.00393 37.228 8.3363 37.246C8.79444 37.273 8.78546 37.246 8.70461 36.8133C8.66868 36.624 8.56986 36.624 8.43512 36.624C8.09376 36.624 7.76139 36.624 7.42003 36.624C7.15054 36.624 6.87207 36.624 6.60258 36.624C6.17139 36.624 6.09054 36.7502 6.2702 37.1468C6.36902 37.3632 6.56664 37.246 6.71936 37.246C6.97986 37.246 7.12359 37.273 7.15952 37.6066C7.28529 38.6973 7.48291 39.779 7.61766 40.8697V40.8606Z" fill="white"/>
<path d="M20.8317 40.3563C20.9485 41.1765 20.9395 41.1765 21.7749 41.1765H22.0085C22.2331 41.1765 22.4487 41.1765 22.6732 41.1765C23.1404 41.1765 23.1493 41.1585 23.0415 40.6988C23.0056 40.5456 22.9427 40.5095 22.808 40.5095C22.5565 40.5095 22.3139 40.4915 22.0624 40.5095C21.73 40.5456 21.6492 40.4013 21.6042 40.1039C21.4785 39.1033 21.2898 38.1118 21.191 37.1112C21.1461 36.6425 20.9485 36.5794 20.5532 36.5974C20.3107 36.6154 20.2927 36.6695 20.3197 36.8949C20.4993 38.0487 20.661 39.1934 20.8137 40.3472L20.8317 40.3563Z" fill="white"/>
<path d="M29.3206 44.6826C28.4043 44.6826 27.497 44.7006 26.5808 44.6826C26.2933 44.6826 26.2125 44.7547 26.2035 45.0432C26.1586 46.6116 26.0867 48.1801 26.0238 49.7485C25.907 52.6781 25.8082 55.6077 25.6825 58.5373C25.6735 58.7897 25.7364 58.8708 25.9969 58.8618C26.5538 58.8437 27.1197 58.8437 27.6767 58.8618C27.9462 58.8708 28.036 58.8077 28.027 58.5192C28.018 57.8252 28.054 57.1311 28.045 56.437C28.045 56.1756 28.1079 56.0674 28.3864 56.0764C29.1319 56.0944 29.8775 56.0944 30.6142 56.0764C30.8657 56.0764 30.9465 56.1666 31.0094 56.3919C31.225 57.1311 31.4675 57.8612 31.6831 58.6004C31.728 58.7536 31.764 58.8528 31.9616 58.8528C32.7162 58.8437 33.4708 58.8528 34.2523 58.8528C34.2523 58.7806 34.2523 58.7536 34.2343 58.7356C32.7252 54.1384 31.207 49.5412 29.6979 44.944C29.626 44.7187 29.5092 44.6826 29.3026 44.6826H29.3206ZM30.0213 54.1564C29.4643 54.1384 28.8984 54.1474 28.3414 54.1564C28.1708 54.1564 28.0809 54.1294 28.0899 53.9221C28.1258 51.7226 28.1528 49.5232 28.1797 47.3328C28.1797 47.3237 28.1887 47.3147 28.2247 47.2426C28.4672 48.0268 28.6918 48.766 28.9164 49.5052C29.3565 50.9564 29.7967 52.3987 30.2458 53.8409C30.3267 54.0933 30.2908 54.1564 30.0303 54.1474L30.0213 54.1564Z" fill="white"/>
<path d="M20.3375 53.0838C20.8855 53.1018 21.4335 53.0928 21.9814 53.0387C23.6073 52.8765 24.5506 51.8669 24.4787 50.2624C24.4428 49.3249 24.308 48.3874 24.0655 47.477C23.6612 45.9446 22.6462 45.0612 21.1011 44.7728C20.2836 44.6195 19.4662 44.7097 18.5229 44.6646C17.9929 44.6646 17.3372 44.6826 16.6904 44.6646C16.3311 44.6466 16.2592 44.7457 16.3131 45.0973C16.7353 47.8736 17.1306 50.659 17.5348 53.4353C17.7863 55.139 18.0379 56.8426 18.2804 58.5553C18.3163 58.8077 18.4062 58.8708 18.6487 58.8618C19.2506 58.8438 19.8524 58.8348 20.4453 58.8618C20.7777 58.8798 20.8585 58.8077 20.7957 58.4562C20.5262 56.7795 20.2926 55.0939 20.0411 53.4173C20.0051 53.1649 20.059 53.0748 20.3285 53.0838H20.3375ZM19.6099 50.3615C19.4392 49.2528 19.2865 48.135 19.1158 47.0263C19.0799 46.81 19.0979 46.6748 19.3763 46.7018C19.7626 46.7288 20.1579 46.7108 20.5441 46.7379C21.0921 46.7739 21.4514 47.0894 21.5772 47.6032C21.7838 48.4235 21.9006 49.2708 21.9455 50.1181C21.9724 50.695 21.7209 50.9655 21.155 51.0376C20.9214 51.0646 20.6879 51.0376 20.4543 51.0376C19.7267 51.0556 19.7177 51.0646 19.6099 50.3525V50.3615Z" fill="white"/>
<path d="M9.64775 40.6624C9.7286 41.2032 9.7286 41.1852 10.2676 41.1852C10.5191 41.1852 10.5371 41.086 10.5101 40.8787C10.4383 40.4551 10.3933 40.0224 10.3305 39.5987C10.2766 39.2111 10.3664 39.13 10.7437 39.2291C10.9862 39.2922 11.0761 39.4725 11.112 39.6889C11.1569 39.9232 11.1749 40.1576 11.2108 40.3829C11.3905 41.3474 11.2467 41.1672 12.1271 41.1762C12.145 41.1762 12.163 41.1582 12.2169 41.1311C11.8306 40.41 12.2349 39.3914 11.3276 38.8235C11.7228 38.5711 11.7677 38.1655 11.5522 37.3632C11.4354 36.9125 11.0671 36.6511 10.6 36.6421C10.1957 36.6331 9.79148 36.6511 9.38724 36.6331C9.11775 36.6151 9.06385 36.7052 9.09978 36.9576C9.28843 38.1925 9.46809 39.4365 9.64775 40.6804V40.6624ZM10.2496 37.246C10.7886 37.228 10.8155 37.5525 10.8694 38.1565C10.9054 38.508 10.6359 38.5351 10.3664 38.5441C10.1957 38.5441 10.1328 38.472 10.1149 38.3187C10.0789 38.0573 10.061 37.7959 10.0071 37.5435C9.95317 37.3001 10.0071 37.201 10.2406 37.246H10.2496Z" fill="white"/>
<path d="M12.6303 41.1853C13.0705 41.2935 13.2232 41.1763 13.2591 40.7256C13.2681 40.5633 13.1243 40.2568 13.4567 40.2839C13.7352 40.3109 14.1394 40.0315 14.2832 40.5813C14.4449 41.2033 14.4718 41.1943 15.1186 41.1763C15.1545 41.1763 15.1994 41.1673 15.2713 41.1582C14.8491 39.8782 14.4359 38.6433 14.0316 37.4084C13.7621 36.5881 13.7621 36.5971 12.9357 36.6151C12.7471 36.6151 12.6572 36.6512 12.6482 36.8675C12.6033 38.2287 12.5494 39.5898 12.5045 40.9509C12.5045 41.0501 12.4776 41.1492 12.6303 41.1853ZM13.3669 37.6157C13.5555 38.2197 13.7352 38.8146 13.9238 39.4185C13.9688 39.5537 13.9508 39.6709 13.7801 39.6349C13.6005 39.5898 13.2681 39.8242 13.2681 39.3915C13.2681 38.8056 13.2681 38.2197 13.2681 37.6337C13.304 37.6337 13.3399 37.6157 13.3669 37.6067V37.6157Z" fill="white"/>
<path d="M50.2691 7.26543C36.7856 16.4147 19.9334 1.3612 5.83897 10.7178L4.89575 3.24515C19.0081 -6.03035 35.8603 9.09529 49.3619 0.0361328L50.2691 7.27444V7.26543Z" fill="url(#paint1_linear_337_4159)"/>
<mask id="mask0_337_4159" style="mask-type:luminance" maskUnits="userSpaceOnUse" x="7" y="21" width="46" height="13">
<path d="M53.0001 28.9712C39.5435 38.3459 22.7272 23.5267 8.65977 33.1267L7.71655 25.654C21.793 16.1352 38.6182 31.0264 52.0838 21.7329L52.9911 28.9712H53.0001Z" fill="white"/>
</mask>
<g mask="url(#mask0_337_4159)">
<path d="M51.6525 16.0718C37.7108 16.3332 23.6703 15.1524 9.8544 17.433C5.17423 17.0183 8.80338 34.8302 7.71643 38.4087C9.84541 38.4087 12.1181 38.4087 14.2381 38.4087C26.4371 38.2014 38.7169 39.193 50.7991 37.1648C53.6468 37.3451 53.3773 35.9028 53.2695 33.6042C52.3981 30.9811 55.3446 15.8014 51.6436 16.0628L51.6525 16.0718Z" fill="url(#paint2_linear_337_4159)"/>
</g>
<path d="M52.1557 21.697C38.6811 31.0897 21.8199 16.1263 7.71652 25.6632L5.83008 10.6908C19.9514 1.31618 36.8306 16.4328 50.3231 7.19336L52.1467 21.697H52.1557Z" fill="url(#paint3_linear_337_4159)"/>
<mask id="mask1_337_4159" style="mask-type:luminance" maskUnits="userSpaceOnUse" x="5" y="7" width="48" height="19">
<path d="M52.1557 21.697C38.6811 31.0897 21.8199 16.1263 7.71652 25.6632L5.83008 10.6908C19.9514 1.31618 36.8306 16.4328 50.3231 7.19336L52.1467 21.697H52.1557Z" fill="white"/>
</mask>
<g mask="url(#mask1_337_4159)">
<path d="M49.5954 1.31619C35.51 1.55957 21.3347 0.414784 7.38405 2.74943C3.37761 4.87676 7.03371 25.9877 5.83897 31.0897C7.68948 31.0717 9.98016 31.1077 11.8037 31.0897C25.2873 30.9455 38.8247 31.8469 52.1646 29.5393C50.7183 25.0052 55.5152 1.22605 49.6044 1.31619H49.5954Z" fill="url(#paint4_linear_337_4159)"/>
</g>
<path d="M12.3428 13.3948L12.3248 13.2867C12.3248 13.2867 12.3248 13.2416 12.2889 13.2326C12.2709 13.2056 12.235 13.1785 12.1811 13.1695H12.1272C12.1272 13.1695 12.1003 13.1244 12.0643 13.1064C12.0284 13.0884 11.9655 13.1064 11.9296 13.1334C11.8757 13.1334 11.8398 13.1154 11.8398 13.1154C11.8218 13.1154 11.7499 13.0974 11.732 13.0974L11.5613 13.1154C11.5613 13.1154 11.5433 13.0884 11.5254 13.0794H11.5793V13.0163H11.5433C11.5433 13.0163 11.5254 13.0072 11.4894 12.9982V12.9532H11.5343V12.8991H11.4804V12.854H11.4086V12.8991H11.3637V12.9532H11.4176V12.9982C11.4176 12.9982 11.4086 12.9982 11.3906 13.0163H11.3367V13.0794H11.3726C11.3726 13.0794 11.3547 13.0884 11.3457 13.1244H11.193C11.193 13.1244 11.1391 13.1425 11.1121 13.1605C11.0852 13.1785 11.1121 13.1605 11.0942 13.1605H10.9954L10.9774 13.1875C10.9774 13.1875 10.8696 13.1695 10.8606 13.1965C10.8426 13.1965 10.8337 13.2236 10.8157 13.2596C10.7977 13.2957 10.7348 13.2957 10.7169 13.3137C10.6809 13.3318 10.636 13.3588 10.627 13.4039C10.6181 13.4489 10.636 13.503 10.654 13.512C10.636 13.512 10.6001 13.512 10.6091 13.5301C10.6091 13.5301 10.663 13.5301 10.663 13.5391L10.7169 13.5751C10.7169 13.5751 10.7348 13.5841 10.7528 13.5841C10.7528 13.6022 10.8067 13.6202 10.8247 13.6472C10.8247 13.6472 10.8606 13.6563 10.8965 13.6472C10.8965 13.6472 10.8786 13.6653 10.8876 13.6743C10.8876 13.6743 10.9055 13.6833 10.9235 13.6833V13.7284L10.9325 13.7734H10.9864V13.8095C10.9864 13.8095 10.9684 13.8095 10.9684 13.8275C10.9684 13.8456 10.9684 13.8726 11.0582 13.8906C11.1481 13.8906 11.3277 13.9087 11.5164 13.8906C11.687 13.8726 11.9026 13.8275 11.9655 13.8095C12.0284 13.7915 12.0464 13.7644 12.0374 13.7374V13.6923H12.0823V13.6472L12.0733 13.6022H12.0913C12.0913 13.6022 12.1362 13.5571 12.1542 13.5571C12.1721 13.5571 12.1991 13.512 12.2171 13.494H12.253V13.467C12.253 13.467 12.2799 13.4399 12.2979 13.4219H12.3518C12.3518 13.4219 12.3159 13.3678 12.2979 13.3678H12.3787H12.3608L12.3338 13.4129L12.3428 13.3948Z" fill="#AC191C"/>
<path d="M13.5734 20.2098L13.5555 20.0746C13.4567 20.0836 13.3489 20.0746 13.268 20.0475C13.1872 20.0205 13.0794 20.0115 12.9806 20.0205C12.8817 20.0295 12.765 20.0565 12.7021 20.1016C12.6212 20.1467 12.5404 20.1737 12.4236 20.1827C12.3068 20.1917 12.217 20.1827 12.1362 20.1557C12.0463 20.1196 11.9475 20.1196 11.8487 20.1286C11.7499 20.1377 11.6511 20.1647 11.5702 20.2098C11.4894 20.2548 11.4085 20.2819 11.2917 20.2909L11.3816 21.03C11.4804 21.021 11.5972 20.994 11.6601 20.9489C11.7409 20.9039 11.8217 20.8768 11.9206 20.8678C12.0194 20.8588 12.1272 20.8678 12.199 20.8948C12.2889 20.9309 12.3877 20.9489 12.4955 20.9399C12.6033 20.9309 12.7111 20.9039 12.774 20.8588C12.8548 20.8137 12.9356 20.7867 13.0524 20.7777C13.1692 20.7686 13.259 20.7777 13.3309 20.8047C13.4207 20.8408 13.5195 20.8408 13.6184 20.8317L13.5375 20.2188H13.5914L13.5734 20.2098Z" fill="#255CA6"/>
<path d="M13.2052 19.6866C13.1064 19.6956 12.9896 19.6235 12.9806 19.5424V19.4973C12.9806 19.4973 13.0255 19.4612 13.0165 19.4342C13.0165 19.3891 12.9536 19.3711 12.9087 19.3711L11.687 19.4793C11.687 19.4793 11.5882 19.5153 11.5972 19.5604C11.5972 19.5874 11.6152 19.5964 11.6511 19.6145V19.6595C11.6691 19.7407 11.5882 19.8218 11.4714 19.8308L11.5164 20.2004L13.2231 20.0381L13.1782 19.6686H13.2141H13.1962V19.6866H13.2052Z" fill="#C7B000"/>
<path d="M11.0671 14.6751L12.2888 14.5669L12.8997 19.3984L11.678 19.5066L11.0671 14.6751Z" fill="#CCCACA"/>
<path d="M12.4325 13.8008L10.7527 13.945L10.7976 14.3326H10.9323C10.9323 14.3326 10.9144 14.3326 10.9234 14.3506C10.9323 14.3687 10.9413 14.3867 10.9773 14.3867C10.9773 14.3867 11.0312 14.4228 11.0401 14.4498C11.0491 14.4768 11.0401 14.5219 10.9952 14.5219C10.9503 14.5219 10.9503 14.558 10.9503 14.585C10.9503 14.6301 11.0132 14.6481 11.0581 14.6481L12.2798 14.5399C12.2798 14.5399 12.3786 14.5039 12.3696 14.4588C12.3696 14.4318 12.3517 14.4228 12.3157 14.4047C12.2618 14.4047 12.2439 14.3687 12.2439 14.3416C12.2439 14.3146 12.2708 14.2695 12.2978 14.2695C12.3247 14.2695 12.3427 14.2335 12.3427 14.2244C12.3427 14.2244 12.3427 14.2064 12.3247 14.1974H12.4774L12.4325 13.8008Z" fill="#C7B000"/>
<path d="M11.1748 18.3346C11.0131 18.4337 10.9233 18.5239 10.9323 18.5689C10.9413 18.614 11.0041 18.632 11.076 18.6681C11.2018 18.7222 11.3006 18.8394 11.2377 18.8934C11.3275 18.8123 11.3814 18.7132 11.3724 18.614C11.3635 18.5148 11.2736 18.3977 11.1658 18.3526H11.1838L11.1658 18.3346H11.1748ZM13.735 16.2703C13.4565 16.2163 13.0163 16.1802 12.5133 16.2163C12.3426 16.2343 12.145 16.2613 11.9474 16.3064C11.2377 16.4686 10.7346 16.7661 10.8065 16.9374C10.8065 16.9374 10.4741 16.4777 10.4741 16.4686C10.3933 16.2523 10.9682 15.9548 11.7587 15.7655C12.0013 15.7025 12.2348 15.6664 12.4594 15.6574C12.9624 15.6123 13.4206 15.6303 13.6811 15.6844L13.7529 16.2703" fill="#AC191C"/>
<path d="M11.4084 17.0905C11.085 17.1085 10.8245 17.0635 10.7976 16.9282C10.7706 16.8471 10.8784 16.7299 11.0491 16.6128C11.1479 16.6037 11.2557 16.6128 11.3366 16.6037L11.3994 17.0725M12.5583 16.5947C12.7649 16.6037 12.9176 16.6308 13.0254 16.6668C13.0883 16.748 12.9176 16.8832 12.6211 17.0635L12.5583 16.5947Z" fill="#AC191C"/>
<path d="M10.7617 18.073C10.7168 17.9919 11.0132 17.8116 11.4713 17.6313C11.66 17.5412 11.8396 17.4691 12.0462 17.3699C12.6571 17.0815 13.0883 16.775 13.0074 16.6849C12.9266 16.5947 13.1512 17.1716 13.1512 17.1716C13.232 17.2437 12.8278 17.5592 12.2529 17.8387C12.0822 17.9378 11.6869 18.082 11.5073 18.1451C11.1839 18.2623 10.8874 18.4787 10.9144 18.5508L10.7527 18.064V18.082L10.7617 18.073Z" fill="#AC191C"/>
<path d="M21.694 12.5116C21.694 12.5116 21.676 12.4755 21.6401 12.4755C21.6041 12.4755 21.5952 12.4936 21.5952 12.5206C21.5952 12.5476 21.6131 12.5567 21.6491 12.5567C21.685 12.5567 21.694 12.5386 21.694 12.5116ZM21.6491 12.5026C21.6491 12.5026 21.685 12.5026 21.685 12.5116C21.685 12.5206 21.685 12.5296 21.658 12.5296C21.6311 12.5296 21.6221 12.5296 21.6221 12.5206C21.6221 12.5116 21.6221 12.5026 21.6491 12.5026ZM21.685 12.4214C21.685 12.4214 21.667 12.3854 21.6311 12.3854C21.5952 12.3854 21.5862 12.4034 21.5862 12.4305C21.5862 12.4575 21.6041 12.4665 21.6401 12.4665C21.676 12.4665 21.685 12.4485 21.685 12.4214ZM21.6491 12.4034C21.6491 12.4034 21.685 12.4034 21.685 12.4124C21.685 12.4215 21.685 12.4305 21.658 12.4305C21.6311 12.4305 21.6221 12.4305 21.6221 12.4214C21.6221 12.4124 21.6221 12.4034 21.6491 12.4034ZM21.7569 12.3403C21.7569 12.3403 21.7389 12.3043 21.703 12.3043C21.667 12.3043 21.658 12.3223 21.658 12.3493C21.658 12.3764 21.676 12.3854 21.7119 12.3854C21.7479 12.3854 21.7569 12.3674 21.7569 12.3403ZM21.703 12.3313C21.703 12.3313 21.7389 12.3313 21.7389 12.3403C21.7389 12.3493 21.7389 12.3584 21.7119 12.3584C21.685 12.3584 21.676 12.3584 21.676 12.3493C21.676 12.3403 21.676 12.3313 21.703 12.3313ZM21.8557 12.2953C21.8557 12.2953 21.8377 12.2592 21.8018 12.2592C21.7658 12.2592 21.7569 12.2772 21.7569 12.3043C21.7569 12.3313 21.7748 12.3403 21.8108 12.3403C21.8467 12.3403 21.8557 12.3223 21.8557 12.2953ZM21.8018 12.2682C21.8018 12.2682 21.8377 12.2682 21.8377 12.2772C21.8377 12.2862 21.8377 12.2953 21.8108 12.2953C21.7838 12.2953 21.7748 12.2953 21.7748 12.2862C21.7748 12.2772 21.7748 12.2682 21.8018 12.2682ZM21.9545 12.2862C21.9545 12.2862 21.9365 12.2502 21.9006 12.2502C21.8647 12.2502 21.8557 12.2682 21.8557 12.2953C21.8557 12.3223 21.8736 12.3313 21.9096 12.3313C21.9455 12.3313 21.9545 12.3133 21.9545 12.2862ZM21.9186 12.2772C21.9186 12.2772 21.9545 12.2772 21.9545 12.2862C21.9545 12.2953 21.9545 12.3043 21.9275 12.3043C21.9006 12.3043 21.8916 12.3043 21.8916 12.2953C21.8916 12.2862 21.8916 12.2772 21.9186 12.2772ZM22.0353 12.3043C22.0353 12.3043 22.0174 12.2682 21.9814 12.2682C21.9455 12.2682 21.9365 12.2862 21.9365 12.3133C21.9365 12.3403 21.9545 12.3493 21.9904 12.3493C22.0264 12.3493 22.0353 12.3313 22.0353 12.3043ZM21.9994 12.2772C21.9994 12.2772 22.0353 12.2772 22.0353 12.2862C22.0353 12.2953 22.0353 12.3043 22.0084 12.3043C21.9814 12.3043 21.9725 12.3043 21.9725 12.2953C21.9725 12.2862 21.9725 12.2772 21.9994 12.2772ZM22.1162 12.2322C22.1162 12.2322 22.0982 12.1961 22.0623 12.1961C22.0264 12.1961 22.0174 12.2141 22.0174 12.2412C22.0174 12.2682 22.0353 12.2772 22.0713 12.2772C22.1072 12.2772 22.1162 12.2592 22.1162 12.2322ZM22.0623 12.2231C22.0623 12.2231 22.0982 12.2231 22.0982 12.2322C22.0982 12.2412 22.0982 12.2502 22.0713 12.2502C22.0443 12.2502 22.0353 12.2502 22.0353 12.2412C22.0353 12.2322 22.0353 12.2231 22.0623 12.2231ZM22.206 12.1961C22.206 12.1961 22.188 12.16 22.1521 12.16C22.1162 12.16 22.1072 12.1781 22.1072 12.2051C22.1072 12.2322 22.1252 12.2412 22.1611 12.2412C22.197 12.2412 22.206 12.2231 22.206 12.1961ZM22.1701 12.1781C22.1701 12.1781 22.206 12.1781 22.206 12.1871C22.206 12.1961 22.206 12.2051 22.1791 12.2051C22.1521 12.2051 22.1431 12.2051 22.1431 12.1961C22.1431 12.1871 22.1431 12.1781 22.1701 12.1781ZM22.3228 12.1961C22.3228 12.1961 22.3048 12.16 22.2689 12.16C22.233 12.16 22.224 12.1781 22.224 12.2051C22.224 12.2322 22.2419 12.2412 22.2779 12.2412C22.3138 12.2412 22.3228 12.2231 22.3228 12.1961ZM22.2689 12.1691C22.2689 12.1691 22.3048 12.1691 22.3048 12.1781C22.3048 12.1871 22.3048 12.1961 22.2779 12.1961C22.2509 12.1961 22.2419 12.1961 22.2419 12.1871C22.2419 12.1781 22.2419 12.1691 22.2689 12.1691ZM22.6192 12.1691C22.6192 12.1691 22.6013 12.133 22.5653 12.133C22.5294 12.133 22.5204 12.151 22.5204 12.1781C22.5204 12.2051 22.5384 12.2141 22.5743 12.2141C22.6102 12.2141 22.6192 12.1961 22.6192 12.1691ZM22.5743 12.151C22.5743 12.151 22.6102 12.151 22.6102 12.16C22.6102 12.1691 22.6102 12.1781 22.5833 12.1781C22.5563 12.1781 22.5474 12.1781 22.5474 12.1691C22.5474 12.16 22.5474 12.151 22.5743 12.151ZM22.736 12.142C22.736 12.142 22.718 12.106 22.6821 12.106C22.6462 12.106 22.6372 12.124 22.6372 12.151C22.6372 12.1781 22.6552 12.1871 22.6911 12.1871C22.727 12.1871 22.736 12.1691 22.736 12.142ZM22.7001 12.133C22.7001 12.133 22.736 12.133 22.736 12.142C22.736 12.151 22.736 12.16 22.7091 12.16C22.6821 12.16 22.6731 12.16 22.6731 12.151C22.6731 12.142 22.6731 12.133 22.7001 12.133ZM22.8438 12.1691C22.8438 12.1691 22.8258 12.133 22.7899 12.133C22.754 12.133 22.745 12.151 22.745 12.1781C22.745 12.2051 22.763 12.2141 22.7989 12.2141C22.8348 12.2141 22.8438 12.1961 22.8438 12.1691ZM22.7899 12.151C22.7899 12.151 22.8258 12.151 22.8258 12.16C22.8258 12.1691 22.8258 12.1781 22.7989 12.1781C22.7719 12.1781 22.763 12.1781 22.763 12.1691C22.763 12.16 22.763 12.151 22.7899 12.151ZM22.9336 12.2231C22.9336 12.2231 22.9157 12.1871 22.8797 12.1871C22.8438 12.1871 22.8348 12.2051 22.8348 12.2322C22.8348 12.2592 22.8528 12.2682 22.8887 12.2682C22.9247 12.2682 22.9336 12.2502 22.9336 12.2231ZM22.8977 12.2051C22.8977 12.2051 22.9336 12.2051 22.9336 12.2141C22.9336 12.2231 22.9336 12.2322 22.9067 12.2322C22.8797 12.2322 22.8708 12.2322 22.8708 12.2231C22.8708 12.2141 22.8708 12.2051 22.8977 12.2051ZM23.0145 12.1871C23.0145 12.1871 22.9965 12.151 22.9606 12.151C22.9247 12.151 22.9157 12.1691 22.9157 12.1961C22.9157 12.2231 22.9336 12.2322 22.9696 12.2322C23.0055 12.2322 23.0145 12.2141 23.0145 12.1871ZM22.9606 12.1781C22.9606 12.1781 22.9965 12.1781 22.9965 12.1871C22.9965 12.1961 22.9965 12.2051 22.9696 12.2051C22.9426 12.2051 22.9336 12.2051 22.9336 12.1961C22.9336 12.1871 22.9336 12.1781 22.9606 12.1781ZM23.1133 12.1781C23.1133 12.1781 23.0953 12.142 23.0594 12.142C23.0235 12.142 23.0145 12.16 23.0145 12.1871C23.0145 12.2141 23.0325 12.2231 23.0684 12.2231C23.1043 12.2231 23.1133 12.2051 23.1133 12.1781ZM23.0774 12.16C23.0774 12.16 23.1133 12.16 23.1133 12.1691C23.1133 12.1781 23.1133 12.1871 23.0864 12.1871C23.0594 12.1871 23.0504 12.1871 23.0504 12.1781C23.0504 12.1691 23.0504 12.16 23.0774 12.16ZM23.2121 12.2141C23.2121 12.2141 23.1941 12.1781 23.1582 12.1781C23.1223 12.1781 23.1133 12.1961 23.1133 12.2231C23.1133 12.2502 23.1313 12.2592 23.1672 12.2592C23.2031 12.2592 23.2121 12.2412 23.2121 12.2141ZM23.1672 12.2051C23.1672 12.2051 23.2031 12.2051 23.2031 12.2141C23.2031 12.2231 23.2031 12.2322 23.1762 12.2322C23.1492 12.2322 23.1402 12.2322 23.1402 12.2231C23.1402 12.2141 23.1402 12.2051 23.1672 12.2051ZM23.275 12.3223C23.275 12.3223 23.3199 12.3043 23.3199 12.2772C23.3199 12.2502 23.3019 12.2412 23.266 12.2412C23.2301 12.2412 23.2211 12.2592 23.2211 12.2862C23.2211 12.3133 23.2391 12.3223 23.275 12.3223ZM23.293 12.2772C23.293 12.2772 23.293 12.2953 23.266 12.2953C23.2391 12.2953 23.2301 12.2953 23.2301 12.2862C23.2301 12.2772 23.2301 12.2682 23.257 12.2682C23.284 12.2682 23.293 12.2682 23.293 12.2772ZM23.248 12.3764C23.248 12.3764 23.266 12.4124 23.3019 12.4124C23.3379 12.4124 23.3469 12.3944 23.3469 12.3674C23.3469 12.3403 23.3289 12.3313 23.293 12.3313C23.257 12.3313 23.248 12.3493 23.248 12.3764ZM23.284 12.3854C23.284 12.3854 23.248 12.3854 23.248 12.3764C23.248 12.3674 23.248 12.3584 23.275 12.3584C23.3019 12.3584 23.3109 12.3584 23.3109 12.3674C23.3109 12.3764 23.3109 12.3854 23.284 12.3854Z" fill="#AC191C"/>
<path d="M23.2572 12.4306V12.3855C23.2393 12.2864 23.1315 12.2053 23.0147 12.2143C22.9608 12.2143 22.9338 12.2143 22.9159 12.2503C22.9159 12.2503 22.9787 12.2143 23.0147 12.2143C23.0955 12.2143 23.1494 12.2593 23.1943 12.3044L23.0596 12.2593H22.9428C22.9428 12.2593 22.9248 12.2323 22.8889 12.2323C22.853 12.2323 22.844 12.2503 22.844 12.2774C22.844 12.2053 22.7272 12.1602 22.6284 12.1692C22.5745 12.1692 22.5296 12.1692 22.5116 12.2053H22.6284C22.7272 12.1872 22.7991 12.2233 22.8081 12.2774C22.7542 12.2684 22.7093 12.2593 22.6374 12.2684C22.5655 12.2774 22.5565 12.2864 22.5116 12.3044V12.2593C22.5116 12.2593 22.4667 12.1782 22.4308 12.1692H22.4847V12.1061H22.4308L22.3948 12.0881V12.043H22.4398V11.9889H22.3859V11.9438H22.314V11.9889H22.2691V12.043H22.323V12.0881C22.323 12.0881 22.314 12.0881 22.296 12.1151H22.2421V12.1782H22.296C22.296 12.1782 22.2511 12.2503 22.2601 12.2774V12.3224C22.2601 12.3224 22.1793 12.3044 22.1433 12.3044C22.0894 12.3044 22.0265 12.3134 21.9816 12.3495C21.9816 12.2774 22.0535 12.2323 22.1343 12.2233C22.1882 12.2233 22.2152 12.2233 22.2331 12.2413C22.2331 12.2413 22.1433 12.2053 22.1254 12.2053C22.0265 12.2053 21.9367 12.2954 21.9457 12.3495C21.9457 12.3315 21.9277 12.3134 21.8918 12.3134C21.8559 12.3134 21.8469 12.3315 21.8469 12.3585H21.7481C21.7481 12.3585 21.6403 12.4216 21.6223 12.4486C21.6223 12.3675 21.7031 12.3044 21.784 12.2954C21.8199 12.2954 21.8648 12.2954 21.8828 12.3134C21.8828 12.3134 21.8109 12.2774 21.775 12.2774C21.6582 12.2864 21.5684 12.3765 21.5864 12.4847V12.5388H21.5774C21.5774 12.5388 21.5325 12.5568 21.5325 12.5748C21.5325 12.5748 21.5864 12.5748 21.5864 12.5838L21.6403 12.6199C21.6403 12.6199 21.6582 12.6289 21.6762 12.6289C21.6762 12.6469 21.7301 12.665 21.7481 12.692C21.7481 12.692 21.784 12.701 21.8199 12.692C21.8199 12.692 21.802 12.71 21.8109 12.7191C21.8109 12.7191 21.8289 12.7281 21.8469 12.7281V12.7731L21.8559 12.8182H21.9098V12.8543C21.9098 12.8543 21.8918 12.8543 21.8918 12.8723C21.8918 12.8903 21.8918 12.9174 21.9816 12.9354C22.0625 12.9354 22.2691 12.9534 22.4308 12.9354C22.5925 12.9174 22.8081 12.8723 22.8709 12.8543C22.9338 12.8362 22.9518 12.8092 22.9428 12.7822V12.7371H22.9877V12.692L22.9787 12.6469H22.9967C22.9967 12.6469 23.0416 12.6019 23.0596 12.6019C23.0955 12.6019 23.1045 12.5568 23.1225 12.5388H23.1584V12.5117L23.2033 12.4667H23.2572C23.2572 12.4667 23.2213 12.4126 23.2033 12.4126H23.2662L23.2572 12.4306Z" fill="#AC191C"/>
<path d="M24.4787 19.2L24.4608 19.0648C24.3619 19.0738 24.2631 19.0648 24.1733 19.0377C24.0835 19.0107 23.9846 19.0017 23.8858 19.0107C23.787 19.0197 23.6702 19.0468 23.6074 19.0918C23.5265 19.1369 23.4457 19.1639 23.3289 19.173C23.2121 19.182 23.1313 19.173 23.0414 19.1459C22.9516 19.1189 22.8528 19.1099 22.754 19.1189C22.6552 19.1279 22.5563 19.1549 22.4755 19.2C22.3946 19.2451 22.3138 19.2721 22.197 19.2811L22.2869 20.0203C22.3857 20.0113 22.5024 19.9842 22.5653 19.9392C22.6462 19.8941 22.727 19.867 22.8438 19.858C22.9606 19.849 23.0414 19.858 23.1313 19.8851C23.2211 19.9121 23.3199 19.9392 23.4187 19.9301C23.5175 19.9211 23.6343 19.8941 23.6972 19.849C23.778 19.8039 23.8589 19.7769 23.9757 19.7679C24.0924 19.7589 24.1733 19.7679 24.2631 19.7949C24.353 19.822 24.4518 19.831 24.5506 19.822L24.4697 19.209L24.4787 19.2Z" fill="#255CA6"/>
<path d="M24.1104 18.6773C24.0116 18.6863 23.9038 18.6142 23.8948 18.5331V18.488C23.8948 18.488 23.9397 18.452 23.9307 18.4249C23.9307 18.3798 23.8768 18.3618 23.8229 18.3618L22.6192 18.47C22.6192 18.47 22.5204 18.506 22.5294 18.5511C22.5294 18.5782 22.5473 18.5872 22.5833 18.6052V18.6503C22.6012 18.7314 22.5204 18.8035 22.4126 18.8215L22.4575 19.1911L24.1463 19.0379L24.1014 18.6683H24.1373H24.1194V18.6863L24.1104 18.6773Z" fill="#C7B000"/>
<path d="M22.0264 13.7014L23.2301 13.5933L23.832 18.3888L22.6282 18.4969L22.0264 13.7014Z" fill="#CCCACA"/>
<path d="M23.356 12.8362L21.7031 12.9804L21.748 13.359H21.8828C21.8828 13.359 21.8648 13.359 21.8738 13.377C21.8828 13.395 21.8918 13.4131 21.9277 13.4131C21.9277 13.4131 21.9816 13.4491 21.9816 13.4762C21.9816 13.5032 21.9816 13.5483 21.9367 13.5483C21.8918 13.5483 21.8918 13.5843 21.8918 13.6114C21.8918 13.6564 21.9457 13.6745 21.9996 13.6745L23.2033 13.5663C23.2033 13.5663 23.3021 13.5302 23.2931 13.4852C23.2931 13.4581 23.2752 13.4491 23.2392 13.4311C23.1853 13.4311 23.1674 13.395 23.1674 13.368C23.1674 13.341 23.1943 13.2959 23.2213 13.2959C23.2482 13.2959 23.2662 13.2598 23.2662 13.2508C23.2662 13.2508 23.2662 13.2328 23.2482 13.2238H23.4009L23.356 12.8271V12.8362Z" fill="#C7B000"/>
<path d="M24.0388 17.1537C24.2184 17.2168 24.3442 17.289 24.3262 17.334C24.3262 17.3791 24.2723 17.4061 24.2094 17.4512C24.1016 17.5323 24.0388 17.6585 24.1106 17.6946C24.0028 17.6315 23.922 17.5504 23.913 17.4512C23.904 17.3521 23.9489 17.2259 24.0477 17.1628H24.0298L24.0477 17.1447L24.0388 17.1537ZM21.0474 15.6033C21.2989 15.4952 21.7211 15.387 22.2152 15.3329C22.3769 15.3149 22.5835 15.3149 22.7811 15.3239C23.4998 15.3509 24.0657 15.5492 24.0388 15.7385C24.0388 15.7385 24.2454 15.2337 24.2543 15.2247C24.2723 14.9994 23.6525 14.8101 22.844 14.774C22.5925 14.756 22.3589 14.765 22.1433 14.7921C21.6493 14.8371 21.2091 14.9273 20.9666 15.0354L21.0384 15.6214" fill="#AC191C"/>
<path d="M23.5266 15.9908C23.841 15.9457 24.0746 15.8556 24.0746 15.7204C24.0746 15.6393 23.9488 15.5401 23.7602 15.459C23.6613 15.459 23.5625 15.486 23.4817 15.495L23.5356 15.9548M22.2869 15.7114C22.0893 15.7564 21.9456 15.8105 21.8558 15.8646C21.8198 15.9548 22.0174 16.0539 22.3498 16.1801L22.2959 15.7204" fill="#AC191C"/>
<path d="M24.362 16.8384C24.3889 16.7572 24.0565 16.631 23.5715 16.5409C23.3648 16.4868 23.1762 16.4508 22.9516 16.3877C22.2959 16.2164 21.8018 16 21.8557 15.8919C21.9096 15.7837 21.8377 16.3877 21.8377 16.3877C21.7838 16.4778 22.251 16.7122 22.8708 16.8744C23.0594 16.9375 23.4726 17.0096 23.6613 17.0367C24.0026 17.0908 24.344 17.253 24.335 17.3161L24.371 16.8203V16.8384H24.362Z" fill="#AC191C"/>
<path d="M20.4545 11.1863C20.2749 11.0781 20.0593 10.997 19.8526 10.9339C19.5562 10.8617 19.2687 10.8347 19.0532 10.8527C18.9004 10.8617 18.7387 10.8798 18.5501 10.8798C18.2986 10.8798 18.092 10.8347 17.9213 10.7986C17.6249 10.7265 17.1667 10.7085 16.7086 10.7536C16.2504 10.7986 15.8462 10.8798 15.5408 11.006C15.3971 11.0871 15.1815 11.1322 14.9389 11.1953C14.7772 11.2223 14.5886 11.2494 14.4359 11.2494C14.2023 11.2674 13.9418 11.3485 13.6723 11.4657C13.4477 11.5648 13.2411 11.7001 13.1423 11.8172C13.0435 11.9344 13.2681 11.8894 13.2681 11.8894L13.331 12.1237L13.6903 12.3941L13.8699 12.4933L14.2832 12.6916L14.4628 12.6736L14.5526 12.8178L16.9601 12.3671L19.4035 12.3851L19.4484 12.2409L19.6281 12.2229L19.9784 11.9434L20.1311 11.8172L20.4096 11.4927V11.2584L20.5174 11.1682H20.4815V11.1592L20.4545 11.1772V11.1863Z" fill="#AC191C"/>
<path d="M20.5891 10.9249C20.5622 10.7085 20.4095 10.5373 20.158 10.4111C20.158 10.4111 20.14 10.4111 20.14 10.4021C20.0861 10.375 20.0502 10.357 20.0322 10.339C19.7897 10.2488 19.4483 10.1947 19.08 10.2308C18.9183 10.2488 18.7656 10.2759 18.6398 10.3119C18.6398 10.3119 18.55 10.2669 18.532 10.2398C18.4961 10.2128 18.4781 10.1857 18.4242 10.1767C18.2086 10.0866 17.9481 10.0145 17.6158 10.0415C17.3822 10.0595 17.1576 10.1407 16.9869 10.2308C16.96 10.1497 16.8522 10.0866 16.7354 10.0866C16.8342 10.0685 16.8971 10.0055 16.951 9.93334H16.9869C16.9869 9.93334 17.0139 9.86123 17.0049 9.83418V9.78911C16.969 9.70799 16.8791 9.64489 16.7624 9.61785L16.7354 9.41052L16.9061 9.39249L16.8881 9.23925L16.7175 9.25728L16.6995 9.12207L16.5019 9.1401L16.5198 9.27531L16.3491 9.29334L16.3671 9.44658L16.5378 9.42855L16.5647 9.61785C16.4659 9.67193 16.3761 9.717 16.3761 9.82517C16.3761 9.93334 16.3761 9.8432 16.3761 9.8432V9.87024C16.3761 9.87024 16.3851 9.94235 16.421 9.96038C16.4569 9.97841 16.439 9.96038 16.439 9.96038C16.5019 10.0235 16.5737 10.0595 16.6905 10.0776C16.5917 10.0956 16.5019 10.1767 16.4749 10.2578C16.2773 10.1947 16.0437 10.1677 15.8102 10.1947C15.4958 10.2218 15.2352 10.33 15.0556 10.4832C14.8759 10.6364 14.9927 10.5283 14.9658 10.5643C14.9208 10.6004 14.8849 10.6274 14.8759 10.6545H14.858C14.7232 10.6274 14.5705 10.6364 14.3998 10.6545C14.0315 10.6905 13.7261 10.7987 13.4925 10.9429C13.259 11.0871 13.4117 10.988 13.4027 11.024C13.4027 11.024 13.3847 11.024 13.3847 11.0421C13.1691 11.2133 13.0613 11.4207 13.0883 11.61C13.1063 11.7452 13.1871 11.8804 13.3039 11.9885V12.0156L13.4207 12.0877L13.5824 11.7993C13.4386 11.7271 13.3578 11.6009 13.3398 11.4567C13.3398 11.3846 13.3398 11.3215 13.3668 11.2584C13.4746 11.015 13.9058 10.8257 14.4178 10.7807C14.5346 10.7716 14.6693 10.7626 14.7681 10.7807C14.7681 10.7987 14.7681 10.8257 14.7591 10.8347C14.7322 10.8798 14.7232 10.9249 14.7232 10.979C14.7232 11.006 14.6963 11.0331 14.6963 11.0601C14.7142 11.2224 14.84 11.3756 15.0556 11.4838C15.2712 11.5919 15.1813 11.5559 15.1813 11.5559L15.3161 11.3125C15.1364 11.2494 15.0197 11.1052 14.9837 10.9519V10.8978C14.9568 10.6364 15.3341 10.3931 15.7832 10.357C16.0347 10.339 16.2593 10.375 16.43 10.4381L16.4569 10.6455C16.4839 10.8528 16.4569 11.0331 16.421 11.1773C16.3851 11.3215 16.8791 11.4657 16.8791 11.4657L17.2564 11.1052C17.1936 10.988 17.1127 10.7987 17.0947 10.5914L17.0678 10.4021C17.2205 10.3029 17.4541 10.2308 17.6966 10.2128C18.1637 10.1767 18.5859 10.339 18.6398 10.6004V10.6545C18.6668 10.8077 18.5859 10.9519 18.4152 11.0601L18.6129 11.2764L18.7207 11.1863C18.9003 11.0421 18.9812 10.8708 18.9632 10.6995C18.9632 10.6725 18.9363 10.6455 18.9183 10.6184C18.9183 10.5643 18.8734 10.5373 18.8554 10.4832C18.8554 10.4652 18.8554 10.4381 18.8285 10.4291C18.9273 10.4111 19.062 10.384 19.1698 10.375C19.6819 10.33 20.149 10.4562 20.3107 10.6635C20.3556 10.7266 20.3736 10.7807 20.3825 10.8528C20.4005 10.988 20.3286 11.1052 20.2298 11.2133C20.131 11.3215 20.4634 11.4838 20.4634 11.4838L20.5712 11.3936V11.3666C20.6341 11.2404 20.688 11.0962 20.67 10.9609H20.6161V10.997L20.5981 10.9609L20.5891 10.9249Z" fill="#C7B000"/>
<path d="M20.3735 11.43C20.3735 11.43 20.2387 11.4571 20.2118 11.5022V11.4481H20.1759C20.1759 11.4481 20.077 11.4661 20.0411 11.5743C20.0321 11.6284 20.0411 11.6734 20.0411 11.7275C20.0411 11.7275 20.0411 11.7095 20.0232 11.7185C19.9693 11.6644 19.8435 11.6554 19.8255 11.6374C19.7716 11.6284 19.7177 11.5923 19.7177 11.5923H19.6998L19.7087 11.6734C19.6099 11.6734 19.5291 11.6915 19.4303 11.7365C19.4931 11.8177 19.547 11.8537 19.6189 11.8717L19.574 11.9168L19.547 11.9619C19.547 11.9619 19.6189 11.9619 19.6459 11.9619L19.9154 11.9348C19.9154 11.9348 19.8435 12.0069 19.7806 12.061C19.6279 12.1692 19.5111 12.1782 19.5111 12.1782C19.4123 12.1782 19.3674 12.1061 19.3584 12.016C19.3943 12.016 19.4213 11.9709 19.4303 11.9439C19.4393 11.9168 19.4303 11.8717 19.4213 11.8627C19.4123 11.8537 19.3854 11.8357 19.3674 11.8267C19.3135 11.8177 19.2686 11.8627 19.2416 11.9168V11.9979C19.1967 12.07 19.0979 12.1241 18.9811 12.1331C18.8194 12.1512 18.6487 12.052 18.6308 11.8988C18.6308 11.8537 18.6218 11.8177 18.6487 11.7726H18.6667C18.6667 11.7726 18.7206 11.8086 18.7745 11.8267C18.8284 11.8447 18.9003 11.8717 18.9362 11.8808C18.9721 11.8898 19.026 11.8988 19.026 11.8988H19.044L19.035 11.8177C19.035 11.8177 19.0799 11.7996 19.1159 11.7996C19.1518 11.7996 19.1698 11.7996 19.1967 11.7816C19.2237 11.7636 19.2596 11.7816 19.2955 11.7455L19.2057 11.6824C19.2057 11.6824 19.1518 11.6464 19.1159 11.6464C19.0979 11.6464 19.062 11.6103 19.026 11.6103C19.026 11.6103 19.044 11.5923 19.035 11.5653C19.044 11.5382 19.044 11.5202 19.044 11.5202H18.9452L18.7835 11.5292C18.7835 11.5292 18.7386 11.5472 18.7026 11.5472C18.7026 11.5292 18.7296 11.5202 18.7476 11.5022C18.7565 11.4571 18.7925 11.43 18.8015 11.412C18.8015 11.394 18.8104 11.385 18.8104 11.3669C18.8284 11.3489 18.8554 11.2948 18.8554 11.2948C18.8554 11.2948 18.8015 11.2858 18.7565 11.2948H18.7026C18.7026 11.2948 18.6847 11.2588 18.6757 11.2317C18.6667 11.2047 18.6487 11.1777 18.6308 11.1506C18.6308 11.1236 18.6308 11.0965 18.5859 11.0875C18.5499 11.1055 18.5589 11.1326 18.532 11.1596C18.514 11.1777 18.487 11.2047 18.4781 11.2317C18.4781 11.2498 18.4331 11.2768 18.4331 11.2948C18.4331 11.2948 18.4152 11.2858 18.3793 11.2678C18.3254 11.2408 18.2984 11.2678 18.2804 11.2678H18.2625C18.2625 11.2678 18.2715 11.3489 18.2894 11.3669V11.412C18.2894 11.412 18.3074 11.4841 18.3254 11.5022C18.3254 11.5202 18.3254 11.5472 18.3523 11.5562C18.3343 11.5472 18.2984 11.5292 18.2804 11.5202C18.2265 11.4931 18.1726 11.4841 18.1187 11.4661L18.0289 11.4481H18.0109L18.0199 11.5292C18.0199 11.5292 17.975 11.5472 17.9391 11.5472C17.9031 11.5472 17.8762 11.5472 17.8582 11.5833C17.8223 11.5833 17.7954 11.5833 17.7774 11.6013C17.7774 11.6013 17.8313 11.6374 17.8672 11.6644C17.8852 11.6734 17.9211 11.7005 17.957 11.7005C17.975 11.7005 18.0109 11.7365 18.0469 11.7365C18.0469 11.7365 18.0289 11.7546 18.0379 11.7816C18.0289 11.8086 18.0289 11.8267 18.0289 11.8267H18.1277L18.2984 11.8177C18.2984 11.8177 18.3972 11.7816 18.3972 11.7636V11.8086C18.4242 11.9619 18.2894 12.0791 18.0828 12.0971C17.9121 12.1151 17.7594 12.043 17.7055 11.8988C17.6516 11.7546 17.7684 11.8537 17.7774 11.8086C17.7774 11.7636 17.7774 11.7365 17.7325 11.7275C17.7325 11.7095 17.6965 11.7005 17.6786 11.7005C17.6247 11.7005 17.5798 11.7546 17.5887 11.8086C17.5887 11.8537 17.5887 11.8808 17.6337 11.8898C17.5977 12.0069 17.4899 12.0971 17.3372 12.1061C17.1396 12.1241 16.9779 12.025 16.9509 11.8808C16.9509 11.8357 16.9509 11.8086 16.9509 11.7996H16.9689C16.9689 11.7996 17.0587 11.8357 17.1126 11.8537C17.1665 11.8627 17.2474 11.8808 17.3013 11.8808H17.4181C17.4181 11.8808 17.4181 11.8537 17.4001 11.8267C17.4001 11.8086 17.3821 11.7906 17.3821 11.7906C17.4181 11.7906 17.427 11.7546 17.463 11.7455C17.5169 11.7455 17.5438 11.7095 17.5618 11.6915C17.5798 11.6734 17.6247 11.6734 17.6426 11.6464C17.6606 11.6193 17.6426 11.6284 17.6426 11.6284C17.6247 11.6193 17.5887 11.6193 17.5528 11.5923C17.5169 11.5833 17.463 11.5562 17.445 11.5562C17.4091 11.5562 17.3911 11.5292 17.3552 11.5202C17.3552 11.5202 17.3552 11.4931 17.3642 11.4751V11.43H17.2384C17.2384 11.43 17.1037 11.4661 17.0587 11.4931C17.0228 11.4931 16.9959 11.5292 16.9779 11.5382C16.9779 11.5202 17.0048 11.4931 17.0228 11.4661C17.0318 11.421 17.0498 11.385 17.0587 11.3489C17.0587 11.3309 17.0587 11.3039 17.0677 11.3039C17.0677 11.2768 17.1037 11.2137 17.1037 11.2137C17.1037 11.2137 17.0498 11.2047 17.0048 11.2137C16.9869 11.2137 16.9599 11.2317 16.9599 11.2317C16.933 11.1506 16.8701 11.0695 16.7982 11.0244C16.7803 11.0424 16.7893 11.0695 16.7533 11.0965C16.7174 11.1236 16.7084 11.1686 16.6994 11.1867C16.6994 11.2137 16.6545 11.2317 16.6545 11.2588C16.6545 11.2588 16.6186 11.2498 16.6006 11.2498C16.5467 11.2408 16.5018 11.2498 16.5018 11.2498H16.4838C16.4838 11.2498 16.5287 11.3309 16.5467 11.3399C16.5467 11.3399 16.5467 11.3669 16.5647 11.376C16.5647 11.421 16.5916 11.4571 16.6276 11.4841C16.6276 11.5112 16.6635 11.5202 16.6904 11.5472C16.6725 11.5472 16.6365 11.5202 16.6006 11.5112C16.5467 11.5022 16.4659 11.4841 16.412 11.4841H16.3131H16.2952V11.5562L16.3221 11.5923C16.2862 11.5923 16.2772 11.6284 16.2413 11.6374C16.1874 11.6374 16.1604 11.6734 16.1425 11.6915C16.1245 11.7095 16.0976 11.7095 16.0616 11.7365C16.0257 11.7636 16.0616 11.7546 16.0616 11.7546C16.0796 11.7636 16.1155 11.7636 16.1515 11.7906C16.1874 11.8177 16.2413 11.8267 16.2593 11.8267C16.2952 11.8267 16.3132 11.8537 16.3491 11.8627C16.3491 11.8627 16.3491 11.8898 16.3401 11.9078V11.9529H16.4659C16.4659 11.9529 16.6006 11.9168 16.6455 11.8898C16.7084 11.8537 16.7533 11.8267 16.7713 11.8086H16.7893L16.7982 11.8898C16.8162 12.043 16.6815 12.1602 16.4838 12.1782C16.3311 12.1872 16.1874 12.1241 16.1425 12.016C16.1515 11.9889 16.1694 11.9439 16.1694 11.9348C16.1694 11.8627 16.0886 11.8447 16.0616 11.8447C16.0437 11.8447 16.0077 11.8447 16.0167 11.8808C16.0077 11.9078 15.9898 11.9529 15.9898 11.9619C15.9898 11.9709 16.0347 12.025 16.0796 12.034C16.0796 12.1692 15.9448 12.2774 15.7562 12.2954C15.5586 12.3134 15.3879 12.2143 15.3699 12.07V12.016C15.3699 12.016 15.4328 12.034 15.4687 12.052L15.7382 12.025C15.7382 12.025 15.7382 12.0069 15.7113 11.9709C15.7113 11.9529 15.6933 11.9439 15.6933 11.9348C15.7293 11.9348 15.7382 11.8988 15.7742 11.8898C15.8101 11.8898 15.8191 11.8537 15.855 11.8447C15.873 11.8267 15.8999 11.8086 15.9359 11.7996C15.9718 11.7906 15.9359 11.7816 15.9359 11.7816C15.8999 11.7726 15.873 11.7816 15.855 11.7816C15.8191 11.7816 15.8011 11.7726 15.7652 11.7636C15.7293 11.7636 15.7113 11.7365 15.6843 11.7636V11.6644H15.6574C15.6574 11.6644 15.6125 11.7005 15.5765 11.7095C15.5765 11.7095 15.4777 11.7636 15.4328 11.7906C15.4148 11.8086 15.3879 11.8267 15.3699 11.8357C15.3699 11.8177 15.3699 11.7906 15.3789 11.7816C15.3789 11.7365 15.3699 11.7005 15.3789 11.6824L15.3609 11.5562L15.3789 11.5382C15.3789 11.5382 15.325 11.5382 15.2801 11.5562C15.2621 11.5562 15.2442 11.5743 15.2352 11.5923C15.2352 11.5743 15.1813 11.5562 15.1813 11.5382C15.1633 11.5112 15.1454 11.5022 15.1094 11.4751C15.0915 11.4661 15.0735 11.4391 15.0376 11.412C15.0376 11.412 15.0376 11.4571 15.0106 11.4841L14.9837 11.5653C14.9837 11.5653 14.9567 11.6103 14.9837 11.6374H14.8309C14.8309 11.6374 14.8938 11.7185 14.8938 11.7275V11.7726C14.8938 11.7726 14.9747 11.8357 14.9926 11.8447C14.9926 11.8627 15.0286 11.8808 15.0465 11.8808C15.0286 11.8808 14.9926 11.8717 14.9657 11.8808L14.6962 11.9078C14.6962 11.9078 14.6962 11.9258 14.7231 11.9619C14.7231 11.9799 14.7411 11.9889 14.7591 11.9979C14.7231 11.9979 14.7142 12.034 14.6782 12.043C14.6423 12.052 14.6333 12.0791 14.5974 12.0881C14.5794 12.1061 14.5525 12.1241 14.5165 12.1331C14.4806 12.1422 14.5165 12.1512 14.5165 12.1512C14.5525 12.1602 14.5794 12.1512 14.6064 12.1692C14.6423 12.1692 14.6603 12.1782 14.6872 12.1692C14.7142 12.1602 14.7411 12.1962 14.7681 12.1692V12.2684L14.8759 12.2143C14.8759 12.2143 14.9747 12.1602 15.0196 12.1331C15.0645 12.1061 15.1004 12.07 15.1094 12.052H15.1274C15.1274 12.052 15.1723 12.1151 15.1723 12.1602C15.1903 12.2954 15.0555 12.4306 14.8848 12.4486C14.786 12.4486 14.6603 12.4306 14.5884 12.3675C14.5974 12.3405 14.5884 12.2954 14.5794 12.2864C14.5525 12.2233 14.4896 12.2143 14.4357 12.2143C14.4177 12.2143 14.3908 12.2323 14.3908 12.2593C14.3818 12.2864 14.3908 12.3315 14.3998 12.3405C14.4087 12.3495 14.4626 12.4036 14.4896 12.4036C14.4986 12.5027 14.4626 12.5748 14.3818 12.5929C14.3818 12.5929 14.265 12.6019 14.0854 12.5208C14.0135 12.4847 13.9776 12.4486 13.9237 12.4216L14.292 12.3855C14.292 12.3855 14.292 12.3675 14.2381 12.3315L14.1842 12.2954C14.265 12.2593 14.3099 12.2053 14.3548 12.1422C14.3998 12.0791 14.3548 12.1241 14.3548 12.1241C14.265 12.1061 14.1662 12.0971 14.0674 12.1061V12.0069H14.0404L13.9506 12.0881C13.9506 12.0881 13.8248 12.1692 13.7799 12.1962C13.7799 12.1962 13.7799 12.2143 13.7709 12.2233C13.7709 12.1692 13.762 12.1241 13.735 12.07C13.6721 11.9799 13.5733 11.9709 13.5733 11.9709V12.025C13.5733 12.025 13.4565 11.9799 13.3847 11.9709C13.2499 11.9799 13.1601 12.07 13.1781 12.1872C13.1781 12.1872 13.3487 12.1692 13.4386 12.2053C13.5284 12.2413 13.6272 12.3585 13.6272 12.3585V12.3855C13.6272 12.3855 13.6542 12.4486 13.7081 12.4577C13.762 12.4667 13.7979 12.4937 13.8159 12.4937H13.8698C13.8698 12.4937 14.0404 12.6379 14.1662 12.683C14.2201 12.692 14.3459 12.7371 14.4626 12.7281C14.4447 12.7281 14.4177 12.7461 14.4177 12.7731V12.8453C14.4177 12.8453 14.4806 12.8993 14.5165 12.8903H14.5525C14.5525 12.8903 14.6154 12.8903 14.6782 12.9444L14.5884 13.0346L14.7681 13.0886C14.7681 13.0886 14.795 13.1698 14.786 13.1968C14.786 13.1968 14.7411 13.2599 14.7501 13.2869C14.7501 13.332 14.795 13.3681 14.8399 13.3591C15.4598 13.4582 16.2682 13.4672 17.1576 13.3861C18.0469 13.305 18.8284 13.1517 19.4033 12.9534C19.4572 12.9534 19.4752 12.8903 19.4752 12.8633C19.4752 12.8362 19.4393 12.8272 19.4213 12.8092L19.4033 12.683L19.565 12.6019L19.4752 12.5298C19.5291 12.4577 19.583 12.4486 19.583 12.4486C19.583 12.4486 19.6818 12.4486 19.6818 12.3946V12.3224C19.6818 12.3224 19.6548 12.3134 19.6189 12.2954C19.7177 12.2954 19.8435 12.2233 19.8794 12.2053C19.9693 12.1422 20.077 12.025 20.113 11.9619H20.1489C20.1489 11.9619 20.2298 11.9348 20.2567 11.9078C20.2837 11.8808 20.3106 11.8357 20.3106 11.8177V11.7906C20.3106 11.7906 20.3735 11.6644 20.4543 11.6103C20.5352 11.5562 20.6969 11.5472 20.6969 11.5472C20.6789 11.4391 20.5711 11.3669 20.4364 11.376L20.5352 11.394H20.4543L20.4274 11.3489L20.3735 11.43ZM14.3728 12.8543V12.8272H14.3818C14.3818 12.8272 14.3638 12.8272 14.3638 12.8453V12.8633L14.3728 12.8543ZM18.505 12.0881C18.5859 12.1782 18.7116 12.2323 18.8464 12.2503C18.6398 12.2233 18.4242 12.2143 18.2086 12.2233C18.3074 12.2053 18.4331 12.1512 18.496 12.0881H18.514H18.505ZM17.7235 12.1331C17.7235 12.1331 17.8852 12.2053 17.984 12.2233C17.8133 12.2413 17.6606 12.2233 17.5169 12.2413C17.6157 12.2233 17.6786 12.1872 17.7594 12.1331H17.7415H17.7235ZM16.915 12.1512C17.0048 12.2233 17.1306 12.2684 17.2474 12.2774L16.6186 12.3315C16.7354 12.2954 16.8431 12.2413 16.915 12.1512ZM16.1245 12.2774C16.1245 12.2774 16.2862 12.3495 16.367 12.3405C16.1964 12.3585 16.0526 12.3855 15.8999 12.4126C15.9808 12.3946 16.0616 12.3315 16.1155 12.2864L16.1245 12.2774ZM15.3609 12.3675C15.4508 12.4306 15.5586 12.4486 15.6574 12.4486C15.4418 12.4847 15.2442 12.5298 15.0465 12.5839C15.1723 12.5298 15.307 12.4757 15.325 12.3675H15.343H15.3609ZM14.5435 12.7281C14.5435 12.7281 14.6333 12.6469 14.6423 12.6109C14.7321 12.6469 14.777 12.6379 14.8848 12.6469C14.7681 12.683 14.6603 12.7191 14.5435 12.7641V12.7371V12.7281ZM19.035 12.2684C19.1159 12.2684 19.1967 12.2413 19.2596 12.1962C19.3045 12.2593 19.3494 12.2684 19.4123 12.3044C19.3135 12.2864 19.1698 12.2684 19.053 12.2684H19.035ZM19.565 12.3675H19.547C19.547 12.3675 19.565 12.3495 19.565 12.3675Z" fill="#C7B000"/>
<path d="M13.3579 13.6563L14.0316 19.0468C14.0945 19.5786 14.5437 20.0563 15.1994 20.2456C16.0798 20.507 17.0499 20.5972 17.9842 20.5161C18.9184 20.4349 19.8257 20.1645 20.6072 19.7499C21.1911 19.4434 21.5055 18.9206 21.4427 18.3707L20.7689 13.0073L13.3579 13.6654V13.6563Z" fill="#CCCACA"/>
<path d="M13.7979 17.0276L14.0494 19.0558C14.1482 19.867 15.0645 20.4169 16.0975 20.3177C17.1306 20.2186 17.8672 19.4884 17.7684 18.7132L17.5168 16.6851L13.7979 17.0186V17.0276Z" fill="#AC191C"/>
<path d="M14.0316 19.0108C14.0855 19.4525 14.364 19.7589 14.5886 19.9302L14.6245 19.9663L14.2382 16.9285L13.7891 16.9736L14.0496 19.0198H14.0316V19.0108ZM15.0557 16.8294L14.5886 16.8744L15.0018 20.1646C15.0018 20.1646 15.0557 20.1916 15.0916 20.2006C15.1994 20.2457 15.3431 20.2908 15.4958 20.2998H15.5138L15.0826 16.8474V16.8294H15.0647H15.0557ZM15.8552 20.3448L16.3223 20.2998L15.8821 16.7663L15.415 16.8113L15.8552 20.3448ZM16.6636 20.1826H16.6816C16.8433 20.1285 17.0319 20.0384 17.1128 19.9753L16.6996 16.6761L16.2325 16.7212L16.6726 20.1826H16.6636ZM17.0409 16.6491L17.4182 19.6598L17.4631 19.6237C17.6428 19.4705 17.7596 19.155 17.7775 18.8034L17.4991 16.604L17.0319 16.6491H17.0409Z" fill="#C7B000"/>
<path d="M17.49 16.6851L17.7415 18.7133C17.8403 19.5245 18.7566 20.0744 19.7807 19.9752C20.8047 19.8761 21.5593 19.1459 21.4605 18.3707L21.209 16.3516L17.49 16.6851Z" fill="#AC191C"/>
<path d="M20.8496 18.1545C20.9304 18.1184 20.9753 18.0643 20.9663 18.0012C20.9574 17.9381 20.8855 17.875 20.8136 17.857L20.7867 17.6316L20.9124 17.5956L20.8765 17.3342L20.7418 17.3071L20.7148 17.0818C20.7957 17.0457 20.8406 16.9917 20.8316 16.9286C20.8226 16.8474 20.7148 16.7843 20.598 16.7933C20.4992 16.8024 20.4363 16.8474 20.4094 16.9195L20.1938 16.9376L20.1309 16.8474L19.7806 16.8835L19.7446 16.9826L19.565 17.0007C19.565 17.0007 19.4482 16.9015 19.3494 16.9105C19.2506 16.9195 19.1877 16.9646 19.1607 17.0367L18.9811 17.0547L18.9182 16.9646L18.5679 17.0007L18.5319 17.0998L18.3163 17.1178C18.3163 17.1178 18.1996 17.0187 18.1007 17.0277C18.0019 17.0367 17.8941 17.1269 17.9031 17.208C17.9031 17.2711 17.966 17.3252 18.0558 17.3432L18.0828 17.5686L17.957 17.6226L17.9929 17.884L18.1277 17.9021L18.1546 18.1274C18.0738 18.1635 18.0289 18.2176 18.0379 18.2987C18.0468 18.3798 18.1007 18.4249 18.1906 18.4339L18.2085 18.5781L18.0828 18.6322L18.1187 18.8936H18.2714C18.2984 18.9747 18.3343 19.0288 18.3792 19.11C18.4241 19.1911 18.3433 19.1911 18.3433 19.2362C18.3433 19.2812 18.3882 19.3083 18.4421 19.3353C18.496 19.3714 18.5679 19.3804 18.6487 19.3533C18.7026 19.3984 18.7565 19.4255 18.8284 19.4705L18.8104 19.5787C18.9182 19.6328 19.017 19.6508 19.1248 19.6869C19.2326 19.7229 19.2146 19.5967 19.2146 19.5967C19.2955 19.5967 19.3674 19.6238 19.4482 19.6147C19.4751 19.6778 19.565 19.7139 19.6638 19.7139C19.7626 19.7049 19.8255 19.6418 19.8524 19.5787C19.9333 19.5787 20.0141 19.5336 20.077 19.5156L20.1848 19.5877C20.2836 19.5426 20.3914 19.4886 20.4723 19.4435C20.5531 19.3984 20.4274 19.3443 20.4274 19.3443C20.4902 19.2993 20.5351 19.2542 20.5801 19.2001C20.6609 19.2001 20.7148 19.1911 20.7777 19.146C20.8226 19.119 20.8316 19.0739 20.8496 19.0288C20.8496 18.9928 20.8406 18.9477 20.7867 18.9297C20.8226 18.8486 20.8406 18.7945 20.8406 18.7133L20.9663 18.6773L20.9304 18.4159L20.8226 18.3888L20.8046 18.2446H20.8585V18.2176L20.8496 18.1545ZM20.4004 19.155L20.2926 19.0919C20.2028 19.1731 20.104 19.2091 20.0051 19.2452C19.9063 19.2812 20.0501 19.3353 20.0501 19.3353C20.0051 19.3533 19.9512 19.3714 19.8884 19.3894C19.8704 19.3533 19.8165 19.3263 19.7806 19.3173L19.7357 18.9928L19.8614 18.9387L19.8255 18.6683L19.6907 18.6502L19.6368 18.1995L19.9512 18.4339L19.8794 18.524L20.1399 18.7224L20.2477 18.6683L20.5082 18.8666C20.5082 18.8666 20.4723 18.9838 20.5262 19.0288L20.4363 19.119H20.3824V19.164V19.146L20.4004 19.155ZM18.8912 19.2812C18.8912 19.2812 18.8014 19.2181 18.7835 19.2091C18.8284 19.146 18.8194 19.0919 18.7655 19.0469L18.9721 18.8035L19.0979 18.8305L19.3045 18.5871L19.2146 18.515L19.4662 18.2266L19.5201 18.6773L19.3943 18.7133L19.4302 18.9838L19.565 19.0108L19.6099 19.3353C19.6099 19.3353 19.5111 19.3894 19.5201 19.4255C19.4572 19.4255 19.4033 19.4255 19.3494 19.3984L19.3674 19.2993C19.2596 19.2632 19.1428 19.2362 19.0529 19.2001C18.9631 19.164 18.9631 19.2812 18.9631 19.2812H18.9092V19.2452V19.2632L18.8912 19.2812ZM18.8823 16.9646V17.0457L18.7116 17.0638V16.9826L18.8823 16.9646ZM20.0501 16.8564V16.9376L19.8794 16.9556V16.8745L20.0501 16.8564ZM20.7418 18.3708H20.8406L20.8585 18.497H20.7597L20.7418 18.3708ZM18.4151 18.7224H18.3163L18.2984 18.5962H18.3972L18.4151 18.7224ZM18.1726 17.7038L18.1546 17.5686H18.2535L18.2714 17.6947H18.1726V17.7038ZM20.6429 17.4784L20.625 17.3432H20.7238L20.7418 17.4694H20.6429V17.4784ZM20.7238 18.6502C20.7238 18.6502 20.6968 18.7314 20.6879 18.7764H20.589L20.3285 18.5871L20.4004 18.497L20.1399 18.2987L20.0321 18.3528L19.7177 18.1184L19.9153 18.0824L19.9782 18.1725L20.3285 18.1364L20.3645 18.0373L20.598 18.0193C20.598 18.0193 20.6789 18.0914 20.7238 18.0914L20.7418 18.2266L20.616 18.2626L20.6519 18.524C20.6519 18.5962 20.7687 18.5511 20.7687 18.5511V18.5962H20.7597L20.7328 18.6412L20.7238 18.6502ZM20.1668 18.5871L20.0411 18.488L20.1129 18.4249L20.2387 18.524L20.1668 18.5871ZM20.2028 17.9742V18.0553L20.0141 18.0733V17.9922L20.2028 17.9742ZM19.9153 17.5505L20.0141 17.4333L20.104 17.4784L20.0051 17.5956L19.9153 17.5505ZM20.8226 17.9471C20.8226 17.9471 20.7957 18.0193 20.7507 18.0193C20.7058 18.0193 20.6609 18.0012 20.6609 17.9562C20.6609 17.9111 20.6879 17.884 20.7328 17.884C20.7777 17.884 20.8226 17.9021 20.8226 17.9471ZM20.5531 17.0187L20.5801 17.2531L20.4543 17.3071L20.4902 17.5776L20.625 17.5956L20.6519 17.83C20.6519 17.83 20.5621 17.8931 20.5441 17.9381L20.3106 17.9562L20.2477 17.866L19.8974 17.9021L19.8614 18.0012L19.6818 18.0193L19.9423 17.7038L20.068 17.7308L20.2746 17.4874L20.1848 17.4153L20.5262 17.0277H20.5621L20.5531 17.0187ZM20.086 17.3342L19.9602 17.3071L19.7536 17.5505L19.8435 17.6226L19.5919 17.9111L19.547 17.5415L19.6728 17.5055L19.6368 17.235L19.5021 17.208V17.1088C19.5021 17.1088 19.5829 17.0457 19.6099 17.0007L19.7896 16.9826L19.8524 17.0728L20.2028 17.0367L20.2387 16.9376L20.4543 16.9195C20.4543 16.9195 20.4543 16.9376 20.4723 16.9466L20.1309 17.3342H20.095H20.059H20.086ZM19.0529 18.5331L19.1428 18.5781L19.044 18.6953L18.9541 18.6502L19.0529 18.5331ZM18.8553 17.5325L18.9811 17.6316L18.9092 17.6947L18.7835 17.5956L18.8553 17.5325ZM19.008 18.0733V18.1545L18.8194 18.1725V18.0914L19.008 18.0733ZM19.2236 17.2621L19.2596 17.5325L19.3943 17.5505L19.4392 17.9201L19.1248 17.6857L19.1967 17.5956L18.9362 17.3973L18.8284 17.4514L18.3972 17.1269C18.3972 17.1269 18.3972 17.1088 18.4062 17.0998L18.6218 17.0818L18.6846 17.1719L19.035 17.1359L19.0709 17.0367L19.2506 17.0187C19.2506 17.0187 19.3404 17.0908 19.3943 17.0998V17.199L19.2775 17.2531H19.2416H19.2057L19.2236 17.2621ZM18.6128 17.6407L18.8733 17.839L18.9811 17.7849L19.3135 18.0283L19.1338 18.0553L19.0709 17.9652L18.7206 18.0012L18.6846 18.1004L18.4511 18.1184C18.4511 18.1184 18.3702 18.0463 18.3253 18.0373L18.2984 17.8029L18.4241 17.7669L18.3882 17.4964L18.2535 17.4694L18.2265 17.235L18.6577 17.5595L18.5858 17.6497H18.6218L18.6128 17.6407ZM18.2894 18.1364C18.2894 18.1364 18.3792 18.1545 18.3792 18.1995C18.3792 18.2446 18.3523 18.2717 18.3073 18.2717C18.2624 18.2717 18.2175 18.2536 18.2175 18.2086C18.2175 18.1635 18.2445 18.1364 18.2894 18.1364ZM18.4601 18.8125L18.5679 18.7584L18.5319 18.497L18.3972 18.47L18.3792 18.3347C18.3792 18.3347 18.469 18.2716 18.487 18.2446L18.7206 18.2266L18.7835 18.3167L19.1338 18.2807L19.1697 18.1815L19.3674 18.1635L19.1158 18.4609L18.9901 18.4339L18.7835 18.6773L18.8733 18.7494L18.6667 18.9928H18.5679C18.5679 18.9928 18.5229 18.9207 18.505 18.8846V18.8395H18.487L18.4511 18.8125H18.4601ZM19.4841 17.3071L19.5021 17.4424H19.4033L19.3853 17.3162H19.4841V17.3071ZM18.9901 19.4435L19.035 19.3714C19.035 19.3714 19.1428 19.4164 19.2057 19.4255L19.1607 19.4976C19.1607 19.4976 19.0529 19.4615 18.9901 19.4435ZM19.2416 19.4074H19.2057C19.2057 19.4074 19.1158 19.3804 19.0979 19.3533C19.1518 19.3804 19.2057 19.3984 19.2596 19.4074H19.2416ZM19.6189 18.9297H19.565L19.547 18.7945H19.6458L19.6638 18.9207H19.6009H19.6189V18.9297ZM20.2297 19.3804L20.1758 19.3173C20.1758 19.3173 20.2746 19.2632 20.3375 19.2362L20.3914 19.2993C20.3914 19.2993 20.3016 19.3624 20.2297 19.3804ZM20.1579 19.3083C20.1579 19.3083 20.1399 19.3083 20.1219 19.3263C20.1668 19.3083 20.2207 19.2722 20.2657 19.2452C20.2207 19.2632 20.1848 19.2902 20.1758 19.3083H20.1579ZM18.3433 18.8125C18.3433 18.8125 18.3702 18.8666 18.3882 18.8756C18.3882 18.8486 18.3702 18.8395 18.3433 18.8125ZM18.8104 19.3443C18.8104 19.3443 18.8643 19.3804 18.8823 19.3804H18.8643L18.8104 19.3443ZM20.4992 19.2181H20.4812C20.4812 19.2181 20.5262 19.1731 20.5441 19.1731L20.4992 19.2181ZM20.8585 18.6052C20.8585 18.6052 20.8496 18.6502 20.8316 18.6773L20.8585 18.5962V18.6232V18.6052Z" fill="#C7B000"/>
<path d="M13.3757 13.6475L17.0947 13.314L17.5259 16.7033L13.8069 17.0368L13.3757 13.6385V13.6475Z" fill="#AC191C"/>
<path d="M16.3403 15.8556L16.2325 14.9903H16.3672L16.3043 14.5035L16.0349 14.5305L16.0169 14.4044H16.1337L16.1067 14.152H15.954V14.2331H15.9181V14.17H15.7654V14.2511H15.7115V14.188H15.5588L15.5857 14.4494H15.7025L15.7204 14.5666L15.4869 14.5846L15.424 14.1159H15.5588L15.5318 13.8545L15.3611 13.8725V13.9446H15.3162V13.8725L15.1545 13.8815V13.9536H15.1276V13.8815L14.9479 13.8996L14.9749 14.1429H15.1096L15.1725 14.5936L14.9389 14.6117L14.921 14.4855H15.0377L15.0108 14.2241H14.8581V14.3052H14.8042V14.2421L14.6335 14.2601V14.3322H14.5886V14.2601L14.4269 14.2691L14.4538 14.5125H14.5706L14.5886 14.6297L14.3191 14.6567L14.382 15.1345H14.5167L14.6245 15.9818L14.355 16.0089L14.4179 16.5046L16.5379 16.3153L16.475 15.8196L16.1876 15.8466H16.2415L16.2954 15.8376L16.3403 15.8556Z" fill="#C7B000"/>
<path d="M15.8461 16.3787L15.8191 16.1353C15.8191 16.1353 15.7652 15.973 15.5676 15.9911C15.3879 16.0091 15.352 16.1353 15.352 16.1804L15.3789 16.4237L15.8461 16.3787ZM15.2262 15.6305L15.1903 15.3691C15.1903 15.297 15.1274 15.2339 15.0196 15.2429C14.9118 15.2519 14.8759 15.324 14.8849 15.3961L14.9208 15.6575L15.2172 15.6305H15.2262ZM15.8011 15.5854L15.7652 15.324C15.7652 15.2519 15.8011 15.1798 15.9 15.1708C15.9988 15.1618 16.0616 15.2249 16.0706 15.297L16.1066 15.5584L15.8101 15.5854H15.8011Z" fill="#2C519D"/>
<path d="M20.2928 13.7555H20.2389C20.2389 13.7555 20.3107 13.6744 20.3287 13.6564C20.3736 13.5933 20.3557 13.4851 20.3557 13.4851H20.3197V13.5121C20.3197 13.5121 20.2389 13.5572 20.194 13.5933C20.194 13.5933 20.158 13.6113 20.149 13.6293C20.1311 13.6474 20.1041 13.6744 20.1041 13.6924V13.6474L20.0412 13.5662H20.0053L20.0143 13.6474C20.0143 13.6474 20.0143 13.6924 20.0053 13.7014V13.7285C20.0053 13.7285 20.0053 13.7465 19.9963 13.7555C19.9963 13.7826 19.9694 13.8276 19.9604 13.8727C19.9335 13.9538 19.9604 14.053 19.9873 14.08C19.9873 14.08 19.9873 14.1521 19.9873 14.1792C19.9873 14.2243 19.9873 14.2603 19.9873 14.2783C19.9873 14.3234 20.0233 14.4586 20.1041 14.5668C20.185 14.711 20.2209 14.8192 20.176 14.9093C20.167 14.9544 20.1221 14.9814 20.0862 14.9905C19.8885 15.0536 19.7628 14.9364 19.6819 14.8643C19.5921 14.7921 19.5382 14.684 19.5112 14.5938V14.5668C19.5112 14.5668 19.5202 14.5668 19.5292 14.5758C19.5651 14.5848 19.5921 14.6389 19.5921 14.6389V14.666L19.6101 14.6209L19.5921 14.4676C19.5921 14.4676 19.5921 14.3955 19.5651 14.3865C19.5651 14.3865 19.6011 14.3955 19.619 14.4226C19.655 14.4496 19.6909 14.4857 19.6909 14.4857C19.6909 14.4857 19.7358 14.4226 19.7268 14.3865C19.7268 14.3595 19.7268 14.3414 19.6999 14.3234C19.6999 14.3234 19.7358 14.3234 19.7538 14.3324C19.7718 14.3324 19.8077 14.3685 19.8257 14.3775V14.4226V14.2964C19.8257 14.2964 19.7718 14.2423 19.7538 14.2333C19.7538 14.2333 19.7089 14.1702 19.7089 14.1521V14.1071L19.7628 14.1431H19.7807C19.7807 14.1431 19.7807 14.0981 19.7538 14.071L19.7268 13.8547C19.7268 13.8547 19.7718 13.8367 19.8077 13.8186C19.8436 13.8006 19.8885 13.8186 19.9065 13.8186H19.9694H20.0053C20.0053 13.8186 20.0053 13.7736 19.9604 13.7555C19.9245 13.7465 19.9065 13.7555 19.8975 13.7555V13.7105H19.8257L19.7987 13.7555H19.7448H19.7628H19.7268L19.7897 13.7375V13.6834L19.8346 13.6474V13.6023H19.7628V13.6293L19.7448 13.6023H19.6819V13.6654H19.6999L19.646 13.6834V13.6383H19.5921V13.5933V13.6203L19.6729 13.6023V13.5572H19.655H19.7089L19.6819 13.4851H19.619V13.5212L19.5831 13.4941H19.5292V13.5662H19.5651C19.5651 13.5662 19.5202 13.6113 19.5202 13.5843V13.5392H19.4663V13.4941V13.5212L19.5472 13.4851V13.44L19.5023 13.3679H19.4394V13.413V13.386L19.3585 13.422V13.4671H19.4124C19.4124 13.4671 19.3765 13.4851 19.3675 13.4851V13.4581H19.3496L19.3945 13.422V13.3769H19.3226C19.3226 13.3769 19.3316 13.3319 19.3226 13.3229C19.2867 13.3138 19.2418 13.3229 19.2418 13.3229L19.2777 13.3499V13.395V13.4941C19.2777 13.4941 19.2957 13.5482 19.2777 13.5662C19.2597 13.5662 19.1968 13.5662 19.1789 13.6023C19.1789 13.6023 19.1699 13.6293 19.1519 13.6474C19.1519 13.6474 19.1519 13.6654 19.134 13.6654H18.9992C18.9992 13.6654 18.9004 13.6834 18.9004 13.7105V13.7826C18.9004 13.7826 18.9004 13.8276 18.9363 13.8186V13.8637L19.0172 13.8276V13.8727L19.0711 13.8367C19.0711 13.8367 19.125 13.8457 19.125 13.8727H18.9723C18.9723 13.8727 18.8465 13.8547 18.7926 13.8186L18.7567 13.7916C18.7567 13.7916 18.7028 13.7555 18.6489 13.7465C18.5501 13.7465 18.4692 13.7916 18.4692 13.7916H18.4512H18.4872C18.4872 13.7916 18.577 13.8276 18.6129 13.8727C18.6848 13.9358 18.7387 13.9448 18.7746 13.9448L19.125 13.9178C19.125 13.9178 19.098 13.9448 19.0621 13.9538L19.0262 13.9268L18.9992 13.9719L18.9633 13.9358L18.9184 13.9989C18.9184 13.9989 18.8645 13.9989 18.8735 14.0169C18.8824 14.035 18.8914 14.053 18.9273 14.071C18.9453 14.071 18.9812 14.0981 18.9812 14.1071C18.9812 14.1071 18.9723 14.1521 18.9094 14.1792L18.6309 14.2062C18.6309 14.2062 18.595 14.1972 18.559 14.2062C18.5411 14.2062 18.4692 14.1702 18.4512 14.1431C18.4333 14.1431 18.4153 14.1341 18.3973 14.1161C18.3794 14.1161 18.3435 14.1071 18.3075 14.0981C18.2896 14.0981 18.2536 14.0891 18.2357 14.08C18.1997 14.071 18.1638 14.0169 18.1458 14.0079C18.1458 13.9809 18.1458 13.9358 18.1458 13.9268C18.1458 13.9178 18.1907 13.8817 18.1907 13.8547H18.1728V13.7916C18.1458 13.7105 18.065 13.7014 18.065 13.7014H18.029C18.029 13.7014 18.074 13.7736 18.056 13.7826C18.056 13.8096 18.0111 13.8276 18.0111 13.8276H17.9931C17.9931 13.8276 17.9841 13.8727 17.9931 13.8998V13.9719C17.9931 13.9719 17.9841 13.9629 17.9662 13.9358C17.9662 13.9178 17.9302 13.8998 17.9123 13.8998H17.8584C17.8584 13.8998 17.8045 13.8817 17.7596 13.8817C17.6787 13.8817 17.6697 13.9448 17.6518 13.9448H17.6338H17.7326L17.7685 13.9809C17.7685 13.9809 17.8045 14.0079 17.8224 14.0169C17.8404 14.0169 17.8763 14.044 17.8763 14.053H17.7955C17.7955 14.053 17.7775 14.053 17.7775 14.08C17.7775 14.08 17.7146 14.0981 17.6877 14.1431C17.6607 14.1882 17.6607 14.2243 17.6607 14.2243V14.2513H17.6787C17.6787 14.2513 17.7236 14.2062 17.7416 14.2062L17.9751 14.1882L18.0021 14.2423C18.0021 14.2423 18.0021 14.2693 18.0201 14.2783C18.0201 14.2783 18.038 14.2874 18.056 14.2874H18.038L17.9392 14.3414H18.0201C18.0201 14.3414 18.074 14.3414 18.074 14.3595C18.074 14.3595 18.1099 14.3595 18.1099 14.3685H18.1638H18.1458C18.1458 14.3685 18.1009 14.3865 18.1009 14.4045H18.047L18.1009 14.4316L18.2357 14.4586C18.2357 14.4586 18.3614 14.4857 18.3704 14.4857C18.3794 14.4857 18.4063 14.5127 18.4243 14.5217C18.4243 14.5217 18.4423 14.5307 18.4602 14.5488C18.4602 14.5488 18.5141 14.5848 18.5321 14.5848C18.4962 14.6029 18.4602 14.6479 18.4423 14.666C18.4423 14.666 18.3973 14.684 18.3794 14.711C18.3614 14.711 18.3345 14.7291 18.3345 14.7471C18.3165 14.7471 18.2357 14.7831 18.1907 14.7741C18.1728 14.7741 18.1728 14.7651 18.1548 14.7471C18.1548 14.7471 18.1368 14.72 18.1009 14.711H18.047C18.047 14.711 17.9931 14.711 17.9482 14.72C17.8853 14.72 17.8584 14.8012 17.8584 14.8012V14.8282C17.8584 14.8282 17.9033 14.8102 17.9392 14.8282C17.9572 14.8282 17.9931 14.8552 17.9931 14.8552C17.9931 14.8552 18.029 14.9093 18.065 14.9003C18.1009 14.8913 18.1189 14.9093 18.1189 14.9093H18.038C18.038 14.9093 18.0201 14.9093 18.0201 14.9364C18.0201 14.9364 17.9662 14.9364 17.9212 14.9724C17.8763 15.0085 17.8853 15.0626 17.8853 15.0626V15.0896H17.9033C17.9033 15.0896 17.9482 15.0445 17.9662 15.0445C18.0021 15.0445 18.038 15.0445 18.038 15.0445H18.1009C18.1009 15.0445 18.1368 15.0445 18.1458 15.0175V15.0626V15.1076C18.1458 15.1076 18.1458 15.1798 18.1907 15.1888C18.2267 15.2248 18.2985 15.2248 18.2985 15.2248H18.3165C18.3165 15.2248 18.2896 15.1707 18.2896 15.1527C18.2896 15.1347 18.2896 15.1076 18.2985 15.1076C18.2985 15.1076 18.3165 15.0896 18.3255 15.0626V14.9814C18.3255 14.9814 18.3614 14.9634 18.3973 14.9634H18.4512C18.4512 14.9634 18.4962 14.9364 18.5141 14.9274V15.0265H18.5411C18.5411 15.0265 18.595 14.9544 18.6309 14.9364C18.6489 14.9183 18.6758 14.8913 18.6848 14.8643V14.9454H18.7118C18.7118 14.9454 18.7387 14.9003 18.7567 14.8733C18.7746 14.8552 18.8016 14.8282 18.8465 14.7921C18.8645 14.7921 18.8914 14.7741 18.9094 14.7741C18.9094 14.7921 18.9543 14.8372 18.9723 14.8552C19.0082 14.8913 19.089 14.9544 19.1429 14.9814C19.1968 15.0085 19.3226 15.0445 19.3855 15.0716C19.3316 15.0716 19.2867 15.0986 19.2867 15.0986L19.089 15.1167C18.9902 15.1167 18.9633 15.1978 18.9543 15.2158L18.9723 15.351C18.9723 15.4231 19.0351 15.4412 19.0351 15.4412H19.0531V15.3691L19.0711 15.5223V15.4952L19.107 15.4322V15.5043C19.107 15.5043 19.116 15.5223 19.0351 15.5403C18.9543 15.5403 18.9363 15.5403 18.8914 15.4952C18.8735 15.4862 18.8735 15.4592 18.8735 15.4592C18.8735 15.4412 18.8735 15.4141 18.8375 15.4231H18.7836C18.7836 15.4231 18.7297 15.3871 18.6938 15.3961C18.6309 15.3961 18.595 15.4502 18.595 15.4502L18.568 15.4772H18.6668L18.7028 15.5043C18.7028 15.5043 18.7028 15.5493 18.7387 15.5403C18.7387 15.5403 18.7567 15.5493 18.7567 15.5764H18.6219C18.6219 15.5764 18.5411 15.6124 18.5231 15.6395C18.4782 15.6845 18.4962 15.7206 18.4962 15.7206V15.7476H18.5141C18.5141 15.7476 18.559 15.6845 18.586 15.6845C18.6129 15.6845 18.6668 15.6845 18.6668 15.6845H18.6848C18.6848 15.6845 18.7387 15.6845 18.7477 15.6845H18.8016V15.7206C18.8016 15.7206 18.7836 15.7386 18.7926 15.7657V15.7927C18.7926 15.7927 18.7657 15.8378 18.8016 15.8738C18.8375 15.9099 18.8914 15.9189 18.8914 15.9189H18.9453H18.9273V15.8468C18.9273 15.8468 18.9453 15.8017 18.9633 15.8017C18.9812 15.8017 18.9992 15.8017 18.9992 15.7837V15.7386C18.9992 15.7386 19.0082 15.7116 19.0441 15.7026L19.2238 15.6845C19.2238 15.6845 19.3046 15.6845 19.3226 15.6845H19.4035C19.4035 15.6845 19.4484 15.6305 19.4573 15.6034C19.4573 15.5854 19.4573 15.5583 19.4304 15.4952V15.4502C19.4304 15.4502 19.3855 15.3871 19.3855 15.3691V15.2879C19.3855 15.2879 19.4035 15.2699 19.4394 15.2699H19.5562L19.5292 15.315V15.4141C19.5292 15.4141 19.5651 15.4772 19.6011 15.4952C19.619 15.5313 19.6729 15.5583 19.6909 15.5583H19.7089C19.7089 15.5583 19.7628 15.6214 19.7987 15.6034V15.5223C19.7987 15.5223 19.8077 15.5493 19.8257 15.5583C19.8436 15.5674 19.8796 15.6124 19.8796 15.6124L19.9155 15.6395L19.8975 15.5313C19.8975 15.5313 19.9155 15.5403 19.9335 15.5403C19.9514 15.5403 19.9694 15.5493 19.9873 15.5674C20.0053 15.5944 20.0323 15.6305 19.9963 15.6485C19.9963 15.6665 19.9694 15.6755 19.9155 15.6936H19.8616C19.8616 15.6936 19.8077 15.6936 19.7807 15.7026L19.7538 15.7296H19.655C19.655 15.7296 19.6011 15.8288 19.5831 15.8288V15.8738V15.8468C19.5831 15.8468 19.664 15.8017 19.6819 15.7927C19.7358 15.7927 19.7538 15.7927 19.7538 15.7927H19.8526H19.8167C19.8167 15.7927 19.7448 15.8648 19.7628 15.8829C19.7628 15.8829 19.7179 15.9279 19.7358 15.964C19.7538 16 19.7897 16.0271 19.7897 16.0271L19.8257 16.0631V15.982L19.8975 15.964H19.9155C19.9155 15.964 19.9245 15.9189 19.9245 15.9099V15.8829V15.9279C19.9245 15.9279 19.9245 15.982 19.9784 15.982C19.9784 16 19.9784 16.0271 20.0233 16.0451C20.0772 16.0812 20.1311 16.0812 20.1311 16.0812H20.167C20.167 16.0812 20.1131 16.0181 20.1221 16C20.1221 15.973 20.149 15.955 20.149 15.955H20.167C20.167 15.955 20.1221 15.8738 20.1041 15.8738V15.8017C20.1041 15.8017 20.1401 15.6845 20.149 15.6485C20.149 15.6305 20.176 15.6034 20.194 15.5764C20.2029 15.5493 20.2389 15.5313 20.2389 15.5043C20.2389 15.4592 20.2389 15.4502 20.2119 15.4412C20.2119 15.4412 20.194 15.4322 20.176 15.4051C20.176 15.4051 20.1401 15.3781 20.1221 15.3781C20.1041 15.3781 20.0682 15.3781 20.0682 15.3691C20.0682 15.3691 19.9963 15.324 19.9873 15.2429C19.9694 15.1347 20.0502 15.0896 20.0682 15.0716H20.1311C20.1311 15.0716 20.2568 15.0265 20.3197 14.9814C20.4455 14.8913 20.4096 14.7381 20.4006 14.684C20.3916 14.6299 20.3107 14.5127 20.2479 14.4045C20.2479 14.3865 20.2299 14.3685 20.2029 14.3414C20.2029 14.2964 20.1221 14.1161 20.185 14.053C20.2029 14.053 20.2209 14.035 20.2299 14.0169C20.2658 13.9989 20.2928 13.9719 20.3197 13.9268C20.3287 13.8998 20.3467 13.8817 20.3467 13.8547C20.3467 13.8276 20.3467 13.8096 20.3826 13.7645C20.4275 13.6924 20.4724 13.6744 20.4724 13.6744H20.5084H20.4096L20.3107 13.7105L20.2119 13.7645L20.2928 13.7555ZM19.4484 14.6569C19.4484 14.6569 19.4933 14.72 19.5112 14.7381C19.4933 14.702 19.4484 14.675 19.4484 14.6569Z" fill="#EA74A8"/>
<path d="M17.3822 15.5673C18.047 15.5042 18.6399 15.9639 18.7207 16.5769C18.8016 17.1899 18.3255 17.7487 17.6607 17.8028C16.996 17.8569 16.3941 17.4062 16.3222 16.7932C16.2504 16.1803 16.7175 15.6214 17.3822 15.5673Z" fill="#AC191C"/>
<path d="M17.4181 15.8556C16.951 15.9007 16.6186 16.2973 16.6725 16.7571C16.7264 17.2168 17.1576 17.5413 17.6247 17.4962C18.0918 17.4511 18.4242 17.0455 18.3703 16.5948C18.3164 16.1441 17.8852 15.8106 17.4181 15.8556Z" fill="#255CA6"/>
<path d="M17.2294 16.4056C17.2294 16.4056 17.1755 16.4056 17.1486 16.4236C17.1486 16.3965 17.1486 16.3515 17.1486 16.3244C17.1396 16.2433 17.0228 16.1532 17.0228 16.1532C17.0228 16.1532 16.933 16.2433 16.942 16.3425C16.942 16.3875 16.951 16.4236 16.9689 16.4326C16.951 16.4326 16.915 16.4236 16.8881 16.4326C16.8072 16.4326 16.7803 16.4867 16.7803 16.5227C16.7803 16.5408 16.7803 16.5678 16.8072 16.5768L16.8701 16.6399H16.8881C16.8881 16.6399 16.915 16.6039 16.951 16.6039C17.0049 16.6039 17.0408 16.6219 17.0408 16.6489H16.942L16.951 16.7391H17.0138L16.9779 16.8202L17.0587 16.7842L17.1126 16.8382L17.1576 16.7751L17.2474 16.7932L17.1845 16.712H17.2654L17.2564 16.6219H17.1576C17.1576 16.6219 17.1845 16.5768 17.2204 16.5678C17.2564 16.5588 17.2743 16.5678 17.2923 16.5858H17.3103L17.3552 16.5137C17.3552 16.5137 17.3642 16.4687 17.3642 16.4596C17.3642 16.4056 17.3013 16.3785 17.2384 16.3875L17.2294 16.4056ZM18.011 16.3334C18.011 16.3334 17.9571 16.3334 17.9301 16.3515C17.9301 16.3244 17.9301 16.2794 17.9301 16.2523C17.9211 16.1712 17.8043 16.0811 17.8043 16.0811C17.8043 16.0811 17.7145 16.1712 17.7235 16.2703C17.7235 16.3154 17.7325 16.3515 17.7504 16.3605C17.7325 16.3605 17.6965 16.3515 17.6696 16.3605C17.5887 16.3605 17.5618 16.4146 17.5618 16.4506C17.5618 16.4687 17.5618 16.4957 17.5887 16.5047L17.6516 16.5678H17.6696C17.6696 16.5678 17.6965 16.5318 17.7325 16.5318C17.7864 16.5318 17.8223 16.5498 17.8223 16.5768H17.7235L17.7325 16.667H17.7954L17.7594 16.7481L17.8403 16.712L17.8942 16.7661L17.9571 16.703L18.0469 16.7211L17.984 16.6399H18.0648L18.0559 16.5498H17.9571C17.9571 16.5498 17.984 16.5047 18.0199 16.4957C18.0559 16.4867 18.0738 16.4957 18.0918 16.5137H18.1098L18.1547 16.4416C18.1547 16.4416 18.1637 16.3965 18.1637 16.3875C18.1637 16.3334 18.1008 16.3064 18.0379 16.3154H18.0199L18.011 16.3334ZM17.7055 16.9194C17.7055 16.9194 17.6516 16.9194 17.6247 16.9374C17.6247 16.9104 17.6247 16.8653 17.6247 16.8382C17.6157 16.7571 17.4989 16.667 17.4989 16.667C17.4989 16.667 17.4091 16.7571 17.4181 16.8563C17.4181 16.9013 17.4271 16.9374 17.445 16.9464C17.4271 16.9464 17.3911 16.9374 17.3642 16.9464C17.2833 16.9464 17.2564 17.0005 17.2564 17.0365C17.2564 17.0546 17.2564 17.0816 17.2833 17.0906L17.3462 17.1537H17.3642C17.3642 17.1537 17.3911 17.1177 17.4271 17.1177C17.481 17.1177 17.5169 17.1357 17.5169 17.1627H17.4181L17.4271 17.2529H17.4899L17.454 17.334L17.5348 17.298L17.5887 17.352L17.6516 17.2889L17.7415 17.307L17.6786 17.2258H17.7594L17.7504 17.1357H17.6516C17.6516 17.1357 17.6786 17.0906 17.7145 17.0816C17.7504 17.0726 17.7684 17.0816 17.7864 17.0996H17.8043L17.8493 17.0275C17.8493 17.0275 17.8582 16.9825 17.8582 16.9734C17.8582 16.9194 17.7954 16.8923 17.7325 16.9013H17.7145L17.7055 16.9194Z" fill="#C7B000"/>
</g>
<defs>
<linearGradient id="paint0_linear_337_4159" x1="0" y1="36.1282" x2="51.4369" y2="36.1282" gradientUnits="userSpaceOnUse">
<stop stop-color="#D7141A"/>
<stop offset="0.98" stop-color="#8E0000"/>
</linearGradient>
<linearGradient id="paint1_linear_337_4159" x1="4.89575" y1="5.37247" x2="50.2691" y2="5.37247" gradientUnits="userSpaceOnUse">
<stop stop-color="#E31713"/>
<stop offset="1" stop-color="#962832"/>
</linearGradient>
<linearGradient id="paint2_linear_337_4159" x1="7.39304" y1="27.2403" x2="53.5749" y2="27.2403" gradientUnits="userSpaceOnUse">
<stop stop-color="#E31713"/>
<stop offset="1" stop-color="#962832"/>
</linearGradient>
<linearGradient id="paint3_linear_337_4159" x1="5.83906" y1="16.4238" x2="52.1557" y2="16.4238" gradientUnits="userSpaceOnUse">
<stop stop-color="#FDC608"/>
<stop offset="1" stop-color="#F2911D"/>
</linearGradient>
<linearGradient id="paint4_linear_337_4159" x1="5.44371" y1="16.1894" x2="52.6317" y2="16.1894" gradientUnits="userSpaceOnUse">
<stop stop-color="#FDC608"/>
<stop offset="1" stop-color="#F2911D"/>
</linearGradient>
<clipPath id="clip0_337_4159">
<rect width="53" height="64" fill="white"/>
</clipPath>
</defs>
</svg>
