<svg width="64" height="64" viewBox="0 0 64 64" fill="none" xmlns="http://www.w3.org/2000/svg">
<g clip-path="url(#clip0_337_4138)">
<path d="M28.8591 26.4385V37.2283H41.9908C39.7286 31.7297 34.8256 27.6103 28.8591 26.4385Z" fill="#0072BB"/>
<path d="M28.8591 2.09131V10.6096C31.3467 9.86145 33.9874 9.45582 36.7273 9.45582C51.7877 9.45582 64.0001 21.6699 64.0001 36.7324C64.0001 36.9037 63.9911 37.066 63.9911 37.2372H64.0001V2.09131H28.8681H28.8591Z" fill="#0072BB"/>
<path d="M7.40853 44.0608C7.40853 41.5368 7.93128 39.1391 8.86861 36.9577C3.55105 33.343 0.0450641 27.2585 0 20.3447V61.7284H22.1805C13.7806 60.223 7.39952 52.8946 7.39952 44.0608H7.40853Z" fill="#E5144B"/>
<path d="M8.2376 20.345C7.30027 22.1928 6.7595 24.2661 6.63332 26.5737C6.5522 27.9619 6.73246 29.332 7.06593 30.6751C7.52559 32.514 8.31872 34.1996 9.48137 35.6869C11.0947 32.6311 13.5552 30.1072 16.5564 28.4126C16.4122 27.9619 16.3311 27.4841 16.3131 26.9883C16.2139 23.2114 19.8731 20.5973 23.4242 21.8773C24.4967 22.265 25.434 22.8599 26.3353 23.545C26.804 23.9145 27.3358 23.7793 27.516 23.2295C27.8405 22.265 28.1559 21.3004 28.4714 20.3359H8.2376V20.345Z" fill="#E5144B"/>
<path d="M29.0754 26.4833C31.2655 26.943 33.3114 27.7994 35.123 28.9802V20.3447H30.5625C29.5621 22.3008 29.1025 24.365 29.0664 26.4833H29.0754Z" fill="#E5144B"/>
<path d="M39.7374 23.3644C38.6379 24.6534 38.3404 26.1767 38.5207 27.8353C38.5477 28.0877 38.6018 28.3221 38.6649 28.5655C39.4761 26.7807 40.0349 24.8517 40.2872 22.8325C40.0979 22.9948 39.9087 23.166 39.7374 23.3734V23.3644Z" fill="#FEC30D"/>
<path d="M9.5626 35.7949C8.34587 34.2806 7.53471 32.5589 7.06605 30.6749C6.73257 29.3228 6.55232 27.9527 6.63343 26.5735C6.91283 21.5346 9.05788 17.5504 13.348 14.8101C14.4926 14.08 15.7454 13.5392 17.0883 13.2687C17.9265 13.1065 18.7737 12.9623 19.6299 12.9082C23.1719 12.6558 26.4346 13.5482 29.4539 15.378C29.8324 15.6034 29.9586 15.8828 29.8234 16.2794C29.0663 18.5961 28.3002 20.9217 27.5251 23.2383C27.3449 23.7882 26.8131 23.9144 26.3445 23.5538C25.4522 22.8597 24.5149 22.2738 23.4333 21.8862C19.8733 20.6062 16.2141 23.2203 16.3222 26.9972C16.3943 29.8186 18.7106 32.0992 21.5226 32.1532C23.2891 32.1893 24.8213 31.5854 26.1912 30.5127C26.8852 29.9718 27.3178 30.089 27.5882 30.9093C28.3183 33.0727 29.0303 35.2451 29.7513 37.4085C29.8504 37.7059 29.8685 37.8952 29.8234 38.0575C30.7878 37.5346 31.7071 36.9307 32.5723 36.2637C32.3019 35.9752 32.0315 35.6868 31.7792 35.3623C30.3552 33.5414 29.544 31.4592 29.2286 29.1786C28.7869 25.9876 29.1565 22.9138 30.7067 20.0563C32.2388 17.2349 34.5371 15.2699 37.5113 14.089C38.0972 13.8546 38.701 13.6744 39.3049 13.5211C36.5289 5.6338 29.0393 0 20.2248 0C9.05788 0 0 9.05915 0 20.2276C0 29.3318 6.01155 37.0299 14.2853 39.5718C12.5188 38.7425 10.9325 37.4986 9.5626 35.7949Z" fill="#FEC30D"/>
<path d="M36.7272 9.44678C22.0093 9.44678 10.0222 21.111 9.48145 35.6958C12.4917 29.9899 18.4762 26.0868 25.38 26.0868C35.3032 26.0868 43.3426 34.1273 43.3426 44.0518C43.3426 53.9764 35.8529 61.431 26.4165 61.9719C29.598 63.2699 33.077 64 36.7272 64C51.7876 64 64 51.7859 64 36.7234C64 21.6609 51.7876 9.44678 36.7272 9.44678Z" fill="#70B13D"/>
<path d="M25.371 62.0258C35.2914 62.0258 43.3335 53.9826 43.3335 44.0608C43.3335 34.1389 35.2914 26.0957 25.371 26.0957C15.4506 26.0957 7.40845 34.1389 7.40845 44.0608C7.40845 53.9826 15.4506 62.0258 25.371 62.0258Z" fill="#99146D"/>
<path d="M57.4478 26.8801C57.4478 30.2513 56.5285 33.3071 54.3113 35.8941C52.689 37.7871 50.6521 39.0581 48.2818 39.8153C46.362 40.4282 44.3972 40.6896 42.3964 40.5634C38.1423 40.293 34.4741 38.7967 31.7793 35.3533C30.3553 33.5324 29.5441 31.4502 29.2287 29.1606C28.787 25.9696 29.1566 22.8958 30.7068 20.0384C32.239 17.217 34.5372 15.2519 37.5114 14.071C38.9986 13.4761 40.5398 13.1426 42.144 13.0434C46.6414 12.764 50.5981 14.0079 53.7886 17.2801C56.3753 19.9302 57.4478 23.2113 57.4568 26.8801H57.4478ZM43.9015 32.1353C45.2535 32.1082 46.7496 31.2339 47.5788 29.3679C48.1826 28.0158 48.2187 26.6006 47.777 25.2034C47.1822 23.3465 45.9474 22.1477 43.9917 21.8502C42.3333 21.5978 40.8552 22.0665 39.7376 23.3736C38.638 24.6626 38.3406 26.186 38.5209 27.8446C38.7913 30.3685 40.711 32.1353 43.9015 32.1443V32.1353Z" fill="white"/>
<path d="M21.0899 40.8429C16.4212 41.0502 12.5277 39.4727 9.56248 35.795C8.34575 34.2806 7.5346 32.5589 7.06593 30.675C6.73246 29.3229 6.5522 27.9527 6.63332 26.5736C6.91272 21.5347 9.05777 17.5505 13.3479 14.8102C14.4925 14.0801 15.7453 13.5392 17.0882 13.2688C17.9264 13.1065 18.7736 12.9623 19.6298 12.9082C23.1718 12.6558 26.4345 13.5482 29.4538 15.3781C29.8323 15.6034 29.9585 15.8829 29.8233 16.2885C29.0662 18.6051 28.3001 20.9308 27.525 23.2474C27.3448 23.7972 26.813 23.9234 26.3443 23.5629C25.4521 22.8688 24.5147 22.2829 23.4332 21.8953C19.8731 20.6153 16.2139 23.2294 16.3221 27.0063C16.3942 29.8277 18.7105 32.1082 21.5225 32.1623C23.289 32.1984 24.8212 31.5944 26.1911 30.5217C26.8851 29.9809 27.3177 30.0981 27.5881 30.9184C28.3182 33.0817 29.0302 35.2541 29.7512 37.4175C29.9585 38.0485 29.8684 38.2378 29.3005 38.5984C26.9302 40.0947 24.3255 40.7437 21.5585 40.8429C21.3963 40.8429 21.2431 40.8609 21.0809 40.8699L21.0899 40.8429Z" fill="white"/>
<path d="M34.7623 47.5311C34.6902 48.3604 34.6001 49.1897 34.537 50.019C34.4649 50.9475 34.4739 50.9475 33.5726 50.9475C33.2662 50.9475 32.9597 50.9385 32.6533 50.9475C32.3469 50.9655 32.2477 50.8393 32.2928 50.5418C32.446 49.5863 32.5812 48.6218 32.7344 47.6663C32.8786 46.7109 33.0409 45.7554 33.1761 44.7909C33.2211 44.5024 33.3113 44.3762 33.6267 44.3852C34.1675 44.4123 34.7172 44.4033 35.258 44.3852C35.5194 44.3852 35.6275 44.4754 35.6906 44.7278C35.8889 45.5661 36.1052 46.4044 36.3215 47.2337C36.3576 47.3869 36.4117 47.5311 36.4747 47.7565C36.6911 46.9452 36.8893 46.2151 37.0786 45.4849C37.2709 44.7518 37.7395 44.3852 38.4846 44.3852C38.773 44.3852 39.0704 44.4033 39.3588 44.3852C39.6292 44.3672 39.7284 44.4754 39.7734 44.7368C40.0078 46.2962 40.2601 47.8556 40.5035 49.4151C40.5666 49.7937 40.6116 50.1723 40.6837 50.5599C40.7288 50.8213 40.6387 50.9385 40.3773 50.9294C39.8726 50.9294 39.3679 50.9204 38.8631 50.9294C38.6018 50.9294 38.5297 50.8123 38.5116 50.5689C38.4486 49.7035 38.3674 48.8472 38.2863 47.9909C38.2773 47.8466 38.2503 47.7114 38.1692 47.5762C37.8717 48.5497 37.5473 49.5142 37.2769 50.4968C37.1777 50.8483 37.0155 50.9565 36.664 50.9475C35.6456 50.9114 35.8529 51.1097 35.5554 50.1092C35.2941 49.2438 35.0597 48.3785 34.8074 47.5131C34.7894 47.5131 34.7713 47.5131 34.7623 47.5221V47.5311Z" fill="white"/>
<path d="M24.8755 47.6666C24.8755 45.7106 26.3536 44.2773 28.3454 44.2773C30.3373 44.2773 31.8334 45.7466 31.8244 47.7117C31.8154 49.6858 30.3913 51.0379 28.3274 51.0379C26.2725 51.0379 24.8755 49.6678 24.8845 47.6757L24.8755 47.6666ZM27.1828 47.7207C27.1828 48.4599 27.6424 48.9647 28.3274 48.9737C29.0034 48.9827 29.5171 48.4328 29.5261 47.7027C29.5261 46.9996 29.0214 46.4588 28.3544 46.4497C27.6604 46.4407 27.1828 46.9545 27.1828 47.7207Z" fill="white"/>
<path d="M15.9797 51.0289C13.9248 51.0289 12.5188 49.6588 12.5188 47.6757C12.5188 45.7286 13.9969 44.2864 15.9797 44.2773C17.9806 44.2773 19.4587 45.7286 19.4587 47.7027C19.4587 49.6858 18.0437 51.0379 15.9797 51.0289ZM17.1604 47.7117C17.1604 46.9635 16.6557 46.4407 15.9617 46.4588C15.2947 46.4768 14.8171 46.9996 14.8261 47.7297C14.8261 48.4509 15.3128 48.9737 15.9887 48.9827C16.6827 48.9827 17.1694 48.4509 17.1694 47.7117H17.1604Z" fill="white"/>
<path d="M9.92319 44.187C10.6532 44.2321 11.2931 44.4574 11.924 44.7639C12.1674 44.8811 12.2395 45.0343 12.1403 45.3048C11.9691 45.7374 11.8429 46.1881 11.7077 46.6298C11.6176 46.9093 11.4824 46.9453 11.2391 46.7921C11.0047 46.6479 10.7524 46.5036 10.491 46.4315C9.96825 46.2783 9.43649 46.5036 9.13006 46.9453C8.83264 47.369 8.82362 47.9369 9.10302 48.3695C9.40044 48.8293 9.95924 49.0817 10.482 48.9464C10.7614 48.8743 11.0227 48.7391 11.2751 48.5949C11.5004 48.4597 11.6176 48.5048 11.6897 48.7391C11.8519 49.2349 12.0322 49.7217 12.1584 50.2174C12.1854 50.3256 12.0953 50.5419 11.9961 50.596C10.7434 51.236 9.45452 51.3893 8.19273 50.6862C6.99402 50.0281 6.48029 48.9284 6.53437 47.5943C6.59746 46.1611 7.29144 45.0884 8.62534 44.5205C9.03092 44.3493 9.49057 44.3042 9.92319 44.196V44.187Z" fill="white"/>
<path d="M20.0805 50.9384C20.0805 50.5598 20.0805 50.2443 20.0805 49.9198C20.0805 48.2341 20.0805 46.5395 20.0805 44.8539C20.0805 44.5113 20.1707 44.3851 20.5222 44.4032C20.9999 44.4392 21.4775 44.4302 21.9552 44.4032C22.2616 44.3851 22.3428 44.5023 22.3338 44.7908C22.3247 45.9987 22.3337 47.2065 22.3157 48.4234C22.3157 48.784 22.4239 48.8922 22.7664 48.8651C23.1359 48.8381 23.5144 48.8651 23.884 48.8561C24.1273 48.8561 24.2535 48.9192 24.2445 49.1896C24.2264 49.6584 24.2625 50.1181 24.2264 50.5868C24.2264 50.704 24.0552 50.9113 23.9561 50.9113C22.6852 50.9294 21.4144 50.9294 20.0715 50.9294L20.0805 50.9384Z" fill="white"/>
<path d="M47.6147 47.6487C47.6147 46.7022 47.6238 45.7557 47.6147 44.8183C47.6147 44.4757 47.7319 44.3766 48.0564 44.3946C48.5611 44.4126 49.0658 44.4036 49.5705 44.3946C49.8139 44.3946 49.931 44.4667 49.931 44.7281C49.931 46.6842 49.931 48.6402 49.931 50.5963C49.931 50.8667 49.8319 50.9749 49.5525 50.9659C49.0478 50.9478 48.5431 50.9388 48.0383 50.9659C47.6868 50.9839 47.6147 50.8307 47.6147 50.5152C47.6238 49.5597 47.6147 48.6042 47.6147 47.6397V47.6487Z" fill="white"/>
<path d="M45.8032 47.5494C46.5513 47.1077 46.6685 46.4677 46.5423 45.7556C46.4161 45.0615 45.9565 44.6289 45.2895 44.5477C44.4964 44.4396 43.6852 44.4396 42.8741 44.4035C42.4144 44.3855 41.9548 44.4035 41.4951 44.4035V50.9568C42.4775 50.9568 43.4329 50.9658 44.3792 50.9568C44.7758 50.9568 45.1723 50.9027 45.5599 50.8125C46.335 50.6413 46.8487 50.0013 46.8758 49.2261C46.9118 48.4418 46.5333 47.919 45.7942 47.5584L45.8032 47.5494ZM44.6676 49.0818C44.4243 49.4514 44.0277 49.3703 43.6312 49.3523V48.3066C44.0277 48.2615 44.4063 48.2255 44.6496 48.568C44.7307 48.6852 44.7397 48.9556 44.6586 49.0818H44.6676ZM44.6676 46.7292C44.4243 47.0987 44.0277 47.0176 43.6312 46.9996V45.9539C44.0277 45.9089 44.4063 45.8728 44.6496 46.2154C44.7307 46.3325 44.7397 46.603 44.6586 46.7292H44.6676Z" fill="white"/>
<path d="M57.3666 50.4157C56.7177 48.5047 56.0597 46.6027 55.4108 44.6917C55.3387 44.4934 55.2396 44.3852 55.0142 44.4033C54.6988 44.4213 54.3743 44.4033 54.0589 44.4033C53.7524 44.4033 53.446 44.4213 53.1396 44.4033C52.8782 44.3852 52.734 44.4664 52.6529 44.7368C52.013 46.6748 51.3641 48.6129 50.7151 50.5509C50.616 50.8574 50.7241 50.9655 51.0306 50.9565C51.5263 50.9475 52.013 50.9295 52.5087 50.9565C52.8782 50.9836 53.0945 50.8754 53.1215 50.4788C53.1396 50.2174 53.2748 50.1182 53.5361 50.1362C53.8516 50.1543 54.176 50.1633 54.4915 50.1362C54.8069 50.1092 54.9962 50.1903 55.0142 50.5419C55.0413 50.8574 55.2215 50.9836 55.555 50.9655C56.0327 50.9385 56.5104 50.9655 56.988 50.9655C57.4838 50.9655 57.5288 50.9114 57.3666 50.4247V50.4157ZM53.6173 48.5407C53.7434 47.9278 53.8696 47.3148 53.9958 46.7109C54.0318 46.7109 54.0679 46.7109 54.1039 46.7109C54.2301 47.3148 54.3563 47.9098 54.4915 48.5498H53.6173V48.5407Z" fill="white"/>
</g>
<defs>
<clipPath id="clip0_337_4138">
<rect width="64" height="64" fill="white"/>
</clipPath>
</defs>
</svg>
