<svg width="76" height="64" viewBox="0 0 76 64" fill="none" xmlns="http://www.w3.org/2000/svg">
<g clip-path="url(#clip0_337_4261)">
<path d="M7.46166 51.9844C7.55983 52.2098 7.64909 52.4442 7.73834 52.6785C7.8276 52.4442 7.92578 52.2008 8.02396 51.9754C8.12214 51.7501 8.22924 51.5247 8.33635 51.3084L12.5491 43.3399C12.6027 43.2408 12.6563 43.1597 12.7098 43.1056C12.7634 43.0425 12.8258 43.0064 12.8972 42.9794C12.9686 42.9523 13.04 42.9343 13.1293 42.9343C13.2186 42.9343 13.3167 42.9253 13.4328 42.9253H15.4321V57.3028H13.1025V48.0183C13.1025 47.847 13.1025 47.6577 13.1204 47.4504C13.1293 47.243 13.1472 47.0357 13.165 46.8284L8.86295 54.9861C8.76477 55.1754 8.63981 55.3197 8.47915 55.4188C8.3185 55.518 8.13999 55.5721 7.92578 55.5721H7.55984C7.34563 55.5721 7.16712 55.518 7.00646 55.4188C6.8458 55.3197 6.72085 55.1754 6.62267 54.9861L2.25813 46.8013C2.28491 47.0177 2.30276 47.234 2.31169 47.4414C2.32061 47.6487 2.32954 47.847 2.32954 48.0273V57.3118H0V42.9343H1.9993C2.11533 42.9343 2.22243 42.9343 2.30276 42.9433C2.39201 42.9433 2.46342 42.9704 2.53482 42.9884C2.60622 43.0154 2.6687 43.0605 2.73118 43.1146C2.79366 43.1687 2.84721 43.2498 2.90076 43.349L7.15819 51.3354C7.2653 51.5518 7.3724 51.7681 7.47058 51.9935L7.46166 51.9844Z" fill="#1D1D1B"/>
<path d="M27.2939 42.907V44.1419C27.2939 44.6377 26.9012 45.0343 26.4103 45.0343H20.9836V49.0185H25.9551V50.1813C25.9551 50.6771 25.5535 51.0737 25.0715 51.0737H20.9836V55.1391H27.2939V56.374C27.2939 56.8698 26.8923 57.2754 26.4014 57.2754H18.3149V43.7994C18.3149 43.3036 18.7166 42.8979 19.2075 42.8979H27.2939V42.907Z" fill="#1D1D1B"/>
<path d="M33.0062 49.8841L28.4632 42.9072H31.1051C31.2926 42.9072 31.4175 42.9343 31.5068 42.9793C31.5871 43.0334 31.6585 43.1146 31.7299 43.2227L34.9698 48.505C35.0055 48.4148 35.0412 48.3337 35.0769 48.2526C35.1126 48.1715 35.1662 48.0813 35.2108 48.0002L38.1741 43.2768C38.3169 43.0334 38.5043 42.9072 38.7364 42.9072H41.2801L36.6924 49.776L41.4051 57.2847H38.7542C38.5757 57.2847 38.4329 57.2396 38.3258 57.1495C38.2187 57.0593 38.1294 56.9512 38.058 56.834L34.7556 51.3264C34.7289 51.4075 34.7021 51.4796 34.6664 51.5517C34.6307 51.6238 34.6039 51.6869 34.5682 51.75L31.4086 56.843C31.3372 56.9512 31.2479 57.0593 31.1408 57.1585C31.0337 57.2577 30.9088 57.3027 30.7481 57.3027H28.2668L33.0062 49.9022V49.8841Z" fill="#1D1D1B"/>
<path d="M45.0376 57.2847H43.2793V43.7996C43.2793 43.3038 43.672 42.9072 44.1629 42.9072H45.9391V56.3743C45.9391 56.8791 45.5374 57.2847 45.0376 57.2847Z" fill="#1D1D1B"/>
<path d="M58.9256 53.8951C59.0684 53.8951 59.1933 53.9491 59.3004 54.0663L60.3447 55.2111C59.7646 55.9322 59.0594 56.4911 58.2115 56.8697C57.3636 57.2573 56.355 57.4466 55.1769 57.4466C54.1237 57.4466 53.1687 57.2663 52.3297 56.8967C51.4818 56.5362 50.7677 56.0224 50.1697 55.3734C49.5717 54.7243 49.1165 53.9491 48.7952 53.0477C48.4739 52.1463 48.3132 51.1638 48.3132 50.0911C48.3132 49.0184 48.4917 48.0179 48.8488 47.1255C49.2058 46.2241 49.7056 45.4489 50.3482 44.7998C50.9909 44.1508 51.7584 43.646 52.6599 43.2855C53.5525 42.9249 54.5432 42.7446 55.6321 42.7446C56.721 42.7446 57.6135 42.9159 58.4079 43.2584C59.2023 43.601 59.8806 44.0517 60.4429 44.6196L59.5593 45.8635C59.5057 45.9446 59.4432 46.0167 59.354 46.0708C59.2737 46.1339 59.1576 46.161 59.0148 46.161C58.8631 46.161 58.7114 46.0979 58.5507 45.9807C58.39 45.8635 58.1937 45.7283 57.9527 45.5931C57.7117 45.4579 57.3993 45.3227 57.0334 45.2055C56.6585 45.0883 56.1944 45.0252 55.6232 45.0252C54.9537 45.0252 54.3379 45.1424 53.7756 45.3767C53.2133 45.6111 52.7313 45.9446 52.3297 46.3863C51.928 46.828 51.6067 47.3598 51.3836 47.9818C51.1604 48.6128 51.0444 49.3159 51.0444 50.0911C51.0444 50.8663 51.1604 51.6235 51.3836 52.2455C51.6067 52.8765 51.9191 53.4083 52.3029 53.832C52.6867 54.2646 53.1419 54.5891 53.6685 54.8235C54.1951 55.0489 54.7574 55.166 55.3643 55.166C55.7213 55.166 56.0516 55.148 56.3461 55.1029C56.6407 55.0579 56.9084 55.0038 57.1494 54.9136C57.3993 54.8235 57.6314 54.7153 57.8456 54.5801C58.0687 54.4449 58.2829 54.2736 58.4971 54.0753C58.5596 54.0122 58.631 53.9672 58.7024 53.9311C58.7738 53.8951 58.8542 53.877 58.9345 53.877L58.9256 53.8951Z" fill="#1D1D1B"/>
<path d="M75.9999 50.1004C75.9999 51.155 75.8303 52.1286 75.4822 53.03C75.1341 53.9314 74.6432 54.7066 74.0185 55.3646C73.3848 56.0226 72.6261 56.5364 71.7425 56.897C70.8589 57.2666 69.8771 57.4469 68.7971 57.4469C67.7171 57.4469 66.7353 57.2666 65.8517 56.897C64.9592 56.5274 64.2005 56.0136 63.5668 55.3646C62.9331 54.7066 62.4422 53.9314 62.0941 53.03C61.746 52.1286 61.5764 51.155 61.5764 50.1004C61.5764 49.0457 61.746 48.0722 62.0941 47.1708C62.4422 46.2694 62.9331 45.4942 63.5668 44.8362C64.2005 44.1781 64.9592 43.6643 65.8517 43.3038C66.7442 42.9342 67.726 42.7539 68.7971 42.7539C69.8681 42.7539 70.8589 42.9432 71.7425 43.3128C72.6261 43.6824 73.3848 44.1962 74.0185 44.8452C74.6522 45.4942 75.1341 46.2784 75.4822 47.1708C75.8303 48.0722 75.9999 49.0457 75.9999 50.1004ZM73.2866 50.1004C73.2866 49.3071 73.1795 48.604 72.9742 47.9821C72.7689 47.3511 72.4744 46.8193 72.0816 46.3866C71.6889 45.9539 71.2248 45.6114 70.6714 45.386C70.1181 45.1517 69.4933 45.0345 68.7971 45.0345C68.1009 45.0345 67.4761 45.1517 66.9138 45.386C66.3515 45.6204 65.8785 45.9539 65.4947 46.3866C65.102 46.8283 64.8074 47.3601 64.5932 47.9821C64.379 48.604 64.2808 49.3162 64.2808 50.1004C64.2808 50.8846 64.3879 51.5967 64.5932 52.2277C64.8074 52.8587 65.102 53.3815 65.4947 53.8142C65.8874 54.2469 66.3604 54.5804 66.9138 54.8148C67.4672 55.0491 68.1009 55.1663 68.7971 55.1663C69.4933 55.1663 70.1181 55.0491 70.6714 54.8148C71.2248 54.5804 71.6979 54.2469 72.0816 53.8142C72.4654 53.3815 72.7689 52.8497 72.9742 52.2277C73.1795 51.6057 73.2866 50.8936 73.2866 50.1004Z" fill="#1D1D1B"/>
<path d="M18.4666 59.8175H16.9939V63.9459H16.2264V59.8175H14.7537V59.1685H18.4666V59.8175Z" fill="#1D1D1B"/>
<path d="M18.9666 61.1968C19.0737 60.9805 19.1987 60.8182 19.3504 60.692C19.5022 60.5658 19.6807 60.5117 19.886 60.5117C19.9574 60.5117 20.0288 60.5117 20.0912 60.5388C20.1537 60.5568 20.2073 60.5838 20.2608 60.6109L20.2162 61.1517C20.2162 61.1517 20.1894 61.2148 20.1716 61.2328C20.1537 61.2509 20.1269 61.2509 20.1002 61.2509C20.0645 61.2509 20.0198 61.2509 19.9574 61.2328C19.8949 61.2238 19.8324 61.2148 19.761 61.2148C19.6628 61.2148 19.5736 61.2328 19.5022 61.2599C19.4308 61.2869 19.3594 61.332 19.2969 61.3861C19.2344 61.4402 19.1808 61.5123 19.1362 61.5844C19.0916 61.6655 19.047 61.7557 19.0113 61.8548V63.9551H18.3062V60.5748H18.7167C18.7881 60.5748 18.8417 60.5928 18.8685 60.6199C18.8952 60.6469 18.9131 60.692 18.9309 60.7641L18.9756 61.2058L18.9666 61.1968Z" fill="#1D1D1B"/>
<path d="M20.5909 61.0343C20.9658 60.6827 21.421 60.5024 21.9476 60.5024C22.144 60.5024 22.3135 60.5295 22.4653 60.5926C22.617 60.6557 22.742 60.7458 22.8401 60.863C22.9383 60.9802 23.0187 61.1154 23.0722 61.2686C23.1258 61.4309 23.1525 61.6022 23.1525 61.7915V63.9368H22.8401C22.7687 63.9368 22.7241 63.9278 22.6884 63.9098C22.6527 63.8917 22.6259 63.8467 22.5992 63.7836L22.5278 63.5131C22.4385 63.5943 22.3582 63.6574 22.2778 63.7205C22.1975 63.7836 22.1083 63.8286 22.019 63.8737C21.9298 63.9188 21.8316 63.9458 21.7334 63.9638C21.6352 63.9819 21.5192 63.9909 21.3942 63.9909C21.2603 63.9909 21.1354 63.9729 21.0194 63.9368C20.9033 63.9007 20.8052 63.8467 20.7159 63.7655C20.6266 63.6934 20.5642 63.5943 20.5106 63.4861C20.4571 63.3779 20.4392 63.2427 20.4392 63.0895C20.4392 62.9633 20.4749 62.8281 20.5463 62.7109C20.6177 62.5847 20.7248 62.4765 20.8855 62.3774C21.0461 62.2782 21.2514 62.1971 21.5103 62.134C21.7691 62.0709 22.0904 62.0348 22.4742 62.0258V61.8005C22.4742 61.5571 22.4207 61.3768 22.3225 61.2596C22.2243 61.1424 22.0726 61.0793 21.8673 61.0793C21.7334 61.0793 21.6174 61.0974 21.5281 61.1334C21.4389 61.1695 21.3585 61.2055 21.2871 61.2416C21.2157 61.2777 21.1622 61.3227 21.1086 61.3498C21.0551 61.3768 21.0015 61.4038 20.939 61.4038C20.8944 61.4038 20.8498 61.3948 20.8141 61.3678C20.7784 61.3408 20.7516 61.3137 20.7337 61.2777L20.6088 61.0433L20.5909 61.0343ZM22.4653 62.4675C22.2154 62.4675 22.0012 62.4946 21.8316 62.5306C21.662 62.5667 21.5192 62.6027 21.4121 62.6568C21.305 62.7109 21.2246 62.765 21.18 62.8371C21.1354 62.9092 21.1086 62.9813 21.1086 63.0624C21.1086 63.1436 21.1175 63.2067 21.1443 63.2698C21.1711 63.3238 21.2068 63.3689 21.2514 63.405C21.296 63.441 21.3496 63.4681 21.4121 63.4861C21.4746 63.5041 21.537 63.5131 21.6084 63.5131C21.7959 63.5131 21.9476 63.4771 22.0815 63.405C22.2154 63.3329 22.3403 63.2337 22.4653 63.0985V62.4765V62.4675Z" fill="#1D1D1B"/>
<path d="M26.8477 60.5654L25.5 63.9457H24.8663L23.5186 60.5654H24.0987C24.1523 60.5654 24.1969 60.5835 24.2326 60.6105C24.2683 60.6375 24.2951 60.6736 24.304 60.7097L25.0448 62.6747C25.0716 62.7649 25.0984 62.855 25.1251 62.9542C25.1519 63.0533 25.1698 63.1344 25.1876 63.2336C25.2055 63.1435 25.2233 63.0533 25.2501 62.9632C25.2769 62.873 25.3036 62.7829 25.3304 62.6837L26.0891 60.7187C26.0891 60.7187 26.1248 60.6466 26.1605 60.6195C26.1962 60.5925 26.2408 60.5835 26.2854 60.5835H26.8388L26.8477 60.5654Z" fill="#1D1D1B"/>
<path d="M27.7403 62.3145C27.7403 62.5038 27.776 62.6751 27.8295 62.8103C27.8831 62.9545 27.9455 63.0627 28.0348 63.1619C28.1241 63.261 28.2222 63.3241 28.3383 63.3692C28.4543 63.4143 28.5882 63.4413 28.731 63.4413C28.8738 63.4413 28.9898 63.4233 29.088 63.3962C29.1862 63.3692 29.2754 63.3241 29.3468 63.2881C29.4182 63.252 29.4807 63.2159 29.5343 63.1799C29.5878 63.1438 29.6325 63.1348 29.6771 63.1348C29.7306 63.1348 29.7753 63.1528 29.811 63.1979L30.0073 63.4593C29.927 63.5585 29.8288 63.6396 29.7217 63.7117C29.6146 63.7838 29.5075 63.8379 29.3915 63.883C29.2754 63.9281 29.1505 63.9551 29.0255 63.9731C28.9006 63.9912 28.7756 64.0002 28.6596 64.0002C28.4275 64.0002 28.2133 63.9641 28.017 63.883C27.8206 63.8019 27.651 63.6847 27.4993 63.5405C27.3475 63.3962 27.2404 63.1979 27.1601 62.9726C27.0798 62.7472 27.0352 62.4858 27.0352 62.1974C27.0352 61.963 27.0709 61.7466 27.1423 61.5393C27.2137 61.332 27.3208 61.1607 27.4547 61.0075C27.5885 60.8543 27.7581 60.7371 27.9545 60.6469C28.1508 60.5568 28.374 60.5117 28.615 60.5117C28.8202 60.5117 29.0077 60.5478 29.1862 60.6109C29.3647 60.674 29.5164 60.7731 29.6414 60.9083C29.7663 61.0436 29.8645 61.1968 29.9359 61.3861C30.0073 61.5754 30.043 61.7917 30.043 62.0351C30.043 62.1433 30.0341 62.2154 30.0073 62.2605C29.9805 62.2965 29.9359 62.3145 29.8734 62.3145H27.7224H27.7403ZM29.4272 61.8728C29.4272 61.7557 29.4093 61.6385 29.3736 61.5393C29.3379 61.4402 29.2933 61.35 29.2219 61.2689C29.1594 61.1968 29.0791 61.1337 28.9809 61.0886C28.8827 61.0435 28.7756 61.0255 28.6417 61.0255C28.3829 61.0255 28.1865 61.0976 28.0348 61.2509C27.892 61.3951 27.7938 61.6024 27.7581 61.8728H29.4182H29.4272Z" fill="#1D1D1B"/>
<path d="M31.4353 59.0425V63.9461H30.7302V59.0425H31.4353Z" fill="#1D1D1B"/>
<path d="M38.1831 63.9458H37.4958C37.4958 63.9458 37.4244 63.9458 37.3976 63.9458C37.3709 63.9458 37.3441 63.9368 37.3173 63.9278C37.2905 63.9188 37.2638 63.9008 37.2459 63.8828C37.2191 63.8647 37.2013 63.8377 37.1745 63.8106L36.7818 63.405C36.5765 63.5943 36.3355 63.7385 36.0767 63.8467C35.8089 63.9549 35.5233 64.0089 35.2198 64.0089C35.0413 64.0089 34.8628 63.9819 34.6932 63.9188C34.5237 63.8557 34.3719 63.7656 34.2291 63.6484C34.0952 63.5312 33.9881 63.387 33.8989 63.2247C33.8186 63.0625 33.7739 62.8732 33.7739 62.6568C33.7739 62.5036 33.8007 62.3594 33.8453 62.2242C33.89 62.0889 33.9614 61.9627 34.0506 61.8456C34.1399 61.7284 34.247 61.6292 34.363 61.5301C34.479 61.4399 34.6129 61.3588 34.7557 61.2957C34.6308 61.1244 34.5415 60.9622 34.479 60.8089C34.4255 60.6467 34.3898 60.4844 34.3898 60.3222C34.3898 60.1599 34.4166 60.0067 34.479 59.8625C34.5415 59.7182 34.6218 59.592 34.7379 59.4839C34.8539 59.3757 34.9878 59.2856 35.1484 59.2225C35.3091 59.1594 35.4876 59.1323 35.6929 59.1323C35.8803 59.1323 36.041 59.1594 36.1927 59.2225C36.3444 59.2765 36.4694 59.3577 36.5765 59.4568C36.6836 59.556 36.7639 59.6642 36.8264 59.7904C36.8889 59.9166 36.9246 60.0428 36.9335 60.178L36.4873 60.2681C36.4873 60.2681 36.4069 60.2681 36.3801 60.2501C36.3444 60.232 36.3177 60.196 36.2998 60.1509C36.282 60.0968 36.2552 60.0337 36.2284 59.9797C36.1927 59.9256 36.157 59.8715 36.1035 59.8264C36.0588 59.7813 35.9964 59.7453 35.9339 59.7182C35.8625 59.6912 35.7911 59.6732 35.7018 59.6732C35.6036 59.6732 35.5144 59.6912 35.4341 59.7273C35.3537 59.7633 35.2823 59.8084 35.2288 59.8625C35.1752 59.9166 35.1306 59.9887 35.1038 60.0698C35.077 60.1509 35.0592 60.232 35.0592 60.3222C35.0592 60.3943 35.0592 60.4574 35.086 60.5295C35.1038 60.5926 35.1306 60.6647 35.1574 60.7278C35.1931 60.7909 35.2377 60.863 35.2912 60.9351C35.3448 61.0073 35.4073 61.0794 35.4876 61.1605L36.7907 62.5126C36.871 62.3684 36.9335 62.2151 36.9782 62.0529C37.0228 61.8906 37.0585 61.7374 37.0674 61.5751C37.0674 61.5301 37.0853 61.494 37.112 61.467C37.1388 61.4399 37.1745 61.4219 37.2191 61.4219H37.6565C37.6565 61.7013 37.6119 61.9627 37.5315 62.2151C37.4512 62.4675 37.3352 62.7109 37.1924 62.9273L38.1831 63.9549V63.9458ZM35.077 61.6563C34.8718 61.7735 34.7289 61.9177 34.6308 62.0709C34.5326 62.2332 34.488 62.4044 34.488 62.5847C34.488 62.7109 34.5147 62.8281 34.5594 62.9363C34.604 63.0354 34.6665 63.1256 34.7468 63.1977C34.8271 63.2698 34.9164 63.3239 35.0146 63.3599C35.1127 63.396 35.2198 63.414 35.327 63.414C35.5412 63.414 35.7375 63.378 35.916 63.3059C36.0945 63.2337 36.2463 63.1346 36.3891 63.0084L35.077 61.6563Z" fill="#1D1D1B"/>
<path d="M43.1455 63.2969V63.9459H40.4143V59.1685H41.1819V63.2879H43.1455V63.2969Z" fill="#1D1D1B"/>
<path d="M43.9844 62.3145C43.9844 62.5038 44.0201 62.6751 44.0737 62.8103C44.1272 62.9545 44.1897 63.0627 44.2789 63.1619C44.3682 63.261 44.4664 63.3241 44.5824 63.3692C44.6984 63.4143 44.8323 63.4413 44.9751 63.4413C45.1179 63.4413 45.234 63.4233 45.3321 63.3962C45.4303 63.3692 45.5196 63.3241 45.591 63.2881C45.6624 63.252 45.7249 63.2159 45.7784 63.1799C45.832 63.1438 45.8766 63.1348 45.9212 63.1348C45.9748 63.1348 46.0194 63.1528 46.0551 63.1979L46.2515 63.4593C46.1711 63.5585 46.073 63.6396 45.9658 63.7117C45.8587 63.7838 45.7516 63.8379 45.6356 63.883C45.5196 63.9281 45.3946 63.9551 45.2697 63.9731C45.1447 63.9912 45.0198 64.0002 44.9037 64.0002C44.6717 64.0002 44.4575 63.9641 44.2611 63.883C44.0647 63.8019 43.8951 63.6847 43.7434 63.5405C43.5917 63.3962 43.4846 63.1979 43.4043 62.9726C43.3239 62.7472 43.2793 62.4858 43.2793 62.1974C43.2793 61.963 43.315 61.7466 43.3864 61.5393C43.4578 61.332 43.5649 61.1607 43.6988 61.0075C43.8327 60.8543 44.0023 60.7371 44.1986 60.6469C44.395 60.5568 44.6181 60.5117 44.8591 60.5117C45.0644 60.5117 45.2518 60.5478 45.4303 60.6109C45.6088 60.674 45.7606 60.7731 45.8855 60.9083C46.0105 61.0436 46.1087 61.1968 46.1801 61.3861C46.2515 61.5754 46.2872 61.7917 46.2872 62.0351C46.2872 62.1433 46.2782 62.2154 46.2515 62.2605C46.2247 62.2965 46.1801 62.3145 46.1176 62.3145H43.9666H43.9844ZM45.6713 61.8728C45.6713 61.7557 45.6535 61.6385 45.6178 61.5393C45.5821 61.4402 45.5374 61.35 45.466 61.2689C45.4035 61.1968 45.3232 61.1337 45.225 61.0886C45.1269 61.0435 45.0198 61.0255 44.8859 61.0255C44.627 61.0255 44.4307 61.0976 44.2789 61.2509C44.1361 61.3951 44.038 61.6024 44.0023 61.8728H45.6624H45.6713Z" fill="#1D1D1B"/>
<path d="M47.8134 59.5471C47.8134 59.6102 47.8045 59.6733 47.7777 59.7274C47.7509 59.7815 47.7152 59.8355 47.6706 59.8806C47.626 59.9257 47.5724 59.9617 47.5189 59.9798C47.4653 60.0068 47.4028 60.0158 47.3314 60.0158C47.26 60.0158 47.2065 60.0068 47.1529 59.9798C47.0994 59.9527 47.0458 59.9167 47.0101 59.8806C46.9655 59.8355 46.9387 59.7905 46.9119 59.7274C46.8851 59.6733 46.8762 59.6102 46.8762 59.5471C46.8762 59.484 46.8851 59.4209 46.9119 59.3578C46.9387 59.3037 46.9744 59.2496 47.0101 59.2045C47.0458 59.1595 47.0994 59.1234 47.1529 59.1054C47.2065 59.0784 47.2689 59.0693 47.3314 59.0693C47.3939 59.0693 47.4564 59.0784 47.5189 59.1054C47.5724 59.1324 47.626 59.1685 47.6706 59.2045C47.7152 59.2496 47.7509 59.2947 47.7777 59.3578C47.8045 59.4119 47.8134 59.475 47.8134 59.5471ZM47.6974 60.5657V63.946H46.9923V60.5657H47.6974Z" fill="#1D1D1B"/>
<path d="M50.5804 61.1785C50.5804 61.1785 50.5447 61.2325 50.5179 61.2416C50.4911 61.2506 50.4733 61.2596 50.4376 61.2596C50.4019 61.2596 50.3573 61.2506 50.3126 61.2235C50.268 61.1965 50.2145 61.1785 50.1609 61.1424C50.0984 61.1154 50.0359 61.0883 49.9556 61.0613C49.8753 61.0342 49.786 61.0252 49.6789 61.0252C49.5897 61.0252 49.5093 61.0342 49.4379 61.0523C49.3665 61.0703 49.3041 61.1063 49.2594 61.1424C49.2059 61.1785 49.1702 61.2235 49.1434 61.2776C49.1166 61.3317 49.1077 61.3858 49.1077 61.4489C49.1077 61.53 49.1345 61.5931 49.1791 61.6472C49.2237 61.7013 49.2862 61.7463 49.3665 61.7824C49.4469 61.8185 49.5361 61.8545 49.6343 61.8906C49.7325 61.9176 49.8396 61.9537 49.9467 61.9897C50.0538 62.0258 50.152 62.0618 50.2591 62.1159C50.3573 62.161 50.4465 62.2151 50.5268 62.2872C50.6072 62.3503 50.6697 62.4404 50.7143 62.5306C50.7589 62.6207 50.7857 62.7469 50.7857 62.8821C50.7857 63.0444 50.7589 63.1886 50.6964 63.3238C50.6429 63.459 50.5536 63.5762 50.4465 63.6754C50.3394 63.7745 50.1966 63.8556 50.0359 63.9097C49.8753 63.9638 49.6879 63.9909 49.4736 63.9909C49.3576 63.9909 49.2416 63.9818 49.1345 63.9638C49.0274 63.9458 48.9203 63.9097 48.8221 63.8737C48.7239 63.8376 48.6347 63.7925 48.5454 63.7385C48.4561 63.6844 48.3847 63.6303 48.3223 63.5762L48.4829 63.3058C48.4829 63.3058 48.5276 63.2427 48.5543 63.2247C48.5811 63.2066 48.6168 63.1976 48.6614 63.1976C48.7061 63.1976 48.7507 63.2156 48.7953 63.2427C48.8399 63.2697 48.8935 63.3058 48.956 63.3418C49.0184 63.3779 49.0899 63.414 49.1702 63.441C49.2594 63.468 49.3576 63.4861 49.4915 63.4861C49.5986 63.4861 49.6879 63.4771 49.7682 63.45C49.8485 63.423 49.911 63.3869 49.9556 63.3418C50.0092 63.2968 50.0449 63.2517 50.0627 63.1886C50.0806 63.1255 50.0984 63.0714 50.0984 63.0083C50.0984 62.9182 50.0716 62.8551 50.027 62.792C49.9824 62.7379 49.911 62.6928 49.8307 62.6478C49.7503 62.6027 49.6611 62.5756 49.554 62.5396C49.4558 62.5125 49.3487 62.4765 49.2416 62.4404C49.1345 62.4044 49.0363 62.3683 48.9292 62.3142C48.831 62.2692 48.7328 62.2061 48.6525 62.134C48.5722 62.0618 48.5097 61.9717 48.4561 61.8725C48.4115 61.7734 48.3847 61.6472 48.3847 61.494C48.3847 61.3587 48.4115 61.2325 48.4651 61.1063C48.5186 60.9892 48.599 60.881 48.6971 60.7818C48.8042 60.6917 48.9292 60.6196 49.0809 60.5655C49.2327 60.5114 49.4112 60.4844 49.6075 60.4844C49.8307 60.4844 50.0359 60.5204 50.2234 60.5925C50.4108 60.6647 50.5625 60.7638 50.6875 60.89L50.5268 61.1514L50.5804 61.1785Z" fill="#1D1D1B"/>
<path d="M54.2665 60.5654V63.9457H53.8381C53.7399 63.9457 53.6864 63.9006 53.6596 63.8105L53.6061 63.495C53.5347 63.5671 53.4633 63.6392 53.3829 63.7023C53.3026 63.7654 53.2223 63.8195 53.133 63.8646C53.0438 63.9097 52.9545 63.9457 52.8563 63.9637C52.7581 63.9908 52.651 63.9998 52.535 63.9998C52.3476 63.9998 52.1869 63.9728 52.053 63.9097C51.9192 63.8466 51.7942 63.7564 51.696 63.6482C51.5978 63.5401 51.5264 63.3959 51.4818 63.2426C51.4372 63.0894 51.4104 62.9091 51.4104 62.7198V60.5654H52.1155V62.7198C52.1155 62.9451 52.1691 63.1254 52.2672 63.2516C52.3654 63.3778 52.5261 63.4409 52.7403 63.4409C52.892 63.4409 53.0438 63.4049 53.1776 63.3328C53.3115 63.2606 53.4365 63.1615 53.5525 63.0353V60.5654H54.2576H54.2665Z" fill="#1D1D1B"/>
<path d="M55.7928 61.1968C55.8999 60.9805 56.0249 60.8182 56.1766 60.692C56.3283 60.5658 56.5068 60.5117 56.7121 60.5117C56.7835 60.5117 56.8549 60.5117 56.9174 60.5388C56.9799 60.5568 57.0334 60.5838 57.087 60.6109L57.0424 61.1517C57.0424 61.1517 57.0156 61.2148 56.9977 61.2328C56.9799 61.2509 56.9531 61.2509 56.9263 61.2509C56.8906 61.2509 56.846 61.2509 56.7835 61.2328C56.721 61.2238 56.6586 61.2148 56.5872 61.2148C56.489 61.2148 56.3997 61.2328 56.3283 61.2599C56.2569 61.2869 56.1855 61.332 56.123 61.3861C56.0606 61.4402 56.007 61.5123 55.9624 61.5844C55.9178 61.6655 55.8731 61.7557 55.8374 61.8548V63.9551H55.1323V60.5748H55.5429C55.6143 60.5748 55.6679 60.5928 55.6946 60.6199C55.7214 60.6469 55.7393 60.692 55.7571 60.7641L55.8017 61.2058L55.7928 61.1968Z" fill="#1D1D1B"/>
<path d="M57.9527 62.3145C57.9527 62.5038 57.9884 62.6751 58.0419 62.8103C58.0955 62.9545 58.158 63.0627 58.2472 63.1619C58.3365 63.261 58.4346 63.3241 58.5507 63.3692C58.6667 63.4143 58.8006 63.4413 58.9434 63.4413C59.0862 63.4413 59.2022 63.4233 59.3004 63.3962C59.3986 63.3692 59.4878 63.3241 59.5592 63.2881C59.6307 63.252 59.6931 63.2159 59.7467 63.1799C59.8002 63.1438 59.8449 63.1348 59.8895 63.1348C59.943 63.1348 59.9877 63.1528 60.0234 63.1979L60.2197 63.4593C60.1394 63.5585 60.0412 63.6396 59.9341 63.7117C59.827 63.7838 59.7199 63.8379 59.6039 63.883C59.4878 63.9281 59.3629 63.9551 59.2379 63.9731C59.113 63.9912 58.988 64.0002 58.872 64.0002C58.6399 64.0002 58.4257 63.9641 58.2294 63.883C58.033 63.8019 57.8634 63.6847 57.7117 63.5405C57.56 63.3962 57.4528 63.1979 57.3725 62.9726C57.2922 62.7472 57.2476 62.4858 57.2476 62.1974C57.2476 61.963 57.2833 61.7466 57.3547 61.5393C57.4261 61.332 57.5332 61.1607 57.6671 61.0075C57.8009 60.8543 57.9705 60.7371 58.1669 60.6469C58.3632 60.5568 58.5864 60.5117 58.8274 60.5117C59.0326 60.5117 59.2201 60.5478 59.3986 60.6109C59.5771 60.674 59.7288 60.7731 59.8538 60.9083C59.9787 61.0436 60.0769 61.1968 60.1483 61.3861C60.2197 61.5754 60.2554 61.7917 60.2554 62.0351C60.2554 62.1433 60.2465 62.2154 60.2197 62.2605C60.193 62.2965 60.1483 62.3145 60.0858 62.3145H57.9348H57.9527ZM59.6306 61.8728C59.6306 61.7557 59.6128 61.6385 59.5771 61.5393C59.5414 61.4402 59.4968 61.35 59.4254 61.2689C59.3629 61.1968 59.2826 61.1337 59.1844 61.0886C59.0862 61.0435 58.9791 61.0255 58.8452 61.0255C58.5864 61.0255 58.39 61.0976 58.2383 61.2509C58.0955 61.3951 57.9973 61.6024 57.9616 61.8728H59.6217H59.6306Z" fill="#1D1D1B"/>
<path d="M29.677 6.94971L31.5513 8.83365L33.4168 6.94971H29.677Z" fill="#87B925"/>
<path d="M34.7556 6.94971L36.621 8.83365L38.4864 6.94971H34.7556Z" fill="#87B925"/>
<path d="M35.9695 8.83365L34.1041 6.94971L32.2297 8.83365H35.9695Z" fill="#7D2278"/>
<path d="M39.8252 6.94971L41.6906 8.83365L43.556 6.94971H39.8252Z" fill="#87B925"/>
<path d="M41.0392 8.83365L39.1738 6.94971L37.3083 8.83365H41.0392Z" fill="#7D2278"/>
<path d="M46.1088 8.83365L44.2433 6.94971L42.3779 8.83365H46.1088Z" fill="#7D2278"/>
<path d="M32.087 4.77758C32.087 4.32687 31.73 3.96631 31.2927 3.96631C30.8553 3.96631 30.4983 4.32687 30.4983 4.77758C30.4983 5.22828 30.8553 5.57983 31.2927 5.57983C31.73 5.57983 32.087 5.21927 32.087 4.77758Z" fill="#FAB601"/>
<path d="M34.1843 4.77758C34.1843 4.32687 33.8273 3.96631 33.381 3.96631C32.9348 3.96631 32.5867 4.32687 32.5867 4.77758C32.5867 5.22828 32.9437 5.57983 33.381 5.57983C33.8184 5.57983 34.1843 5.21927 34.1843 4.77758Z" fill="#FAB601"/>
<path d="M36.2729 4.77758C36.2729 4.32687 35.9159 3.96631 35.4786 3.96631C35.0412 3.96631 34.6753 4.32687 34.6753 4.77758C34.6753 5.22828 35.0323 5.57983 35.4786 5.57983C35.9249 5.57983 36.2729 5.21927 36.2729 4.77758Z" fill="#FAB601"/>
<path d="M38.3704 4.77758C38.3704 4.32687 38.0133 3.96631 37.576 3.96631C37.1386 3.96631 36.7727 4.32687 36.7727 4.77758C36.7727 5.22828 37.1297 5.57983 37.576 5.57983C38.0223 5.57983 38.3704 5.21927 38.3704 4.77758Z" fill="#FAB601"/>
<path d="M40.4679 4.77758C40.4679 4.32687 40.1109 3.96631 39.6646 3.96631C39.2183 3.96631 38.8613 4.32687 38.8613 4.77758C38.8613 5.22828 39.2183 5.57983 39.6646 5.57983C40.1109 5.57983 40.4679 5.21927 40.4679 4.77758Z" fill="#FAB601"/>
<path d="M42.5653 4.77758C42.5653 4.32687 42.2083 3.96631 41.762 3.96631C41.3158 3.96631 40.9587 4.32687 40.9587 4.77758C40.9587 5.22828 41.3158 5.57983 41.762 5.57983C42.2083 5.57983 42.5653 5.21927 42.5653 4.77758Z" fill="#FAB601"/>
<path d="M44.6538 4.77758C44.6538 4.32687 44.2968 3.96631 43.8505 3.96631C43.4042 3.96631 43.0562 4.32687 43.0562 4.77758C43.0562 5.22828 43.4132 5.57983 43.8505 5.57983C44.2879 5.57983 44.6538 5.21927 44.6538 4.77758Z" fill="#FAB601"/>
<path d="M45.4303 5.84131H29.7037C29.6055 6.0306 29.5074 6.2199 29.4092 6.41821H45.7159C45.6178 6.2199 45.5196 6.0306 45.4214 5.84131H45.4303Z" fill="#D51C20"/>
<path d="M29.1238 7.04883C28.8739 7.61672 28.6418 8.22066 28.4365 8.83362H30.8999L29.1327 7.04883H29.1238Z" fill="#7D2278"/>
<path d="M46.6799 8.75275C46.4657 8.12176 46.2336 7.51782 45.9748 6.94092H44.8948L46.6799 8.75275Z" fill="#87B925"/>
<path d="M61.8977 22.1566H61.5229V21.778L62.0495 21.2462L61.5229 20.7143V20.3357H61.8977L62.4243 20.8676L62.9509 20.3357H63.3258L63.5043 20.1284H11.6387L11.7547 20.3357H12.1296L12.6562 20.8676L13.1828 20.3357H13.5576V20.7143L13.031 21.2462L13.5576 21.778V22.1566H13.2185C13.2899 22.2197 13.3613 22.2918 13.4416 22.3639H61.6925L61.8888 22.1566H61.8977ZM15.7354 20.7143L15.2088 21.2462L15.7354 21.778V22.1566H15.3606L14.834 21.6248L14.3074 22.1566H13.9325V21.778L14.4591 21.2462L13.9325 20.7143V20.3357H14.3074L14.834 20.8676L15.3606 20.3357H15.7354V20.7143ZM17.8954 20.7143L17.3688 21.2462L17.8954 21.778V22.1566H17.5205L16.9939 21.6248L16.4673 22.1566H16.0925V21.778L16.6191 21.2462L16.0925 20.7143V20.3357H16.4673L16.9939 20.8676L17.5205 20.3357H17.8954V20.7143ZM20.0553 20.7143L19.5287 21.2462L20.0553 21.778V22.1566H19.6805L19.1539 21.6248L18.6273 22.1566H18.2524V21.778L18.779 21.2462L18.2524 20.7143V20.3357H18.6273L19.1539 20.8676L19.6805 20.3357H20.0553V20.7143ZM22.2242 20.7143L21.6976 21.2462L22.2242 21.778V22.1566H21.8494L21.3228 21.6248L20.7962 22.1566H20.4213V21.778L20.9479 21.2462L20.4213 20.7143V20.3357H20.7962L21.3228 20.8676L21.8494 20.3357H22.2242V20.7143ZM24.3842 20.7143L23.8576 21.2462L24.3842 21.778V22.1566H24.0093L23.4827 21.6248L22.9561 22.1566H22.5812V21.778L23.1078 21.2462L22.5812 20.7143V20.3357H22.9561L23.4827 20.8676L24.0093 20.3357H24.3842V20.7143ZM26.5441 20.7143L26.0175 21.2462L26.5441 21.778V22.1566H26.1693L25.6427 21.6248L25.1161 22.1566H24.7412V21.778L25.2678 21.2462L24.7412 20.7143V20.3357H25.1161L25.6427 20.8676L26.1693 20.3357H26.5441V20.7143ZM28.713 20.7143L28.1864 21.2462L28.713 21.778V22.1566H28.3381L27.8115 21.6248L27.2849 22.1566H26.9101V21.778L27.4367 21.2462L26.9101 20.7143V20.3357H27.2849L27.8115 20.8676L28.3381 20.3357H28.713V20.7143ZM30.873 20.7143L30.3464 21.2462L30.873 21.778V22.1566H30.4981L29.9715 21.6248L29.4449 22.1566H29.07V21.778L29.5966 21.2462L29.07 20.7143V20.3357H29.4449L29.9715 20.8676L30.4981 20.3357H30.873V20.7143ZM33.0418 20.7143L32.5152 21.2462L33.0418 21.778V22.1566H32.667L32.1404 21.6248L31.6138 22.1566H31.2389V21.778L31.7655 21.2462L31.2389 20.7143V20.3357H31.6138L32.1404 20.8676L32.667 20.3357H33.0418V20.7143ZM35.2018 20.7143L34.6752 21.2462L35.2018 21.778V22.1566H34.8269L34.3003 21.6248L33.7737 22.1566H33.3989V21.778L33.9255 21.2462L33.3989 20.7143V20.3357H33.7737L34.3003 20.8676L34.8269 20.3357H35.2018V20.7143ZM37.3617 20.7143L36.8351 21.2462L37.3617 21.778V22.1566H36.9869L36.4603 21.6248L35.9337 22.1566H35.5588V21.778L36.0854 21.2462L35.5588 20.7143V20.3357H35.9337L36.4603 20.8676L36.9869 20.3357H37.3617V20.7143ZM39.5306 20.7143L39.004 21.2462L39.5306 21.778V22.1566H39.1558L38.6292 21.6248L38.1026 22.1566H37.7277V21.778L38.2543 21.2462L37.7277 20.7143V20.3357H38.1026L38.6292 20.8676L39.1558 20.3357H39.5306V20.7143ZM41.6906 20.7143L41.164 21.2462L41.6906 21.778V22.1566H41.3157L40.7891 21.6248L40.2625 22.1566H39.8876V21.778L40.4142 21.2462L39.8876 20.7143V20.3357H40.2625L40.7891 20.8676L41.3157 20.3357H41.6906V20.7143ZM43.8595 20.7143L43.3329 21.2462L43.8595 21.778V22.1566H43.4846L42.958 21.6248L42.4314 22.1566H42.0565V21.778L42.5831 21.2462L42.0565 20.7143V20.3357H42.4314L42.958 20.8676L43.4846 20.3357H43.8595V20.7143ZM46.0194 20.7143L45.4928 21.2462L46.0194 21.778V22.1566H45.6445L45.1179 21.6248L44.5913 22.1566H44.2165V21.778L44.7431 21.2462L44.2165 20.7143V20.3357H44.5913L45.1179 20.8676L45.6445 20.3357H46.0194V20.7143ZM48.1794 20.7143L47.6528 21.2462L48.1794 21.778V22.1566H47.8045L47.2779 21.6248L46.7513 22.1566H46.3764V21.778L46.903 21.2462L46.3764 20.7143V20.3357H46.7513L47.2779 20.8676L47.8045 20.3357H48.1794V20.7143ZM50.3482 20.7143L49.8216 21.2462L50.3482 21.778V22.1566H49.9734L49.4468 21.6248L48.9202 22.1566H48.5453V21.778L49.0719 21.2462L48.5453 20.7143V20.3357H48.9202L49.4468 20.8676L49.9734 20.3357H50.3482V20.7143ZM52.5082 20.7143L51.9816 21.2462L52.5082 21.778V22.1566H52.1333L51.6067 21.6248L51.0801 22.1566H50.7053V21.778L51.2319 21.2462L50.7053 20.7143V20.3357H51.0801L51.6067 20.8676L52.1333 20.3357H52.5082V20.7143ZM54.6681 20.7143L54.1415 21.2462L54.6681 21.778V22.1566H54.2933L53.7667 21.6248L53.2401 22.1566H52.8652V21.778L53.3918 21.2462L52.8652 20.7143V20.3357H53.2401L53.7667 20.8676L54.2933 20.3357H54.6681V20.7143ZM56.837 20.7143L56.3104 21.2462L56.837 21.778V22.1566H56.4622L55.9356 21.6248L55.409 22.1566H55.0341V21.778L55.5607 21.2462L55.0341 20.7143V20.3357H55.409L55.9356 20.8676L56.4622 20.3357H56.837V20.7143ZM58.997 20.7143L58.4704 21.2462L58.997 21.778V22.1566H58.6221L58.0955 21.6248L57.5689 22.1566H57.194V21.778L57.7206 21.2462L57.194 20.7143V20.3357H57.5689L58.0955 20.8676L58.6221 20.3357H58.997V20.7143ZM61.1659 20.7143L60.6393 21.2462L61.1659 21.778V22.1566H60.791L60.2644 21.6248L59.7378 22.1566H59.3629V21.778L59.8895 21.2462L59.3629 20.7143V20.3357H59.7378L60.2644 20.8676L60.791 20.3357H61.1659V20.7143Z" fill="#AE174C"/>
<path d="M10.8086 16.748C10.8086 17.7306 11.594 18.5238 12.5669 18.5238C13.3523 18.5238 14.0039 18.001 14.236 17.2889C14.4591 18.001 15.1196 18.5238 15.905 18.5238C16.6904 18.5238 17.342 18.001 17.5741 17.2889C17.7972 18.001 18.4577 18.5238 19.2431 18.5238C20.0286 18.5238 20.6801 18.001 20.9122 17.2889C21.1353 18.001 21.7958 18.5238 22.5812 18.5238C23.3667 18.5238 24.0182 18.001 24.2503 17.2889C24.4734 18.001 25.1339 18.5238 25.9193 18.5238C26.7048 18.5238 27.3563 18.001 27.5884 17.2889C27.8115 18.001 28.472 18.5238 29.2574 18.5238C30.0429 18.5238 30.6944 18.001 30.9265 17.2889C31.1496 18.001 31.8101 18.5238 32.5956 18.5238C33.381 18.5238 34.0326 18.001 34.2646 17.2889C34.4877 18.001 35.1482 18.5238 35.9337 18.5238C36.7191 18.5238 37.3707 18.001 37.6027 17.2889C37.8259 18.001 38.4863 18.5238 39.2718 18.5238C40.0572 18.5238 40.7088 18.001 40.9408 17.2889C41.164 18.001 41.8244 18.5238 42.6099 18.5238C43.3953 18.5238 44.0469 18.001 44.2789 17.2889C44.5021 18.001 45.1626 18.5238 45.948 18.5238C46.7334 18.5238 47.385 18.001 47.6171 17.2889C47.8402 18.001 48.5007 18.5238 49.2861 18.5238C50.0715 18.5238 50.7231 18.001 50.9552 17.2889C51.1783 18.001 51.8388 18.5238 52.6242 18.5238C53.4096 18.5238 54.0612 18.001 54.2933 17.2889C54.5164 18.001 55.1769 18.5238 55.9623 18.5238C56.7478 18.5238 57.3993 18.001 57.6314 17.2889C57.8545 18.001 58.515 18.5238 59.3004 18.5238C60.0859 18.5238 60.7374 18.001 60.9695 17.2889C61.1926 18.001 61.8531 18.5238 62.6385 18.5238C63.6114 18.5238 64.3969 17.7306 64.3969 16.748H10.8086Z" fill="#009DDB"/>
<path d="M63.9863 18.9746H11.1567C11.2281 19.209 11.3174 19.4433 11.4156 19.6687H63.7186C63.8167 19.4433 63.906 19.209 63.9774 18.9746H63.9863Z" fill="#87B925"/>
<path d="M17.9938 24.0046H57.1407C58.2296 24.0046 59.2649 23.7522 60.1932 23.3105H14.9502C15.8784 23.7522 16.9049 24.0046 18.0027 24.0046H17.9938Z" fill="#7D2278"/>
<path d="M61.2642 22.6885H13.8792C14.0487 22.8147 14.2272 22.9228 14.4147 23.031H60.7376C60.9161 22.9228 61.0947 22.8147 61.2732 22.6885H61.2642Z" fill="#7D2278"/>
<path d="M37.5761 0C35.1306 0 32.8903 1.37014 31.123 3.6507H44.0381C42.2709 1.37014 40.0217 0 37.5851 0H37.5761Z" fill="#AE174C"/>
<path d="M47.9117 15.6574L47.7778 14.4766L46.7424 15.5132L45.716 14.4766L44.6896 15.5132L43.6632 14.4766L42.6367 15.5132L41.6014 14.4766L40.575 15.5132L39.5485 14.4766L38.5221 15.5132L37.4957 14.4766L36.4693 15.5132L35.4339 14.4766L34.4075 15.5132L33.3811 14.4766L32.3546 15.5132L31.3282 14.4766L30.2929 15.5132L29.2664 14.4766L28.24 15.5132L27.3028 14.5667L27.2314 15.6574H47.9117Z" fill="#AE174C"/>
<path d="M47.7064 13.2597C47.6975 13.1876 47.6886 13.1245 47.6707 13.0524L47.153 12.5295L46.6264 13.0614H46.2516V12.6828L46.7782 12.1509L46.2516 11.6191V11.2405H46.6264L47.153 11.7724L47.4119 11.511C47.3762 11.3487 47.3494 11.1955 47.3137 11.0332H27.8295C27.7759 11.2766 27.7313 11.52 27.6867 11.7633L28.2133 11.2315H28.5881V11.6101L28.0615 12.1419L28.5881 12.6738V13.0524H28.2133L27.6867 12.5205L27.526 12.6828C27.4992 12.8721 27.4635 13.0614 27.4368 13.2507H47.7064V13.2597ZM44.0916 12.6738L44.6182 12.1419L44.0916 11.6101V11.2315H44.4665L44.9931 11.7633L45.5197 11.2315H45.8945V11.6101L45.368 12.1419L45.8945 12.6738V13.0524H45.5197L44.9931 12.5205L44.4665 13.0524H44.0916V12.6738ZM41.9227 12.6738L42.4493 12.1419L41.9227 11.6101V11.2315H42.2976L42.8242 11.7633L43.3508 11.2315H43.7257V11.6101L43.1991 12.1419L43.7257 12.6738V13.0524H43.3508L42.8242 12.5205L42.2976 13.0524H41.9227V12.6738ZM39.7628 12.6738L40.2894 12.1419L39.7628 11.6101V11.2315H40.1377L40.6643 11.7633L41.1909 11.2315H41.5657V11.6101L41.0391 12.1419L41.5657 12.6738V13.0524H41.1909L40.6643 12.5205L40.1377 13.0524H39.7628V12.6738ZM37.6028 12.6738L38.1294 12.1419L37.6028 11.6101V11.2315H37.9777L38.5043 11.7633L39.0309 11.2315H39.4058V11.6101L38.8792 12.1419L39.4058 12.6738V13.0524H39.0309L38.5043 12.5205L37.9777 13.0524H37.6028V12.6738ZM35.4339 12.6738L35.9606 12.1419L35.4339 11.6101V11.2315H35.8088L36.3354 11.7633L36.862 11.2315H37.2369V11.6101L36.7103 12.1419L37.2369 12.6738V13.0524H36.862L36.3354 12.5205L35.8088 13.0524H35.4339V12.6738ZM33.274 12.6738L33.8006 12.1419L33.274 11.6101V11.2315H33.6489L34.1755 11.7633L34.7021 11.2315H35.0769V11.6101L34.5503 12.1419L35.0769 12.6738V13.0524H34.7021L34.1755 12.5205L33.6489 13.0524H33.274V12.6738ZM31.1051 12.6738L31.6317 12.1419L31.1051 11.6101V11.2315H31.48L32.0066 11.7633L32.5332 11.2315H32.9081V11.6101L32.3815 12.1419L32.9081 12.6738V13.0524H32.5332L32.0066 12.5205L31.48 13.0524H31.1051V12.6738ZM28.9452 12.6738L29.4718 12.1419L28.9452 11.6101V11.2315H29.32L29.8466 11.7633L30.3732 11.2315H30.7481V11.6101L30.2215 12.1419L30.7481 12.6738V13.0524H30.3732L29.8466 12.5205L29.32 13.0524H28.9452V12.6738Z" fill="#D51C20"/>
<path d="M46.8406 9.25732H28.3025C28.231 9.48268 28.1686 9.71704 28.0972 9.95141H47.0369C46.9744 9.71704 46.903 9.48268 46.8316 9.25732H46.8406Z" fill="#009DDB"/>
<path d="M47.1263 10.231H28.0259C27.9991 10.3391 27.9723 10.4563 27.9456 10.5735H47.2156C47.1888 10.4563 47.162 10.3481 47.1352 10.231H47.1263Z" fill="#009DDB"/>
<path d="M47.7421 13.5303H27.4011C27.3743 13.7286 27.3565 13.9269 27.3386 14.1252H47.8135C47.7957 13.9269 47.7689 13.7286 47.7511 13.5303H47.7421Z" fill="#FAB601"/>
<path d="M27.2225 15.874C27.2225 16.0904 27.2225 16.2977 27.2136 16.514H47.9295C47.9295 16.2977 47.9295 16.0904 47.9206 15.874H27.2225Z" fill="#7D2278"/>
<path d="M35.059 29.7016C33.8362 28.1241 32.1315 27.6464 30.0697 29.5574C28.0079 31.4684 25.9372 33.3793 21.4834 33.6678C15.7979 34.0374 13.1471 32.2616 12.8972 32.541C12.6473 32.8205 15.5213 37.634 23.688 37.634C30.0161 37.634 32.7741 35.9123 34.3093 34.7946C35.3625 34.0193 36.5942 31.6667 35.059 29.7016ZM33.0062 35.047C31.3014 36.0475 28.5345 37.1743 23.5809 37.1743C20.1179 37.1743 17.6187 36.2278 15.8961 35.2092C16.2174 35.3805 18.904 36.7686 23.5541 36.7686C29.5252 36.7686 32.3992 35.3805 33.0062 35.047C33.0508 35.0199 33.0954 35.0019 33.1311 34.9748C33.1311 34.9748 33.0865 35.0019 33.0062 35.047ZM32.3725 29.5934C31.2389 29.7827 30.0161 31.3241 28.7934 31.7298C29.6324 31.3782 31.0783 29.0706 32.6402 29.0706C34.2022 29.0706 34.5503 30.2515 34.5503 30.2515C34.5503 30.2515 33.9076 29.341 32.3725 29.5934Z" fill="#D51C20"/>
<path d="M62.2548 32.5498C62.0049 32.2704 59.354 34.0462 53.6685 33.6766C49.2147 33.3881 47.144 31.4772 45.0823 29.5662C43.0205 27.6552 41.3157 28.1329 40.093 29.7104C38.5578 31.6845 39.7895 34.0281 40.8427 34.8033C42.3779 35.9301 45.1358 37.6428 51.4639 37.6428C59.6307 37.6428 62.5047 32.8293 62.2548 32.5498ZM40.5928 30.2512C40.5928 30.2512 40.9409 29.0704 42.5028 29.0704C44.0648 29.0704 45.5018 31.378 46.3497 31.7295C45.1269 31.3239 43.9041 29.7825 42.7706 29.5932C41.2265 29.3408 40.5928 30.2512 40.5928 30.2512ZM51.5532 37.1741C46.6085 37.1741 43.8327 36.0473 42.128 35.0467C42.0476 35.0017 42.003 34.9746 42.003 34.9746C42.0387 35.0017 42.0833 35.0197 42.128 35.0467C42.7349 35.3803 45.6089 36.7684 51.58 36.7684C56.5336 36.7684 59.2648 35.191 59.2648 35.191C57.5422 36.2186 55.0252 37.1741 51.5443 37.1741H51.5532Z" fill="#D51C20"/>
<path d="M39.8073 30.1161C39.8073 30.1161 39.8073 30.1071 39.8162 30.0981C39.8965 29.9629 39.9858 29.8276 40.084 29.6924C40.084 29.6834 40.1018 29.6744 40.1107 29.6654C40.3874 29.1967 40.5481 28.6558 40.5481 27.9978C40.5481 26.3392 39.2182 24.9961 37.5759 24.9961C35.9336 24.9961 34.6038 26.3392 34.6038 27.9978C34.6038 28.6468 34.7644 29.1876 35.0411 29.6654C35.0411 29.6744 35.059 29.6834 35.0679 29.6924C35.175 29.8276 35.2553 29.9629 35.3356 30.0981C35.3356 30.0981 35.3356 30.1071 35.3446 30.1161C36.0318 31.2969 35.8355 32.5589 35.3446 33.5144C35.9604 32.9014 36.7726 32.4057 37.5849 31.9009C38.3971 32.4057 39.2093 32.9014 39.8251 33.5144C39.3342 32.5589 39.1379 31.2969 39.8251 30.1071L39.8073 30.1161ZM37.5759 30.4496C36.5584 30.1161 35.8176 29.1516 35.8176 28.0068C35.8176 27.0243 36.6031 26.231 37.5759 26.231C38.5488 26.231 39.3342 27.0243 39.3342 28.0068C39.3342 29.1516 38.5934 30.1161 37.5759 30.4496Z" fill="#87B925"/>
</g>
<defs>
<clipPath id="clip0_337_4261">
<rect width="76" height="64" fill="white"/>
</clipPath>
</defs>
</svg>
