<svg width="69" height="64" viewBox="0 0 69 64" fill="none" xmlns="http://www.w3.org/2000/svg">
<g clip-path="url(#clip0_337_4219)">
<path d="M20.8634 12.4034L21.2763 12.2772L44.7162 5.30029L50.8029 6.24677L53.7564 8.85184L65.2654 7.27438L68.0304 7.031V46.684H0V28.2411L20.8634 12.4034Z" fill="white"/>
<g style="mix-blend-mode:darken">
<path d="M2.07722e-05 46.8913H19.9657C20.7198 46.5127 21.3392 46.1972 21.3392 46.1972C22.3357 45.6924 23.5028 45.1155 24.58 44.6738C26.9321 43.7183 28.7545 43.3127 30.164 43.4208C30.8462 43.4749 31.2323 43.5921 31.4926 43.7003C32.2826 44.773 33.0636 45.8366 33.8357 46.8913H46.4579C47.8045 46.4045 49.2319 45.8186 50.767 45.1155C52.7869 44.1961 54.4477 43.2586 55.8482 42.4654L56.1893 42.267C57.8142 41.3296 59.1698 40.5904 60.6331 40.2118C61.8271 39.8963 62.8595 39.8332 63.7842 40.0135C64.3587 40.1217 65.427 40.4101 66.235 41.0682C66.6928 42.222 67.1417 43.3577 67.5726 44.4575C66.8814 44.0699 66.1273 43.8716 65.5527 43.7634C64.6011 43.5921 63.5418 43.6732 62.3209 44.0068C60.7678 44.4304 59.2596 45.2777 57.922 46.0259L57.5898 46.2152C57.1948 46.4316 56.7908 46.6569 56.3689 46.8913H69C68.7038 46.1341 68.3985 45.3589 68.0843 44.5656C68.4075 44.6648 68.7127 44.7459 69 44.818V40.5454C68.2369 40.5003 67.42 40.347 66.2978 40.0406C65.84 38.8777 65.3732 37.7059 64.9063 36.5161C65.9747 36.7504 66.7736 36.8586 67.5277 36.8766C68.0305 36.8856 68.632 36.8225 69 36.7594V31.7566C68.5332 31.9279 68.0574 32.0631 67.5996 32.1623C67.2584 32.2344 66.6031 32.3335 66.0555 32.3425C65.2295 32.3606 64.3497 32.2614 63.1288 32.018C62.662 30.8282 62.1952 29.6473 61.7373 28.4845C62.8864 28.6648 63.7662 28.7189 64.6011 28.6738C65.2475 28.6377 65.8939 28.5116 66.2709 28.4214C67.1776 28.2051 68.1023 27.8535 69.009 27.4208V21.9403C67.6534 22.7425 66.1811 23.4546 64.7448 23.8332C64.3677 23.9324 63.7572 24.0676 63.1019 24.1307C62.1862 24.2208 61.2436 24.1758 59.9688 23.9955C59.484 22.7696 59.0172 21.5887 58.5683 20.4439C59.7892 20.5701 60.7319 20.5792 61.6745 20.453C62.276 20.3718 63.0301 20.2006 63.4251 20.0834C65.3552 19.5245 67.3123 18.4338 69 17.307V11.502C67.0519 12.9893 64.4485 14.702 61.872 15.5042C61.468 15.6304 60.7678 15.8107 60.1304 15.9189C59.098 16.0811 58.1284 16.0992 56.7998 15.973C56.2791 14.6569 55.8033 13.458 55.3993 12.4124C56.6831 12.4935 57.6796 12.4485 58.7389 12.2411C59.5199 12.0879 60.1394 11.9076 60.5793 11.7544C63.7034 10.6997 67.402 8.07662 68.8295 6.81465C68.8923 6.76056 68.9462 6.71549 69 6.66141V0C68.6948 0.306479 63.0031 5.85916 57.8232 7.13916C56.2073 7.53578 55.0043 7.60789 53.5769 7.38253C53.559 7.33746 53.541 7.29239 53.541 7.29239C52.5804 4.84958 51.3954 3.2 49.9142 2.24451C48.4419 1.29803 46.6464 1.01859 44.411 1.39718C41.9243 1.82085 40.075 3.0738 37.7408 4.65127C36.0441 5.79606 34.114 7.1031 31.5195 8.35606C30.3525 8.92394 26.4114 10.7358 21.5726 12.0068L21.6534 12.3313C22.0574 13.8456 22.4434 15.4141 22.8295 17.0096C26.4114 16.1713 30.1999 14.8192 33.8716 13.0524C36.5289 11.7724 38.5398 10.4293 40.1468 9.34761L40.5687 9.06817C42.5886 7.72507 44.1686 6.74254 46.1437 6.39099C47.58 6.13859 48.9446 6.18366 50.1924 6.53521C51.3864 6.86873 52.4458 7.48169 53.2807 8.30197C53.55 8.98704 53.9899 10.1048 54.5554 11.538C53.6487 10.862 52.7061 10.4924 51.9969 10.3031C50.7311 9.96056 49.3486 9.92451 47.8673 10.1949C45.8743 10.5645 44.2943 11.529 42.2744 12.8631L41.8615 13.1335C40.3084 14.1611 38.3782 15.4321 35.7838 16.6761C31.7619 18.5961 27.6682 20.0023 23.9426 20.7414C23.8708 20.7594 23.79 20.7685 23.7092 20.7865C23.7092 20.7775 23.7092 20.7685 23.7092 20.7504C23.8798 21.4806 24.0504 22.2107 24.2209 22.9318C24.4095 23.7431 24.598 24.5454 24.7775 25.3296C25.3341 25.2485 25.8997 25.1583 26.4563 25.0501C30.0832 24.338 34.105 22.9589 38.082 21.0659C40.6316 19.858 42.5348 18.6231 44.0609 17.6225L44.4649 17.3611C46.395 16.1082 47.9032 15.1977 49.7526 14.8372C51.1351 14.5668 52.4188 14.5848 53.5769 14.8913C54.3939 15.1076 55.534 15.5583 56.5125 16.4777C56.9165 17.5144 57.3564 18.6051 57.8053 19.7499C56.8985 19.1099 55.9469 18.7944 55.3814 18.6501C54.2053 18.3527 52.8946 18.3437 51.4762 18.6321C49.6179 19.0107 48.0469 19.9482 46.1796 21.138L45.7846 21.3904C44.3931 22.2828 42.4809 23.5087 40.0031 24.6716C36.0262 26.5465 32.2557 27.8355 28.8084 28.5025C27.7401 28.7099 26.6807 28.8451 25.6304 28.9172C25.9087 30.0349 26.169 31.0806 26.4294 32.0451C26.5461 32.4687 26.6538 32.8654 26.7526 33.2349C28.2248 33.2349 29.7869 33.0997 31.3131 32.8113C34.6347 32.1893 38.3244 30.9273 42.2924 29.0704C44.6804 27.9527 46.5028 26.8079 47.975 25.8885L48.3611 25.6541C50.1386 24.5363 51.6378 23.653 53.3704 23.2834C54.6901 23.0039 55.9021 22.9949 56.9704 23.2563C57.6167 23.4186 58.7928 23.8062 59.7444 24.6625C60.1753 25.7442 60.6152 26.853 61.0551 27.9797C60.2112 27.4208 59.3134 27.1414 58.7658 27.0152C57.6706 26.7538 56.4317 26.7808 55.0851 27.0873C53.3525 27.4749 51.8622 28.3403 50.0847 29.431L49.7166 29.6563C48.379 30.4766 46.5387 31.6034 44.2315 32.6851C40.3533 34.4879 36.8072 35.6958 33.6831 36.2727C31.6632 36.6423 29.5984 36.7324 27.776 36.5431C28.2518 37.9583 28.6288 38.8237 28.952 39.4456C28.952 39.4456 28.6378 39.2924 28.162 39.1932C27.9106 39.1392 27.6772 39.0941 27.354 39.067C25.8997 38.9138 24.0683 39.2744 21.7611 40.1758C20.6928 40.5994 19.5168 41.1944 18.6011 41.6541C18.6011 41.6541 15.8271 43.0873 15.064 43.4569C13.3942 44.2772 12.1733 44.8 11.096 45.1516C10.1085 45.467 9.15693 45.7194 8.24124 45.7194C7.54998 45.7194 6.93952 45.5752 6.50861 45.422L5.3236 43.0423C5.3236 43.0423 5.09916 42.862 4.6862 42.7268C4.44381 42.6456 4.35404 42.6276 4.20143 42.5916C3.23187 42.3662 2.05584 42.3752 0.619459 42.6096C0.404002 42.6456 0.188545 42.6817 -0.0358887 42.7358V46.8823L2.07722e-05 46.8913ZM36.2147 40.5994C39.258 40.0496 42.6335 38.9048 46.5476 37.102C48.8458 36.0383 50.6952 34.9206 51.9251 34.1904L52.2842 33.9741C53.9809 32.9465 55.4083 32.1352 57.0063 31.7566C58.2541 31.4592 59.3942 31.4231 60.3818 31.6394C60.9832 31.7746 62.1144 32.1082 62.9942 32.8744C63.4341 33.9921 63.8829 35.1189 64.3228 36.2276C63.5328 35.7408 62.671 35.5065 62.1682 35.3983C61.1448 35.182 60.0137 35.2361 58.712 35.5606C57.123 35.9572 55.7045 36.7504 54.0168 37.742L53.6667 37.9493C52.5625 38.5983 50.7042 39.689 48.4778 40.7166C44.6624 42.4654 41.4216 43.5651 38.5757 44.0608C36.475 44.4304 34.0422 44.4575 32.2287 43.9797C31.4298 42.889 30.6308 41.7983 29.8228 40.7076C31.6991 41.0321 34.0242 40.9961 36.2147 40.5994Z" fill="#950001"/>
<path d="M26.0433 32.1712C25.3521 29.6022 24.6069 26.4112 23.8169 23.0309C23.0269 19.6506 22.0125 15.396 21.1596 12.1329C21.1596 12.1329 21.1596 12.1329 21.1596 12.1149C17.5687 13.0163 13.5289 13.6022 9.77635 13.1425C9.69555 13.0343 8.33099 11.1774 8.33099 11.1774C6.49063 8.65345 4.74902 6.27373 1.04137 7.09401C0.727166 7.16612 0.377049 7.29232 0 7.45457V38.463C0.906713 38.3999 1.67877 38.463 2.35207 38.6433C2.50468 38.6794 2.91764 38.7965 3.31265 38.9678L4.53357 41.4287C4.92857 41.5278 5.34153 41.654 6.19438 41.627C7.05621 41.5999 7.98985 41.3205 8.9235 41.005C10.2252 40.5543 11.6347 39.8692 12.7209 39.3194L16.1144 37.5526C17.066 37.0568 18.1792 36.507 19.1577 36.1284C21.3123 35.3171 23.1347 35.0106 24.5621 35.1909C25.792 35.3442 26.9051 36.0112 27.8837 38.0934C27.3989 36.8675 26.8064 35.0557 26.0343 32.1892L26.0433 32.1712Z" fill="#03233C"/>
<path d="M20.8365 23.193C20.3607 22.9586 19.858 22.7153 19.3732 22.4629C19.05 22.7243 18.7448 22.9857 18.4306 23.2381C18.4485 22.8234 18.4665 22.4088 18.4844 21.9941C17.9907 21.7417 17.4969 21.4894 17.0032 21.2189C17.5059 21.237 18.0086 21.246 18.5114 21.237C18.5203 20.8403 18.5383 20.4347 18.5473 20.0381C18.8346 20.4347 19.1308 20.8223 19.4181 21.2099C19.9118 21.1919 20.3966 21.1558 20.8814 21.1198C20.5762 21.4082 20.262 21.6877 19.9477 21.9671C20.244 22.3817 20.5403 22.7964 20.8365 23.202V23.193Z" fill="white"/>
<path d="M18.1791 28.7728C17.7482 28.5565 17.2634 28.2951 16.8325 28.1058C16.5003 28.4212 16.1502 28.7908 15.818 29.2055C15.8809 28.7007 15.9348 28.241 15.9976 27.7632C15.5487 27.5559 15.1088 27.3576 14.6689 27.1863C15.1717 27.0601 15.6295 26.997 16.1053 26.9429C16.1592 26.5193 16.249 26.1046 16.3028 25.708C16.5362 26.1046 16.7696 26.5012 17.0031 26.8889C17.434 26.8889 17.8739 26.9159 18.3138 26.961C18.3227 26.979 18.3407 26.988 18.3497 27.006C18.0444 27.1863 17.7302 27.3846 17.434 27.61C17.6764 27.9886 17.9636 28.4122 18.197 28.7818L18.1791 28.7728Z" fill="white"/>
<path d="M16.6171 15.6487C16.6351 15.234 16.6441 14.8104 16.662 14.3867C16.9493 14.7743 17.2366 15.1619 17.5239 15.5495C18.0086 15.4864 18.4934 15.4143 18.9782 15.3332C18.673 15.6667 18.3587 15.9912 18.0535 16.3067C18.3498 16.7214 18.637 17.127 18.9333 17.5416C18.4485 17.3163 17.9727 17.1 17.4879 16.8656C17.1648 17.1721 16.8326 17.4695 16.5094 17.749C16.5363 17.3163 16.5633 16.8746 16.5812 16.4419C16.0965 16.2166 15.6027 15.9912 15.1179 15.7569C15.6207 15.7298 16.1234 15.6938 16.6171 15.6487Z" fill="white"/>
<path d="M13.7622 17.3882C14.0674 17.7848 14.3727 18.1724 14.6779 18.569C15.1447 18.5871 15.6026 18.5871 16.0604 18.569C15.7911 18.8395 15.5128 19.0918 15.2345 19.3352C15.5487 19.7499 15.8539 20.1735 16.1681 20.5882C16.0245 20.5071 15.8719 20.4259 15.7282 20.3358C15.046 19.4073 14.3906 18.5149 13.7712 17.6766C13.7712 17.5865 13.7712 17.4873 13.7622 17.3972V17.3882Z" fill="white"/>
<path d="M14.1484 21.2913C14.4716 21.724 14.7948 22.1747 15.1269 22.6254C14.9294 22.7155 14.7319 22.8327 14.5434 22.9679C14.5883 22.6163 14.6152 22.3009 14.6242 21.9673C14.2112 21.6789 13.7983 21.4085 13.3943 21.1831C13.6457 21.2011 13.897 21.2372 14.1394 21.2823L14.1484 21.2913Z" fill="white"/>
<path d="M13.9778 24.212C13.6366 24.5365 13.3583 24.8429 13.0172 25.1945C13.2596 25.6001 13.4481 25.9607 13.6905 26.3753C13.2416 26.159 12.8466 26.0328 12.4067 25.8796C12.0656 26.2852 11.7155 26.79 11.4013 27.2497C11.4551 26.7359 11.5359 26.15 11.5988 25.6362C11.1589 25.501 10.7369 25.4018 10.324 25.3477C10.7728 25.0863 11.2486 24.897 11.7244 24.7167C11.7873 24.239 11.8501 23.7703 11.913 23.3105C12.1464 23.6891 12.3708 24.0677 12.6042 24.4463C13.08 24.3382 13.502 24.257 13.9778 24.212Z" fill="white"/>
<path d="M10.6741 31.504C10.2612 31.4049 9.8482 31.3057 9.42627 31.2066C9.12104 31.7023 8.80683 32.1981 8.5016 32.6939C8.55546 32.135 8.60933 31.5851 8.66319 31.0263C8.25023 30.9271 7.83728 30.828 7.42432 30.7288C7.86421 30.4944 8.3041 30.2601 8.74399 30.0167C8.78887 29.4939 8.83376 28.9711 8.86967 28.4482C9.09411 28.8268 9.31854 29.1964 9.54297 29.575C9.97389 29.3316 10.4138 29.0973 10.8447 28.8449C10.5484 29.3316 10.2522 29.8274 9.95593 30.3051C10.1893 30.7018 10.4228 31.0894 10.6651 31.486L10.6741 31.504Z" fill="white"/>
<path d="M6.56257 29.9358C6.17654 29.8187 5.68279 29.7105 5.27881 29.6023C4.9646 30.0891 4.65937 30.5578 4.35414 31.0265C4.408 30.4857 4.45289 29.9449 4.50675 29.395C4.07584 29.2778 3.68084 29.1787 3.27686 29.0705C3.70777 28.8542 4.15664 28.6378 4.58755 28.4125C4.63244 27.8987 4.67732 27.3758 4.72221 26.853C4.94664 27.2316 5.18006 27.6012 5.40449 27.9798C5.84438 27.7454 6.26632 27.5111 6.70621 27.2587C6.40995 27.7544 6.12268 28.2322 5.82643 28.7189C6.06881 29.1156 6.30223 29.5302 6.56257 29.9358Z" fill="white"/>
<path d="M5.08116 22.6342C4.70411 22.5351 4.21933 22.4269 3.83331 22.3278C3.52808 22.8416 3.22285 23.3373 2.93557 23.8331C2.98046 23.2652 3.03432 22.6973 3.07921 22.1385C2.66625 22.0393 2.27125 21.9582 1.84033 21.868C2.26227 21.6337 2.73807 21.3542 3.16 21.1109C3.20489 20.579 3.24978 20.0382 3.29466 19.5063C3.5191 19.894 3.73456 20.2725 3.95899 20.6602C4.3899 20.4168 4.82082 20.1644 5.25173 19.912C4.95548 20.4168 4.65922 20.9125 4.37195 21.4173C4.60536 21.823 4.83877 22.2376 5.09014 22.6342H5.08116Z" fill="white"/>
<path d="M5.979 23.5447C6.40992 23.3103 6.86776 23.0579 7.30765 22.8236C7.35254 22.3007 7.4064 21.7599 7.46027 21.2461C7.6847 21.6337 7.90914 22.0123 8.13357 22.3909C8.55551 22.1745 9.01335 21.9582 9.46222 21.796C9.15699 22.2196 8.84278 22.6613 8.53755 23.13C8.77096 23.5176 9.01335 23.9233 9.24676 24.3109C8.83381 24.2117 8.40289 24.1036 7.98993 24.0044C7.67573 24.5092 7.36152 25.023 7.05629 25.5548C7.11015 24.9779 7.16402 24.41 7.22686 23.8331C6.8139 23.734 6.40094 23.6438 5.98798 23.5537L5.979 23.5447Z" fill="white"/>
<path d="M10.4137 18.3077C10.4765 17.9291 10.5393 17.5505 10.5932 17.1899C10.8446 17.5775 11.0959 17.9652 11.3383 18.3437C11.6166 18.3708 11.8321 18.4068 12.0475 18.4429C12.1194 18.5421 12.2002 18.6502 12.272 18.7494C12.0924 18.8575 11.9129 18.9657 11.7782 19.0559C12.0206 19.4435 12.2271 19.786 12.4515 20.1646C12.0027 19.9122 11.5807 19.6959 11.1229 19.4705C10.7548 19.7319 10.3777 20.0925 10.0366 20.426C10.1084 19.9843 10.1982 19.4795 10.279 19.0559C9.81218 18.8125 9.34535 18.5961 8.89648 18.4068C9.36331 18.3347 9.90195 18.3077 10.4047 18.3077H10.4137Z" fill="white"/>
<path d="M7.89122 17.3789C7.46929 17.1806 7.0294 16.9913 6.60746 16.8381C6.2753 17.2347 5.96109 17.6854 5.65586 18.1722C5.70075 17.6313 5.75461 17.0995 5.80848 16.5767C5.38654 16.4415 4.9646 16.3423 4.53369 16.2792C4.98256 16.0358 5.4045 15.8285 5.90723 15.6753C5.96109 15.2065 6.02393 14.7378 6.08677 14.2871C6.32019 14.6747 6.56257 15.0623 6.78701 15.4499C7.23588 15.3598 7.71168 15.3418 8.19645 15.3778C7.9002 15.5761 7.49622 15.8736 7.19997 16.1891C7.43338 16.5857 7.66679 16.9913 7.89122 17.388V17.3789Z" fill="white"/>
<path d="M4.60553 9.67219C4.64144 9.44684 4.67734 9.2305 4.70428 9.01416C4.91973 9.17641 5.13519 9.3567 5.34167 9.56402C5.39553 9.64515 5.4494 9.73529 5.50326 9.81641C5.53917 9.81641 5.57508 9.83444 5.60201 9.83444C5.77258 10.0147 5.94315 10.213 6.11372 10.4204C6.05088 10.4564 5.98804 10.4925 5.93418 10.5285C6.19452 10.8891 6.42793 11.2587 6.64339 11.6373C6.15861 11.3128 5.77258 11.0694 5.30576 10.835C4.94667 11.0333 4.64144 11.3488 4.3362 11.6282C4.38109 11.2136 4.45291 10.7449 4.50677 10.3482C4.09382 10.0958 3.67188 9.8705 3.24097 9.67219C3.68086 9.62712 4.10279 9.60909 4.59655 9.67219H4.60553Z" fill="white"/>
<path d="M1.76846 13.8908C1.81335 13.377 1.86721 12.8722 1.92107 12.3584C2.14551 12.719 2.36994 13.0885 2.59438 13.4581C3.02529 13.2508 3.36643 13.0705 3.932 12.8902C3.54598 13.3319 3.29461 13.7376 3.01631 14.1883C3.2587 14.5849 3.49211 14.9815 3.7345 15.3781C3.29461 15.2429 2.8637 15.1257 2.45074 15.0356C2.12755 15.5314 1.82232 16.0722 1.54402 16.6221C1.58891 16.0542 1.64278 15.4592 1.69664 14.9004C1.30164 14.8463 0.798903 14.7561 0.457764 14.684C0.888677 14.4316 1.34652 14.1522 1.77744 13.8908H1.76846Z" fill="white"/>
<path d="M0 18.7762V20.5429C0.332162 20.606 0.691257 20.6601 0.98751 20.7232C0.736144 20.3536 0.493755 19.957 0.260343 19.5784C0.565574 19.0826 0.852849 18.5778 1.11319 18.1001C0.727166 18.3435 0.386027 18.5508 0.00897736 18.7762H0Z" fill="white"/>
<path d="M2.00204 34.7222C1.93022 34.587 1.86738 34.4518 1.79556 34.3076C1.83147 34.1092 1.8584 33.9019 1.87636 33.7126C1.6609 33.5954 1.49931 33.5053 1.34669 33.4061C1.2659 33.2439 1.19408 33.0906 1.11328 32.9284C1.40056 32.9284 1.69681 32.8923 1.94818 32.8473C1.99306 32.4146 2.02897 31.9729 2.07386 31.5132C2.30727 31.8918 2.54068 32.2794 2.77409 32.667C3.21398 32.5408 3.6449 32.3876 4.06683 32.1802C3.78854 32.6399 3.50126 33.0636 3.21398 33.4422C3.46535 33.8749 3.72569 34.2895 4.01297 34.7402C3.55512 34.5239 3.09728 34.3166 2.66636 34.0732C2.45091 34.2895 2.22647 34.5059 2.01102 34.7042L2.00204 34.7222Z" fill="white"/>
<path d="M5.31455 40.8789C5.18887 40.7797 5.05421 40.6806 4.91955 40.5814C4.47068 39.671 4.01283 38.7696 3.56396 37.8592C3.56396 37.8321 3.56396 37.7961 3.56396 37.769C3.79738 38.1386 4.02181 38.5172 4.23727 38.8868C4.64125 38.9048 5.07216 38.8507 5.44921 38.7606C5.18887 39.0851 4.88364 39.3916 4.62329 39.6259C4.83875 40.0406 5.04523 40.4102 5.2966 40.8789H5.31455Z" fill="white"/>
<path d="M7.28973 35.7678C7.53212 36.1734 7.77451 36.579 8.0169 36.9937C7.58599 36.8495 7.15507 36.7052 6.72416 36.552C6.40098 36.9757 6.06881 37.3813 5.74563 37.7689C5.80847 37.2731 5.87131 36.7773 5.93415 36.2816C5.50324 36.1373 5.0813 35.9841 4.65039 35.8219C5.11721 35.6866 5.57506 35.5334 6.0329 35.3621C6.07779 34.8844 6.13166 34.3886 6.17654 33.9019C6.40995 34.2714 6.63439 34.65 6.8678 35.0286C7.31667 34.8303 7.76554 34.623 8.20543 34.3886C7.90917 34.8664 7.60394 35.3261 7.29871 35.7768L7.28973 35.7678Z" fill="white"/>
<path d="M11.4552 37.3903C11.6976 37.7869 11.9579 38.2016 12.2093 38.6072C11.7784 38.4991 11.3295 38.3729 10.8986 38.2647C10.5754 38.7515 10.2522 39.2292 9.92905 39.6979C9.98292 39.1571 10.0458 38.6072 10.0996 38.0664C9.66871 37.9582 9.2378 37.841 8.80688 37.7238C9.26473 37.5165 9.73155 37.2912 10.1894 37.0748C10.2343 36.561 10.2792 36.0472 10.3241 35.5244C10.5575 35.903 10.7909 36.2816 11.0243 36.6512C11.4732 36.4168 11.922 36.1824 12.3799 35.9391C12.0746 36.4258 11.7694 36.9126 11.4552 37.3993V37.3903Z" fill="white"/>
<path d="M14.3728 32.0812C14.6062 32.4778 14.8486 32.8835 15.082 33.2891C14.6601 33.1629 14.2471 33.0367 13.8252 32.9195C13.511 33.3973 13.2058 33.875 12.8915 34.3708C12.9454 33.8209 12.9993 33.2711 13.0531 32.7212C12.6402 32.6221 12.2272 32.5229 11.8232 32.4328C12.2631 32.1894 12.703 31.955 13.1429 31.7297C13.1878 31.2159 13.2327 30.7111 13.2776 30.1973C13.502 30.5759 13.7264 30.9544 13.9509 31.333C14.3908 31.1257 14.8307 30.9274 15.2705 30.7381C14.9653 31.1798 14.6691 31.6215 14.3638 32.0812H14.3728Z" fill="white"/>
<path d="M19.4628 35.1367C19.0229 34.9654 18.6279 34.8482 18.188 34.704C17.8559 35.1367 17.5237 35.5874 17.1916 36.0561C17.2544 35.5153 17.3083 34.9744 17.3711 34.4426C16.9402 34.3074 16.5003 34.1722 16.0784 34.055C16.5362 33.8386 17.003 33.6494 17.4788 33.4781C17.5327 32.9823 17.5866 32.4955 17.6404 32.0088C17.8738 32.4054 18.1073 32.793 18.3496 33.1896C18.8165 33.0454 19.3282 32.9192 19.804 32.8201C19.4718 33.1806 19.1127 33.5592 18.7806 33.9558C19.0229 34.3615 19.2294 34.731 19.4718 35.1367H19.4628Z" fill="white"/>
<path d="M21.1956 31.0266C20.9263 31.2159 20.639 31.4683 20.3787 31.7748C20.3966 31.3511 20.4056 30.9545 20.4236 30.5579C20.0106 30.2875 19.5707 30.0351 19.1667 29.8278C19.5797 29.8187 20.0106 29.8278 20.4326 29.8818C20.4326 29.8728 20.4326 29.8548 20.4326 29.8458C20.7557 30.2785 21.0699 30.7201 21.4021 31.1618C21.3303 31.1168 21.2675 31.0717 21.2046 31.0266H21.1956Z" fill="white"/>
<path d="M22.7936 28.9354C22.3537 28.6739 21.9049 28.3945 21.456 28.1241C21.1328 27.6914 20.8186 27.2587 20.5044 26.8261C20.5044 26.4655 20.5044 26.1049 20.5134 25.7354C20.8006 26.123 21.0879 26.5106 21.3752 26.8982C21.842 26.9162 22.3088 26.9162 22.7667 26.8982C22.4794 27.1686 22.1921 27.421 21.9049 27.6554C22.2011 28.079 22.4974 28.5027 22.7936 28.9263V28.9354Z" fill="white"/>
<path d="M1.32865 26.0234C1.09524 25.6358 0.861827 25.2482 0.628415 24.8696C0.583528 25.3744 0.538642 25.8792 0.493755 26.384C0.332162 26.4471 0.17057 26.5102 0 26.5733V27.2133C0.125683 27.2584 0.260343 27.3034 0.386027 27.3485C0.314208 27.8713 0.242389 28.3941 0.17057 28.9079C0.520687 28.4933 0.870804 28.0606 1.20297 27.6099C1.65183 27.7541 2.1007 27.8984 2.54957 28.0336C2.28923 27.6189 2.02888 27.2043 1.76854 26.7896C2.06479 26.3299 2.36105 25.8522 2.63934 25.3654C2.20843 25.5998 1.76854 25.8251 1.32865 26.0324V26.0234Z" fill="white"/>
</g>
<path d="M65.8131 61.5213H63.0032L62.5005 64.0002H59.8252L63.066 49.1089H65.7413L68.9911 64.0002H66.3069L65.8041 61.5213H65.8131ZM65.3014 58.9973L64.4126 54.5985L63.5149 58.9973H65.3014Z" fill="#03233C"/>
<path d="M38.9437 62.8193C38.1896 62.0621 37.8215 61.1517 37.8215 60.0971V49.1089H40.3801V60.0971C40.3801 60.4486 40.5058 60.7551 40.7482 61.0075C40.9995 61.2599 41.2958 61.3861 41.6549 61.3861C42.014 61.3861 42.3102 61.2599 42.5616 61.0075C42.8129 60.7551 42.9386 60.4576 42.9386 60.0971V49.1089H45.4972V60.0971C45.4972 61.1607 45.1201 62.0621 44.366 62.8193C43.6209 63.5765 42.7142 63.9461 41.6549 63.9461C40.5955 63.9461 39.6888 63.5675 38.9437 62.8193Z" fill="#03233C"/>
<path d="M50.5066 62.8461C49.7704 62.1069 49.4023 61.2145 49.4023 60.1689V58.6996H51.916V60.1689C51.916 60.5205 52.0417 60.8179 52.2841 61.0613C52.5265 61.3047 52.8227 61.4309 53.1728 61.4309C53.523 61.4309 53.8102 61.3047 54.0616 61.0613C54.304 60.8179 54.4297 60.5205 54.4297 60.1689C54.4297 59.6641 54.2591 59.2585 53.9269 58.952L50.713 55.9503C49.8422 55.1481 49.4023 54.1205 49.4023 52.8855C49.4023 51.8489 49.7704 50.9565 50.5066 50.2083C51.2427 49.4692 52.1315 49.0996 53.1728 49.0996C54.2142 49.0996 55.094 49.4692 55.8301 50.2083C56.5663 50.9475 56.9343 51.8399 56.9343 52.8855V54.3548H54.4207V52.8855C54.4207 52.534 54.295 52.2365 54.0526 51.9931C53.8013 51.7497 53.505 51.6236 53.1639 51.6236C52.8227 51.6236 52.5175 51.7497 52.2751 51.9931C52.0327 52.2365 51.907 52.534 51.907 52.8855C51.907 53.3903 52.0686 53.7959 52.4008 54.1024L55.6147 57.0951C56.4855 57.9064 56.9254 58.925 56.9254 60.1599C56.9254 61.2055 56.5573 62.0889 55.8212 62.8371C55.085 63.5762 54.1963 63.9458 53.1639 63.9458C52.1315 63.9458 51.2427 63.5762 50.4976 62.8371L50.5066 62.8461Z" fill="#03233C"/>
<path d="M4.84778 53.5527H3.2139V61.0253H1.63388V53.5527H0V52.0293H4.84778V53.5527Z" fill="#03233C"/>
<path d="M25.9985 53.5527V55.68H28.153V57.2034H25.9985V59.502H28.6827V61.0253H24.4185V52.0293H28.6827V53.5527H25.9985Z" fill="#03233C"/>
<path d="M31.8159 52.0293V59.502H34.5001V61.0253H30.2358V52.0293H31.8159Z" fill="#03233C"/>
<path d="M9.0582 61.0253L7.96297 58.1138H7.5141V61.0253H5.93408V52.0293H8.30411C8.95945 52.0293 9.51605 52.2637 9.98287 52.7234C10.4497 53.1921 10.6831 53.751 10.6831 54.409V55.7341C10.6831 56.1577 10.5754 56.5544 10.3689 56.9239C10.1624 57.2755 9.88412 57.5639 9.534 57.7803L10.7639 61.0344H9.07616L9.0582 61.0253ZM7.50512 56.5994H8.29513C8.51058 56.5994 8.69911 56.5093 8.85172 56.338C9.00434 56.1668 9.08514 55.9685 9.08514 55.7431V54.418C9.08514 54.1927 9.00434 53.9944 8.85172 53.8231C8.69013 53.6428 8.50161 53.5617 8.29513 53.5617H7.50512V56.5994Z" fill="#03233C"/>
<path d="M15.4948 59.529H13.7981L13.4929 61.0253H11.877L13.834 52.0293H15.4499L17.416 61.0253H15.8001L15.4948 59.529ZM15.1806 58.0056L14.642 55.3465L14.1033 58.0056H15.1806Z" fill="#03233C"/>
<path d="M19.1845 52.0293L20.3336 57.7172L21.4917 52.0293H23.1076L21.1506 61.0253H19.5257L17.5686 52.0293H19.1845Z" fill="#03233C"/>
<path d="M0 49.1089V49.4965V49.8751V50.2627H34.5V49.8751V49.4965V49.1089H0Z" fill="#950001"/>
<path d="M0 62.8013V63.1889V63.5675V63.9461H34.5V63.5675V63.1889V62.8013H0Z" fill="#950001"/>
</g>
<defs>
<clipPath id="clip0_337_4219">
<rect width="69" height="64" fill="white"/>
</clipPath>
</defs>
</svg>
