<svg width="115" height="16" viewBox="0 0 115 16" fill="none" xmlns="http://www.w3.org/2000/svg">
<path d="M18.531 5.37655L20.181 3.6351H16.5235C14.628 2.38357 12.3882 1.71429 10.0953 1.71429C7.80244 1.71429 5.56261 2.38357 3.66708 3.6351H0L1.65 5.37655C1.16153 5.81101 0.766124 6.33461 0.486399 6.91743C0.206675 7.50025 0.0481176 8.13085 0.0197939 8.77317C-0.00852983 9.41548 0.0939362 10.0569 0.321332 10.6608C0.548728 11.2646 0.896592 11.8191 1.34503 12.2924C1.79347 12.7658 2.3337 13.1487 2.9348 13.4194C3.53591 13.69 4.18611 13.843 4.84822 13.8697C5.51033 13.8963 6.17137 13.7961 6.79352 13.5747C7.41568 13.3534 7.98675 13.0152 8.47408 12.5795L10.0907 14.2857L11.7061 12.5806C12.637 13.4195 13.861 13.885 15.1316 13.8833C17.9163 13.8833 20.1758 11.6933 20.1758 8.99171C20.1766 8.31116 20.0308 7.63796 19.7475 7.01537C19.4642 6.39277 19.0499 5.83455 18.531 5.37655ZM5.04736 12.302C4.37249 12.302 3.71278 12.1079 3.15165 11.7442C2.59052 11.3804 2.15317 10.8634 1.89491 10.2585C1.63665 9.65363 1.56908 8.98803 1.70074 8.34589C1.8324 7.70375 2.15738 7.1139 2.63458 6.65094C3.11178 6.18798 3.71978 5.8727 4.38168 5.74497C5.04358 5.61724 5.72965 5.68279 6.35315 5.93335C6.97664 6.1839 7.50955 6.60819 7.88449 7.15258C8.25942 7.69696 8.45955 8.33698 8.45955 8.99171C8.45955 9.42643 8.37129 9.85689 8.19981 10.2585C8.02833 10.6601 7.77699 11.0251 7.46014 11.3325C7.14329 11.6399 6.76713 11.8837 6.35315 12.0501C5.93916 12.2164 5.49546 12.302 5.04736 12.302ZM10.0907 8.8964C10.0907 6.71789 8.45722 4.8487 6.30324 4.04931C7.50321 3.56434 8.79028 3.31465 10.0902 3.31465C11.3902 3.31465 12.6772 3.56434 13.8772 4.04931C11.7235 4.84898 10.0907 6.71817 10.0907 8.8964ZM15.1316 12.302C14.4568 12.302 13.797 12.1079 13.2359 11.7442C12.6748 11.3804 12.2374 10.8634 11.9792 10.2585C11.7209 9.65363 11.6533 8.98803 11.785 8.34589C11.9167 7.70375 12.2416 7.1139 12.7188 6.65094C13.196 6.18798 13.804 5.8727 14.4659 5.74497C15.1278 5.61724 15.8139 5.68279 16.4374 5.93335C17.0609 6.1839 17.5938 6.60819 17.9687 7.15258C18.3437 7.69696 18.5438 8.33698 18.5438 8.99171C18.5438 9.86966 18.1843 10.7117 17.5444 11.3325C16.9045 11.9533 16.0366 12.302 15.1316 12.302ZM15.1316 7.25645C14.7778 7.25645 14.4319 7.35825 14.1377 7.54896C13.8435 7.73968 13.6142 8.01075 13.4788 8.32789C13.3434 8.64504 13.308 8.99401 13.3771 9.33068C13.4461 9.66734 13.6165 9.97659 13.8668 10.2193C14.117 10.462 14.4358 10.6273 14.7828 10.6942C15.1298 10.7611 15.4895 10.7267 15.8164 10.5953C16.1433 10.4639 16.4227 10.2414 16.6192 9.95599C16.8157 9.67055 16.9206 9.33497 16.9205 8.99171C16.9205 8.76381 16.8743 8.53814 16.7844 8.32759C16.6945 8.11704 16.5627 7.92573 16.3966 7.7646C16.2304 7.60346 16.0332 7.47565 15.8162 7.38846C15.5991 7.30127 15.3665 7.25642 15.1316 7.25645ZM6.83629 8.99171C6.83635 9.33497 6.73147 9.67055 6.53494 9.95599C6.3384 10.2414 6.05903 10.4639 5.73215 10.5953C5.40528 10.7267 5.04557 10.7611 4.69854 10.6942C4.3515 10.6273 4.03272 10.462 3.7825 10.2193C3.53229 9.97659 3.36188 9.66734 3.29283 9.33068C3.22378 8.99401 3.25919 8.64504 3.39458 8.32789C3.52997 8.01075 3.75926 7.73968 4.05346 7.54896C4.34765 7.35825 4.69353 7.25645 5.04736 7.25645C5.52176 7.25645 5.97674 7.43926 6.31222 7.76468C6.6477 8.09009 6.83621 8.53146 6.83629 8.99171Z" fill="black"/>
<path d="M114.336 12.0013C114.205 12.0013 114.076 12.0399 113.967 12.1123C113.858 12.1846 113.773 12.2874 113.722 12.4077C113.672 12.5279 113.659 12.6603 113.685 12.788C113.71 12.9157 113.773 13.0329 113.866 13.125C113.959 13.2171 114.078 13.2797 114.206 13.3051C114.335 13.3305 114.469 13.3175 114.59 13.2677C114.711 13.2179 114.815 13.1335 114.888 13.0253C114.961 12.917 115 12.7897 115 12.6596C115 12.485 114.93 12.3177 114.805 12.1943C114.681 12.0709 114.512 12.0015 114.336 12.0013ZM114.336 13.2142C114.225 13.2142 114.117 13.1817 114.025 13.1207C113.933 13.0598 113.861 12.9732 113.819 12.8718C113.777 12.7705 113.765 12.6589 113.787 12.5513C113.809 12.4438 113.862 12.3449 113.94 12.2674C114.018 12.1898 114.118 12.137 114.227 12.1156C114.335 12.0942 114.448 12.1051 114.55 12.1471C114.652 12.1891 114.74 12.2602 114.801 12.3514C114.863 12.4426 114.896 12.5499 114.896 12.6596C114.895 12.8065 114.836 12.9474 114.731 13.0513C114.626 13.1552 114.484 13.2138 114.336 13.2142ZM114.551 12.5478C114.551 12.4278 114.465 12.3568 114.34 12.3568H114.126V12.956H114.231V12.7385H114.344L114.454 12.956H114.566L114.445 12.7176C114.478 12.7037 114.506 12.68 114.525 12.6495C114.544 12.6191 114.554 12.5835 114.551 12.5478ZM114.335 12.6468H114.232V12.4485H114.335C114.405 12.4485 114.447 12.4834 114.447 12.5478C114.447 12.6121 114.405 12.6468 114.335 12.6468ZM34.3048 5.33925V3.7473H31.8425V13.2201H34.3048V7.54016C34.3048 6.51109 34.9729 6.00782 36.0095 6.00782H37.3569V3.74863H36.2054C35.3045 3.7473 34.521 4.21323 34.3048 5.33925ZM39.6637 0C38.8216 0 38.1754 0.66009 38.1754 1.49474C38.1754 1.68849 38.2139 1.88034 38.2888 2.05935C38.3636 2.23835 38.4732 2.401 38.6114 2.538C38.7496 2.67501 38.9137 2.78368 39.0943 2.85783C39.2749 2.93197 39.4685 2.97013 39.664 2.97013C39.8594 2.97013 40.053 2.93197 40.2336 2.85783C40.4142 2.78368 40.5783 2.67501 40.7165 2.538C40.8547 2.401 40.9644 2.23835 41.0392 2.05935C41.114 1.88034 41.1525 1.68849 41.1525 1.49474C41.1533 0.66009 40.506 0 39.6637 0ZM38.4344 13.2201H40.8911V3.7473H38.4363L38.4344 13.2201ZM52.5966 8.48368C52.5966 11.1879 50.3849 13.38 47.6567 13.38C46.6103 13.3842 45.5916 13.0461 44.7588 12.418V16H42.3021V3.7473H44.7588V4.54831C45.5923 3.92022 46.6116 3.58241 47.6586 3.58731C50.3868 3.58731 52.5985 5.77949 52.5985 8.48368H52.5966ZM50.1238 8.48368C50.1238 7.95758 49.9665 7.44329 49.6716 7.00586C49.3767 6.56842 48.9575 6.22749 48.4672 6.02618C47.9768 5.82486 47.4372 5.77219 46.9166 5.87485C46.396 5.97751 45.9179 6.23087 45.5426 6.6029C45.1673 6.97492 44.9117 7.44891 44.8082 7.96491C44.7047 8.48091 44.7579 9.01575 44.961 9.50178C45.1642 9.98782 45.5082 10.4032 45.9495 10.6955C46.3909 10.9877 46.9098 11.1437 47.4405 11.1436C47.793 11.1438 48.1421 11.0751 48.4679 10.9415C48.7936 10.8079 49.0896 10.612 49.3389 10.365C49.5882 10.118 49.786 9.82469 49.9209 9.50189C50.0558 9.17908 50.1252 8.83309 50.1252 8.48368H50.1238ZM95.3071 7.65274L93.8736 7.26283C92.9306 7.01967 92.5642 6.73307 92.5642 6.23879C92.5642 5.75697 93.0805 5.42057 93.8202 5.42057C94.5241 5.42057 95.0762 5.87776 95.0762 6.4613V6.51427H97.3408V6.4613C97.3408 4.7422 95.9263 3.58731 93.8207 3.58731C91.7349 3.58731 90.221 4.74141 90.221 6.3315C90.221 7.56877 91.0495 8.50063 92.4926 8.88815L93.8656 9.25899C94.9078 9.54506 95.2964 9.86292 95.2964 10.4316C95.2964 11.0321 94.7352 11.4355 93.9017 11.4355C93.0318 11.4355 92.4474 10.8904 92.4474 10.0793V10.0264H90.0423V10.0793C90.0423 12.0228 91.6208 13.38 93.8809 13.38C96.0588 13.38 97.6395 12.0556 97.6395 10.2279C97.6398 9.33395 97.2344 8.16185 95.309 7.65274H95.3071ZM61.3146 3.7473H63.7713V13.2201H61.3146V12.418C60.4811 13.0461 59.4617 13.3839 58.4146 13.379C55.6864 13.379 53.4747 11.1868 53.4747 8.48262C53.4747 5.77843 55.6864 3.58625 58.4146 3.58625C59.4617 3.58131 60.4811 3.91912 61.3146 4.54725V3.7473ZM61.3146 8.48394C61.3146 7.95786 61.1572 7.44362 60.8622 7.00622C60.5673 6.56883 60.1482 6.22794 59.6578 6.02665C59.1675 5.82537 58.6279 5.77273 58.1073 5.87539C57.5868 5.97806 57.1087 6.23141 56.7334 6.60343C56.3581 6.97544 56.1025 7.4494 55.999 7.96537C55.8955 8.48135 55.9486 9.01616 56.1518 9.50219C56.3549 9.98822 56.6989 10.4036 57.1402 10.6959C57.5815 10.9882 58.1003 11.1442 58.6311 11.1442C58.9836 11.1443 59.3328 11.0756 59.6586 10.942C59.9844 10.8083 60.2804 10.6124 60.5298 10.3653C60.7791 10.1182 60.9769 9.82478 61.1118 9.50188C61.2467 9.17898 61.3161 8.8329 61.316 8.48341L61.3146 8.48394ZM72.6455 0.375606H75.1022V13.2201H72.6455V12.418C71.8119 13.0461 70.7925 13.3839 69.7454 13.379C67.0172 13.379 64.8055 11.1868 64.8055 8.48262C64.8055 5.77843 67.0172 3.58625 69.7454 3.58625C70.7925 3.58131 71.8119 3.91912 72.6455 4.54725V0.375606ZM72.6455 8.48368C72.6455 7.95759 72.4881 7.44331 72.1932 7.00589C71.8983 6.56846 71.4792 6.22752 70.9888 6.0262C70.4985 5.82487 69.9589 5.7722 69.4383 5.87483C68.9178 5.97747 68.4396 6.2308 68.0643 6.6028C67.689 6.97481 67.4334 7.44877 67.3298 7.96475C67.2263 8.48073 67.2794 9.01556 67.4826 9.5016C67.6857 9.98764 68.0296 10.4031 68.4709 10.6954C68.9123 10.9876 69.4311 11.1436 69.9619 11.1436C70.3143 11.1437 70.6633 11.075 70.989 10.9413C71.3146 10.8077 71.6105 10.6117 71.8597 10.3647C72.1089 10.1177 72.3066 9.82446 72.4415 9.5017C72.5764 9.17895 72.6455 8.83302 72.6455 8.48368ZM86.5124 13.2201H88.9691V3.7473H86.5124V13.2201ZM87.7416 0C86.8993 0 86.2531 0.66009 86.2531 1.49474C86.2531 1.88604 86.41 2.26131 86.6891 2.538C86.9683 2.81469 87.3469 2.97013 87.7416 2.97013C88.1364 2.97013 88.515 2.81469 88.7942 2.538C89.0733 2.26131 89.2301 1.88604 89.2301 1.49474C89.2296 0.66009 88.5837 0 87.7416 0ZM108.261 8.48368C108.261 11.1879 106.049 13.38 103.321 13.38C100.593 13.38 98.3811 11.1879 98.3811 8.48368C98.3811 5.77949 100.593 3.58731 103.321 3.58731C106.049 3.58731 108.261 5.77949 108.261 8.48368ZM106.005 8.48368C106.005 7.95759 105.847 7.44331 105.552 7.00589C105.257 6.56846 104.838 6.22752 104.348 6.0262C103.858 5.82487 103.318 5.7722 102.797 5.87483C102.277 5.97747 101.799 6.2308 101.423 6.6028C101.048 6.97481 100.793 7.44877 100.689 7.96475C100.585 8.48073 100.639 9.01556 100.842 9.5016C101.045 9.98764 101.389 10.4031 101.83 10.6954C102.271 10.9876 102.79 11.1436 103.321 11.1436C103.673 11.1436 104.022 11.0748 104.348 10.9412C104.673 10.8075 104.969 10.6115 105.218 10.3645C105.468 10.1175 105.665 9.8243 105.8 9.50158C105.935 9.17886 106.005 8.83298 106.005 8.48368ZM33.0491 0.375606H23.621V2.54765H27.11V13.2193H29.5581V2.54844H33.0472L33.0491 0.375606ZM80.72 10.6266L78.5324 3.7473H75.9514L79.2302 13.2201H82.1869L85.4848 3.7473H82.9039L80.72 10.6266ZM111.863 5.33978V3.74783H109.398V13.2206H111.862V7.54016C111.862 6.51136 112.528 6.00649 113.565 6.00649H114.913V3.7473H113.761C112.86 3.7473 112.077 4.21323 111.861 5.33925L111.863 5.33978Z" fill="black"/>
</svg>
