<svg width="20" height="18" viewBox="0 0 20 18" fill="none" xmlns="http://www.w3.org/2000/svg">
<path d="M5.49435 17.5H0V7.35157H3.85542V7.87907H0.544294V16.9725H4.95006V7.61532H5.49435V17.5Z" fill="#2E0049"/>
<path d="M20 17.5H14.5026V7.61532H15.0469V16.9725H19.4557V7.87907H16.1416V7.35157H20V17.5Z" fill="#2E0049"/>
<path d="M15.0466 17.5H4.9499V3.09943H6.74305V3.62693H5.4942V16.9725H14.5023V3.62693H13.2534V3.09943H15.0466V17.5Z" fill="#2E0049"/>
<path d="M3.53808 9.18315H1.95311V9.7108H3.53808V9.18315Z" fill="#2E0049"/>
<path d="M3.53808 10.8154H1.95311V11.3431H3.53808V10.8154Z" fill="#2E0049"/>
<path d="M3.53808 12.4478H1.95311V12.9754H3.53808V12.4478Z" fill="#2E0049"/>
<path d="M3.53808 14.08H1.95311V14.6077H3.53808V14.08Z" fill="#2E0049"/>
<path d="M18.0466 9.18315H16.4586V9.7108H18.0466V9.18315Z" fill="#2E0049"/>
<path d="M7.83803 6.30538H7.12721V6.83303H7.83803V6.30538Z" fill="#2E0049"/>
<path d="M7.83803 7.76483H7.12721V8.29248H7.83803V7.76483Z" fill="#2E0049"/>
<path d="M7.83803 9.22712H7.12721V9.75477H7.83803V9.22712Z" fill="#2E0049"/>
<path d="M7.83803 10.6865H7.12721V11.2141H7.83803V10.6865Z" fill="#2E0049"/>
<path d="M7.83803 12.1459H7.12721V12.6735H7.83803V12.1459Z" fill="#2E0049"/>
<path d="M10.3539 6.30538H9.64305V6.83303H10.3539V6.30538Z" fill="#2E0049"/>
<path d="M10.3539 7.76483H9.64305V8.29248H10.3539V7.76483Z" fill="#2E0049"/>
<path d="M10.3539 9.22712H9.64305V9.75477H10.3539V9.22712Z" fill="#2E0049"/>
<path d="M10.3539 10.6865H9.64305V11.2141H10.3539V10.6865Z" fill="#2E0049"/>
<path d="M10.3539 12.1459H9.64305V12.6735H10.3539V12.1459Z" fill="#2E0049"/>
<path d="M12.876 6.30538H12.1622V6.83303H12.876V6.30538Z" fill="#2E0049"/>
<path d="M12.876 7.76483H12.1622V8.29248H12.876V7.76483Z" fill="#2E0049"/>
<path d="M12.876 9.22712H12.1622V9.75477H12.876V9.22712Z" fill="#2E0049"/>
<path d="M12.876 10.6865H12.1622V11.2141H12.876V10.6865Z" fill="#2E0049"/>
<path d="M12.876 12.1459H12.1622V12.6735H12.876V12.1459Z" fill="#2E0049"/>
<path d="M18.0466 10.8154H16.4586V11.3431H18.0466V10.8154Z" fill="#2E0049"/>
<path d="M18.0466 12.4478H16.4586V12.9754H18.0466V12.4478Z" fill="#2E0049"/>
<path d="M18.0466 14.08H16.4586V14.6077H18.0466V14.08Z" fill="#2E0049"/>
<path d="M11.5732 16.2024H11.0287V14.5198H8.97188V16.2024H8.4244V13.9921H11.5732V16.2024Z" fill="#2E0049"/>
<path d="M12.2512 5.38936H7.74732V1.33523H12.2512V5.38936ZM8.29178 4.8617H11.7037V1.86582H8.29178V4.8617Z" fill="#2E0049"/>
<path d="M9.64023 2.59829H9.09578V4.12554H9.64023V2.59829Z" fill="#2E0049"/>
<path d="M10.9014 2.59827H10.357V4.12553H10.9014V2.59827Z" fill="#2E0049"/>
<path d="M10.5658 3.09955H9.36799V3.6272H10.5658V3.09955Z" fill="#2E0049"/>
<path d="M10.2722 0.5H9.72776V1.60221H10.2722V0.5Z" fill="#2E0049"/>
<path d="M3.01799 6.66582H2.47353V7.61559H3.01799V6.66582Z" fill="#2E0049"/>
<path d="M17.5235 6.66582H16.979V7.61559H17.5235V6.66582Z" fill="#2E0049"/>
</svg>
