<svg width="20" height="18" viewBox="0 0 20 18" fill="none" xmlns="http://www.w3.org/2000/svg">
<path d="M10.1798 2.28999C6.37979 2.28999 3.28979 5.37999 3.28979 9.17999C3.28979 12.98 6.37979 16.07 10.1798 16.07C13.9798 16.07 17.0698 12.98 17.0698 9.17999C17.0698 5.37999 13.9798 2.28999 10.1798 2.28999ZM10.1798 15.27C6.81979 15.27 4.07979 12.53 4.07979 9.16999C4.07979 5.80999 6.81979 3.06999 10.1798 3.06999C13.5398 3.06999 16.2798 5.80999 16.2798 9.16999C16.2798 12.53 13.5398 15.27 10.1798 15.27ZM10.1798 3.67999C7.14979 3.67999 4.67978 6.13999 4.67978 9.17999C4.67978 12.22 7.13979 14.68 10.1798 14.68C13.2198 14.68 15.6798 12.22 15.6798 9.17999C15.6798 6.13999 13.2098 3.67999 10.1798 3.67999ZM10.1798 13.88C7.57979 13.88 5.46978 11.77 5.46978 9.16999C5.46978 6.56999 7.57979 4.45999 10.1798 4.45999C12.7798 4.45999 14.8898 6.56999 14.8898 9.16999C14.8898 11.77 12.7798 13.88 10.1798 13.88ZM2.95979 6.21999C3.17979 6.21999 3.34979 6.03999 3.34979 5.82999V1.36999C3.34979 1.14999 3.16979 0.979993 2.95979 0.979993C2.74979 0.979993 2.56979 1.15999 2.56979 1.36999V3.16999H2.07979V1.36999C2.07979 1.14999 1.89979 0.979993 1.68979 0.979993C1.47979 0.979993 1.29979 1.15999 1.29979 1.36999V3.16999H0.809785V1.36999C0.809785 1.14999 0.629785 0.979993 0.419785 0.979993C0.209785 0.979993 0.0297852 1.15999 0.0297852 1.36999V5.82999C0.0297852 6.04999 0.209785 6.21999 0.419785 6.21999C0.579785 6.21999 0.709785 6.34999 0.709785 6.50999L0.209785 16.08C0.209785 16.9 0.879785 17.57 1.69979 17.57C2.51979 17.57 3.18979 16.9 3.18979 16.06L2.68979 6.50999C2.68979 6.34999 2.81979 6.21999 2.97979 6.21999H2.95979ZM2.55979 5.49999C2.27979 5.60999 2.05979 5.82999 1.94979 6.10999H1.39979C1.28979 5.82999 1.06979 5.60999 0.789785 5.49999V3.93999H2.55979V5.49999ZM1.67979 16.78C1.28979 16.78 0.979785 16.47 0.979785 16.1L1.45979 6.90999H1.89979L2.37979 16.08C2.37979 16.47 2.06979 16.78 1.67979 16.78ZM19.6098 0.429993C18.3998 0.429993 17.4098 1.41999 17.4098 2.62999V9.09999C17.4098 9.42999 17.6298 9.68999 17.9298 9.77999L17.0298 16.07C17.0298 16.89 17.6998 17.56 18.5198 17.56C19.3398 17.56 20.0098 16.89 20.0098 16.07V0.429993H19.6198H19.6098ZM18.1898 2.63999C18.1898 1.99999 18.6198 1.44999 19.2098 1.27999V9.03999H18.3698C18.2998 9.03999 18.2498 9.07999 18.1898 9.10999V2.63999ZM19.2098 16.07C19.2098 16.46 18.8998 16.77 18.5098 16.77C18.1198 16.77 17.8098 16.46 17.7998 16.12L18.7098 9.81999H19.2098V16.07Z" fill="#2E0049"/>
</svg>
