<svg width="21" height="14" viewBox="0 0 21 14" fill="none" xmlns="http://www.w3.org/2000/svg">
<path d="M10.3314 4.05164C8.25067 4.05164 6.56006 5.70473 6.56006 7.73931C6.56006 9.77388 8.25067 11.427 10.3314 11.427C12.4122 11.427 14.1028 9.77388 14.1028 7.73931C14.1028 5.70473 12.4122 4.05164 10.3314 4.05164ZM10.3314 10.7291C8.64686 10.7291 7.27381 9.38944 7.27381 7.73931C7.27381 6.08917 8.64383 4.74954 10.3314 4.74954C12.019 4.74954 13.389 6.08917 13.389 7.73931C13.389 9.38944 12.019 10.7291 10.3314 10.7291Z" fill="#2E0049"/>
<path d="M5.25717 10.463C4.9849 10.6316 4.90624 10.9836 5.07868 11.2498C5.25112 11.5161 5.61112 11.593 5.8834 11.4244C6.15567 11.2558 6.555 10.3299 6.555 10.3299C6.555 10.3299 5.52944 10.2914 5.25717 10.463Z" fill="#2E0049"/>
<path d="M19.9764 4.2823H19.2445V2.32461C19.2445 2.13239 19.0842 1.97566 18.8876 1.97566H7.06848V0.848954C7.06848 0.656733 6.90818 0.5 6.7116 0.5H4.14696C3.95037 0.5 3.79008 0.656733 3.79008 0.848954V1.97566H1.77889C1.58231 1.97566 1.42202 2.13239 1.42202 2.32461V4.2823H0.690123C0.49354 4.2823 0.333252 4.43904 0.333252 4.63126C0.333252 4.82348 0.49354 4.98021 0.690123 4.98021H1.42202V13.151C1.42202 13.3433 1.58231 13.5 1.77889 13.5H18.8876C19.0842 13.5 19.2445 13.3433 19.2445 13.151V4.98021H19.9764C20.173 4.98021 20.3333 4.82348 20.3333 4.63126C20.3333 4.43904 20.173 4.2823 19.9764 4.2823ZM18.5277 2.67357V3.48385H15.3884V2.67357H18.5277ZM4.5008 1.19791H6.3517V1.97566H4.5008V1.19791ZM2.13274 12.8021V2.67357H14.6747V3.8328C14.6747 4.02502 14.835 4.18176 15.0316 4.18176H18.5277V12.8021H2.13274Z" fill="#2E0049"/>
</svg>
