<svg width="20" height="22" viewBox="0 0 20 22" fill="none" xmlns="http://www.w3.org/2000/svg">
<path d="M11.3271 10.9367L10.6474 11.2078L11.1011 12.2684L11.7808 11.9974L11.3271 10.9367Z" fill="#2E0049"/>
<path d="M6.57718 9.92754L6 12.0503L6.71128 12.2306L7.28846 10.1078L6.57718 9.92754Z" fill="#2E0049"/>
<path d="M8.89244 10.8383C6.70923 10.8383 4.86761 8.29297 4.86761 5.28159H5.60278C5.60278 7.86277 7.13993 10.1285 8.89244 10.1285C10.645 10.1285 12.1821 7.86277 12.1821 5.28159H12.9173C12.9173 8.29297 11.0757 10.8383 8.89244 10.8383Z" fill="#2E0049"/>
<path d="M6.94338 5.34254C6.36044 5.34254 5.69211 5.26366 4.91981 5.06291L4.77873 5.02706L4.70075 4.90517C4.67476 4.86573 4.07326 3.89062 4.42228 2.81513C4.66362 2.06587 5.29112 1.47076 6.28619 1.04773C9.03006 -0.124556 11.8445 0.786028 12.8284 1.89737C13.7975 2.99437 13.0363 4.76535 13.0029 4.84064L12.3272 4.56459C12.3272 4.56459 12.9435 3.11985 12.2715 2.35625C11.6031 1.59982 9.16744 0.588854 6.58694 1.69661C5.79608 2.03718 5.30597 2.48531 5.12775 3.03022C4.93839 3.61099 5.15373 4.181 5.26883 4.4212C7.47061 4.95536 8.65504 4.38535 9.52759 3.9659C10.0845 3.70061 10.5635 3.46759 11.1019 3.62892L10.8865 4.30648C10.6415 4.23478 10.3519 4.36384 9.85433 4.60044C9.19343 4.91592 8.2986 5.34612 6.94338 5.34612V5.34254Z" fill="#2E0049"/>
<path d="M17.7813 21.5H0V16.1835C0 13.7564 2.1758 11.7811 4.84912 11.7811H6.58678L6.68331 11.9962C7.12515 12.9785 8.1128 13.3298 8.89252 13.3298C9.67224 13.3298 10.6599 12.9785 11.1017 11.9926L11.1983 11.7775H12.9359C13.4743 11.7775 14.0015 11.8564 14.5102 12.0141L14.2837 12.6881C13.853 12.5555 13.3963 12.4838 12.9359 12.4838H11.6698C11.1389 13.4446 10.0955 14.0325 8.89252 14.0325C7.68952 14.0325 6.64618 13.4446 6.11523 12.4838H4.84912C2.58051 12.4838 0.735168 14.14 0.735168 16.1763V20.783H17.0462V16.1763C17.0462 15.2729 16.6786 14.4017 16.0102 13.7278L16.5412 13.2366C17.3395 14.0468 17.7813 15.0901 17.7813 16.1763V21.5Z" fill="#2E0049"/>
<path d="M15.0339 8.77337H14.2988V16.6424H15.0339V8.77337Z" fill="#2E0049"/>
<path d="M20 10.6637H14.3026V7.08839H20L18.8264 8.87783L20 10.6637ZM15.038 9.95364H18.6667L17.961 8.87424L18.6667 7.79484H15.038V9.95364Z" fill="#2E0049"/>
<path d="M12.3993 12.3815L10.1799 17.2957L10.854 17.5795L13.0734 12.6653L12.3993 12.3815Z" fill="#2E0049"/>
<path d="M5.37913 12.38L4.70848 12.6713L6.99702 17.5834L7.66767 17.2921L5.37913 12.38Z" fill="#2E0049"/>
<path d="M11.3521 19.8016H6.43094V17.0869H11.3521V19.8016ZM7.16632 19.0915H10.6167V17.7934H7.16632V19.0915Z" fill="#2E0049"/>
</svg>
