<svg width="21" height="18" viewBox="0 0 21 18" fill="none" xmlns="http://www.w3.org/2000/svg">
<path d="M19.277 4.34003H18.137V4.09003C18.137 3.70003 17.817 3.38003 17.427 3.38003H15.787V1.46003C15.787 0.670029 15.147 0.0300293 14.357 0.0300293H6.99701C6.20701 0.0300293 5.56701 0.670029 5.56701 1.46003V3.38003H3.92701C3.53701 3.38003 3.21701 3.70003 3.21701 4.09003V4.34003H2.07701C1.30701 4.34003 0.687012 4.97003 0.687012 5.73003V16.5C0.687012 17.27 1.31701 17.89 2.07701 17.89H19.287C20.057 17.89 20.677 17.26 20.677 16.5V5.73003C20.677 4.96003 20.047 4.34003 19.287 4.34003H19.277ZM17.327 4.18003V5.89003H15.767V4.18003H17.327ZM5.64701 6.68003C6.03701 6.68003 6.35701 6.36003 6.35701 5.97003V5.13003H14.977V5.97003C14.977 6.36003 15.297 6.68003 15.687 6.68003H16.157V17.1H5.17701V6.68003H5.64701ZM13.517 4.34003H7.80701V2.76003C7.80701 2.43003 8.07701 2.16003 8.40701 2.16003H12.927C13.257 2.16003 13.527 2.43003 13.527 2.76003V4.34003H13.517ZM6.35701 1.46003C6.35701 1.11003 6.63701 0.830029 6.98701 0.830029H14.347C14.697 0.830029 14.977 1.11003 14.977 1.46003V4.34003H14.317V2.76003C14.317 1.99003 13.687 1.37003 12.927 1.37003H8.40701C7.63701 1.37003 7.01701 2.00003 7.01701 2.76003V4.34003H6.35701V1.46003ZM3.99701 4.18003H5.55701V5.89003H3.99701V4.18003ZM1.46701 16.51V5.74003C1.46701 5.41003 1.73701 5.14003 2.06701 5.14003H3.20701V5.98003C3.20701 6.37003 3.52701 6.69003 3.91701 6.69003H4.38701V17.11H2.06701C1.73701 17.11 1.46701 16.84 1.46701 16.51ZM19.867 16.51C19.867 16.84 19.597 17.11 19.267 17.11H16.947V6.69003H17.417C17.807 6.69003 18.127 6.37003 18.127 5.98003V5.14003H19.267C19.597 5.14003 19.867 5.41003 19.867 5.74003V16.51ZM10.657 15.52C13.077 15.52 15.047 13.55 15.047 11.13C15.047 8.71003 13.077 6.74003 10.657 6.74003C8.23701 6.74003 6.26701 8.71003 6.26701 11.13C6.26701 13.55 8.23701 15.52 10.657 15.52ZM10.657 7.52003C12.637 7.52003 14.257 9.13003 14.257 11.12C14.257 13.11 12.647 14.72 10.657 14.72C8.66701 14.72 7.05701 13.11 7.05701 11.12C7.05701 9.13003 8.66701 7.52003 10.657 7.52003ZM9.38701 12.43V13.41C9.38701 13.79 9.69701 14.11 10.087 14.11H11.227C11.607 14.11 11.927 13.8 11.927 13.41V12.43H12.917C13.297 12.43 13.617 12.12 13.617 11.73V10.52C13.617 10.14 13.307 9.82003 12.917 9.82003H11.927V8.84003C11.927 8.46003 11.617 8.14003 11.227 8.14003H10.087C9.70701 8.14003 9.38701 8.45003 9.38701 8.84003V9.82003H8.39701C8.01701 9.82003 7.69701 10.13 7.69701 10.52V11.73C7.69701 12.11 8.00701 12.43 8.39701 12.43H9.38701ZM8.49701 10.62H10.187V8.94003H11.137V10.62H12.827V11.63H11.137V13.31H10.187V11.63H8.49701V10.62Z" fill="#2E0049"/>
</svg>
