<svg width="20" height="20" viewBox="0 0 20 20" fill="none" xmlns="http://www.w3.org/2000/svg">
<path d="M18.4055 3.58433H17.6082V1.63543C17.6082 0.732539 16.8756 0 15.9727 0H4.02385C3.12777 0 2.39182 0.732539 2.39182 1.63543V3.58433H1.59455C0.712096 3.58433 0 4.29983 0 5.17888V7.97956H2.38841V17.1993H3.18569V18.4055C3.18569 19.2879 3.89779 20 4.78024 20H5.58773C6.46337 20 7.18228 19.2879 7.18228 18.4055V17.1993H12.8177V18.4055C12.8177 19.2879 13.5298 20 14.4123 20H15.2198C16.0954 20 16.8143 19.2879 16.8143 18.4055V17.1993H17.6116V7.97956H20V5.17888C20 4.30324 19.2845 3.58433 18.4055 3.58433ZM2.39182 7.17888H0.797273V5.17547C0.797273 4.73935 1.15162 4.37819 1.59455 4.37819H2.39182V7.17888ZM6.38501 18.402C6.38501 18.8416 6.03066 19.1993 5.58773 19.1993H4.78024C4.34072 19.1993 3.98297 18.845 3.98297 18.402V17.1959H6.38501V18.402ZM11.8126 16.3986H8.18058V14.8041H11.8126V16.3986ZM16.0136 18.402C16.0136 18.8416 15.6525 19.1993 15.2164 19.1993H14.4089C13.9693 19.1993 13.6116 18.845 13.6116 18.402V17.1959H16.0136V18.402ZM16.8109 14.0102H14.4055V14.8075H16.8109V16.402H12.6099V14.0136H7.38331V16.402H3.18569V14.8075H5.59114V14.0102H3.18569V11.2913L3.41397 11.322C7.76491 11.9659 12.2249 11.9659 16.5792 11.322L16.8075 11.2913V14.0102H16.8109ZM16.8109 10.4838L16.6405 10.5111C14.4361 10.845 12.2147 11.0119 9.99659 11.0119C7.77853 11.0119 5.56047 10.8484 3.35604 10.5111L3.18569 10.4838V3.18569H16.8109V10.4838ZM16.8109 2.38842H3.18569V1.63543C3.18569 1.17206 3.55707 0.797274 4.02044 0.797274H15.9693C16.4327 0.797274 16.8075 1.17547 16.8075 1.63543V2.38842H16.8109ZM19.1993 7.17888H17.6048V4.37819H18.402C18.8382 4.37819 19.1993 4.73935 19.1993 5.17547V7.17888Z" fill="#2E0049"/>
</svg>
