<svg width="14" height="14" viewBox="0 0 14 14" fill="none" xmlns="http://www.w3.org/2000/svg">
<path d="M6.99992 13.6666C6.0777 13.6666 5.21103 13.4915 4.39992 13.1413C3.58881 12.791 2.88325 12.3161 2.28325 11.7166C1.68325 11.117 1.20836 10.4115 0.858586 9.59992C0.508808 8.78836 0.333697 7.9217 0.333253 6.99992C0.332808 6.07814 0.50792 5.21147 0.858586 4.39992C1.20925 3.58836 1.68414 2.88281 2.28325 2.28325C2.88236 1.6837 3.58792 1.20881 4.39992 0.858585C5.21192 0.508363 6.07859 0.333252 6.99992 0.333252C7.92125 0.333252 8.78792 0.508363 9.59992 0.858585C10.4119 1.20881 11.1175 1.6837 11.7166 2.28325C12.3157 2.88281 12.7908 3.58836 13.1419 4.39992C13.493 5.21147 13.6679 6.07814 13.6666 6.99992C13.6653 7.9217 13.4901 8.78836 13.1413 9.59992C12.7924 10.4115 12.3175 11.117 11.7166 11.7166C11.1157 12.3161 10.4101 12.7913 9.59992 13.1419C8.7897 13.4926 7.92303 13.6675 6.99992 13.6666ZM6.33325 12.2999V10.9999C5.96659 10.9999 5.65281 10.8695 5.39192 10.6086C5.13103 10.3477 5.00036 10.0337 4.99992 9.66659V8.99992L1.79992 5.79992C1.76659 5.99992 1.73614 6.19992 1.70859 6.39992C1.68103 6.59992 1.66703 6.79992 1.66659 6.99992C1.66659 8.34436 2.10836 9.52214 2.99192 10.5333C3.87547 11.5444 4.98925 12.1333 6.33325 12.2999ZM10.9333 10.5999C11.3888 10.0999 11.7361 9.5417 11.9753 8.92525C12.2144 8.30881 12.3337 7.66703 12.3333 6.99992C12.3333 5.91103 12.0306 4.91659 11.4253 4.01659C10.8199 3.11659 10.0115 2.46659 8.99992 2.06659V2.33325C8.99992 2.69992 8.86948 3.01392 8.60859 3.27525C8.3477 3.53659 8.0337 3.66703 7.66659 3.66659H6.33325V4.99992C6.33325 5.18881 6.26925 5.34725 6.14125 5.47525C6.01325 5.60325 5.85503 5.66703 5.66659 5.66659H4.33325V6.99992H8.33325C8.52214 6.99992 8.68059 7.06392 8.80859 7.19192C8.93659 7.31992 9.00036 7.47814 8.99992 7.66659V9.66659H9.66659C9.95547 9.66659 10.2166 9.75281 10.4499 9.92525C10.6833 10.0977 10.8444 10.3226 10.9333 10.5999Z" fill="#2E0049"/>
</svg>
