<svg width="12" height="12" viewBox="0 0 12 12" fill="none" xmlns="http://www.w3.org/2000/svg">
<path d="M5.4751 6.35002L4.7501 5.63752C4.65843 5.54585 4.54393 5.50002 4.4066 5.50002C4.26926 5.50002 4.15043 5.55002 4.0501 5.65002C3.95843 5.74169 3.9126 5.85835 3.9126 6.00002C3.9126 6.14169 3.95843 6.25835 4.0501 6.35002L5.1251 7.42502C5.2251 7.52502 5.34176 7.57502 5.4751 7.57502C5.60843 7.57502 5.7251 7.52502 5.8251 7.42502L7.9501 5.30002C8.0501 5.20002 8.09793 5.08335 8.0936 4.95002C8.08926 4.81669 8.04143 4.70002 7.9501 4.60002C7.8501 4.50002 7.73143 4.44802 7.5941 4.44402C7.45676 4.44002 7.33793 4.48785 7.2376 4.58752L5.4751 6.35002ZM4.0751 10.875L3.3501 9.65002L1.9751 9.35002C1.8501 9.32502 1.7501 9.26052 1.6751 9.15652C1.6001 9.05252 1.57093 8.93785 1.5876 8.81252L1.7251 7.40002L0.787598 6.32502C0.704264 6.23335 0.662598 6.12502 0.662598 6.00002C0.662598 5.87502 0.704264 5.76669 0.787598 5.67502L1.7251 4.60002L1.5876 3.18752C1.57093 3.06252 1.6001 2.94785 1.6751 2.84352C1.7501 2.73919 1.8501 2.67469 1.9751 2.65002L3.3501 2.35002L4.0751 1.12502C4.14176 1.01669 4.23343 0.943686 4.3501 0.90602C4.46676 0.868353 4.58343 0.874686 4.7001 0.92502L6.0001 1.47502L7.3001 0.92502C7.41676 0.87502 7.53343 0.868686 7.6501 0.90602C7.76676 0.943353 7.85843 1.01635 7.9251 1.12502L8.6501 2.35002L10.0251 2.65002C10.1501 2.67502 10.2501 2.73969 10.3251 2.84402C10.4001 2.94835 10.4293 3.06285 10.4126 3.18752L10.2751 4.60002L11.2126 5.67502C11.2959 5.76669 11.3376 5.87502 11.3376 6.00002C11.3376 6.12502 11.2959 6.23335 11.2126 6.32502L10.2751 7.40002L10.4126 8.81252C10.4293 8.93752 10.4001 9.05219 10.3251 9.15652C10.2501 9.26085 10.1501 9.32535 10.0251 9.35002L8.6501 9.65002L7.9251 10.875C7.85843 10.9834 7.76676 11.0564 7.6501 11.094C7.53343 11.1317 7.41676 11.1254 7.3001 11.075L6.0001 10.525L4.7001 11.075C4.58343 11.125 4.46676 11.1314 4.3501 11.094C4.23343 11.0567 4.14176 10.9837 4.0751 10.875Z" fill="#2668E3"/>
</svg>
